%TF.GenerationSoftware,KiCad,Pcbnew,(6.0.9)*%
%TF.CreationDate,2023-05-23T12:27:55-07:00*%
%TF.ProjectId,Keycad_fun,4b657963-6164-45f6-9675-6e2e6b696361,rev?*%
%TF.SameCoordinates,Original*%
%TF.FileFunction,Drillmap*%
%TF.FilePolarity,Positive*%
%FSLAX45Y45*%
G04 Gerber Fmt 4.5, Leading zero omitted, Abs format (unit mm)*
G04 Created by KiCad (PCBNEW (6.0.9)) date 2023-05-23 12:27:55*
%MOMM*%
%LPD*%
G01*
G04 APERTURE LIST*
%ADD10C,0.050000*%
%ADD11C,0.200000*%
%ADD12C,0.160000*%
%ADD13C,0.190000*%
%ADD14C,0.305000*%
%ADD15C,0.505000*%
G04 APERTURE END LIST*
D10*
X10400000Y-12800000D02*
X9600000Y-10700000D01*
X17400000Y-10000000D02*
X16800000Y-11400000D01*
X21000000Y-5000000D02*
X21000000Y-5400000D01*
X18600000Y-9700000D02*
X18600000Y-9900000D01*
X19200000Y-11400000D02*
X20400000Y-13900000D01*
X19200000Y-5400000D02*
X18900000Y-5400000D01*
X20400000Y-13900000D02*
X21900000Y-13100000D01*
X18600000Y-9900000D02*
X18600000Y-10000000D01*
X21000000Y-5400000D02*
X19200000Y-5400000D01*
X28200000Y-4600000D02*
X26400000Y-4600000D01*
X26400000Y-4200000D02*
X24600000Y-4200000D01*
X22800000Y-4600000D02*
X22800000Y-5000000D01*
X28200000Y-5000000D02*
X28200000Y-4600000D01*
X18600000Y-10000000D02*
X19200000Y-11400000D01*
X25600000Y-12800000D02*
X26400000Y-10700000D01*
X21900000Y-13100000D02*
X25600000Y-12800000D01*
X26400000Y-4600000D02*
X26400000Y-4200000D01*
X24600000Y-4600000D02*
X22800000Y-4600000D01*
X24600000Y-4200000D02*
X24600000Y-4600000D01*
X18800000Y-5400000D02*
X18600000Y-5400000D01*
X18900000Y-5400000D02*
X18800000Y-5400000D01*
X17200000Y-5400000D02*
X17400000Y-5400000D01*
X16800000Y-5400000D02*
X17100000Y-5400000D01*
X18600000Y-9090000D02*
G75*
G03*
X18600000Y-9090000I-20000J0D01*
G01*
X18600000Y-5790000D02*
G75*
G03*
X18600000Y-5790000I-20000J0D01*
G01*
X18600000Y-9270000D02*
G75*
G03*
X18600000Y-9270000I-20000J0D01*
G01*
X17440000Y-5850000D02*
G75*
G03*
X17440000Y-5850000I-20000J0D01*
G01*
X6700000Y-5000000D02*
X7300000Y-5000000D01*
X9600000Y-4200000D02*
X11400000Y-4200000D01*
X7300000Y-5000000D02*
X7800000Y-5000000D01*
X4000000Y-9700000D02*
X4000000Y-10200000D01*
X13200000Y-4600000D02*
X13200000Y-5000000D01*
X17440000Y-8910000D02*
G75*
G03*
X17440000Y-8910000I-20000J0D01*
G01*
X21000000Y-5000000D02*
X21700000Y-5000000D01*
X22300000Y-5000000D02*
X22800000Y-5000000D01*
X4000000Y-5700000D02*
X4000000Y-5000000D01*
X17400000Y-5700000D02*
X18600000Y-5700000D01*
X17400000Y-9900000D02*
X17400000Y-10000000D01*
X32000000Y-9700000D02*
X32000000Y-6300000D01*
X17400000Y-8700000D02*
X17400000Y-6300000D01*
X13200000Y-5000000D02*
X13700000Y-5000000D01*
X17440000Y-9090000D02*
G75*
G03*
X17440000Y-9090000I-20000J0D01*
G01*
X18600000Y-5730000D02*
G75*
G03*
X18600000Y-5730000I-20000J0D01*
G01*
X18600000Y-8790000D02*
G75*
G03*
X18600000Y-8790000I-20000J0D01*
G01*
X4000000Y-5700000D02*
X4000000Y-6300000D01*
X6700000Y-5000000D02*
X5800000Y-5000000D01*
X18600000Y-6090000D02*
G75*
G03*
X18600000Y-6090000I-20000J0D01*
G01*
X17440000Y-5730000D02*
G75*
G03*
X17440000Y-5730000I-20000J0D01*
G01*
X15600000Y-13900000D02*
X14100000Y-13100000D01*
X17400000Y-9700000D02*
X17400000Y-9900000D01*
X15000000Y-5400000D02*
X16800000Y-5400000D01*
X18600000Y-9210000D02*
G75*
G03*
X18600000Y-9210000I-20000J0D01*
G01*
X18600000Y-8700000D02*
X17400000Y-8700000D01*
X17440000Y-9030000D02*
G75*
G03*
X17440000Y-9030000I-20000J0D01*
G01*
X21700000Y-5000000D02*
X22300000Y-5000000D01*
X17440000Y-8970000D02*
G75*
G03*
X17440000Y-8970000I-20000J0D01*
G01*
X17400000Y-5400000D02*
X17400000Y-5700000D01*
X17440000Y-6150000D02*
G75*
G03*
X17440000Y-6150000I-20000J0D01*
G01*
X4000000Y-9700000D02*
X4000000Y-6300000D01*
X4000000Y-5000000D02*
X5800000Y-5000000D01*
X18600000Y-6270000D02*
G75*
G03*
X18600000Y-6270000I-20000J0D01*
G01*
X17440000Y-9210000D02*
G75*
G03*
X17440000Y-9210000I-20000J0D01*
G01*
X18600000Y-6210000D02*
G75*
G03*
X18600000Y-6210000I-20000J0D01*
G01*
X17400000Y-9700000D02*
X17400000Y-9300000D01*
X29300000Y-5000000D02*
X32000000Y-5000000D01*
X29300000Y-10700000D02*
X32000000Y-10700000D01*
X18600000Y-6150000D02*
G75*
G03*
X18600000Y-6150000I-20000J0D01*
G01*
X14100000Y-13100000D02*
X10400000Y-12800000D01*
X11400000Y-4600000D02*
X13200000Y-4600000D01*
X18600000Y-5400000D02*
X18600000Y-5700000D01*
X18600000Y-5850000D02*
G75*
G03*
X18600000Y-5850000I-20000J0D01*
G01*
X18600000Y-6030000D02*
G75*
G03*
X18600000Y-6030000I-20000J0D01*
G01*
X32000000Y-10300000D02*
X32000000Y-10700000D01*
X28700000Y-5000000D02*
X29300000Y-5000000D01*
X28200000Y-5000000D02*
X28700000Y-5000000D01*
X18600000Y-5910000D02*
G75*
G03*
X18600000Y-5910000I-20000J0D01*
G01*
X17440000Y-5970000D02*
G75*
G03*
X17440000Y-5970000I-20000J0D01*
G01*
X17440000Y-9270000D02*
G75*
G03*
X17440000Y-9270000I-20000J0D01*
G01*
X13700000Y-5000000D02*
X14300000Y-5000000D01*
X9600000Y-4600000D02*
X9600000Y-4200000D01*
X18600000Y-8730000D02*
G75*
G03*
X18600000Y-8730000I-20000J0D01*
G01*
X18600000Y-6300000D02*
X17400000Y-6300000D01*
X17440000Y-6090000D02*
G75*
G03*
X17440000Y-6090000I-20000J0D01*
G01*
X18600000Y-9700000D02*
X18600000Y-9300000D01*
X7300000Y-10700000D02*
X9600000Y-10700000D01*
X7800000Y-5000000D02*
X7800000Y-4600000D01*
X17440000Y-6030000D02*
G75*
G03*
X17440000Y-6030000I-20000J0D01*
G01*
X32000000Y-6300000D02*
X32000000Y-5700000D01*
X17100000Y-5400000D02*
X17200000Y-5400000D01*
X4000000Y-10700000D02*
X6700000Y-10700000D01*
X6700000Y-10700000D02*
X7300000Y-10700000D01*
X18600000Y-9150000D02*
G75*
G03*
X18600000Y-9150000I-20000J0D01*
G01*
X32000000Y-5700000D02*
X32000000Y-5000000D01*
X14300000Y-5000000D02*
X15000000Y-5000000D01*
X26400000Y-10700000D02*
X28700000Y-10700000D01*
X17440000Y-8850000D02*
G75*
G03*
X17440000Y-8850000I-20000J0D01*
G01*
X17440000Y-5790000D02*
G75*
G03*
X17440000Y-5790000I-20000J0D01*
G01*
X7800000Y-4600000D02*
X9600000Y-4600000D01*
X18600000Y-5970000D02*
G75*
G03*
X18600000Y-5970000I-20000J0D01*
G01*
X32000000Y-10300000D02*
X32000000Y-9700000D01*
X17440000Y-8790000D02*
G75*
G03*
X17440000Y-8790000I-20000J0D01*
G01*
X16800000Y-11400000D02*
X15600000Y-13900000D01*
X17440000Y-5910000D02*
G75*
G03*
X17440000Y-5910000I-20000J0D01*
G01*
X17440000Y-8730000D02*
G75*
G03*
X17440000Y-8730000I-20000J0D01*
G01*
X4000000Y-10200000D02*
X4000000Y-10700000D01*
X28700000Y-10700000D02*
X29300000Y-10700000D01*
X18600000Y-8970000D02*
G75*
G03*
X18600000Y-8970000I-20000J0D01*
G01*
X18600000Y-8850000D02*
G75*
G03*
X18600000Y-8850000I-20000J0D01*
G01*
X18600000Y-9030000D02*
G75*
G03*
X18600000Y-9030000I-20000J0D01*
G01*
X17400000Y-9300000D02*
X18600000Y-9300000D01*
X18600000Y-6300000D02*
X18600000Y-8700000D01*
X18600000Y-8910000D02*
G75*
G03*
X18600000Y-8910000I-20000J0D01*
G01*
X11400000Y-4200000D02*
X11400000Y-4600000D01*
X15000000Y-5000000D02*
X15000000Y-5400000D01*
X17440000Y-6270000D02*
G75*
G03*
X17440000Y-6270000I-20000J0D01*
G01*
X17440000Y-6210000D02*
G75*
G03*
X17440000Y-6210000I-20000J0D01*
G01*
X17440000Y-9150000D02*
G75*
G03*
X17440000Y-9150000I-20000J0D01*
G01*
D11*
D12*
X5520000Y-5305000D02*
X5680000Y-5465000D01*
X5680000Y-5305000D02*
X5520000Y-5465000D01*
X5520000Y-7205000D02*
X5680000Y-7365000D01*
X5680000Y-7205000D02*
X5520000Y-7365000D01*
X5520000Y-9105000D02*
X5680000Y-9265000D01*
X5680000Y-9105000D02*
X5520000Y-9265000D01*
X7320000Y-5305000D02*
X7480000Y-5465000D01*
X7480000Y-5305000D02*
X7320000Y-5465000D01*
X7320000Y-7205000D02*
X7480000Y-7365000D01*
X7480000Y-7205000D02*
X7320000Y-7365000D01*
X7320000Y-9105000D02*
X7480000Y-9265000D01*
X7480000Y-9105000D02*
X7320000Y-9265000D01*
X9120000Y-4905000D02*
X9280000Y-5065000D01*
X9280000Y-4905000D02*
X9120000Y-5065000D01*
X9120000Y-6805000D02*
X9280000Y-6965000D01*
X9280000Y-6805000D02*
X9120000Y-6965000D01*
X9120000Y-8705000D02*
X9280000Y-8865000D01*
X9280000Y-8705000D02*
X9120000Y-8865000D01*
X10920000Y-4505000D02*
X11080000Y-4665000D01*
X11080000Y-4505000D02*
X10920000Y-4665000D01*
X10920000Y-6405000D02*
X11080000Y-6565000D01*
X11080000Y-6405000D02*
X10920000Y-6565000D01*
X10920000Y-8305000D02*
X11080000Y-8465000D01*
X11080000Y-8305000D02*
X10920000Y-8465000D01*
X11620000Y-10984000D02*
X11780000Y-11144000D01*
X11780000Y-10984000D02*
X11620000Y-11144000D01*
X12720000Y-4905000D02*
X12880000Y-5065000D01*
X12880000Y-4905000D02*
X12720000Y-5065000D01*
X12720000Y-6805000D02*
X12880000Y-6965000D01*
X12880000Y-6805000D02*
X12720000Y-6965000D01*
X12720000Y-8705000D02*
X12880000Y-8865000D01*
X12880000Y-8705000D02*
X12720000Y-8865000D01*
X13701833Y-11299648D02*
X13861833Y-11459648D01*
X13861833Y-11299648D02*
X13701833Y-11459648D01*
X14520000Y-5305000D02*
X14680000Y-5465000D01*
X14680000Y-5305000D02*
X14520000Y-5465000D01*
X14520000Y-7205000D02*
X14680000Y-7365000D01*
X14680000Y-7205000D02*
X14520000Y-7365000D01*
X14520000Y-9005000D02*
X14680000Y-9165000D01*
X14680000Y-9005000D02*
X14520000Y-9165000D01*
X14964561Y-11549198D02*
X15124561Y-11709198D01*
X15124561Y-11549198D02*
X14964561Y-11709198D01*
X21405864Y-12631698D02*
X21565864Y-12791698D01*
X21565864Y-12631698D02*
X21405864Y-12791698D01*
X22420000Y-5205000D02*
X22580000Y-5365000D01*
X22580000Y-5205000D02*
X22420000Y-5365000D01*
X22420000Y-7105000D02*
X22580000Y-7265000D01*
X22580000Y-7105000D02*
X22420000Y-7265000D01*
X22420000Y-9005000D02*
X22580000Y-9165000D01*
X22580000Y-9005000D02*
X22420000Y-9165000D01*
X23122975Y-11126000D02*
X23282975Y-11286000D01*
X23282975Y-11126000D02*
X23122975Y-11286000D01*
X24220000Y-4805000D02*
X24380000Y-4965000D01*
X24380000Y-4805000D02*
X24220000Y-4965000D01*
X24220000Y-6705000D02*
X24380000Y-6865000D01*
X24380000Y-6705000D02*
X24220000Y-6865000D01*
X24220000Y-8605000D02*
X24380000Y-8765000D01*
X24380000Y-8605000D02*
X24220000Y-8765000D01*
X25220000Y-11005000D02*
X25380000Y-11165000D01*
X25380000Y-11005000D02*
X25220000Y-11165000D01*
X26020000Y-4405000D02*
X26180000Y-4565000D01*
X26180000Y-4405000D02*
X26020000Y-4565000D01*
X26020000Y-6305000D02*
X26180000Y-6465000D01*
X26180000Y-6305000D02*
X26020000Y-6465000D01*
X26020000Y-8205000D02*
X26180000Y-8365000D01*
X26180000Y-8205000D02*
X26020000Y-8365000D01*
X27820000Y-4805000D02*
X27980000Y-4965000D01*
X27980000Y-4805000D02*
X27820000Y-4965000D01*
X27820000Y-6705000D02*
X27980000Y-6865000D01*
X27980000Y-6705000D02*
X27820000Y-6865000D01*
X27820000Y-8605000D02*
X27980000Y-8765000D01*
X27980000Y-8605000D02*
X27820000Y-8765000D01*
X29720000Y-5205000D02*
X29880000Y-5365000D01*
X29880000Y-5205000D02*
X29720000Y-5365000D01*
X29720000Y-7105000D02*
X29880000Y-7265000D01*
X29880000Y-7105000D02*
X29720000Y-7265000D01*
X29720000Y-9005000D02*
X29880000Y-9165000D01*
X29880000Y-9005000D02*
X29720000Y-9165000D01*
X31520000Y-5205000D02*
X31680000Y-5365000D01*
X31680000Y-5205000D02*
X31520000Y-5365000D01*
X31520000Y-7105000D02*
X31680000Y-7265000D01*
X31680000Y-7105000D02*
X31520000Y-7265000D01*
X31520000Y-9005000D02*
X31680000Y-9165000D01*
X31680000Y-9005000D02*
X31520000Y-9165000D01*
D13*
X4645000Y-5900000D02*
G75*
G03*
X4645000Y-5900000I-95000J0D01*
G01*
X4645000Y-7800000D02*
G75*
G03*
X4645000Y-7800000I-95000J0D01*
G01*
X4645000Y-9700000D02*
G75*
G03*
X4645000Y-9700000I-95000J0D01*
G01*
X5745000Y-5900000D02*
G75*
G03*
X5745000Y-5900000I-95000J0D01*
G01*
X5745000Y-7800000D02*
G75*
G03*
X5745000Y-7800000I-95000J0D01*
G01*
X5745000Y-9700000D02*
G75*
G03*
X5745000Y-9700000I-95000J0D01*
G01*
X6445000Y-5900000D02*
G75*
G03*
X6445000Y-5900000I-95000J0D01*
G01*
X6445000Y-7800000D02*
G75*
G03*
X6445000Y-7800000I-95000J0D01*
G01*
X6445000Y-9700000D02*
G75*
G03*
X6445000Y-9700000I-95000J0D01*
G01*
X7545000Y-5900000D02*
G75*
G03*
X7545000Y-5900000I-95000J0D01*
G01*
X7545000Y-7800000D02*
G75*
G03*
X7545000Y-7800000I-95000J0D01*
G01*
X7545000Y-9700000D02*
G75*
G03*
X7545000Y-9700000I-95000J0D01*
G01*
X8245000Y-5500000D02*
G75*
G03*
X8245000Y-5500000I-95000J0D01*
G01*
X8245000Y-7400000D02*
G75*
G03*
X8245000Y-7400000I-95000J0D01*
G01*
X8245000Y-9300000D02*
G75*
G03*
X8245000Y-9300000I-95000J0D01*
G01*
X9345000Y-5500000D02*
G75*
G03*
X9345000Y-5500000I-95000J0D01*
G01*
X9345000Y-7400000D02*
G75*
G03*
X9345000Y-7400000I-95000J0D01*
G01*
X9345000Y-9300000D02*
G75*
G03*
X9345000Y-9300000I-95000J0D01*
G01*
X10045000Y-5100000D02*
G75*
G03*
X10045000Y-5100000I-95000J0D01*
G01*
X10045000Y-7000000D02*
G75*
G03*
X10045000Y-7000000I-95000J0D01*
G01*
X10045000Y-8900000D02*
G75*
G03*
X10045000Y-8900000I-95000J0D01*
G01*
X10745000Y-11579000D02*
G75*
G03*
X10745000Y-11579000I-95000J0D01*
G01*
X11145000Y-5100000D02*
G75*
G03*
X11145000Y-5100000I-95000J0D01*
G01*
X11145000Y-7000000D02*
G75*
G03*
X11145000Y-7000000I-95000J0D01*
G01*
X11145000Y-8900000D02*
G75*
G03*
X11145000Y-8900000I-95000J0D01*
G01*
X11845000Y-5500000D02*
G75*
G03*
X11845000Y-5500000I-95000J0D01*
G01*
X11845000Y-7400000D02*
G75*
G03*
X11845000Y-7400000I-95000J0D01*
G01*
X11845000Y-9300000D02*
G75*
G03*
X11845000Y-9300000I-95000J0D01*
G01*
X11845000Y-11579000D02*
G75*
G03*
X11845000Y-11579000I-95000J0D01*
G01*
X12753356Y-11704493D02*
G75*
G03*
X12753356Y-11704493I-95000J0D01*
G01*
X12945000Y-5500000D02*
G75*
G03*
X12945000Y-5500000I-95000J0D01*
G01*
X12945000Y-7400000D02*
G75*
G03*
X12945000Y-7400000I-95000J0D01*
G01*
X12945000Y-9300000D02*
G75*
G03*
X12945000Y-9300000I-95000J0D01*
G01*
X13645000Y-5900000D02*
G75*
G03*
X13645000Y-5900000I-95000J0D01*
G01*
X13645000Y-7800000D02*
G75*
G03*
X13645000Y-7800000I-95000J0D01*
G01*
X13645000Y-9600000D02*
G75*
G03*
X13645000Y-9600000I-95000J0D01*
G01*
X13836644Y-11895506D02*
G75*
G03*
X13836644Y-11895506I-95000J0D01*
G01*
X14745000Y-5900000D02*
G75*
G03*
X14745000Y-5900000I-95000J0D01*
G01*
X14745000Y-7800000D02*
G75*
G03*
X14745000Y-7800000I-95000J0D01*
G01*
X14745000Y-9600000D02*
G75*
G03*
X14745000Y-9600000I-95000J0D01*
G01*
X15162560Y-12798469D02*
G75*
G03*
X15162560Y-12798469I-95000J0D01*
G01*
X15627440Y-11801531D02*
G75*
G03*
X15627440Y-11801531I-95000J0D01*
G01*
X20645305Y-12009946D02*
G75*
G03*
X20645305Y-12009946I-95000J0D01*
G01*
X21144695Y-12990054D02*
G75*
G03*
X21144695Y-12990054I-95000J0D01*
G01*
X21545000Y-5800000D02*
G75*
G03*
X21545000Y-5800000I-95000J0D01*
G01*
X21545000Y-7700000D02*
G75*
G03*
X21545000Y-7700000I-95000J0D01*
G01*
X21545000Y-9600000D02*
G75*
G03*
X21545000Y-9600000I-95000J0D01*
G01*
X22353356Y-11895506D02*
G75*
G03*
X22353356Y-11895506I-95000J0D01*
G01*
X22645000Y-5800000D02*
G75*
G03*
X22645000Y-5800000I-95000J0D01*
G01*
X22645000Y-7700000D02*
G75*
G03*
X22645000Y-7700000I-95000J0D01*
G01*
X22645000Y-9600000D02*
G75*
G03*
X22645000Y-9600000I-95000J0D01*
G01*
X23345000Y-5400000D02*
G75*
G03*
X23345000Y-5400000I-95000J0D01*
G01*
X23345000Y-7300000D02*
G75*
G03*
X23345000Y-7300000I-95000J0D01*
G01*
X23345000Y-9200000D02*
G75*
G03*
X23345000Y-9200000I-95000J0D01*
G01*
X23436644Y-11704493D02*
G75*
G03*
X23436644Y-11704493I-95000J0D01*
G01*
X24345000Y-11600000D02*
G75*
G03*
X24345000Y-11600000I-95000J0D01*
G01*
X24445000Y-5400000D02*
G75*
G03*
X24445000Y-5400000I-95000J0D01*
G01*
X24445000Y-7300000D02*
G75*
G03*
X24445000Y-7300000I-95000J0D01*
G01*
X24445000Y-9200000D02*
G75*
G03*
X24445000Y-9200000I-95000J0D01*
G01*
X25145000Y-5000000D02*
G75*
G03*
X25145000Y-5000000I-95000J0D01*
G01*
X25145000Y-6900000D02*
G75*
G03*
X25145000Y-6900000I-95000J0D01*
G01*
X25145000Y-8800000D02*
G75*
G03*
X25145000Y-8800000I-95000J0D01*
G01*
X25445000Y-11600000D02*
G75*
G03*
X25445000Y-11600000I-95000J0D01*
G01*
X26245000Y-5000000D02*
G75*
G03*
X26245000Y-5000000I-95000J0D01*
G01*
X26245000Y-6900000D02*
G75*
G03*
X26245000Y-6900000I-95000J0D01*
G01*
X26245000Y-8800000D02*
G75*
G03*
X26245000Y-8800000I-95000J0D01*
G01*
X26945000Y-5400000D02*
G75*
G03*
X26945000Y-5400000I-95000J0D01*
G01*
X26945000Y-7300000D02*
G75*
G03*
X26945000Y-7300000I-95000J0D01*
G01*
X26945000Y-9200000D02*
G75*
G03*
X26945000Y-9200000I-95000J0D01*
G01*
X28045000Y-5400000D02*
G75*
G03*
X28045000Y-5400000I-95000J0D01*
G01*
X28045000Y-7300000D02*
G75*
G03*
X28045000Y-7300000I-95000J0D01*
G01*
X28045000Y-9200000D02*
G75*
G03*
X28045000Y-9200000I-95000J0D01*
G01*
X28845000Y-5800000D02*
G75*
G03*
X28845000Y-5800000I-95000J0D01*
G01*
X28845000Y-7700000D02*
G75*
G03*
X28845000Y-7700000I-95000J0D01*
G01*
X28845000Y-9600000D02*
G75*
G03*
X28845000Y-9600000I-95000J0D01*
G01*
X29945000Y-5800000D02*
G75*
G03*
X29945000Y-5800000I-95000J0D01*
G01*
X29945000Y-7700000D02*
G75*
G03*
X29945000Y-7700000I-95000J0D01*
G01*
X29945000Y-9600000D02*
G75*
G03*
X29945000Y-9600000I-95000J0D01*
G01*
X30645000Y-5800000D02*
G75*
G03*
X30645000Y-5800000I-95000J0D01*
G01*
X30645000Y-7700000D02*
G75*
G03*
X30645000Y-7700000I-95000J0D01*
G01*
X30645000Y-9600000D02*
G75*
G03*
X30645000Y-9600000I-95000J0D01*
G01*
X31745000Y-5800000D02*
G75*
G03*
X31745000Y-5800000I-95000J0D01*
G01*
X31745000Y-7700000D02*
G75*
G03*
X31745000Y-7700000I-95000J0D01*
G01*
X31745000Y-9600000D02*
G75*
G03*
X31745000Y-9600000I-95000J0D01*
G01*
D14*
X4600000Y-6127500D02*
X4600000Y-6432500D01*
X4447500Y-6280000D02*
X4752500Y-6280000D01*
X4600000Y-8027500D02*
X4600000Y-8332500D01*
X4447500Y-8180000D02*
X4752500Y-8180000D01*
X4600000Y-9927500D02*
X4600000Y-10232500D01*
X4447500Y-10080000D02*
X4752500Y-10080000D01*
X5100000Y-6337500D02*
X5100000Y-6642500D01*
X4947500Y-6490000D02*
X5252500Y-6490000D01*
X5100000Y-8237500D02*
X5100000Y-8542500D01*
X4947500Y-8390000D02*
X5252500Y-8390000D01*
X5100000Y-10137500D02*
X5100000Y-10442500D01*
X4947500Y-10290000D02*
X5252500Y-10290000D01*
X6400000Y-6127500D02*
X6400000Y-6432500D01*
X6247500Y-6280000D02*
X6552500Y-6280000D01*
X6400000Y-8027500D02*
X6400000Y-8332500D01*
X6247500Y-8180000D02*
X6552500Y-8180000D01*
X6400000Y-9927500D02*
X6400000Y-10232500D01*
X6247500Y-10080000D02*
X6552500Y-10080000D01*
X6900000Y-6337500D02*
X6900000Y-6642500D01*
X6747500Y-6490000D02*
X7052500Y-6490000D01*
X6900000Y-8237500D02*
X6900000Y-8542500D01*
X6747500Y-8390000D02*
X7052500Y-8390000D01*
X6900000Y-10137500D02*
X6900000Y-10442500D01*
X6747500Y-10290000D02*
X7052500Y-10290000D01*
X8200000Y-5727500D02*
X8200000Y-6032500D01*
X8047500Y-5880000D02*
X8352500Y-5880000D01*
X8200000Y-7627500D02*
X8200000Y-7932500D01*
X8047500Y-7780000D02*
X8352500Y-7780000D01*
X8200000Y-9527500D02*
X8200000Y-9832500D01*
X8047500Y-9680000D02*
X8352500Y-9680000D01*
X8700000Y-5937500D02*
X8700000Y-6242500D01*
X8547500Y-6090000D02*
X8852500Y-6090000D01*
X8700000Y-7837500D02*
X8700000Y-8142500D01*
X8547500Y-7990000D02*
X8852500Y-7990000D01*
X8700000Y-9737500D02*
X8700000Y-10042500D01*
X8547500Y-9890000D02*
X8852500Y-9890000D01*
X10000000Y-5327500D02*
X10000000Y-5632500D01*
X9847500Y-5480000D02*
X10152500Y-5480000D01*
X10000000Y-7227500D02*
X10000000Y-7532500D01*
X9847500Y-7380000D02*
X10152500Y-7380000D01*
X10000000Y-9127500D02*
X10000000Y-9432500D01*
X9847500Y-9280000D02*
X10152500Y-9280000D01*
X10500000Y-5537500D02*
X10500000Y-5842500D01*
X10347500Y-5690000D02*
X10652500Y-5690000D01*
X10500000Y-7437500D02*
X10500000Y-7742500D01*
X10347500Y-7590000D02*
X10652500Y-7590000D01*
X10500000Y-9337500D02*
X10500000Y-9642500D01*
X10347500Y-9490000D02*
X10652500Y-9490000D01*
X10700000Y-11806500D02*
X10700000Y-12111500D01*
X10547500Y-11959000D02*
X10852500Y-11959000D01*
X11200000Y-12016500D02*
X11200000Y-12321500D01*
X11047500Y-12169000D02*
X11352500Y-12169000D01*
X11800000Y-5727500D02*
X11800000Y-6032500D01*
X11647500Y-5880000D02*
X11952500Y-5880000D01*
X11800000Y-7627500D02*
X11800000Y-7932500D01*
X11647500Y-7780000D02*
X11952500Y-7780000D01*
X11800000Y-9527500D02*
X11800000Y-9832500D01*
X11647500Y-9680000D02*
X11952500Y-9680000D01*
X12300000Y-5937500D02*
X12300000Y-6242500D01*
X12147500Y-6090000D02*
X12452500Y-6090000D01*
X12300000Y-7837500D02*
X12300000Y-8142500D01*
X12147500Y-7990000D02*
X12452500Y-7990000D01*
X12300000Y-9737500D02*
X12300000Y-10042500D01*
X12147500Y-9890000D02*
X12452500Y-9890000D01*
X12641610Y-11934903D02*
X12641610Y-12239903D01*
X12489110Y-12087403D02*
X12794110Y-12087403D01*
X13097548Y-12228537D02*
X13097548Y-12533537D01*
X12945048Y-12381037D02*
X13250048Y-12381037D01*
X13600000Y-6127500D02*
X13600000Y-6432500D01*
X13447500Y-6280000D02*
X13752500Y-6280000D01*
X13600000Y-8027500D02*
X13600000Y-8332500D01*
X13447500Y-8180000D02*
X13752500Y-8180000D01*
X13600000Y-9827500D02*
X13600000Y-10132500D01*
X13447500Y-9980000D02*
X13752500Y-9980000D01*
X14100000Y-6337500D02*
X14100000Y-6642500D01*
X13947500Y-6490000D02*
X14252500Y-6490000D01*
X14100000Y-8237500D02*
X14100000Y-8542500D01*
X13947500Y-8390000D02*
X14252500Y-8390000D01*
X14100000Y-10037500D02*
X14100000Y-10342500D01*
X13947500Y-10190000D02*
X14252500Y-10190000D01*
X15433088Y-12761249D02*
X15433088Y-13066249D01*
X15280588Y-12913749D02*
X15585588Y-12913749D01*
X15834722Y-12396845D02*
X15834722Y-12701845D01*
X15682222Y-12549345D02*
X15987222Y-12549345D01*
X20234422Y-12074513D02*
X20234422Y-12379513D01*
X20081922Y-12227013D02*
X20386922Y-12227013D01*
X20274306Y-12615354D02*
X20274306Y-12920354D01*
X20121806Y-12767854D02*
X20426806Y-12767854D01*
X21500000Y-6027500D02*
X21500000Y-6332500D01*
X21347500Y-6180000D02*
X21652500Y-6180000D01*
X21500000Y-7927500D02*
X21500000Y-8232500D01*
X21347500Y-8080000D02*
X21652500Y-8080000D01*
X21500000Y-9827500D02*
X21500000Y-10132500D01*
X21347500Y-9980000D02*
X21652500Y-9980000D01*
X22000000Y-6237500D02*
X22000000Y-6542500D01*
X21847500Y-6390000D02*
X22152500Y-6390000D01*
X22000000Y-8137500D02*
X22000000Y-8442500D01*
X21847500Y-8290000D02*
X22152500Y-8290000D01*
X22000000Y-10037500D02*
X22000000Y-10342500D01*
X21847500Y-10190000D02*
X22152500Y-10190000D01*
X22373582Y-12108551D02*
X22373582Y-12413551D01*
X22221082Y-12261051D02*
X22526082Y-12261051D01*
X22902452Y-12228537D02*
X22902452Y-12533537D01*
X22749952Y-12381037D02*
X23054952Y-12381037D01*
X23300000Y-5627500D02*
X23300000Y-5932500D01*
X23147500Y-5780000D02*
X23452500Y-5780000D01*
X23300000Y-7527500D02*
X23300000Y-7832500D01*
X23147500Y-7680000D02*
X23452500Y-7680000D01*
X23300000Y-9427500D02*
X23300000Y-9732500D01*
X23147500Y-9580000D02*
X23452500Y-9580000D01*
X23800000Y-5837500D02*
X23800000Y-6142500D01*
X23647500Y-5990000D02*
X23952500Y-5990000D01*
X23800000Y-7737500D02*
X23800000Y-8042500D01*
X23647500Y-7890000D02*
X23952500Y-7890000D01*
X23800000Y-9637500D02*
X23800000Y-9942500D01*
X23647500Y-9790000D02*
X23952500Y-9790000D01*
X24300000Y-11827500D02*
X24300000Y-12132500D01*
X24147500Y-11980000D02*
X24452500Y-11980000D01*
X24800000Y-12037500D02*
X24800000Y-12342500D01*
X24647500Y-12190000D02*
X24952500Y-12190000D01*
X25100000Y-5227500D02*
X25100000Y-5532500D01*
X24947500Y-5380000D02*
X25252500Y-5380000D01*
X25100000Y-7127500D02*
X25100000Y-7432500D01*
X24947500Y-7280000D02*
X25252500Y-7280000D01*
X25100000Y-9027500D02*
X25100000Y-9332500D01*
X24947500Y-9180000D02*
X25252500Y-9180000D01*
X25600000Y-5437500D02*
X25600000Y-5742500D01*
X25447500Y-5590000D02*
X25752500Y-5590000D01*
X25600000Y-7337500D02*
X25600000Y-7642500D01*
X25447500Y-7490000D02*
X25752500Y-7490000D01*
X25600000Y-9237500D02*
X25600000Y-9542500D01*
X25447500Y-9390000D02*
X25752500Y-9390000D01*
X26900000Y-5627500D02*
X26900000Y-5932500D01*
X26747500Y-5780000D02*
X27052500Y-5780000D01*
X26900000Y-7527500D02*
X26900000Y-7832500D01*
X26747500Y-7680000D02*
X27052500Y-7680000D01*
X26900000Y-9427500D02*
X26900000Y-9732500D01*
X26747500Y-9580000D02*
X27052500Y-9580000D01*
X27400000Y-5837500D02*
X27400000Y-6142500D01*
X27247500Y-5990000D02*
X27552500Y-5990000D01*
X27400000Y-7737500D02*
X27400000Y-8042500D01*
X27247500Y-7890000D02*
X27552500Y-7890000D01*
X27400000Y-9637500D02*
X27400000Y-9942500D01*
X27247500Y-9790000D02*
X27552500Y-9790000D01*
X28800000Y-6027500D02*
X28800000Y-6332500D01*
X28647500Y-6180000D02*
X28952500Y-6180000D01*
X28800000Y-7927500D02*
X28800000Y-8232500D01*
X28647500Y-8080000D02*
X28952500Y-8080000D01*
X28800000Y-9827500D02*
X28800000Y-10132500D01*
X28647500Y-9980000D02*
X28952500Y-9980000D01*
X29300000Y-6237500D02*
X29300000Y-6542500D01*
X29147500Y-6390000D02*
X29452500Y-6390000D01*
X29300000Y-8137500D02*
X29300000Y-8442500D01*
X29147500Y-8290000D02*
X29452500Y-8290000D01*
X29300000Y-10037500D02*
X29300000Y-10342500D01*
X29147500Y-10190000D02*
X29452500Y-10190000D01*
X30600000Y-6027500D02*
X30600000Y-6332500D01*
X30447500Y-6180000D02*
X30752500Y-6180000D01*
X30600000Y-7927500D02*
X30600000Y-8232500D01*
X30447500Y-8080000D02*
X30752500Y-8080000D01*
X30600000Y-9827500D02*
X30600000Y-10132500D01*
X30447500Y-9980000D02*
X30752500Y-9980000D01*
X31100000Y-6237500D02*
X31100000Y-6542500D01*
X30947500Y-6390000D02*
X31252500Y-6390000D01*
X31100000Y-8137500D02*
X31100000Y-8442500D01*
X30947500Y-8290000D02*
X31252500Y-8290000D01*
X31100000Y-10037500D02*
X31100000Y-10342500D01*
X30947500Y-10190000D02*
X31252500Y-10190000D01*
D15*
X5278546Y-6078546D02*
X5278546Y-5721454D01*
X4921454Y-5721454D01*
X4921454Y-6078546D01*
X5278546Y-6078546D01*
X5278546Y-7978546D02*
X5278546Y-7621454D01*
X4921454Y-7621454D01*
X4921454Y-7978546D01*
X5278546Y-7978546D01*
X5278546Y-9878546D02*
X5278546Y-9521454D01*
X4921454Y-9521454D01*
X4921454Y-9878546D01*
X5278546Y-9878546D01*
X7078546Y-6078546D02*
X7078546Y-5721454D01*
X6721454Y-5721454D01*
X6721454Y-6078546D01*
X7078546Y-6078546D01*
X7078546Y-7978546D02*
X7078546Y-7621454D01*
X6721454Y-7621454D01*
X6721454Y-7978546D01*
X7078546Y-7978546D01*
X7078546Y-9878546D02*
X7078546Y-9521454D01*
X6721454Y-9521454D01*
X6721454Y-9878546D01*
X7078546Y-9878546D01*
X8878546Y-5678546D02*
X8878546Y-5321454D01*
X8521454Y-5321454D01*
X8521454Y-5678546D01*
X8878546Y-5678546D01*
X8878546Y-7578546D02*
X8878546Y-7221454D01*
X8521454Y-7221454D01*
X8521454Y-7578546D01*
X8878546Y-7578546D01*
X8878546Y-9478546D02*
X8878546Y-9121454D01*
X8521454Y-9121454D01*
X8521454Y-9478546D01*
X8878546Y-9478546D01*
X10678546Y-5278546D02*
X10678546Y-4921454D01*
X10321454Y-4921454D01*
X10321454Y-5278546D01*
X10678546Y-5278546D01*
X10678546Y-7178546D02*
X10678546Y-6821454D01*
X10321454Y-6821454D01*
X10321454Y-7178546D01*
X10678546Y-7178546D01*
X10678546Y-9078546D02*
X10678546Y-8721454D01*
X10321454Y-8721454D01*
X10321454Y-9078546D01*
X10678546Y-9078546D01*
X11378546Y-11757546D02*
X11378546Y-11400454D01*
X11021454Y-11400454D01*
X11021454Y-11757546D01*
X11378546Y-11757546D01*
X12478546Y-5678546D02*
X12478546Y-5321454D01*
X12121454Y-5321454D01*
X12121454Y-5678546D01*
X12478546Y-5678546D01*
X12478546Y-7578546D02*
X12478546Y-7221454D01*
X12121454Y-7221454D01*
X12121454Y-7578546D01*
X12478546Y-7578546D01*
X12478546Y-9478546D02*
X12478546Y-9121454D01*
X12121454Y-9121454D01*
X12121454Y-9478546D01*
X12478546Y-9478546D01*
X13378546Y-11978546D02*
X13378546Y-11621454D01*
X13021454Y-11621454D01*
X13021454Y-11978546D01*
X13378546Y-11978546D01*
X14278546Y-6078546D02*
X14278546Y-5721454D01*
X13921454Y-5721454D01*
X13921454Y-6078546D01*
X14278546Y-6078546D01*
X14278546Y-7978546D02*
X14278546Y-7621454D01*
X13921454Y-7621454D01*
X13921454Y-7978546D01*
X14278546Y-7978546D01*
X14278546Y-9778546D02*
X14278546Y-9421454D01*
X13921454Y-9421454D01*
X13921454Y-9778546D01*
X14278546Y-9778546D01*
X15478546Y-12478546D02*
X15478546Y-12121454D01*
X15121454Y-12121454D01*
X15121454Y-12478546D01*
X15478546Y-12478546D01*
X20978546Y-12678546D02*
X20978546Y-12321454D01*
X20621454Y-12321454D01*
X20621454Y-12678546D01*
X20978546Y-12678546D01*
X22178546Y-5978546D02*
X22178546Y-5621454D01*
X21821454Y-5621454D01*
X21821454Y-5978546D01*
X22178546Y-5978546D01*
X22178546Y-7878546D02*
X22178546Y-7521454D01*
X21821454Y-7521454D01*
X21821454Y-7878546D01*
X22178546Y-7878546D01*
X22178546Y-9778546D02*
X22178546Y-9421454D01*
X21821454Y-9421454D01*
X21821454Y-9778546D01*
X22178546Y-9778546D01*
X22978546Y-11978546D02*
X22978546Y-11621454D01*
X22621454Y-11621454D01*
X22621454Y-11978546D01*
X22978546Y-11978546D01*
X23978546Y-5578546D02*
X23978546Y-5221454D01*
X23621454Y-5221454D01*
X23621454Y-5578546D01*
X23978546Y-5578546D01*
X23978546Y-7478546D02*
X23978546Y-7121454D01*
X23621454Y-7121454D01*
X23621454Y-7478546D01*
X23978546Y-7478546D01*
X23978546Y-9378546D02*
X23978546Y-9021454D01*
X23621454Y-9021454D01*
X23621454Y-9378546D01*
X23978546Y-9378546D01*
X24978546Y-11778546D02*
X24978546Y-11421454D01*
X24621454Y-11421454D01*
X24621454Y-11778546D01*
X24978546Y-11778546D01*
X25778546Y-5178546D02*
X25778546Y-4821454D01*
X25421454Y-4821454D01*
X25421454Y-5178546D01*
X25778546Y-5178546D01*
X25778546Y-7078546D02*
X25778546Y-6721454D01*
X25421454Y-6721454D01*
X25421454Y-7078546D01*
X25778546Y-7078546D01*
X25778546Y-8978546D02*
X25778546Y-8621454D01*
X25421454Y-8621454D01*
X25421454Y-8978546D01*
X25778546Y-8978546D01*
X27578546Y-5578546D02*
X27578546Y-5221454D01*
X27221454Y-5221454D01*
X27221454Y-5578546D01*
X27578546Y-5578546D01*
X27578546Y-7478546D02*
X27578546Y-7121454D01*
X27221454Y-7121454D01*
X27221454Y-7478546D01*
X27578546Y-7478546D01*
X27578546Y-9378546D02*
X27578546Y-9021454D01*
X27221454Y-9021454D01*
X27221454Y-9378546D01*
X27578546Y-9378546D01*
X29478546Y-5978546D02*
X29478546Y-5621454D01*
X29121454Y-5621454D01*
X29121454Y-5978546D01*
X29478546Y-5978546D01*
X29478546Y-7878546D02*
X29478546Y-7521454D01*
X29121454Y-7521454D01*
X29121454Y-7878546D01*
X29478546Y-7878546D01*
X29478546Y-9778546D02*
X29478546Y-9421454D01*
X29121454Y-9421454D01*
X29121454Y-9778546D01*
X29478546Y-9778546D01*
X31278546Y-5978546D02*
X31278546Y-5621454D01*
X30921454Y-5621454D01*
X30921454Y-5978546D01*
X31278546Y-5978546D01*
X31278546Y-7878546D02*
X31278546Y-7521454D01*
X30921454Y-7521454D01*
X30921454Y-7878546D01*
X31278546Y-7878546D01*
X31278546Y-9778546D02*
X31278546Y-9421454D01*
X30921454Y-9421454D01*
X30921454Y-9778546D01*
X31278546Y-9778546D01*
D11*
X4255119Y-14212976D02*
X4255119Y-14012976D01*
X4302738Y-14012976D01*
X4331310Y-14022500D01*
X4350357Y-14041548D01*
X4359881Y-14060595D01*
X4369405Y-14098690D01*
X4369405Y-14127262D01*
X4359881Y-14165357D01*
X4350357Y-14184405D01*
X4331310Y-14203452D01*
X4302738Y-14212976D01*
X4255119Y-14212976D01*
X4455119Y-14212976D02*
X4455119Y-14079643D01*
X4455119Y-14117738D02*
X4464643Y-14098690D01*
X4474167Y-14089167D01*
X4493214Y-14079643D01*
X4512262Y-14079643D01*
X4578929Y-14212976D02*
X4578929Y-14079643D01*
X4578929Y-14012976D02*
X4569405Y-14022500D01*
X4578929Y-14032024D01*
X4588452Y-14022500D01*
X4578929Y-14012976D01*
X4578929Y-14032024D01*
X4702738Y-14212976D02*
X4683690Y-14203452D01*
X4674167Y-14184405D01*
X4674167Y-14012976D01*
X4807500Y-14212976D02*
X4788452Y-14203452D01*
X4778929Y-14184405D01*
X4778929Y-14012976D01*
X5036071Y-14212976D02*
X5036071Y-14012976D01*
X5102738Y-14155833D01*
X5169405Y-14012976D01*
X5169405Y-14212976D01*
X5350357Y-14212976D02*
X5350357Y-14108214D01*
X5340833Y-14089167D01*
X5321786Y-14079643D01*
X5283690Y-14079643D01*
X5264643Y-14089167D01*
X5350357Y-14203452D02*
X5331310Y-14212976D01*
X5283690Y-14212976D01*
X5264643Y-14203452D01*
X5255119Y-14184405D01*
X5255119Y-14165357D01*
X5264643Y-14146309D01*
X5283690Y-14136786D01*
X5331310Y-14136786D01*
X5350357Y-14127262D01*
X5445595Y-14079643D02*
X5445595Y-14279643D01*
X5445595Y-14089167D02*
X5464643Y-14079643D01*
X5502738Y-14079643D01*
X5521786Y-14089167D01*
X5531310Y-14098690D01*
X5540833Y-14117738D01*
X5540833Y-14174881D01*
X5531310Y-14193928D01*
X5521786Y-14203452D01*
X5502738Y-14212976D01*
X5464643Y-14212976D01*
X5445595Y-14203452D01*
X5626548Y-14193928D02*
X5636071Y-14203452D01*
X5626548Y-14212976D01*
X5617024Y-14203452D01*
X5626548Y-14193928D01*
X5626548Y-14212976D01*
X5626548Y-14089167D02*
X5636071Y-14098690D01*
X5626548Y-14108214D01*
X5617024Y-14098690D01*
X5626548Y-14089167D01*
X5626548Y-14108214D01*
D12*
X3837500Y-14462500D02*
X3997500Y-14622500D01*
X3997500Y-14462500D02*
X3837500Y-14622500D01*
D11*
X4359881Y-14632976D02*
X4245595Y-14632976D01*
X4302738Y-14632976D02*
X4302738Y-14432976D01*
X4283690Y-14461548D01*
X4264643Y-14480595D01*
X4245595Y-14490119D01*
X4445595Y-14613928D02*
X4455119Y-14623452D01*
X4445595Y-14632976D01*
X4436071Y-14623452D01*
X4445595Y-14613928D01*
X4445595Y-14632976D01*
X4626548Y-14432976D02*
X4588452Y-14432976D01*
X4569405Y-14442500D01*
X4559881Y-14452024D01*
X4540833Y-14480595D01*
X4531310Y-14518690D01*
X4531310Y-14594881D01*
X4540833Y-14613928D01*
X4550357Y-14623452D01*
X4569405Y-14632976D01*
X4607500Y-14632976D01*
X4626548Y-14623452D01*
X4636071Y-14613928D01*
X4645595Y-14594881D01*
X4645595Y-14547262D01*
X4636071Y-14528214D01*
X4626548Y-14518690D01*
X4607500Y-14509167D01*
X4569405Y-14509167D01*
X4550357Y-14518690D01*
X4540833Y-14528214D01*
X4531310Y-14547262D01*
X4769405Y-14432976D02*
X4788452Y-14432976D01*
X4807500Y-14442500D01*
X4817024Y-14452024D01*
X4826548Y-14471071D01*
X4836071Y-14509167D01*
X4836071Y-14556786D01*
X4826548Y-14594881D01*
X4817024Y-14613928D01*
X4807500Y-14623452D01*
X4788452Y-14632976D01*
X4769405Y-14632976D01*
X4750357Y-14623452D01*
X4740833Y-14613928D01*
X4731310Y-14594881D01*
X4721786Y-14556786D01*
X4721786Y-14509167D01*
X4731310Y-14471071D01*
X4740833Y-14452024D01*
X4750357Y-14442500D01*
X4769405Y-14432976D01*
X4959881Y-14432976D02*
X4978929Y-14432976D01*
X4997976Y-14442500D01*
X5007500Y-14452024D01*
X5017024Y-14471071D01*
X5026548Y-14509167D01*
X5026548Y-14556786D01*
X5017024Y-14594881D01*
X5007500Y-14613928D01*
X4997976Y-14623452D01*
X4978929Y-14632976D01*
X4959881Y-14632976D01*
X4940833Y-14623452D01*
X4931310Y-14613928D01*
X4921786Y-14594881D01*
X4912262Y-14556786D01*
X4912262Y-14509167D01*
X4921786Y-14471071D01*
X4931310Y-14452024D01*
X4940833Y-14442500D01*
X4959881Y-14432976D01*
X5112262Y-14632976D02*
X5112262Y-14499643D01*
X5112262Y-14518690D02*
X5121786Y-14509167D01*
X5140833Y-14499643D01*
X5169405Y-14499643D01*
X5188452Y-14509167D01*
X5197976Y-14528214D01*
X5197976Y-14632976D01*
X5197976Y-14528214D02*
X5207500Y-14509167D01*
X5226548Y-14499643D01*
X5255119Y-14499643D01*
X5274167Y-14509167D01*
X5283690Y-14528214D01*
X5283690Y-14632976D01*
X5378929Y-14632976D02*
X5378929Y-14499643D01*
X5378929Y-14518690D02*
X5388452Y-14509167D01*
X5407500Y-14499643D01*
X5436071Y-14499643D01*
X5455119Y-14509167D01*
X5464643Y-14528214D01*
X5464643Y-14632976D01*
X5464643Y-14528214D02*
X5474167Y-14509167D01*
X5493214Y-14499643D01*
X5521786Y-14499643D01*
X5540833Y-14509167D01*
X5550357Y-14528214D01*
X5550357Y-14632976D01*
X5940833Y-14423452D02*
X5769405Y-14680595D01*
X6197976Y-14432976D02*
X6217024Y-14432976D01*
X6236071Y-14442500D01*
X6245595Y-14452024D01*
X6255119Y-14471071D01*
X6264643Y-14509167D01*
X6264643Y-14556786D01*
X6255119Y-14594881D01*
X6245595Y-14613928D01*
X6236071Y-14623452D01*
X6217024Y-14632976D01*
X6197976Y-14632976D01*
X6178928Y-14623452D01*
X6169405Y-14613928D01*
X6159881Y-14594881D01*
X6150357Y-14556786D01*
X6150357Y-14509167D01*
X6159881Y-14471071D01*
X6169405Y-14452024D01*
X6178928Y-14442500D01*
X6197976Y-14432976D01*
X6350357Y-14613928D02*
X6359881Y-14623452D01*
X6350357Y-14632976D01*
X6340833Y-14623452D01*
X6350357Y-14613928D01*
X6350357Y-14632976D01*
X6483690Y-14432976D02*
X6502738Y-14432976D01*
X6521786Y-14442500D01*
X6531309Y-14452024D01*
X6540833Y-14471071D01*
X6550357Y-14509167D01*
X6550357Y-14556786D01*
X6540833Y-14594881D01*
X6531309Y-14613928D01*
X6521786Y-14623452D01*
X6502738Y-14632976D01*
X6483690Y-14632976D01*
X6464643Y-14623452D01*
X6455119Y-14613928D01*
X6445595Y-14594881D01*
X6436071Y-14556786D01*
X6436071Y-14509167D01*
X6445595Y-14471071D01*
X6455119Y-14452024D01*
X6464643Y-14442500D01*
X6483690Y-14432976D01*
X6721786Y-14432976D02*
X6683690Y-14432976D01*
X6664643Y-14442500D01*
X6655119Y-14452024D01*
X6636071Y-14480595D01*
X6626548Y-14518690D01*
X6626548Y-14594881D01*
X6636071Y-14613928D01*
X6645595Y-14623452D01*
X6664643Y-14632976D01*
X6702738Y-14632976D01*
X6721786Y-14623452D01*
X6731309Y-14613928D01*
X6740833Y-14594881D01*
X6740833Y-14547262D01*
X6731309Y-14528214D01*
X6721786Y-14518690D01*
X6702738Y-14509167D01*
X6664643Y-14509167D01*
X6645595Y-14518690D01*
X6636071Y-14528214D01*
X6626548Y-14547262D01*
X6807500Y-14432976D02*
X6931309Y-14432976D01*
X6864643Y-14509167D01*
X6893214Y-14509167D01*
X6912262Y-14518690D01*
X6921786Y-14528214D01*
X6931309Y-14547262D01*
X6931309Y-14594881D01*
X6921786Y-14613928D01*
X6912262Y-14623452D01*
X6893214Y-14632976D01*
X6836071Y-14632976D01*
X6817024Y-14623452D01*
X6807500Y-14613928D01*
X7055119Y-14432976D02*
X7074167Y-14432976D01*
X7093214Y-14442500D01*
X7102738Y-14452024D01*
X7112262Y-14471071D01*
X7121786Y-14509167D01*
X7121786Y-14556786D01*
X7112262Y-14594881D01*
X7102738Y-14613928D01*
X7093214Y-14623452D01*
X7074167Y-14632976D01*
X7055119Y-14632976D01*
X7036071Y-14623452D01*
X7026548Y-14613928D01*
X7017024Y-14594881D01*
X7007500Y-14556786D01*
X7007500Y-14509167D01*
X7017024Y-14471071D01*
X7026548Y-14452024D01*
X7036071Y-14442500D01*
X7055119Y-14432976D01*
X7197976Y-14432976D02*
X7197976Y-14471071D01*
X7274167Y-14432976D02*
X7274167Y-14471071D01*
X7569405Y-14709167D02*
X7559881Y-14699643D01*
X7540833Y-14671071D01*
X7531309Y-14652024D01*
X7521786Y-14623452D01*
X7512262Y-14575833D01*
X7512262Y-14537738D01*
X7521786Y-14490119D01*
X7531309Y-14461548D01*
X7540833Y-14442500D01*
X7559881Y-14413928D01*
X7569405Y-14404405D01*
X7731309Y-14499643D02*
X7731309Y-14632976D01*
X7683690Y-14423452D02*
X7636071Y-14566309D01*
X7759881Y-14566309D01*
X7826548Y-14452024D02*
X7836071Y-14442500D01*
X7855119Y-14432976D01*
X7902738Y-14432976D01*
X7921786Y-14442500D01*
X7931309Y-14452024D01*
X7940833Y-14471071D01*
X7940833Y-14490119D01*
X7931309Y-14518690D01*
X7817024Y-14632976D01*
X7940833Y-14632976D01*
X8178928Y-14632976D02*
X8178928Y-14432976D01*
X8264643Y-14632976D02*
X8264643Y-14528214D01*
X8255119Y-14509167D01*
X8236071Y-14499643D01*
X8207500Y-14499643D01*
X8188452Y-14509167D01*
X8178928Y-14518690D01*
X8388452Y-14632976D02*
X8369405Y-14623452D01*
X8359881Y-14613928D01*
X8350357Y-14594881D01*
X8350357Y-14537738D01*
X8359881Y-14518690D01*
X8369405Y-14509167D01*
X8388452Y-14499643D01*
X8417024Y-14499643D01*
X8436071Y-14509167D01*
X8445595Y-14518690D01*
X8455119Y-14537738D01*
X8455119Y-14594881D01*
X8445595Y-14613928D01*
X8436071Y-14623452D01*
X8417024Y-14632976D01*
X8388452Y-14632976D01*
X8569405Y-14632976D02*
X8550357Y-14623452D01*
X8540833Y-14604405D01*
X8540833Y-14432976D01*
X8721786Y-14623452D02*
X8702738Y-14632976D01*
X8664643Y-14632976D01*
X8645595Y-14623452D01*
X8636071Y-14604405D01*
X8636071Y-14528214D01*
X8645595Y-14509167D01*
X8664643Y-14499643D01*
X8702738Y-14499643D01*
X8721786Y-14509167D01*
X8731310Y-14528214D01*
X8731310Y-14547262D01*
X8636071Y-14566309D01*
X8807500Y-14623452D02*
X8826548Y-14632976D01*
X8864643Y-14632976D01*
X8883690Y-14623452D01*
X8893214Y-14604405D01*
X8893214Y-14594881D01*
X8883690Y-14575833D01*
X8864643Y-14566309D01*
X8836071Y-14566309D01*
X8817024Y-14556786D01*
X8807500Y-14537738D01*
X8807500Y-14528214D01*
X8817024Y-14509167D01*
X8836071Y-14499643D01*
X8864643Y-14499643D01*
X8883690Y-14509167D01*
X8959881Y-14709167D02*
X8969405Y-14699643D01*
X8988452Y-14671071D01*
X8997976Y-14652024D01*
X9007500Y-14623452D01*
X9017024Y-14575833D01*
X9017024Y-14537738D01*
X9007500Y-14490119D01*
X8997976Y-14461548D01*
X8988452Y-14442500D01*
X8969405Y-14413928D01*
X8959881Y-14404405D01*
X9321786Y-14709167D02*
X9312262Y-14699643D01*
X9293214Y-14671071D01*
X9283690Y-14652024D01*
X9274167Y-14623452D01*
X9264643Y-14575833D01*
X9264643Y-14537738D01*
X9274167Y-14490119D01*
X9283690Y-14461548D01*
X9293214Y-14442500D01*
X9312262Y-14413928D01*
X9321786Y-14404405D01*
X9397976Y-14499643D02*
X9397976Y-14632976D01*
X9397976Y-14518690D02*
X9407500Y-14509167D01*
X9426548Y-14499643D01*
X9455119Y-14499643D01*
X9474167Y-14509167D01*
X9483690Y-14528214D01*
X9483690Y-14632976D01*
X9607500Y-14632976D02*
X9588452Y-14623452D01*
X9578929Y-14613928D01*
X9569405Y-14594881D01*
X9569405Y-14537738D01*
X9578929Y-14518690D01*
X9588452Y-14509167D01*
X9607500Y-14499643D01*
X9636071Y-14499643D01*
X9655119Y-14509167D01*
X9664643Y-14518690D01*
X9674167Y-14537738D01*
X9674167Y-14594881D01*
X9664643Y-14613928D01*
X9655119Y-14623452D01*
X9636071Y-14632976D01*
X9607500Y-14632976D01*
X9731310Y-14499643D02*
X9807500Y-14499643D01*
X9759881Y-14432976D02*
X9759881Y-14604405D01*
X9769405Y-14623452D01*
X9788452Y-14632976D01*
X9807500Y-14632976D01*
X10026548Y-14499643D02*
X10026548Y-14699643D01*
X10026548Y-14509167D02*
X10045595Y-14499643D01*
X10083690Y-14499643D01*
X10102738Y-14509167D01*
X10112262Y-14518690D01*
X10121786Y-14537738D01*
X10121786Y-14594881D01*
X10112262Y-14613928D01*
X10102738Y-14623452D01*
X10083690Y-14632976D01*
X10045595Y-14632976D01*
X10026548Y-14623452D01*
X10236071Y-14632976D02*
X10217024Y-14623452D01*
X10207500Y-14604405D01*
X10207500Y-14432976D01*
X10397976Y-14632976D02*
X10397976Y-14528214D01*
X10388452Y-14509167D01*
X10369405Y-14499643D01*
X10331310Y-14499643D01*
X10312262Y-14509167D01*
X10397976Y-14623452D02*
X10378929Y-14632976D01*
X10331310Y-14632976D01*
X10312262Y-14623452D01*
X10302738Y-14604405D01*
X10302738Y-14585357D01*
X10312262Y-14566309D01*
X10331310Y-14556786D01*
X10378929Y-14556786D01*
X10397976Y-14547262D01*
X10464643Y-14499643D02*
X10540833Y-14499643D01*
X10493214Y-14432976D02*
X10493214Y-14604405D01*
X10502738Y-14623452D01*
X10521786Y-14632976D01*
X10540833Y-14632976D01*
X10683690Y-14623452D02*
X10664643Y-14632976D01*
X10626548Y-14632976D01*
X10607500Y-14623452D01*
X10597976Y-14604405D01*
X10597976Y-14528214D01*
X10607500Y-14509167D01*
X10626548Y-14499643D01*
X10664643Y-14499643D01*
X10683690Y-14509167D01*
X10693214Y-14528214D01*
X10693214Y-14547262D01*
X10597976Y-14566309D01*
X10864643Y-14632976D02*
X10864643Y-14432976D01*
X10864643Y-14623452D02*
X10845595Y-14632976D01*
X10807500Y-14632976D01*
X10788452Y-14623452D01*
X10778929Y-14613928D01*
X10769405Y-14594881D01*
X10769405Y-14537738D01*
X10778929Y-14518690D01*
X10788452Y-14509167D01*
X10807500Y-14499643D01*
X10845595Y-14499643D01*
X10864643Y-14509167D01*
X10940833Y-14709167D02*
X10950357Y-14699643D01*
X10969405Y-14671071D01*
X10978929Y-14652024D01*
X10988452Y-14623452D01*
X10997976Y-14575833D01*
X10997976Y-14537738D01*
X10988452Y-14490119D01*
X10978929Y-14461548D01*
X10969405Y-14442500D01*
X10950357Y-14413928D01*
X10940833Y-14404405D01*
D13*
X3997500Y-14822500D02*
G75*
G03*
X3997500Y-14822500I-95000J0D01*
G01*
D11*
X4359881Y-14912976D02*
X4245595Y-14912976D01*
X4302738Y-14912976D02*
X4302738Y-14712976D01*
X4283690Y-14741548D01*
X4264643Y-14760595D01*
X4245595Y-14770119D01*
X4445595Y-14893928D02*
X4455119Y-14903452D01*
X4445595Y-14912976D01*
X4436071Y-14903452D01*
X4445595Y-14893928D01*
X4445595Y-14912976D01*
X4550357Y-14912976D02*
X4588452Y-14912976D01*
X4607500Y-14903452D01*
X4617024Y-14893928D01*
X4636071Y-14865357D01*
X4645595Y-14827262D01*
X4645595Y-14751071D01*
X4636071Y-14732024D01*
X4626548Y-14722500D01*
X4607500Y-14712976D01*
X4569405Y-14712976D01*
X4550357Y-14722500D01*
X4540833Y-14732024D01*
X4531310Y-14751071D01*
X4531310Y-14798690D01*
X4540833Y-14817738D01*
X4550357Y-14827262D01*
X4569405Y-14836786D01*
X4607500Y-14836786D01*
X4626548Y-14827262D01*
X4636071Y-14817738D01*
X4645595Y-14798690D01*
X4769405Y-14712976D02*
X4788452Y-14712976D01*
X4807500Y-14722500D01*
X4817024Y-14732024D01*
X4826548Y-14751071D01*
X4836071Y-14789167D01*
X4836071Y-14836786D01*
X4826548Y-14874881D01*
X4817024Y-14893928D01*
X4807500Y-14903452D01*
X4788452Y-14912976D01*
X4769405Y-14912976D01*
X4750357Y-14903452D01*
X4740833Y-14893928D01*
X4731310Y-14874881D01*
X4721786Y-14836786D01*
X4721786Y-14789167D01*
X4731310Y-14751071D01*
X4740833Y-14732024D01*
X4750357Y-14722500D01*
X4769405Y-14712976D01*
X4959881Y-14712976D02*
X4978929Y-14712976D01*
X4997976Y-14722500D01*
X5007500Y-14732024D01*
X5017024Y-14751071D01*
X5026548Y-14789167D01*
X5026548Y-14836786D01*
X5017024Y-14874881D01*
X5007500Y-14893928D01*
X4997976Y-14903452D01*
X4978929Y-14912976D01*
X4959881Y-14912976D01*
X4940833Y-14903452D01*
X4931310Y-14893928D01*
X4921786Y-14874881D01*
X4912262Y-14836786D01*
X4912262Y-14789167D01*
X4921786Y-14751071D01*
X4931310Y-14732024D01*
X4940833Y-14722500D01*
X4959881Y-14712976D01*
X5112262Y-14912976D02*
X5112262Y-14779643D01*
X5112262Y-14798690D02*
X5121786Y-14789167D01*
X5140833Y-14779643D01*
X5169405Y-14779643D01*
X5188452Y-14789167D01*
X5197976Y-14808214D01*
X5197976Y-14912976D01*
X5197976Y-14808214D02*
X5207500Y-14789167D01*
X5226548Y-14779643D01*
X5255119Y-14779643D01*
X5274167Y-14789167D01*
X5283690Y-14808214D01*
X5283690Y-14912976D01*
X5378929Y-14912976D02*
X5378929Y-14779643D01*
X5378929Y-14798690D02*
X5388452Y-14789167D01*
X5407500Y-14779643D01*
X5436071Y-14779643D01*
X5455119Y-14789167D01*
X5464643Y-14808214D01*
X5464643Y-14912976D01*
X5464643Y-14808214D02*
X5474167Y-14789167D01*
X5493214Y-14779643D01*
X5521786Y-14779643D01*
X5540833Y-14789167D01*
X5550357Y-14808214D01*
X5550357Y-14912976D01*
X5940833Y-14703452D02*
X5769405Y-14960595D01*
X6197976Y-14712976D02*
X6217024Y-14712976D01*
X6236071Y-14722500D01*
X6245595Y-14732024D01*
X6255119Y-14751071D01*
X6264643Y-14789167D01*
X6264643Y-14836786D01*
X6255119Y-14874881D01*
X6245595Y-14893928D01*
X6236071Y-14903452D01*
X6217024Y-14912976D01*
X6197976Y-14912976D01*
X6178928Y-14903452D01*
X6169405Y-14893928D01*
X6159881Y-14874881D01*
X6150357Y-14836786D01*
X6150357Y-14789167D01*
X6159881Y-14751071D01*
X6169405Y-14732024D01*
X6178928Y-14722500D01*
X6197976Y-14712976D01*
X6350357Y-14893928D02*
X6359881Y-14903452D01*
X6350357Y-14912976D01*
X6340833Y-14903452D01*
X6350357Y-14893928D01*
X6350357Y-14912976D01*
X6483690Y-14712976D02*
X6502738Y-14712976D01*
X6521786Y-14722500D01*
X6531309Y-14732024D01*
X6540833Y-14751071D01*
X6550357Y-14789167D01*
X6550357Y-14836786D01*
X6540833Y-14874881D01*
X6531309Y-14893928D01*
X6521786Y-14903452D01*
X6502738Y-14912976D01*
X6483690Y-14912976D01*
X6464643Y-14903452D01*
X6455119Y-14893928D01*
X6445595Y-14874881D01*
X6436071Y-14836786D01*
X6436071Y-14789167D01*
X6445595Y-14751071D01*
X6455119Y-14732024D01*
X6464643Y-14722500D01*
X6483690Y-14712976D01*
X6617024Y-14712976D02*
X6750357Y-14712976D01*
X6664643Y-14912976D01*
X6912262Y-14779643D02*
X6912262Y-14912976D01*
X6864643Y-14703452D02*
X6817024Y-14846309D01*
X6940833Y-14846309D01*
X7045595Y-14798690D02*
X7026548Y-14789167D01*
X7017024Y-14779643D01*
X7007500Y-14760595D01*
X7007500Y-14751071D01*
X7017024Y-14732024D01*
X7026548Y-14722500D01*
X7045595Y-14712976D01*
X7083690Y-14712976D01*
X7102738Y-14722500D01*
X7112262Y-14732024D01*
X7121786Y-14751071D01*
X7121786Y-14760595D01*
X7112262Y-14779643D01*
X7102738Y-14789167D01*
X7083690Y-14798690D01*
X7045595Y-14798690D01*
X7026548Y-14808214D01*
X7017024Y-14817738D01*
X7007500Y-14836786D01*
X7007500Y-14874881D01*
X7017024Y-14893928D01*
X7026548Y-14903452D01*
X7045595Y-14912976D01*
X7083690Y-14912976D01*
X7102738Y-14903452D01*
X7112262Y-14893928D01*
X7121786Y-14874881D01*
X7121786Y-14836786D01*
X7112262Y-14817738D01*
X7102738Y-14808214D01*
X7083690Y-14798690D01*
X7197976Y-14712976D02*
X7197976Y-14751071D01*
X7274167Y-14712976D02*
X7274167Y-14751071D01*
X7569405Y-14989167D02*
X7559881Y-14979643D01*
X7540833Y-14951071D01*
X7531309Y-14932024D01*
X7521786Y-14903452D01*
X7512262Y-14855833D01*
X7512262Y-14817738D01*
X7521786Y-14770119D01*
X7531309Y-14741548D01*
X7540833Y-14722500D01*
X7559881Y-14693928D01*
X7569405Y-14684405D01*
X7674167Y-14798690D02*
X7655119Y-14789167D01*
X7645595Y-14779643D01*
X7636071Y-14760595D01*
X7636071Y-14751071D01*
X7645595Y-14732024D01*
X7655119Y-14722500D01*
X7674167Y-14712976D01*
X7712262Y-14712976D01*
X7731309Y-14722500D01*
X7740833Y-14732024D01*
X7750357Y-14751071D01*
X7750357Y-14760595D01*
X7740833Y-14779643D01*
X7731309Y-14789167D01*
X7712262Y-14798690D01*
X7674167Y-14798690D01*
X7655119Y-14808214D01*
X7645595Y-14817738D01*
X7636071Y-14836786D01*
X7636071Y-14874881D01*
X7645595Y-14893928D01*
X7655119Y-14903452D01*
X7674167Y-14912976D01*
X7712262Y-14912976D01*
X7731309Y-14903452D01*
X7740833Y-14893928D01*
X7750357Y-14874881D01*
X7750357Y-14836786D01*
X7740833Y-14817738D01*
X7731309Y-14808214D01*
X7712262Y-14798690D01*
X7921786Y-14779643D02*
X7921786Y-14912976D01*
X7874167Y-14703452D02*
X7826548Y-14846309D01*
X7950357Y-14846309D01*
X8178928Y-14912976D02*
X8178928Y-14712976D01*
X8264643Y-14912976D02*
X8264643Y-14808214D01*
X8255119Y-14789167D01*
X8236071Y-14779643D01*
X8207500Y-14779643D01*
X8188452Y-14789167D01*
X8178928Y-14798690D01*
X8388452Y-14912976D02*
X8369405Y-14903452D01*
X8359881Y-14893928D01*
X8350357Y-14874881D01*
X8350357Y-14817738D01*
X8359881Y-14798690D01*
X8369405Y-14789167D01*
X8388452Y-14779643D01*
X8417024Y-14779643D01*
X8436071Y-14789167D01*
X8445595Y-14798690D01*
X8455119Y-14817738D01*
X8455119Y-14874881D01*
X8445595Y-14893928D01*
X8436071Y-14903452D01*
X8417024Y-14912976D01*
X8388452Y-14912976D01*
X8569405Y-14912976D02*
X8550357Y-14903452D01*
X8540833Y-14884405D01*
X8540833Y-14712976D01*
X8721786Y-14903452D02*
X8702738Y-14912976D01*
X8664643Y-14912976D01*
X8645595Y-14903452D01*
X8636071Y-14884405D01*
X8636071Y-14808214D01*
X8645595Y-14789167D01*
X8664643Y-14779643D01*
X8702738Y-14779643D01*
X8721786Y-14789167D01*
X8731310Y-14808214D01*
X8731310Y-14827262D01*
X8636071Y-14846309D01*
X8807500Y-14903452D02*
X8826548Y-14912976D01*
X8864643Y-14912976D01*
X8883690Y-14903452D01*
X8893214Y-14884405D01*
X8893214Y-14874881D01*
X8883690Y-14855833D01*
X8864643Y-14846309D01*
X8836071Y-14846309D01*
X8817024Y-14836786D01*
X8807500Y-14817738D01*
X8807500Y-14808214D01*
X8817024Y-14789167D01*
X8836071Y-14779643D01*
X8864643Y-14779643D01*
X8883690Y-14789167D01*
X8959881Y-14989167D02*
X8969405Y-14979643D01*
X8988452Y-14951071D01*
X8997976Y-14932024D01*
X9007500Y-14903452D01*
X9017024Y-14855833D01*
X9017024Y-14817738D01*
X9007500Y-14770119D01*
X8997976Y-14741548D01*
X8988452Y-14722500D01*
X8969405Y-14693928D01*
X8959881Y-14684405D01*
X9321786Y-14989167D02*
X9312262Y-14979643D01*
X9293214Y-14951071D01*
X9283690Y-14932024D01*
X9274167Y-14903452D01*
X9264643Y-14855833D01*
X9264643Y-14817738D01*
X9274167Y-14770119D01*
X9283690Y-14741548D01*
X9293214Y-14722500D01*
X9312262Y-14693928D01*
X9321786Y-14684405D01*
X9397976Y-14779643D02*
X9397976Y-14912976D01*
X9397976Y-14798690D02*
X9407500Y-14789167D01*
X9426548Y-14779643D01*
X9455119Y-14779643D01*
X9474167Y-14789167D01*
X9483690Y-14808214D01*
X9483690Y-14912976D01*
X9607500Y-14912976D02*
X9588452Y-14903452D01*
X9578929Y-14893928D01*
X9569405Y-14874881D01*
X9569405Y-14817738D01*
X9578929Y-14798690D01*
X9588452Y-14789167D01*
X9607500Y-14779643D01*
X9636071Y-14779643D01*
X9655119Y-14789167D01*
X9664643Y-14798690D01*
X9674167Y-14817738D01*
X9674167Y-14874881D01*
X9664643Y-14893928D01*
X9655119Y-14903452D01*
X9636071Y-14912976D01*
X9607500Y-14912976D01*
X9731310Y-14779643D02*
X9807500Y-14779643D01*
X9759881Y-14712976D02*
X9759881Y-14884405D01*
X9769405Y-14903452D01*
X9788452Y-14912976D01*
X9807500Y-14912976D01*
X10026548Y-14779643D02*
X10026548Y-14979643D01*
X10026548Y-14789167D02*
X10045595Y-14779643D01*
X10083690Y-14779643D01*
X10102738Y-14789167D01*
X10112262Y-14798690D01*
X10121786Y-14817738D01*
X10121786Y-14874881D01*
X10112262Y-14893928D01*
X10102738Y-14903452D01*
X10083690Y-14912976D01*
X10045595Y-14912976D01*
X10026548Y-14903452D01*
X10236071Y-14912976D02*
X10217024Y-14903452D01*
X10207500Y-14884405D01*
X10207500Y-14712976D01*
X10397976Y-14912976D02*
X10397976Y-14808214D01*
X10388452Y-14789167D01*
X10369405Y-14779643D01*
X10331310Y-14779643D01*
X10312262Y-14789167D01*
X10397976Y-14903452D02*
X10378929Y-14912976D01*
X10331310Y-14912976D01*
X10312262Y-14903452D01*
X10302738Y-14884405D01*
X10302738Y-14865357D01*
X10312262Y-14846309D01*
X10331310Y-14836786D01*
X10378929Y-14836786D01*
X10397976Y-14827262D01*
X10464643Y-14779643D02*
X10540833Y-14779643D01*
X10493214Y-14712976D02*
X10493214Y-14884405D01*
X10502738Y-14903452D01*
X10521786Y-14912976D01*
X10540833Y-14912976D01*
X10683690Y-14903452D02*
X10664643Y-14912976D01*
X10626548Y-14912976D01*
X10607500Y-14903452D01*
X10597976Y-14884405D01*
X10597976Y-14808214D01*
X10607500Y-14789167D01*
X10626548Y-14779643D01*
X10664643Y-14779643D01*
X10683690Y-14789167D01*
X10693214Y-14808214D01*
X10693214Y-14827262D01*
X10597976Y-14846309D01*
X10864643Y-14912976D02*
X10864643Y-14712976D01*
X10864643Y-14903452D02*
X10845595Y-14912976D01*
X10807500Y-14912976D01*
X10788452Y-14903452D01*
X10778929Y-14893928D01*
X10769405Y-14874881D01*
X10769405Y-14817738D01*
X10778929Y-14798690D01*
X10788452Y-14789167D01*
X10807500Y-14779643D01*
X10845595Y-14779643D01*
X10864643Y-14789167D01*
X10940833Y-14989167D02*
X10950357Y-14979643D01*
X10969405Y-14951071D01*
X10978929Y-14932024D01*
X10988452Y-14903452D01*
X10997976Y-14855833D01*
X10997976Y-14817738D01*
X10988452Y-14770119D01*
X10978929Y-14741548D01*
X10969405Y-14722500D01*
X10950357Y-14693928D01*
X10940833Y-14684405D01*
X3897500Y-15032500D02*
X3897500Y-15232500D01*
X3797500Y-15132500D02*
X3997500Y-15132500D01*
X4236071Y-15022976D02*
X4359881Y-15022976D01*
X4293214Y-15099167D01*
X4321786Y-15099167D01*
X4340833Y-15108690D01*
X4350357Y-15118214D01*
X4359881Y-15137262D01*
X4359881Y-15184881D01*
X4350357Y-15203928D01*
X4340833Y-15213452D01*
X4321786Y-15222976D01*
X4264643Y-15222976D01*
X4245595Y-15213452D01*
X4236071Y-15203928D01*
X4445595Y-15203928D02*
X4455119Y-15213452D01*
X4445595Y-15222976D01*
X4436071Y-15213452D01*
X4445595Y-15203928D01*
X4445595Y-15222976D01*
X4578929Y-15022976D02*
X4597976Y-15022976D01*
X4617024Y-15032500D01*
X4626548Y-15042024D01*
X4636071Y-15061071D01*
X4645595Y-15099167D01*
X4645595Y-15146786D01*
X4636071Y-15184881D01*
X4626548Y-15203928D01*
X4617024Y-15213452D01*
X4597976Y-15222976D01*
X4578929Y-15222976D01*
X4559881Y-15213452D01*
X4550357Y-15203928D01*
X4540833Y-15184881D01*
X4531310Y-15146786D01*
X4531310Y-15099167D01*
X4540833Y-15061071D01*
X4550357Y-15042024D01*
X4559881Y-15032500D01*
X4578929Y-15022976D01*
X4826548Y-15022976D02*
X4731310Y-15022976D01*
X4721786Y-15118214D01*
X4731310Y-15108690D01*
X4750357Y-15099167D01*
X4797976Y-15099167D01*
X4817024Y-15108690D01*
X4826548Y-15118214D01*
X4836071Y-15137262D01*
X4836071Y-15184881D01*
X4826548Y-15203928D01*
X4817024Y-15213452D01*
X4797976Y-15222976D01*
X4750357Y-15222976D01*
X4731310Y-15213452D01*
X4721786Y-15203928D01*
X4959881Y-15022976D02*
X4978929Y-15022976D01*
X4997976Y-15032500D01*
X5007500Y-15042024D01*
X5017024Y-15061071D01*
X5026548Y-15099167D01*
X5026548Y-15146786D01*
X5017024Y-15184881D01*
X5007500Y-15203928D01*
X4997976Y-15213452D01*
X4978929Y-15222976D01*
X4959881Y-15222976D01*
X4940833Y-15213452D01*
X4931310Y-15203928D01*
X4921786Y-15184881D01*
X4912262Y-15146786D01*
X4912262Y-15099167D01*
X4921786Y-15061071D01*
X4931310Y-15042024D01*
X4940833Y-15032500D01*
X4959881Y-15022976D01*
X5112262Y-15222976D02*
X5112262Y-15089643D01*
X5112262Y-15108690D02*
X5121786Y-15099167D01*
X5140833Y-15089643D01*
X5169405Y-15089643D01*
X5188452Y-15099167D01*
X5197976Y-15118214D01*
X5197976Y-15222976D01*
X5197976Y-15118214D02*
X5207500Y-15099167D01*
X5226548Y-15089643D01*
X5255119Y-15089643D01*
X5274167Y-15099167D01*
X5283690Y-15118214D01*
X5283690Y-15222976D01*
X5378929Y-15222976D02*
X5378929Y-15089643D01*
X5378929Y-15108690D02*
X5388452Y-15099167D01*
X5407500Y-15089643D01*
X5436071Y-15089643D01*
X5455119Y-15099167D01*
X5464643Y-15118214D01*
X5464643Y-15222976D01*
X5464643Y-15118214D02*
X5474167Y-15099167D01*
X5493214Y-15089643D01*
X5521786Y-15089643D01*
X5540833Y-15099167D01*
X5550357Y-15118214D01*
X5550357Y-15222976D01*
X5940833Y-15013452D02*
X5769405Y-15270595D01*
X6197976Y-15022976D02*
X6217024Y-15022976D01*
X6236071Y-15032500D01*
X6245595Y-15042024D01*
X6255119Y-15061071D01*
X6264643Y-15099167D01*
X6264643Y-15146786D01*
X6255119Y-15184881D01*
X6245595Y-15203928D01*
X6236071Y-15213452D01*
X6217024Y-15222976D01*
X6197976Y-15222976D01*
X6178928Y-15213452D01*
X6169405Y-15203928D01*
X6159881Y-15184881D01*
X6150357Y-15146786D01*
X6150357Y-15099167D01*
X6159881Y-15061071D01*
X6169405Y-15042024D01*
X6178928Y-15032500D01*
X6197976Y-15022976D01*
X6350357Y-15203928D02*
X6359881Y-15213452D01*
X6350357Y-15222976D01*
X6340833Y-15213452D01*
X6350357Y-15203928D01*
X6350357Y-15222976D01*
X6550357Y-15222976D02*
X6436071Y-15222976D01*
X6493214Y-15222976D02*
X6493214Y-15022976D01*
X6474167Y-15051548D01*
X6455119Y-15070595D01*
X6436071Y-15080119D01*
X6626548Y-15042024D02*
X6636071Y-15032500D01*
X6655119Y-15022976D01*
X6702738Y-15022976D01*
X6721786Y-15032500D01*
X6731309Y-15042024D01*
X6740833Y-15061071D01*
X6740833Y-15080119D01*
X6731309Y-15108690D01*
X6617024Y-15222976D01*
X6740833Y-15222976D01*
X6864643Y-15022976D02*
X6883690Y-15022976D01*
X6902738Y-15032500D01*
X6912262Y-15042024D01*
X6921786Y-15061071D01*
X6931309Y-15099167D01*
X6931309Y-15146786D01*
X6921786Y-15184881D01*
X6912262Y-15203928D01*
X6902738Y-15213452D01*
X6883690Y-15222976D01*
X6864643Y-15222976D01*
X6845595Y-15213452D01*
X6836071Y-15203928D01*
X6826548Y-15184881D01*
X6817024Y-15146786D01*
X6817024Y-15099167D01*
X6826548Y-15061071D01*
X6836071Y-15042024D01*
X6845595Y-15032500D01*
X6864643Y-15022976D01*
X7121786Y-15222976D02*
X7007500Y-15222976D01*
X7064643Y-15222976D02*
X7064643Y-15022976D01*
X7045595Y-15051548D01*
X7026548Y-15070595D01*
X7007500Y-15080119D01*
X7197976Y-15022976D02*
X7197976Y-15061071D01*
X7274167Y-15022976D02*
X7274167Y-15061071D01*
X7569405Y-15299167D02*
X7559881Y-15289643D01*
X7540833Y-15261071D01*
X7531309Y-15242024D01*
X7521786Y-15213452D01*
X7512262Y-15165833D01*
X7512262Y-15127738D01*
X7521786Y-15080119D01*
X7531309Y-15051548D01*
X7540833Y-15032500D01*
X7559881Y-15003928D01*
X7569405Y-14994405D01*
X7674167Y-15108690D02*
X7655119Y-15099167D01*
X7645595Y-15089643D01*
X7636071Y-15070595D01*
X7636071Y-15061071D01*
X7645595Y-15042024D01*
X7655119Y-15032500D01*
X7674167Y-15022976D01*
X7712262Y-15022976D01*
X7731309Y-15032500D01*
X7740833Y-15042024D01*
X7750357Y-15061071D01*
X7750357Y-15070595D01*
X7740833Y-15089643D01*
X7731309Y-15099167D01*
X7712262Y-15108690D01*
X7674167Y-15108690D01*
X7655119Y-15118214D01*
X7645595Y-15127738D01*
X7636071Y-15146786D01*
X7636071Y-15184881D01*
X7645595Y-15203928D01*
X7655119Y-15213452D01*
X7674167Y-15222976D01*
X7712262Y-15222976D01*
X7731309Y-15213452D01*
X7740833Y-15203928D01*
X7750357Y-15184881D01*
X7750357Y-15146786D01*
X7740833Y-15127738D01*
X7731309Y-15118214D01*
X7712262Y-15108690D01*
X7921786Y-15089643D02*
X7921786Y-15222976D01*
X7874167Y-15013452D02*
X7826548Y-15156309D01*
X7950357Y-15156309D01*
X8178928Y-15222976D02*
X8178928Y-15022976D01*
X8264643Y-15222976D02*
X8264643Y-15118214D01*
X8255119Y-15099167D01*
X8236071Y-15089643D01*
X8207500Y-15089643D01*
X8188452Y-15099167D01*
X8178928Y-15108690D01*
X8388452Y-15222976D02*
X8369405Y-15213452D01*
X8359881Y-15203928D01*
X8350357Y-15184881D01*
X8350357Y-15127738D01*
X8359881Y-15108690D01*
X8369405Y-15099167D01*
X8388452Y-15089643D01*
X8417024Y-15089643D01*
X8436071Y-15099167D01*
X8445595Y-15108690D01*
X8455119Y-15127738D01*
X8455119Y-15184881D01*
X8445595Y-15203928D01*
X8436071Y-15213452D01*
X8417024Y-15222976D01*
X8388452Y-15222976D01*
X8569405Y-15222976D02*
X8550357Y-15213452D01*
X8540833Y-15194405D01*
X8540833Y-15022976D01*
X8721786Y-15213452D02*
X8702738Y-15222976D01*
X8664643Y-15222976D01*
X8645595Y-15213452D01*
X8636071Y-15194405D01*
X8636071Y-15118214D01*
X8645595Y-15099167D01*
X8664643Y-15089643D01*
X8702738Y-15089643D01*
X8721786Y-15099167D01*
X8731310Y-15118214D01*
X8731310Y-15137262D01*
X8636071Y-15156309D01*
X8807500Y-15213452D02*
X8826548Y-15222976D01*
X8864643Y-15222976D01*
X8883690Y-15213452D01*
X8893214Y-15194405D01*
X8893214Y-15184881D01*
X8883690Y-15165833D01*
X8864643Y-15156309D01*
X8836071Y-15156309D01*
X8817024Y-15146786D01*
X8807500Y-15127738D01*
X8807500Y-15118214D01*
X8817024Y-15099167D01*
X8836071Y-15089643D01*
X8864643Y-15089643D01*
X8883690Y-15099167D01*
X8959881Y-15299167D02*
X8969405Y-15289643D01*
X8988452Y-15261071D01*
X8997976Y-15242024D01*
X9007500Y-15213452D01*
X9017024Y-15165833D01*
X9017024Y-15127738D01*
X9007500Y-15080119D01*
X8997976Y-15051548D01*
X8988452Y-15032500D01*
X8969405Y-15003928D01*
X8959881Y-14994405D01*
X9321786Y-15299167D02*
X9312262Y-15289643D01*
X9293214Y-15261071D01*
X9283690Y-15242024D01*
X9274167Y-15213452D01*
X9264643Y-15165833D01*
X9264643Y-15127738D01*
X9274167Y-15080119D01*
X9283690Y-15051548D01*
X9293214Y-15032500D01*
X9312262Y-15003928D01*
X9321786Y-14994405D01*
X9397976Y-15089643D02*
X9397976Y-15222976D01*
X9397976Y-15108690D02*
X9407500Y-15099167D01*
X9426548Y-15089643D01*
X9455119Y-15089643D01*
X9474167Y-15099167D01*
X9483690Y-15118214D01*
X9483690Y-15222976D01*
X9607500Y-15222976D02*
X9588452Y-15213452D01*
X9578929Y-15203928D01*
X9569405Y-15184881D01*
X9569405Y-15127738D01*
X9578929Y-15108690D01*
X9588452Y-15099167D01*
X9607500Y-15089643D01*
X9636071Y-15089643D01*
X9655119Y-15099167D01*
X9664643Y-15108690D01*
X9674167Y-15127738D01*
X9674167Y-15184881D01*
X9664643Y-15203928D01*
X9655119Y-15213452D01*
X9636071Y-15222976D01*
X9607500Y-15222976D01*
X9731310Y-15089643D02*
X9807500Y-15089643D01*
X9759881Y-15022976D02*
X9759881Y-15194405D01*
X9769405Y-15213452D01*
X9788452Y-15222976D01*
X9807500Y-15222976D01*
X10026548Y-15089643D02*
X10026548Y-15289643D01*
X10026548Y-15099167D02*
X10045595Y-15089643D01*
X10083690Y-15089643D01*
X10102738Y-15099167D01*
X10112262Y-15108690D01*
X10121786Y-15127738D01*
X10121786Y-15184881D01*
X10112262Y-15203928D01*
X10102738Y-15213452D01*
X10083690Y-15222976D01*
X10045595Y-15222976D01*
X10026548Y-15213452D01*
X10236071Y-15222976D02*
X10217024Y-15213452D01*
X10207500Y-15194405D01*
X10207500Y-15022976D01*
X10397976Y-15222976D02*
X10397976Y-15118214D01*
X10388452Y-15099167D01*
X10369405Y-15089643D01*
X10331310Y-15089643D01*
X10312262Y-15099167D01*
X10397976Y-15213452D02*
X10378929Y-15222976D01*
X10331310Y-15222976D01*
X10312262Y-15213452D01*
X10302738Y-15194405D01*
X10302738Y-15175357D01*
X10312262Y-15156309D01*
X10331310Y-15146786D01*
X10378929Y-15146786D01*
X10397976Y-15137262D01*
X10464643Y-15089643D02*
X10540833Y-15089643D01*
X10493214Y-15022976D02*
X10493214Y-15194405D01*
X10502738Y-15213452D01*
X10521786Y-15222976D01*
X10540833Y-15222976D01*
X10683690Y-15213452D02*
X10664643Y-15222976D01*
X10626548Y-15222976D01*
X10607500Y-15213452D01*
X10597976Y-15194405D01*
X10597976Y-15118214D01*
X10607500Y-15099167D01*
X10626548Y-15089643D01*
X10664643Y-15089643D01*
X10683690Y-15099167D01*
X10693214Y-15118214D01*
X10693214Y-15137262D01*
X10597976Y-15156309D01*
X10864643Y-15222976D02*
X10864643Y-15022976D01*
X10864643Y-15213452D02*
X10845595Y-15222976D01*
X10807500Y-15222976D01*
X10788452Y-15213452D01*
X10778929Y-15203928D01*
X10769405Y-15184881D01*
X10769405Y-15127738D01*
X10778929Y-15108690D01*
X10788452Y-15099167D01*
X10807500Y-15089643D01*
X10845595Y-15089643D01*
X10864643Y-15099167D01*
X10940833Y-15299167D02*
X10950357Y-15289643D01*
X10969405Y-15261071D01*
X10978929Y-15242024D01*
X10988452Y-15213452D01*
X10997976Y-15165833D01*
X10997976Y-15127738D01*
X10988452Y-15080119D01*
X10978929Y-15051548D01*
X10969405Y-15032500D01*
X10950357Y-15003928D01*
X10940833Y-14994405D01*
X3968211Y-15523211D02*
X3968211Y-15381789D01*
X3826789Y-15381789D01*
X3826789Y-15523211D01*
X3968211Y-15523211D01*
X4350357Y-15342976D02*
X4255119Y-15342976D01*
X4245595Y-15438214D01*
X4255119Y-15428690D01*
X4274167Y-15419167D01*
X4321786Y-15419167D01*
X4340833Y-15428690D01*
X4350357Y-15438214D01*
X4359881Y-15457262D01*
X4359881Y-15504881D01*
X4350357Y-15523928D01*
X4340833Y-15533452D01*
X4321786Y-15542976D01*
X4274167Y-15542976D01*
X4255119Y-15533452D01*
X4245595Y-15523928D01*
X4445595Y-15523928D02*
X4455119Y-15533452D01*
X4445595Y-15542976D01*
X4436071Y-15533452D01*
X4445595Y-15523928D01*
X4445595Y-15542976D01*
X4578929Y-15342976D02*
X4597976Y-15342976D01*
X4617024Y-15352500D01*
X4626548Y-15362024D01*
X4636071Y-15381071D01*
X4645595Y-15419167D01*
X4645595Y-15466786D01*
X4636071Y-15504881D01*
X4626548Y-15523928D01*
X4617024Y-15533452D01*
X4597976Y-15542976D01*
X4578929Y-15542976D01*
X4559881Y-15533452D01*
X4550357Y-15523928D01*
X4540833Y-15504881D01*
X4531310Y-15466786D01*
X4531310Y-15419167D01*
X4540833Y-15381071D01*
X4550357Y-15362024D01*
X4559881Y-15352500D01*
X4578929Y-15342976D01*
X4826548Y-15342976D02*
X4731310Y-15342976D01*
X4721786Y-15438214D01*
X4731310Y-15428690D01*
X4750357Y-15419167D01*
X4797976Y-15419167D01*
X4817024Y-15428690D01*
X4826548Y-15438214D01*
X4836071Y-15457262D01*
X4836071Y-15504881D01*
X4826548Y-15523928D01*
X4817024Y-15533452D01*
X4797976Y-15542976D01*
X4750357Y-15542976D01*
X4731310Y-15533452D01*
X4721786Y-15523928D01*
X4959881Y-15342976D02*
X4978929Y-15342976D01*
X4997976Y-15352500D01*
X5007500Y-15362024D01*
X5017024Y-15381071D01*
X5026548Y-15419167D01*
X5026548Y-15466786D01*
X5017024Y-15504881D01*
X5007500Y-15523928D01*
X4997976Y-15533452D01*
X4978929Y-15542976D01*
X4959881Y-15542976D01*
X4940833Y-15533452D01*
X4931310Y-15523928D01*
X4921786Y-15504881D01*
X4912262Y-15466786D01*
X4912262Y-15419167D01*
X4921786Y-15381071D01*
X4931310Y-15362024D01*
X4940833Y-15352500D01*
X4959881Y-15342976D01*
X5112262Y-15542976D02*
X5112262Y-15409643D01*
X5112262Y-15428690D02*
X5121786Y-15419167D01*
X5140833Y-15409643D01*
X5169405Y-15409643D01*
X5188452Y-15419167D01*
X5197976Y-15438214D01*
X5197976Y-15542976D01*
X5197976Y-15438214D02*
X5207500Y-15419167D01*
X5226548Y-15409643D01*
X5255119Y-15409643D01*
X5274167Y-15419167D01*
X5283690Y-15438214D01*
X5283690Y-15542976D01*
X5378929Y-15542976D02*
X5378929Y-15409643D01*
X5378929Y-15428690D02*
X5388452Y-15419167D01*
X5407500Y-15409643D01*
X5436071Y-15409643D01*
X5455119Y-15419167D01*
X5464643Y-15438214D01*
X5464643Y-15542976D01*
X5464643Y-15438214D02*
X5474167Y-15419167D01*
X5493214Y-15409643D01*
X5521786Y-15409643D01*
X5540833Y-15419167D01*
X5550357Y-15438214D01*
X5550357Y-15542976D01*
X5940833Y-15333452D02*
X5769405Y-15590595D01*
X6197976Y-15342976D02*
X6217024Y-15342976D01*
X6236071Y-15352500D01*
X6245595Y-15362024D01*
X6255119Y-15381071D01*
X6264643Y-15419167D01*
X6264643Y-15466786D01*
X6255119Y-15504881D01*
X6245595Y-15523928D01*
X6236071Y-15533452D01*
X6217024Y-15542976D01*
X6197976Y-15542976D01*
X6178928Y-15533452D01*
X6169405Y-15523928D01*
X6159881Y-15504881D01*
X6150357Y-15466786D01*
X6150357Y-15419167D01*
X6159881Y-15381071D01*
X6169405Y-15362024D01*
X6178928Y-15352500D01*
X6197976Y-15342976D01*
X6350357Y-15523928D02*
X6359881Y-15533452D01*
X6350357Y-15542976D01*
X6340833Y-15533452D01*
X6350357Y-15523928D01*
X6350357Y-15542976D01*
X6550357Y-15542976D02*
X6436071Y-15542976D01*
X6493214Y-15542976D02*
X6493214Y-15342976D01*
X6474167Y-15371548D01*
X6455119Y-15390595D01*
X6436071Y-15400119D01*
X6645595Y-15542976D02*
X6683690Y-15542976D01*
X6702738Y-15533452D01*
X6712262Y-15523928D01*
X6731309Y-15495357D01*
X6740833Y-15457262D01*
X6740833Y-15381071D01*
X6731309Y-15362024D01*
X6721786Y-15352500D01*
X6702738Y-15342976D01*
X6664643Y-15342976D01*
X6645595Y-15352500D01*
X6636071Y-15362024D01*
X6626548Y-15381071D01*
X6626548Y-15428690D01*
X6636071Y-15447738D01*
X6645595Y-15457262D01*
X6664643Y-15466786D01*
X6702738Y-15466786D01*
X6721786Y-15457262D01*
X6731309Y-15447738D01*
X6740833Y-15428690D01*
X6855119Y-15428690D02*
X6836071Y-15419167D01*
X6826548Y-15409643D01*
X6817024Y-15390595D01*
X6817024Y-15381071D01*
X6826548Y-15362024D01*
X6836071Y-15352500D01*
X6855119Y-15342976D01*
X6893214Y-15342976D01*
X6912262Y-15352500D01*
X6921786Y-15362024D01*
X6931309Y-15381071D01*
X6931309Y-15390595D01*
X6921786Y-15409643D01*
X6912262Y-15419167D01*
X6893214Y-15428690D01*
X6855119Y-15428690D01*
X6836071Y-15438214D01*
X6826548Y-15447738D01*
X6817024Y-15466786D01*
X6817024Y-15504881D01*
X6826548Y-15523928D01*
X6836071Y-15533452D01*
X6855119Y-15542976D01*
X6893214Y-15542976D01*
X6912262Y-15533452D01*
X6921786Y-15523928D01*
X6931309Y-15504881D01*
X6931309Y-15466786D01*
X6921786Y-15447738D01*
X6912262Y-15438214D01*
X6893214Y-15428690D01*
X7045595Y-15428690D02*
X7026548Y-15419167D01*
X7017024Y-15409643D01*
X7007500Y-15390595D01*
X7007500Y-15381071D01*
X7017024Y-15362024D01*
X7026548Y-15352500D01*
X7045595Y-15342976D01*
X7083690Y-15342976D01*
X7102738Y-15352500D01*
X7112262Y-15362024D01*
X7121786Y-15381071D01*
X7121786Y-15390595D01*
X7112262Y-15409643D01*
X7102738Y-15419167D01*
X7083690Y-15428690D01*
X7045595Y-15428690D01*
X7026548Y-15438214D01*
X7017024Y-15447738D01*
X7007500Y-15466786D01*
X7007500Y-15504881D01*
X7017024Y-15523928D01*
X7026548Y-15533452D01*
X7045595Y-15542976D01*
X7083690Y-15542976D01*
X7102738Y-15533452D01*
X7112262Y-15523928D01*
X7121786Y-15504881D01*
X7121786Y-15466786D01*
X7112262Y-15447738D01*
X7102738Y-15438214D01*
X7083690Y-15428690D01*
X7197976Y-15342976D02*
X7197976Y-15381071D01*
X7274167Y-15342976D02*
X7274167Y-15381071D01*
X7569405Y-15619167D02*
X7559881Y-15609643D01*
X7540833Y-15581071D01*
X7531309Y-15562024D01*
X7521786Y-15533452D01*
X7512262Y-15485833D01*
X7512262Y-15447738D01*
X7521786Y-15400119D01*
X7531309Y-15371548D01*
X7540833Y-15352500D01*
X7559881Y-15323928D01*
X7569405Y-15314405D01*
X7731309Y-15409643D02*
X7731309Y-15542976D01*
X7683690Y-15333452D02*
X7636071Y-15476309D01*
X7759881Y-15476309D01*
X7826548Y-15362024D02*
X7836071Y-15352500D01*
X7855119Y-15342976D01*
X7902738Y-15342976D01*
X7921786Y-15352500D01*
X7931309Y-15362024D01*
X7940833Y-15381071D01*
X7940833Y-15400119D01*
X7931309Y-15428690D01*
X7817024Y-15542976D01*
X7940833Y-15542976D01*
X8178928Y-15542976D02*
X8178928Y-15342976D01*
X8264643Y-15542976D02*
X8264643Y-15438214D01*
X8255119Y-15419167D01*
X8236071Y-15409643D01*
X8207500Y-15409643D01*
X8188452Y-15419167D01*
X8178928Y-15428690D01*
X8388452Y-15542976D02*
X8369405Y-15533452D01*
X8359881Y-15523928D01*
X8350357Y-15504881D01*
X8350357Y-15447738D01*
X8359881Y-15428690D01*
X8369405Y-15419167D01*
X8388452Y-15409643D01*
X8417024Y-15409643D01*
X8436071Y-15419167D01*
X8445595Y-15428690D01*
X8455119Y-15447738D01*
X8455119Y-15504881D01*
X8445595Y-15523928D01*
X8436071Y-15533452D01*
X8417024Y-15542976D01*
X8388452Y-15542976D01*
X8569405Y-15542976D02*
X8550357Y-15533452D01*
X8540833Y-15514405D01*
X8540833Y-15342976D01*
X8721786Y-15533452D02*
X8702738Y-15542976D01*
X8664643Y-15542976D01*
X8645595Y-15533452D01*
X8636071Y-15514405D01*
X8636071Y-15438214D01*
X8645595Y-15419167D01*
X8664643Y-15409643D01*
X8702738Y-15409643D01*
X8721786Y-15419167D01*
X8731310Y-15438214D01*
X8731310Y-15457262D01*
X8636071Y-15476309D01*
X8807500Y-15533452D02*
X8826548Y-15542976D01*
X8864643Y-15542976D01*
X8883690Y-15533452D01*
X8893214Y-15514405D01*
X8893214Y-15504881D01*
X8883690Y-15485833D01*
X8864643Y-15476309D01*
X8836071Y-15476309D01*
X8817024Y-15466786D01*
X8807500Y-15447738D01*
X8807500Y-15438214D01*
X8817024Y-15419167D01*
X8836071Y-15409643D01*
X8864643Y-15409643D01*
X8883690Y-15419167D01*
X8959881Y-15619167D02*
X8969405Y-15609643D01*
X8988452Y-15581071D01*
X8997976Y-15562024D01*
X9007500Y-15533452D01*
X9017024Y-15485833D01*
X9017024Y-15447738D01*
X9007500Y-15400119D01*
X8997976Y-15371548D01*
X8988452Y-15352500D01*
X8969405Y-15323928D01*
X8959881Y-15314405D01*
X9321786Y-15619167D02*
X9312262Y-15609643D01*
X9293214Y-15581071D01*
X9283690Y-15562024D01*
X9274167Y-15533452D01*
X9264643Y-15485833D01*
X9264643Y-15447738D01*
X9274167Y-15400119D01*
X9283690Y-15371548D01*
X9293214Y-15352500D01*
X9312262Y-15323928D01*
X9321786Y-15314405D01*
X9397976Y-15409643D02*
X9397976Y-15542976D01*
X9397976Y-15428690D02*
X9407500Y-15419167D01*
X9426548Y-15409643D01*
X9455119Y-15409643D01*
X9474167Y-15419167D01*
X9483690Y-15438214D01*
X9483690Y-15542976D01*
X9607500Y-15542976D02*
X9588452Y-15533452D01*
X9578929Y-15523928D01*
X9569405Y-15504881D01*
X9569405Y-15447738D01*
X9578929Y-15428690D01*
X9588452Y-15419167D01*
X9607500Y-15409643D01*
X9636071Y-15409643D01*
X9655119Y-15419167D01*
X9664643Y-15428690D01*
X9674167Y-15447738D01*
X9674167Y-15504881D01*
X9664643Y-15523928D01*
X9655119Y-15533452D01*
X9636071Y-15542976D01*
X9607500Y-15542976D01*
X9731310Y-15409643D02*
X9807500Y-15409643D01*
X9759881Y-15342976D02*
X9759881Y-15514405D01*
X9769405Y-15533452D01*
X9788452Y-15542976D01*
X9807500Y-15542976D01*
X10026548Y-15409643D02*
X10026548Y-15609643D01*
X10026548Y-15419167D02*
X10045595Y-15409643D01*
X10083690Y-15409643D01*
X10102738Y-15419167D01*
X10112262Y-15428690D01*
X10121786Y-15447738D01*
X10121786Y-15504881D01*
X10112262Y-15523928D01*
X10102738Y-15533452D01*
X10083690Y-15542976D01*
X10045595Y-15542976D01*
X10026548Y-15533452D01*
X10236071Y-15542976D02*
X10217024Y-15533452D01*
X10207500Y-15514405D01*
X10207500Y-15342976D01*
X10397976Y-15542976D02*
X10397976Y-15438214D01*
X10388452Y-15419167D01*
X10369405Y-15409643D01*
X10331310Y-15409643D01*
X10312262Y-15419167D01*
X10397976Y-15533452D02*
X10378929Y-15542976D01*
X10331310Y-15542976D01*
X10312262Y-15533452D01*
X10302738Y-15514405D01*
X10302738Y-15495357D01*
X10312262Y-15476309D01*
X10331310Y-15466786D01*
X10378929Y-15466786D01*
X10397976Y-15457262D01*
X10464643Y-15409643D02*
X10540833Y-15409643D01*
X10493214Y-15342976D02*
X10493214Y-15514405D01*
X10502738Y-15533452D01*
X10521786Y-15542976D01*
X10540833Y-15542976D01*
X10683690Y-15533452D02*
X10664643Y-15542976D01*
X10626548Y-15542976D01*
X10607500Y-15533452D01*
X10597976Y-15514405D01*
X10597976Y-15438214D01*
X10607500Y-15419167D01*
X10626548Y-15409643D01*
X10664643Y-15409643D01*
X10683690Y-15419167D01*
X10693214Y-15438214D01*
X10693214Y-15457262D01*
X10597976Y-15476309D01*
X10864643Y-15542976D02*
X10864643Y-15342976D01*
X10864643Y-15533452D02*
X10845595Y-15542976D01*
X10807500Y-15542976D01*
X10788452Y-15533452D01*
X10778929Y-15523928D01*
X10769405Y-15504881D01*
X10769405Y-15447738D01*
X10778929Y-15428690D01*
X10788452Y-15419167D01*
X10807500Y-15409643D01*
X10845595Y-15409643D01*
X10864643Y-15419167D01*
X10940833Y-15619167D02*
X10950357Y-15609643D01*
X10969405Y-15581071D01*
X10978929Y-15562024D01*
X10988452Y-15533452D01*
X10997976Y-15485833D01*
X10997976Y-15447738D01*
X10988452Y-15400119D01*
X10978929Y-15371548D01*
X10969405Y-15352500D01*
X10950357Y-15323928D01*
X10940833Y-15314405D01*
M02*
