G04 #@! TF.GenerationSoftware,KiCad,Pcbnew,(6.0.9)*
G04 #@! TF.CreationDate,2023-05-23T12:25:36-07:00*
G04 #@! TF.ProjectId,Keycad_fun,4b657963-6164-45f6-9675-6e2e6b696361,rev?*
G04 #@! TF.SameCoordinates,Original*
G04 #@! TF.FileFunction,Soldermask,Bot*
G04 #@! TF.FilePolarity,Negative*
%FSLAX46Y46*%
G04 Gerber Fmt 4.6, Leading zero omitted, Abs format (unit mm)*
G04 Created by KiCad (PCBNEW (6.0.9)) date 2023-05-23 12:25:36*
%MOMM*%
%LPD*%
G01*
G04 APERTURE LIST*
G04 Aperture macros list*
%AMRoundRect*
0 Rectangle with rounded corners*
0 $1 Rounding radius*
0 $2 $3 $4 $5 $6 $7 $8 $9 X,Y pos of 4 corners*
0 Add a 4 corners polygon primitive as box body*
4,1,4,$2,$3,$4,$5,$6,$7,$8,$9,$2,$3,0*
0 Add four circle primitives for the rounded corners*
1,1,$1+$1,$2,$3*
1,1,$1+$1,$4,$5*
1,1,$1+$1,$6,$7*
1,1,$1+$1,$8,$9*
0 Add four rect primitives between the rounded corners*
20,1,$1+$1,$2,$3,$4,$5,0*
20,1,$1+$1,$4,$5,$6,$7,0*
20,1,$1+$1,$6,$7,$8,$9,0*
20,1,$1+$1,$8,$9,$2,$3,0*%
G04 Aperture macros list end*
%ADD10R,0.850000X0.850000*%
%ADD11O,0.850000X0.850000*%
%ADD12R,0.840000X0.840000*%
%ADD13C,0.840000*%
%ADD14C,1.850000*%
%ADD15C,1.900000*%
%ADD16C,1.600000*%
%ADD17C,3.050000*%
%ADD18C,5.050000*%
%ADD19RoundRect,0.250000X1.025000X1.000000X-1.025000X1.000000X-1.025000X-1.000000X1.025000X-1.000000X0*%
%ADD20RoundRect,0.250000X1.183076X0.806818X-0.835780X1.162797X-1.183076X-0.806818X0.835780X-1.162797X0*%
%ADD21RoundRect,0.250000X-0.473124X1.351584X-1.339492X-0.506347X0.473124X-1.351584X1.339492X0.506347X0*%
%ADD22RoundRect,0.250000X1.356347X-0.459291X0.425666X1.367272X-1.356347X0.459291X-0.425666X-1.367272X0*%
%ADD23RoundRect,0.250000X0.835780X1.162797X-1.183076X0.806818X-0.835780X-1.162797X1.183076X-0.806818X0*%
%ADD24R,1.200000X0.900000*%
G04 APERTURE END LIST*
D10*
X167000000Y-58000000D03*
D11*
X167000000Y-57000000D03*
X168000000Y-58000000D03*
X168000000Y-57000000D03*
X169000000Y-58000000D03*
X169000000Y-57000000D03*
X170000000Y-58000000D03*
X170000000Y-57000000D03*
X171000000Y-58000000D03*
X171000000Y-57000000D03*
D12*
X156000000Y-56000000D03*
D13*
X156650000Y-57000000D03*
X157300000Y-56000000D03*
X157950000Y-57000000D03*
X158600000Y-56000000D03*
D14*
X160875000Y-56220000D03*
X153725000Y-56220000D03*
D10*
X191800000Y-56200000D03*
D11*
X191800000Y-57200000D03*
X190800000Y-56200000D03*
X190800000Y-57200000D03*
X189800000Y-56200000D03*
X189800000Y-57200000D03*
X188800000Y-56200000D03*
X188800000Y-57200000D03*
X187800000Y-56200000D03*
X187800000Y-57200000D03*
D12*
X201500000Y-55880000D03*
D13*
X202150000Y-56880000D03*
X202800000Y-55880000D03*
X203450000Y-56880000D03*
X204100000Y-55880000D03*
D14*
X206375000Y-56100000D03*
X199225000Y-56100000D03*
D15*
X45500000Y-59000000D03*
D16*
X56000000Y-53850000D03*
D15*
X56500000Y-59000000D03*
D17*
X51000000Y-64900000D03*
X46000000Y-62800000D03*
D18*
X51000000Y-59000000D03*
D19*
X54500000Y-65000000D03*
X42500000Y-62800000D03*
D17*
X64000000Y-62800000D03*
X69000000Y-64900000D03*
D15*
X63500000Y-59000000D03*
D18*
X69000000Y-59000000D03*
D16*
X74000000Y-53850000D03*
D15*
X74500000Y-59000000D03*
D19*
X72500000Y-65000000D03*
X60500000Y-62800000D03*
D16*
X92000000Y-49850000D03*
D15*
X92500000Y-55000000D03*
X81500000Y-55000000D03*
D17*
X82000000Y-58800000D03*
X87000000Y-60900000D03*
D18*
X87000000Y-55000000D03*
D19*
X90500000Y-61000000D03*
X78500000Y-58800000D03*
D16*
X110000000Y-45850000D03*
D15*
X99500000Y-51000000D03*
X110500000Y-51000000D03*
D18*
X105000000Y-51000000D03*
D17*
X100000000Y-54800000D03*
X105000000Y-56900000D03*
D19*
X108500000Y-57000000D03*
X96500000Y-54800000D03*
D17*
X123000000Y-60900000D03*
D16*
X128000000Y-49850000D03*
D18*
X123000000Y-55000000D03*
D15*
X117500000Y-55000000D03*
D17*
X118000000Y-58800000D03*
D15*
X128500000Y-55000000D03*
D19*
X126500000Y-61000000D03*
X114500000Y-58800000D03*
D15*
X135500000Y-59000000D03*
D18*
X141000000Y-59000000D03*
D16*
X146000000Y-53850000D03*
D17*
X141000000Y-64900000D03*
D15*
X146500000Y-59000000D03*
D17*
X136000000Y-62800000D03*
D19*
X144500000Y-65000000D03*
X132500000Y-62800000D03*
D15*
X56500000Y-78000000D03*
X45500000Y-78000000D03*
D16*
X56000000Y-72850000D03*
D17*
X51000000Y-83900000D03*
D18*
X51000000Y-78000000D03*
D17*
X46000000Y-81800000D03*
D19*
X54500000Y-84000000D03*
X42500000Y-81800000D03*
D18*
X69000000Y-78000000D03*
D15*
X74500000Y-78000000D03*
D17*
X64000000Y-81800000D03*
X69000000Y-83900000D03*
D16*
X74000000Y-72850000D03*
D15*
X63500000Y-78000000D03*
D19*
X72500000Y-84000000D03*
X60500000Y-81800000D03*
D18*
X87000000Y-74000000D03*
D17*
X87000000Y-79900000D03*
D15*
X92500000Y-74000000D03*
D16*
X92000000Y-68850000D03*
D15*
X81500000Y-74000000D03*
D17*
X82000000Y-77800000D03*
D19*
X90500000Y-80000000D03*
X78500000Y-77800000D03*
D15*
X99500000Y-70000000D03*
D17*
X100000000Y-73800000D03*
D18*
X105000000Y-70000000D03*
D16*
X110000000Y-64850000D03*
D17*
X105000000Y-75900000D03*
D15*
X110500000Y-70000000D03*
D19*
X108500000Y-76000000D03*
X96500000Y-73800000D03*
D16*
X128000000Y-68850000D03*
D18*
X123000000Y-74000000D03*
D17*
X123000000Y-79900000D03*
D15*
X128500000Y-74000000D03*
D17*
X118000000Y-77800000D03*
D15*
X117500000Y-74000000D03*
D19*
X126500000Y-80000000D03*
X114500000Y-77800000D03*
D15*
X146500000Y-78000000D03*
D17*
X136000000Y-81800000D03*
D15*
X135500000Y-78000000D03*
D18*
X141000000Y-78000000D03*
D16*
X146000000Y-72850000D03*
D17*
X141000000Y-83900000D03*
D19*
X144500000Y-84000000D03*
X132500000Y-81800000D03*
D18*
X51000000Y-97000000D03*
D17*
X46000000Y-100800000D03*
D16*
X56000000Y-91850000D03*
D17*
X51000000Y-102900000D03*
D15*
X56500000Y-97000000D03*
X45500000Y-97000000D03*
D19*
X54500000Y-103000000D03*
X42500000Y-100800000D03*
D17*
X64000000Y-100800000D03*
D16*
X74000000Y-91850000D03*
D17*
X69000000Y-102900000D03*
D18*
X69000000Y-97000000D03*
D15*
X74500000Y-97000000D03*
X63500000Y-97000000D03*
D19*
X72500000Y-103000000D03*
X60500000Y-100800000D03*
D16*
X92000000Y-87850000D03*
D17*
X82000000Y-96800000D03*
D15*
X92500000Y-93000000D03*
D17*
X87000000Y-98900000D03*
D18*
X87000000Y-93000000D03*
D15*
X81500000Y-93000000D03*
D19*
X90500000Y-99000000D03*
X78500000Y-96800000D03*
D17*
X105000000Y-94900000D03*
D15*
X110500000Y-89000000D03*
X99500000Y-89000000D03*
D18*
X105000000Y-89000000D03*
D16*
X110000000Y-83850000D03*
D17*
X100000000Y-92800000D03*
D19*
X108500000Y-95000000D03*
X96500000Y-92800000D03*
D15*
X128500000Y-93000000D03*
D17*
X118000000Y-96800000D03*
D18*
X123000000Y-93000000D03*
D16*
X128000000Y-87850000D03*
D15*
X117500000Y-93000000D03*
D17*
X123000000Y-98900000D03*
D19*
X126500000Y-99000000D03*
X114500000Y-96800000D03*
D17*
X136000000Y-99800000D03*
D15*
X135500000Y-96000000D03*
X146500000Y-96000000D03*
D17*
X141000000Y-101900000D03*
D18*
X141000000Y-96000000D03*
D16*
X146000000Y-90850000D03*
D19*
X144500000Y-102000000D03*
X132500000Y-99800000D03*
D15*
X106500000Y-115790000D03*
X117500000Y-115790000D03*
D17*
X107000000Y-119590000D03*
D16*
X117000000Y-110640000D03*
D17*
X112000000Y-121690000D03*
D18*
X112000000Y-115790000D03*
D19*
X115500000Y-121790000D03*
X103500000Y-119590000D03*
D18*
X132000000Y-118000000D03*
D15*
X126583557Y-117044935D03*
X137416443Y-118955065D03*
D16*
X137818327Y-113796481D03*
D17*
X130975476Y-123810366D03*
X126416098Y-120874029D03*
D20*
X134404938Y-124516615D03*
X122969271Y-120266260D03*
D18*
X153000000Y-123000000D03*
D17*
X158347216Y-125493448D03*
D16*
X150445606Y-116291977D03*
D17*
X154330878Y-129137488D03*
D15*
X155324400Y-118015307D03*
X150675600Y-127984693D03*
D21*
X159917011Y-122363632D03*
X152851714Y-132309566D03*
D17*
X215000000Y-61800000D03*
D16*
X225000000Y-52850000D03*
D15*
X225500000Y-58000000D03*
D18*
X220000000Y-58000000D03*
D15*
X214500000Y-58000000D03*
D17*
X220000000Y-63900000D03*
D19*
X223500000Y-64000000D03*
X211500000Y-61800000D03*
D17*
X238000000Y-59900000D03*
X233000000Y-57800000D03*
D15*
X243500000Y-54000000D03*
X232500000Y-54000000D03*
D16*
X243000000Y-48850000D03*
D18*
X238000000Y-54000000D03*
D19*
X241500000Y-60000000D03*
X229500000Y-57800000D03*
D17*
X256000000Y-55900000D03*
D15*
X261500000Y-50000000D03*
X250500000Y-50000000D03*
D18*
X256000000Y-50000000D03*
D16*
X261000000Y-44850000D03*
D17*
X251000000Y-53800000D03*
D19*
X259500000Y-56000000D03*
X247500000Y-53800000D03*
D15*
X279500000Y-54000000D03*
X268500000Y-54000000D03*
D17*
X269000000Y-57800000D03*
D16*
X279000000Y-48850000D03*
D18*
X274000000Y-54000000D03*
D17*
X274000000Y-59900000D03*
D19*
X277500000Y-60000000D03*
X265500000Y-57800000D03*
D15*
X298500000Y-58000000D03*
D17*
X293000000Y-63900000D03*
X288000000Y-61800000D03*
D18*
X293000000Y-58000000D03*
D15*
X287500000Y-58000000D03*
D16*
X298000000Y-52850000D03*
D19*
X296500000Y-64000000D03*
X284500000Y-61800000D03*
D17*
X311000000Y-63900000D03*
D15*
X305500000Y-58000000D03*
D18*
X311000000Y-58000000D03*
D15*
X316500000Y-58000000D03*
D16*
X316000000Y-52850000D03*
D17*
X306000000Y-61800000D03*
D19*
X314500000Y-64000000D03*
X302500000Y-61800000D03*
D17*
X220000000Y-82900000D03*
D15*
X214500000Y-77000000D03*
D18*
X220000000Y-77000000D03*
D17*
X215000000Y-80800000D03*
D16*
X225000000Y-71850000D03*
D15*
X225500000Y-77000000D03*
D19*
X223500000Y-83000000D03*
X211500000Y-80800000D03*
D17*
X233000000Y-76800000D03*
D15*
X243500000Y-73000000D03*
D18*
X238000000Y-73000000D03*
D16*
X243000000Y-67850000D03*
D15*
X232500000Y-73000000D03*
D17*
X238000000Y-78900000D03*
D19*
X241500000Y-79000000D03*
X229500000Y-76800000D03*
D16*
X261000000Y-63850000D03*
D17*
X256000000Y-74900000D03*
D15*
X250500000Y-69000000D03*
D17*
X251000000Y-72800000D03*
D18*
X256000000Y-69000000D03*
D15*
X261500000Y-69000000D03*
D19*
X259500000Y-75000000D03*
X247500000Y-72800000D03*
D17*
X269000000Y-76800000D03*
D15*
X268500000Y-73000000D03*
D16*
X279000000Y-67850000D03*
D15*
X279500000Y-73000000D03*
D17*
X274000000Y-78900000D03*
D18*
X274000000Y-73000000D03*
D19*
X277500000Y-79000000D03*
X265500000Y-76800000D03*
D18*
X293000000Y-77000000D03*
D17*
X288000000Y-80800000D03*
D15*
X298500000Y-77000000D03*
D17*
X293000000Y-82900000D03*
D16*
X298000000Y-71850000D03*
D15*
X287500000Y-77000000D03*
D19*
X296500000Y-83000000D03*
X284500000Y-80800000D03*
D17*
X306000000Y-80800000D03*
D16*
X316000000Y-71850000D03*
D15*
X316500000Y-77000000D03*
X305500000Y-77000000D03*
D18*
X311000000Y-77000000D03*
D17*
X311000000Y-82900000D03*
D19*
X314500000Y-83000000D03*
X302500000Y-80800000D03*
D16*
X225000000Y-90850000D03*
D15*
X225500000Y-96000000D03*
D17*
X215000000Y-99800000D03*
X220000000Y-101900000D03*
D18*
X220000000Y-96000000D03*
D15*
X214500000Y-96000000D03*
D19*
X223500000Y-102000000D03*
X211500000Y-99800000D03*
D18*
X238000000Y-92000000D03*
D15*
X232500000Y-92000000D03*
D17*
X233000000Y-95800000D03*
X238000000Y-97900000D03*
D15*
X243500000Y-92000000D03*
D16*
X243000000Y-86850000D03*
D19*
X241500000Y-98000000D03*
X229500000Y-95800000D03*
D17*
X256000000Y-93900000D03*
D18*
X256000000Y-88000000D03*
D17*
X251000000Y-91800000D03*
D16*
X261000000Y-82850000D03*
D15*
X250500000Y-88000000D03*
X261500000Y-88000000D03*
D19*
X259500000Y-94000000D03*
X247500000Y-91800000D03*
D17*
X274000000Y-97900000D03*
D15*
X268500000Y-92000000D03*
D17*
X269000000Y-95800000D03*
D16*
X279000000Y-86850000D03*
D15*
X279500000Y-92000000D03*
D18*
X274000000Y-92000000D03*
D19*
X277500000Y-98000000D03*
X265500000Y-95800000D03*
D15*
X298500000Y-96000000D03*
D16*
X298000000Y-90850000D03*
D15*
X287500000Y-96000000D03*
D17*
X288000000Y-99800000D03*
X293000000Y-101900000D03*
D18*
X293000000Y-96000000D03*
D19*
X296500000Y-102000000D03*
X284500000Y-99800000D03*
D15*
X305500000Y-96000000D03*
D18*
X311000000Y-96000000D03*
D17*
X306000000Y-99800000D03*
X311000000Y-101900000D03*
D16*
X316000000Y-90850000D03*
D15*
X316500000Y-96000000D03*
D19*
X314500000Y-102000000D03*
X302500000Y-99800000D03*
D17*
X202344223Y-122270131D03*
D15*
X210496948Y-129900536D03*
D18*
X208000000Y-125000000D03*
D16*
X214858636Y-127116982D03*
D15*
X205503052Y-120099464D03*
D17*
X202743062Y-127678544D03*
D22*
X204242928Y-130842466D03*
X200755256Y-119151608D03*
D17*
X223735824Y-122610510D03*
D18*
X228000000Y-118000000D03*
D17*
X229024524Y-123810366D03*
D15*
X233416443Y-117044935D03*
X222583557Y-118955065D03*
D16*
X232029751Y-112059999D03*
D23*
X232488716Y-123301078D03*
X220288997Y-123218279D03*
D18*
X248000000Y-116000000D03*
D15*
X253500000Y-116000000D03*
D17*
X243000000Y-119800000D03*
X248000000Y-121900000D03*
D16*
X253000000Y-110850000D03*
D15*
X242500000Y-116000000D03*
D19*
X251500000Y-122000000D03*
X239500000Y-119800000D03*
D24*
X42000000Y-54350000D03*
X42000000Y-57650000D03*
X59000000Y-54350000D03*
X59000000Y-57650000D03*
X78000000Y-52350000D03*
X78000000Y-55650000D03*
X96000000Y-48250000D03*
X96000000Y-51550000D03*
X114100000Y-50650000D03*
X114100000Y-53950000D03*
X132000000Y-54350000D03*
X132000000Y-57650000D03*
X42000000Y-73350000D03*
X42000000Y-76650000D03*
X60000000Y-73350000D03*
X60000000Y-76650000D03*
X78000000Y-69350000D03*
X78000000Y-72650000D03*
X96000000Y-65350000D03*
X96000000Y-68650000D03*
X114000000Y-69350000D03*
X114000000Y-72650000D03*
X132000000Y-73350000D03*
X132000000Y-76650000D03*
X42000000Y-92350000D03*
X42000000Y-95650000D03*
X60000000Y-92350000D03*
X60000000Y-95650000D03*
X78000000Y-88350000D03*
X78000000Y-91650000D03*
X96000000Y-84350000D03*
X96000000Y-87650000D03*
X114000000Y-88350000D03*
X114000000Y-91650000D03*
X132000000Y-91350000D03*
X132000000Y-94650000D03*
X103000000Y-111350000D03*
X103000000Y-114650000D03*
X123000000Y-111350000D03*
X123000000Y-114650000D03*
X146000000Y-114350000D03*
X146000000Y-117650000D03*
X211000000Y-55350000D03*
X211000000Y-58650000D03*
X229000000Y-52050000D03*
X229000000Y-55350000D03*
X247000000Y-48350000D03*
X247000000Y-51650000D03*
X265000000Y-51350000D03*
X265000000Y-54650000D03*
X283000000Y-53350000D03*
X283000000Y-56650000D03*
X302000000Y-53350000D03*
X302000000Y-56650000D03*
X211000000Y-72350000D03*
X211000000Y-75650000D03*
X229000000Y-68000000D03*
X229000000Y-71300000D03*
X247000000Y-65350000D03*
X247000000Y-68650000D03*
X265000000Y-68350000D03*
X265000000Y-71650000D03*
X283000000Y-72350000D03*
X283000000Y-75650000D03*
X302000000Y-72350000D03*
X302000000Y-75650000D03*
X211000000Y-91350000D03*
X211000000Y-94650000D03*
X229000000Y-87350000D03*
X229000000Y-90650000D03*
X247000000Y-84350000D03*
X247000000Y-87650000D03*
X265000000Y-87350000D03*
X265000000Y-90650000D03*
X283000000Y-91350000D03*
X283000000Y-94650000D03*
X302000000Y-91350000D03*
X302000000Y-94650000D03*
X212000000Y-110350000D03*
X212000000Y-113650000D03*
X218000000Y-110350000D03*
X218000000Y-113650000D03*
X239000000Y-110350000D03*
X239000000Y-113650000D03*
M02*
