%TF.GenerationSoftware,KiCad,Pcbnew,(6.0.9)*%
%TF.CreationDate,2023-05-23T12:27:55-07:00*%
%TF.ProjectId,Keycad_fun,4b657963-6164-45f6-9675-6e2e6b696361,rev?*%
%TF.SameCoordinates,Original*%
%TF.FileFunction,Drillmap*%
%TF.FilePolarity,Positive*%
%FSLAX45Y45*%
G04 Gerber Fmt 4.5, Leading zero omitted, Abs format (unit mm)*
G04 Created by KiCad (PCBNEW (6.0.9)) date 2023-05-23 12:27:55*
%MOMM*%
%LPD*%
G01*
G04 APERTURE LIST*
%ADD10C,0.050000*%
%ADD11C,0.200000*%
%ADD12C,0.020000*%
%ADD13C,0.040000*%
%ADD14C,0.044000*%
%ADD15C,0.135000*%
G04 APERTURE END LIST*
D10*
X10400000Y-12800000D02*
X9600000Y-10700000D01*
X17400000Y-10000000D02*
X16800000Y-11400000D01*
X21000000Y-5000000D02*
X21000000Y-5400000D01*
X18600000Y-9700000D02*
X18600000Y-9900000D01*
X19200000Y-11400000D02*
X20400000Y-13900000D01*
X19200000Y-5400000D02*
X18900000Y-5400000D01*
X20400000Y-13900000D02*
X21900000Y-13100000D01*
X18600000Y-9900000D02*
X18600000Y-10000000D01*
X21000000Y-5400000D02*
X19200000Y-5400000D01*
X28200000Y-4600000D02*
X26400000Y-4600000D01*
X26400000Y-4200000D02*
X24600000Y-4200000D01*
X22800000Y-4600000D02*
X22800000Y-5000000D01*
X28200000Y-5000000D02*
X28200000Y-4600000D01*
X18600000Y-10000000D02*
X19200000Y-11400000D01*
X25600000Y-12800000D02*
X26400000Y-10700000D01*
X21900000Y-13100000D02*
X25600000Y-12800000D01*
X26400000Y-4600000D02*
X26400000Y-4200000D01*
X24600000Y-4600000D02*
X22800000Y-4600000D01*
X24600000Y-4200000D02*
X24600000Y-4600000D01*
X18800000Y-5400000D02*
X18600000Y-5400000D01*
X18900000Y-5400000D02*
X18800000Y-5400000D01*
X17200000Y-5400000D02*
X17400000Y-5400000D01*
X16800000Y-5400000D02*
X17100000Y-5400000D01*
X18600000Y-9090000D02*
G75*
G03*
X18600000Y-9090000I-20000J0D01*
G01*
X18600000Y-5790000D02*
G75*
G03*
X18600000Y-5790000I-20000J0D01*
G01*
X18600000Y-9270000D02*
G75*
G03*
X18600000Y-9270000I-20000J0D01*
G01*
X17440000Y-5850000D02*
G75*
G03*
X17440000Y-5850000I-20000J0D01*
G01*
X6700000Y-5000000D02*
X7300000Y-5000000D01*
X9600000Y-4200000D02*
X11400000Y-4200000D01*
X7300000Y-5000000D02*
X7800000Y-5000000D01*
X4000000Y-9700000D02*
X4000000Y-10200000D01*
X13200000Y-4600000D02*
X13200000Y-5000000D01*
X17440000Y-8910000D02*
G75*
G03*
X17440000Y-8910000I-20000J0D01*
G01*
X21000000Y-5000000D02*
X21700000Y-5000000D01*
X22300000Y-5000000D02*
X22800000Y-5000000D01*
X4000000Y-5700000D02*
X4000000Y-5000000D01*
X17400000Y-5700000D02*
X18600000Y-5700000D01*
X17400000Y-9900000D02*
X17400000Y-10000000D01*
X32000000Y-9700000D02*
X32000000Y-6300000D01*
X17400000Y-8700000D02*
X17400000Y-6300000D01*
X13200000Y-5000000D02*
X13700000Y-5000000D01*
X17440000Y-9090000D02*
G75*
G03*
X17440000Y-9090000I-20000J0D01*
G01*
X18600000Y-5730000D02*
G75*
G03*
X18600000Y-5730000I-20000J0D01*
G01*
X18600000Y-8790000D02*
G75*
G03*
X18600000Y-8790000I-20000J0D01*
G01*
X4000000Y-5700000D02*
X4000000Y-6300000D01*
X6700000Y-5000000D02*
X5800000Y-5000000D01*
X18600000Y-6090000D02*
G75*
G03*
X18600000Y-6090000I-20000J0D01*
G01*
X17440000Y-5730000D02*
G75*
G03*
X17440000Y-5730000I-20000J0D01*
G01*
X15600000Y-13900000D02*
X14100000Y-13100000D01*
X17400000Y-9700000D02*
X17400000Y-9900000D01*
X15000000Y-5400000D02*
X16800000Y-5400000D01*
X18600000Y-9210000D02*
G75*
G03*
X18600000Y-9210000I-20000J0D01*
G01*
X18600000Y-8700000D02*
X17400000Y-8700000D01*
X17440000Y-9030000D02*
G75*
G03*
X17440000Y-9030000I-20000J0D01*
G01*
X21700000Y-5000000D02*
X22300000Y-5000000D01*
X17440000Y-8970000D02*
G75*
G03*
X17440000Y-8970000I-20000J0D01*
G01*
X17400000Y-5400000D02*
X17400000Y-5700000D01*
X17440000Y-6150000D02*
G75*
G03*
X17440000Y-6150000I-20000J0D01*
G01*
X4000000Y-9700000D02*
X4000000Y-6300000D01*
X4000000Y-5000000D02*
X5800000Y-5000000D01*
X18600000Y-6270000D02*
G75*
G03*
X18600000Y-6270000I-20000J0D01*
G01*
X17440000Y-9210000D02*
G75*
G03*
X17440000Y-9210000I-20000J0D01*
G01*
X18600000Y-6210000D02*
G75*
G03*
X18600000Y-6210000I-20000J0D01*
G01*
X17400000Y-9700000D02*
X17400000Y-9300000D01*
X29300000Y-5000000D02*
X32000000Y-5000000D01*
X29300000Y-10700000D02*
X32000000Y-10700000D01*
X18600000Y-6150000D02*
G75*
G03*
X18600000Y-6150000I-20000J0D01*
G01*
X14100000Y-13100000D02*
X10400000Y-12800000D01*
X11400000Y-4600000D02*
X13200000Y-4600000D01*
X18600000Y-5400000D02*
X18600000Y-5700000D01*
X18600000Y-5850000D02*
G75*
G03*
X18600000Y-5850000I-20000J0D01*
G01*
X18600000Y-6030000D02*
G75*
G03*
X18600000Y-6030000I-20000J0D01*
G01*
X32000000Y-10300000D02*
X32000000Y-10700000D01*
X28700000Y-5000000D02*
X29300000Y-5000000D01*
X28200000Y-5000000D02*
X28700000Y-5000000D01*
X18600000Y-5910000D02*
G75*
G03*
X18600000Y-5910000I-20000J0D01*
G01*
X17440000Y-5970000D02*
G75*
G03*
X17440000Y-5970000I-20000J0D01*
G01*
X17440000Y-9270000D02*
G75*
G03*
X17440000Y-9270000I-20000J0D01*
G01*
X13700000Y-5000000D02*
X14300000Y-5000000D01*
X9600000Y-4600000D02*
X9600000Y-4200000D01*
X18600000Y-8730000D02*
G75*
G03*
X18600000Y-8730000I-20000J0D01*
G01*
X18600000Y-6300000D02*
X17400000Y-6300000D01*
X17440000Y-6090000D02*
G75*
G03*
X17440000Y-6090000I-20000J0D01*
G01*
X18600000Y-9700000D02*
X18600000Y-9300000D01*
X7300000Y-10700000D02*
X9600000Y-10700000D01*
X7800000Y-5000000D02*
X7800000Y-4600000D01*
X17440000Y-6030000D02*
G75*
G03*
X17440000Y-6030000I-20000J0D01*
G01*
X32000000Y-6300000D02*
X32000000Y-5700000D01*
X17100000Y-5400000D02*
X17200000Y-5400000D01*
X4000000Y-10700000D02*
X6700000Y-10700000D01*
X6700000Y-10700000D02*
X7300000Y-10700000D01*
X18600000Y-9150000D02*
G75*
G03*
X18600000Y-9150000I-20000J0D01*
G01*
X32000000Y-5700000D02*
X32000000Y-5000000D01*
X14300000Y-5000000D02*
X15000000Y-5000000D01*
X26400000Y-10700000D02*
X28700000Y-10700000D01*
X17440000Y-8850000D02*
G75*
G03*
X17440000Y-8850000I-20000J0D01*
G01*
X17440000Y-5790000D02*
G75*
G03*
X17440000Y-5790000I-20000J0D01*
G01*
X7800000Y-4600000D02*
X9600000Y-4600000D01*
X18600000Y-5970000D02*
G75*
G03*
X18600000Y-5970000I-20000J0D01*
G01*
X32000000Y-10300000D02*
X32000000Y-9700000D01*
X17440000Y-8790000D02*
G75*
G03*
X17440000Y-8790000I-20000J0D01*
G01*
X16800000Y-11400000D02*
X15600000Y-13900000D01*
X17440000Y-5910000D02*
G75*
G03*
X17440000Y-5910000I-20000J0D01*
G01*
X17440000Y-8730000D02*
G75*
G03*
X17440000Y-8730000I-20000J0D01*
G01*
X4000000Y-10200000D02*
X4000000Y-10700000D01*
X28700000Y-10700000D02*
X29300000Y-10700000D01*
X18600000Y-8970000D02*
G75*
G03*
X18600000Y-8970000I-20000J0D01*
G01*
X18600000Y-8850000D02*
G75*
G03*
X18600000Y-8850000I-20000J0D01*
G01*
X18600000Y-9030000D02*
G75*
G03*
X18600000Y-9030000I-20000J0D01*
G01*
X17400000Y-9300000D02*
X18600000Y-9300000D01*
X18600000Y-6300000D02*
X18600000Y-8700000D01*
X18600000Y-8910000D02*
G75*
G03*
X18600000Y-8910000I-20000J0D01*
G01*
X11400000Y-4200000D02*
X11400000Y-4600000D01*
X15000000Y-5000000D02*
X15000000Y-5400000D01*
X17440000Y-6270000D02*
G75*
G03*
X17440000Y-6270000I-20000J0D01*
G01*
X17440000Y-6210000D02*
G75*
G03*
X17440000Y-6210000I-20000J0D01*
G01*
X17440000Y-9150000D02*
G75*
G03*
X17440000Y-9150000I-20000J0D01*
G01*
D11*
D12*
X15090000Y-6049411D02*
X15110000Y-6069411D01*
X15110000Y-6049411D02*
X15090000Y-6069411D01*
X15310000Y-6330000D02*
X15330000Y-6350000D01*
X15330000Y-6330000D02*
X15310000Y-6350000D01*
X15490000Y-6880000D02*
X15510000Y-6900000D01*
X15510000Y-6880000D02*
X15490000Y-6900000D01*
X15577000Y-6118000D02*
X15597000Y-6138000D01*
X15597000Y-6118000D02*
X15577000Y-6138000D01*
X15610000Y-6030000D02*
X15630000Y-6050000D01*
X15630000Y-6030000D02*
X15610000Y-6050000D01*
X15630000Y-6170000D02*
X15650000Y-6190000D01*
X15650000Y-6170000D02*
X15630000Y-6190000D01*
X15670000Y-6977000D02*
X15690000Y-6997000D01*
X15690000Y-6977000D02*
X15670000Y-6997000D01*
X15737250Y-7510150D02*
X15757250Y-7530150D01*
X15757250Y-7510150D02*
X15737250Y-7530150D01*
X15740000Y-7770000D02*
X15760000Y-7790000D01*
X15760000Y-7770000D02*
X15740000Y-7790000D01*
X15770000Y-7060000D02*
X15790000Y-7080000D01*
X15790000Y-7060000D02*
X15770000Y-7080000D01*
X15780000Y-7690000D02*
X15800000Y-7710000D01*
X15800000Y-7690000D02*
X15780000Y-7710000D01*
X15860000Y-7640000D02*
X15880000Y-7660000D01*
X15880000Y-7640000D02*
X15860000Y-7660000D01*
X15907556Y-7046761D02*
X15927556Y-7066761D01*
X15927556Y-7046761D02*
X15907556Y-7066761D01*
X15917000Y-7438000D02*
X15937000Y-7458000D01*
X15937000Y-7438000D02*
X15917000Y-7458000D01*
X16064664Y-6814664D02*
X16084664Y-6834664D01*
X16084664Y-6814664D02*
X16064664Y-6834664D01*
X16110000Y-8130000D02*
X16130000Y-8150000D01*
X16130000Y-8130000D02*
X16110000Y-8150000D01*
X16130000Y-6860000D02*
X16150000Y-6880000D01*
X16150000Y-6860000D02*
X16130000Y-6880000D01*
X16190000Y-6910000D02*
X16210000Y-6930000D01*
X16210000Y-6910000D02*
X16190000Y-6930000D01*
X16307000Y-6743000D02*
X16327000Y-6763000D01*
X16327000Y-6743000D02*
X16307000Y-6763000D01*
X16390000Y-8550000D02*
X16410000Y-8570000D01*
X16410000Y-8550000D02*
X16390000Y-8570000D01*
X16410000Y-8320000D02*
X16430000Y-8340000D01*
X16430000Y-8320000D02*
X16410000Y-8340000D01*
X16460000Y-6590000D02*
X16480000Y-6610000D01*
X16480000Y-6590000D02*
X16460000Y-6610000D01*
X16467000Y-7279000D02*
X16487000Y-7299000D01*
X16487000Y-7279000D02*
X16467000Y-7299000D01*
X16495000Y-6828000D02*
X16515000Y-6848000D01*
X16515000Y-6828000D02*
X16495000Y-6848000D01*
X16570000Y-7093300D02*
X16590000Y-7113300D01*
X16590000Y-7093300D02*
X16570000Y-7113300D01*
X16580000Y-7260000D02*
X16600000Y-7280000D01*
X16600000Y-7260000D02*
X16580000Y-7280000D01*
X16770000Y-6860000D02*
X16790000Y-6880000D01*
X16790000Y-6860000D02*
X16770000Y-6880000D01*
X19350000Y-7219000D02*
X19370000Y-7239000D01*
X19370000Y-7219000D02*
X19350000Y-7239000D01*
X19405000Y-7528000D02*
X19425000Y-7548000D01*
X19425000Y-7528000D02*
X19405000Y-7548000D01*
X19450000Y-6650000D02*
X19470000Y-6670000D01*
X19470000Y-6650000D02*
X19450000Y-6670000D01*
X19595000Y-7005000D02*
X19615000Y-7025000D01*
X19615000Y-7005000D02*
X19595000Y-7025000D01*
X19610000Y-7270000D02*
X19630000Y-7290000D01*
X19630000Y-7270000D02*
X19610000Y-7290000D01*
X19635000Y-6955000D02*
X19655000Y-6975000D01*
X19655000Y-6955000D02*
X19635000Y-6975000D01*
X19730000Y-7277000D02*
X19750000Y-7297000D01*
X19750000Y-7277000D02*
X19730000Y-7297000D01*
X19740000Y-7498000D02*
X19760000Y-7518000D01*
X19760000Y-7498000D02*
X19740000Y-7518000D01*
X19750000Y-6950000D02*
X19770000Y-6970000D01*
X19770000Y-6950000D02*
X19750000Y-6970000D01*
X19830000Y-6760000D02*
X19850000Y-6780000D01*
X19850000Y-6760000D02*
X19830000Y-6780000D01*
X19830000Y-6850000D02*
X19850000Y-6870000D01*
X19850000Y-6850000D02*
X19830000Y-6870000D01*
X19874000Y-6175000D02*
X19894000Y-6195000D01*
X19894000Y-6175000D02*
X19874000Y-6195000D01*
X19900000Y-7896000D02*
X19920000Y-7916000D01*
X19920000Y-7896000D02*
X19900000Y-7916000D01*
X19930000Y-6790000D02*
X19950000Y-6810000D01*
X19950000Y-6790000D02*
X19930000Y-6810000D01*
X19990000Y-6650000D02*
X20010000Y-6670000D01*
X20010000Y-6650000D02*
X19990000Y-6670000D01*
X20030000Y-7690000D02*
X20050000Y-7710000D01*
X20050000Y-7690000D02*
X20030000Y-7710000D01*
X20036300Y-6830000D02*
X20056300Y-6850000D01*
X20056300Y-6830000D02*
X20036300Y-6850000D01*
X20089704Y-7664572D02*
X20109704Y-7684572D01*
X20109704Y-7664572D02*
X20089704Y-7684572D01*
X20090000Y-6790000D02*
X20110000Y-6810000D01*
X20110000Y-6790000D02*
X20090000Y-6810000D01*
X20135000Y-7625000D02*
X20155000Y-7645000D01*
X20155000Y-7625000D02*
X20135000Y-7645000D01*
X20138700Y-6750000D02*
X20158700Y-6770000D01*
X20158700Y-6750000D02*
X20138700Y-6770000D01*
X20160000Y-6950000D02*
X20180000Y-6970000D01*
X20180000Y-6950000D02*
X20160000Y-6970000D01*
X20165000Y-6171000D02*
X20185000Y-6191000D01*
X20185000Y-6171000D02*
X20165000Y-6191000D01*
X20181000Y-7879000D02*
X20201000Y-7899000D01*
X20201000Y-7879000D02*
X20181000Y-7899000D01*
X20262000Y-8050000D02*
X20282000Y-8070000D01*
X20282000Y-8050000D02*
X20262000Y-8070000D01*
X20320000Y-6220000D02*
X20340000Y-6240000D01*
X20340000Y-6220000D02*
X20320000Y-6240000D01*
X20330000Y-7810000D02*
X20350000Y-7830000D01*
X20350000Y-7810000D02*
X20330000Y-7830000D01*
X20410000Y-6350000D02*
X20430000Y-6370000D01*
X20430000Y-6350000D02*
X20410000Y-6370000D01*
X20410000Y-6470000D02*
X20430000Y-6490000D01*
X20430000Y-6470000D02*
X20410000Y-6490000D01*
X20410000Y-7110000D02*
X20430000Y-7130000D01*
X20430000Y-7110000D02*
X20410000Y-7130000D01*
X20450000Y-7170000D02*
X20470000Y-7190000D01*
X20470000Y-7170000D02*
X20450000Y-7190000D01*
X20490000Y-6670000D02*
X20510000Y-6690000D01*
X20510000Y-6670000D02*
X20490000Y-6690000D01*
X20510000Y-7230000D02*
X20530000Y-7250000D01*
X20530000Y-7230000D02*
X20510000Y-7250000D01*
X20615000Y-7155000D02*
X20635000Y-7175000D01*
X20635000Y-7155000D02*
X20615000Y-7175000D01*
X20617261Y-6937261D02*
X20637261Y-6957261D01*
X20637261Y-6937261D02*
X20617261Y-6957261D01*
X20791000Y-7605000D02*
X20811000Y-7625000D01*
X20811000Y-7605000D02*
X20791000Y-7625000D01*
X20950000Y-7370000D02*
X20970000Y-7390000D01*
X20970000Y-7370000D02*
X20950000Y-7390000D01*
D13*
X5420000Y-6800000D02*
G75*
G03*
X5420000Y-6800000I-20000J0D01*
G01*
X5420000Y-8700000D02*
G75*
G03*
X5420000Y-8700000I-20000J0D01*
G01*
X5420000Y-10600000D02*
G75*
G03*
X5420000Y-10600000I-20000J0D01*
G01*
X6540000Y-9260000D02*
G75*
G03*
X6540000Y-9260000I-20000J0D01*
G01*
X7220000Y-6800000D02*
G75*
G03*
X7220000Y-6800000I-20000J0D01*
G01*
X7220000Y-8140000D02*
G75*
G03*
X7220000Y-8140000I-20000J0D01*
G01*
X7220000Y-8987550D02*
G75*
G03*
X7220000Y-8987550I-20000J0D01*
G01*
X7220000Y-10600000D02*
G75*
G03*
X7220000Y-10600000I-20000J0D01*
G01*
X9010000Y-7750000D02*
G75*
G03*
X9010000Y-7750000I-20000J0D01*
G01*
X9020000Y-6400000D02*
G75*
G03*
X9020000Y-6400000I-20000J0D01*
G01*
X9020000Y-8570000D02*
G75*
G03*
X9020000Y-8570000I-20000J0D01*
G01*
X9020000Y-10200000D02*
G75*
G03*
X9020000Y-10200000I-20000J0D01*
G01*
X10820000Y-6000000D02*
G75*
G03*
X10820000Y-6000000I-20000J0D01*
G01*
X10820000Y-8410000D02*
G75*
G03*
X10820000Y-8410000I-20000J0D01*
G01*
X10820000Y-9800000D02*
G75*
G03*
X10820000Y-9800000I-20000J0D01*
G01*
X10840000Y-7130000D02*
G75*
G03*
X10840000Y-7130000I-20000J0D01*
G01*
X11620000Y-12000000D02*
G75*
G03*
X11620000Y-12000000I-20000J0D01*
G01*
X12252000Y-10514000D02*
G75*
G03*
X12252000Y-10514000I-20000J0D01*
G01*
X12620000Y-6400000D02*
G75*
G03*
X12620000Y-6400000I-20000J0D01*
G01*
X12620000Y-8800000D02*
G75*
G03*
X12620000Y-8800000I-20000J0D01*
G01*
X12620000Y-10200000D02*
G75*
G03*
X12620000Y-10200000I-20000J0D01*
G01*
X12650000Y-7690000D02*
G75*
G03*
X12650000Y-7690000I-20000J0D01*
G01*
X13620000Y-12200000D02*
G75*
G03*
X13620000Y-12200000I-20000J0D01*
G01*
X13664000Y-9202000D02*
G75*
G03*
X13664000Y-9202000I-20000J0D01*
G01*
X13850000Y-6890000D02*
G75*
G03*
X13850000Y-6890000I-20000J0D01*
G01*
X14132000Y-9130000D02*
G75*
G03*
X14132000Y-9130000I-20000J0D01*
G01*
X14420000Y-6700000D02*
G75*
G03*
X14420000Y-6700000I-20000J0D01*
G01*
X14420000Y-8140000D02*
G75*
G03*
X14420000Y-8140000I-20000J0D01*
G01*
X14420000Y-9090000D02*
G75*
G03*
X14420000Y-9090000I-20000J0D01*
G01*
X14420000Y-10500000D02*
G75*
G03*
X14420000Y-10500000I-20000J0D01*
G01*
X14535000Y-11111000D02*
G75*
G03*
X14535000Y-11111000I-20000J0D01*
G01*
X14780000Y-6930000D02*
G75*
G03*
X14780000Y-6930000I-20000J0D01*
G01*
X14919000Y-10621000D02*
G75*
G03*
X14919000Y-10621000I-20000J0D01*
G01*
X14950000Y-7540000D02*
G75*
G03*
X14950000Y-7540000I-20000J0D01*
G01*
X15120000Y-5788000D02*
G75*
G03*
X15120000Y-5788000I-20000J0D01*
G01*
X15201000Y-6701000D02*
G75*
G03*
X15201000Y-6701000I-20000J0D01*
G01*
X15420000Y-7620000D02*
G75*
G03*
X15420000Y-7620000I-20000J0D01*
G01*
X15440000Y-8812450D02*
G75*
G03*
X15440000Y-8812450I-20000J0D01*
G01*
X15570000Y-8740000D02*
G75*
G03*
X15570000Y-8740000I-20000J0D01*
G01*
X15730000Y-6570000D02*
G75*
G03*
X15730000Y-6570000I-20000J0D01*
G01*
X16020000Y-11900000D02*
G75*
G03*
X16020000Y-11900000I-20000J0D01*
G01*
X16220000Y-8400000D02*
G75*
G03*
X16220000Y-8400000I-20000J0D01*
G01*
X16320000Y-7800000D02*
G75*
G03*
X16320000Y-7800000I-20000J0D01*
G01*
X16370000Y-7900000D02*
G75*
G03*
X16370000Y-7900000I-20000J0D01*
G01*
X16420000Y-8000000D02*
G75*
G03*
X16420000Y-8000000I-20000J0D01*
G01*
X16470000Y-6150000D02*
G75*
G03*
X16470000Y-6150000I-20000J0D01*
G01*
X16630000Y-7500000D02*
G75*
G03*
X16630000Y-7500000I-20000J0D01*
G01*
X16630000Y-7620000D02*
G75*
G03*
X16630000Y-7620000I-20000J0D01*
G01*
X16630000Y-7750000D02*
G75*
G03*
X16630000Y-7750000I-20000J0D01*
G01*
X16679000Y-8394000D02*
G75*
G03*
X16679000Y-8394000I-20000J0D01*
G01*
X16830000Y-7080000D02*
G75*
G03*
X16830000Y-7080000I-20000J0D01*
G01*
X17010000Y-6760000D02*
G75*
G03*
X17010000Y-6760000I-20000J0D01*
G01*
X17198000Y-7064000D02*
G75*
G03*
X17198000Y-7064000I-20000J0D01*
G01*
X18927000Y-7103000D02*
G75*
G03*
X18927000Y-7103000I-20000J0D01*
G01*
X18940000Y-9160000D02*
G75*
G03*
X18940000Y-9160000I-20000J0D01*
G01*
X19282500Y-7602500D02*
G75*
G03*
X19282500Y-7602500I-20000J0D01*
G01*
X19573000Y-6238000D02*
G75*
G03*
X19573000Y-6238000I-20000J0D01*
G01*
X19806000Y-8695000D02*
G75*
G03*
X19806000Y-8695000I-20000J0D01*
G01*
X19860000Y-7680000D02*
G75*
G03*
X19860000Y-7680000I-20000J0D01*
G01*
X20060000Y-7820000D02*
G75*
G03*
X20060000Y-7820000I-20000J0D01*
G01*
X20160000Y-6440000D02*
G75*
G03*
X20160000Y-6440000I-20000J0D01*
G01*
X20240000Y-6100000D02*
G75*
G03*
X20240000Y-6100000I-20000J0D01*
G01*
X20267881Y-6527881D02*
G75*
G03*
X20267881Y-6527881I-20000J0D01*
G01*
X20331300Y-6700000D02*
G75*
G03*
X20331300Y-6700000I-20000J0D01*
G01*
X20679000Y-9085000D02*
G75*
G03*
X20679000Y-9085000I-20000J0D01*
G01*
X20820000Y-13000000D02*
G75*
G03*
X20820000Y-13000000I-20000J0D01*
G01*
X20859000Y-6083000D02*
G75*
G03*
X20859000Y-6083000I-20000J0D01*
G01*
X21520000Y-8580000D02*
G75*
G03*
X21520000Y-8580000I-20000J0D01*
G01*
X21660000Y-8680000D02*
G75*
G03*
X21660000Y-8680000I-20000J0D01*
G01*
X21800000Y-8780000D02*
G75*
G03*
X21800000Y-8780000I-20000J0D01*
G01*
X21940000Y-8900000D02*
G75*
G03*
X21940000Y-8900000I-20000J0D01*
G01*
X22310000Y-7930000D02*
G75*
G03*
X22310000Y-7930000I-20000J0D01*
G01*
X22320000Y-6640000D02*
G75*
G03*
X22320000Y-6640000I-20000J0D01*
G01*
X22320000Y-9100000D02*
G75*
G03*
X22320000Y-9100000I-20000J0D01*
G01*
X22320000Y-10600000D02*
G75*
G03*
X22320000Y-10600000I-20000J0D01*
G01*
X22597000Y-6129000D02*
G75*
G03*
X22597000Y-6129000I-20000J0D01*
G01*
X22872000Y-8005000D02*
G75*
G03*
X22872000Y-8005000I-20000J0D01*
G01*
X23420000Y-12700000D02*
G75*
G03*
X23420000Y-12700000I-20000J0D01*
G01*
X23471000Y-8722000D02*
G75*
G03*
X23471000Y-8722000I-20000J0D01*
G01*
X24110000Y-7590000D02*
G75*
G03*
X24110000Y-7590000I-20000J0D01*
G01*
X24120000Y-6300000D02*
G75*
G03*
X24120000Y-6300000I-20000J0D01*
G01*
X24120000Y-8490000D02*
G75*
G03*
X24120000Y-8490000I-20000J0D01*
G01*
X24120000Y-10200000D02*
G75*
G03*
X24120000Y-10200000I-20000J0D01*
G01*
X24431000Y-10504000D02*
G75*
G03*
X24431000Y-10504000I-20000J0D01*
G01*
X25120000Y-12600000D02*
G75*
G03*
X25120000Y-12600000I-20000J0D01*
G01*
X25920000Y-5900000D02*
G75*
G03*
X25920000Y-5900000I-20000J0D01*
G01*
X25920000Y-7760000D02*
G75*
G03*
X25920000Y-7760000I-20000J0D01*
G01*
X25920000Y-8300000D02*
G75*
G03*
X25920000Y-8300000I-20000J0D01*
G01*
X25920000Y-9800000D02*
G75*
G03*
X25920000Y-9800000I-20000J0D01*
G01*
X27720000Y-6300000D02*
G75*
G03*
X27720000Y-6300000I-20000J0D01*
G01*
X27720000Y-8650000D02*
G75*
G03*
X27720000Y-8650000I-20000J0D01*
G01*
X27720000Y-10100000D02*
G75*
G03*
X27720000Y-10100000I-20000J0D01*
G01*
X27730000Y-7590000D02*
G75*
G03*
X27730000Y-7590000I-20000J0D01*
G01*
X29620000Y-6700000D02*
G75*
G03*
X29620000Y-6700000I-20000J0D01*
G01*
X29620000Y-7970000D02*
G75*
G03*
X29620000Y-7970000I-20000J0D01*
G01*
X29620000Y-9070000D02*
G75*
G03*
X29620000Y-9070000I-20000J0D01*
G01*
X29620000Y-10500000D02*
G75*
G03*
X29620000Y-10500000I-20000J0D01*
G01*
X31418619Y-8521381D02*
G75*
G03*
X31418619Y-8521381I-20000J0D01*
G01*
X31418619Y-10499844D02*
G75*
G03*
X31418619Y-10499844I-20000J0D01*
G01*
X31420000Y-6700000D02*
G75*
G03*
X31420000Y-6700000I-20000J0D01*
G01*
D14*
X15600000Y-5578000D02*
X15600000Y-5622000D01*
X15578000Y-5600000D02*
X15622000Y-5600000D01*
X15665000Y-5678000D02*
X15665000Y-5722000D01*
X15643000Y-5700000D02*
X15687000Y-5700000D01*
X15730000Y-5578000D02*
X15730000Y-5622000D01*
X15708000Y-5600000D02*
X15752000Y-5600000D01*
X15795000Y-5678000D02*
X15795000Y-5722000D01*
X15773000Y-5700000D02*
X15817000Y-5700000D01*
X15860000Y-5578000D02*
X15860000Y-5622000D01*
X15838000Y-5600000D02*
X15882000Y-5600000D01*
X20150000Y-5566000D02*
X20150000Y-5610000D01*
X20128000Y-5588000D02*
X20172000Y-5588000D01*
X20215000Y-5666000D02*
X20215000Y-5710000D01*
X20193000Y-5688000D02*
X20237000Y-5688000D01*
X20280000Y-5566000D02*
X20280000Y-5610000D01*
X20258000Y-5588000D02*
X20302000Y-5588000D01*
X20345000Y-5666000D02*
X20345000Y-5710000D01*
X20323000Y-5688000D02*
X20367000Y-5688000D01*
X20410000Y-5566000D02*
X20410000Y-5610000D01*
X20388000Y-5588000D02*
X20432000Y-5588000D01*
D10*
X16717678Y-5717678D02*
X16717678Y-5682322D01*
X16682322Y-5682322D01*
X16682322Y-5717678D01*
X16717678Y-5717678D01*
X16717678Y-5817678D02*
X16717678Y-5782322D01*
X16682322Y-5782322D01*
X16682322Y-5817678D01*
X16717678Y-5817678D01*
X16817678Y-5717678D02*
X16817678Y-5682322D01*
X16782322Y-5682322D01*
X16782322Y-5717678D01*
X16817678Y-5717678D01*
X16817678Y-5817678D02*
X16817678Y-5782322D01*
X16782322Y-5782322D01*
X16782322Y-5817678D01*
X16817678Y-5817678D01*
X16917678Y-5717678D02*
X16917678Y-5682322D01*
X16882322Y-5682322D01*
X16882322Y-5717678D01*
X16917678Y-5717678D01*
X16917678Y-5817678D02*
X16917678Y-5782322D01*
X16882322Y-5782322D01*
X16882322Y-5817678D01*
X16917678Y-5817678D01*
X17017678Y-5717678D02*
X17017678Y-5682322D01*
X16982322Y-5682322D01*
X16982322Y-5717678D01*
X17017678Y-5717678D01*
X17017678Y-5817678D02*
X17017678Y-5782322D01*
X16982322Y-5782322D01*
X16982322Y-5817678D01*
X17017678Y-5817678D01*
X17117678Y-5717678D02*
X17117678Y-5682322D01*
X17082322Y-5682322D01*
X17082322Y-5717678D01*
X17117678Y-5717678D01*
X17117678Y-5817678D02*
X17117678Y-5782322D01*
X17082322Y-5782322D01*
X17082322Y-5817678D01*
X17117678Y-5817678D01*
X18797678Y-5637678D02*
X18797678Y-5602322D01*
X18762322Y-5602322D01*
X18762322Y-5637678D01*
X18797678Y-5637678D01*
X18797678Y-5737678D02*
X18797678Y-5702322D01*
X18762322Y-5702322D01*
X18762322Y-5737678D01*
X18797678Y-5737678D01*
X18897678Y-5637678D02*
X18897678Y-5602322D01*
X18862322Y-5602322D01*
X18862322Y-5637678D01*
X18897678Y-5637678D01*
X18897678Y-5737678D02*
X18897678Y-5702322D01*
X18862322Y-5702322D01*
X18862322Y-5737678D01*
X18897678Y-5737678D01*
X18997678Y-5637678D02*
X18997678Y-5602322D01*
X18962322Y-5602322D01*
X18962322Y-5637678D01*
X18997678Y-5637678D01*
X18997678Y-5737678D02*
X18997678Y-5702322D01*
X18962322Y-5702322D01*
X18962322Y-5737678D01*
X18997678Y-5737678D01*
X19097678Y-5637678D02*
X19097678Y-5602322D01*
X19062322Y-5602322D01*
X19062322Y-5637678D01*
X19097678Y-5637678D01*
X19097678Y-5737678D02*
X19097678Y-5702322D01*
X19062322Y-5702322D01*
X19062322Y-5737678D01*
X19097678Y-5737678D01*
X19197678Y-5637678D02*
X19197678Y-5602322D01*
X19162322Y-5602322D01*
X19162322Y-5637678D01*
X19197678Y-5637678D01*
X19197678Y-5737678D02*
X19197678Y-5702322D01*
X19162322Y-5702322D01*
X19162322Y-5737678D01*
X19197678Y-5737678D01*
D15*
X15372500Y-5689500D02*
X15440000Y-5622000D01*
X15372500Y-5554500D01*
X15305000Y-5622000D01*
X15372500Y-5689500D01*
X16087500Y-5689500D02*
X16155000Y-5622000D01*
X16087500Y-5554500D01*
X16020000Y-5622000D01*
X16087500Y-5689500D01*
X19922500Y-5677500D02*
X19990000Y-5610000D01*
X19922500Y-5542500D01*
X19855000Y-5610000D01*
X19922500Y-5677500D01*
X20637500Y-5677500D02*
X20705000Y-5610000D01*
X20637500Y-5542500D01*
X20570000Y-5610000D01*
X20637500Y-5677500D01*
D11*
X4255119Y-14212976D02*
X4255119Y-14012976D01*
X4302738Y-14012976D01*
X4331310Y-14022500D01*
X4350357Y-14041548D01*
X4359881Y-14060595D01*
X4369405Y-14098690D01*
X4369405Y-14127262D01*
X4359881Y-14165357D01*
X4350357Y-14184405D01*
X4331310Y-14203452D01*
X4302738Y-14212976D01*
X4255119Y-14212976D01*
X4455119Y-14212976D02*
X4455119Y-14079643D01*
X4455119Y-14117738D02*
X4464643Y-14098690D01*
X4474167Y-14089167D01*
X4493214Y-14079643D01*
X4512262Y-14079643D01*
X4578929Y-14212976D02*
X4578929Y-14079643D01*
X4578929Y-14012976D02*
X4569405Y-14022500D01*
X4578929Y-14032024D01*
X4588452Y-14022500D01*
X4578929Y-14012976D01*
X4578929Y-14032024D01*
X4702738Y-14212976D02*
X4683690Y-14203452D01*
X4674167Y-14184405D01*
X4674167Y-14012976D01*
X4807500Y-14212976D02*
X4788452Y-14203452D01*
X4778929Y-14184405D01*
X4778929Y-14012976D01*
X5036071Y-14212976D02*
X5036071Y-14012976D01*
X5102738Y-14155833D01*
X5169405Y-14012976D01*
X5169405Y-14212976D01*
X5350357Y-14212976D02*
X5350357Y-14108214D01*
X5340833Y-14089167D01*
X5321786Y-14079643D01*
X5283690Y-14079643D01*
X5264643Y-14089167D01*
X5350357Y-14203452D02*
X5331310Y-14212976D01*
X5283690Y-14212976D01*
X5264643Y-14203452D01*
X5255119Y-14184405D01*
X5255119Y-14165357D01*
X5264643Y-14146309D01*
X5283690Y-14136786D01*
X5331310Y-14136786D01*
X5350357Y-14127262D01*
X5445595Y-14079643D02*
X5445595Y-14279643D01*
X5445595Y-14089167D02*
X5464643Y-14079643D01*
X5502738Y-14079643D01*
X5521786Y-14089167D01*
X5531310Y-14098690D01*
X5540833Y-14117738D01*
X5540833Y-14174881D01*
X5531310Y-14193928D01*
X5521786Y-14203452D01*
X5502738Y-14212976D01*
X5464643Y-14212976D01*
X5445595Y-14203452D01*
X5626548Y-14193928D02*
X5636071Y-14203452D01*
X5626548Y-14212976D01*
X5617024Y-14203452D01*
X5626548Y-14193928D01*
X5626548Y-14212976D01*
X5626548Y-14089167D02*
X5636071Y-14098690D01*
X5626548Y-14108214D01*
X5617024Y-14098690D01*
X5626548Y-14089167D01*
X5626548Y-14108214D01*
D12*
X3977500Y-14532500D02*
X3997500Y-14552500D01*
X3997500Y-14532500D02*
X3977500Y-14552500D01*
D11*
X4293214Y-14432976D02*
X4312262Y-14432976D01*
X4331310Y-14442500D01*
X4340833Y-14452024D01*
X4350357Y-14471071D01*
X4359881Y-14509167D01*
X4359881Y-14556786D01*
X4350357Y-14594881D01*
X4340833Y-14613928D01*
X4331310Y-14623452D01*
X4312262Y-14632976D01*
X4293214Y-14632976D01*
X4274167Y-14623452D01*
X4264643Y-14613928D01*
X4255119Y-14594881D01*
X4245595Y-14556786D01*
X4245595Y-14509167D01*
X4255119Y-14471071D01*
X4264643Y-14452024D01*
X4274167Y-14442500D01*
X4293214Y-14432976D01*
X4445595Y-14613928D02*
X4455119Y-14623452D01*
X4445595Y-14632976D01*
X4436071Y-14623452D01*
X4445595Y-14613928D01*
X4445595Y-14632976D01*
X4531310Y-14452024D02*
X4540833Y-14442500D01*
X4559881Y-14432976D01*
X4607500Y-14432976D01*
X4626548Y-14442500D01*
X4636071Y-14452024D01*
X4645595Y-14471071D01*
X4645595Y-14490119D01*
X4636071Y-14518690D01*
X4521786Y-14632976D01*
X4645595Y-14632976D01*
X4769405Y-14432976D02*
X4788452Y-14432976D01*
X4807500Y-14442500D01*
X4817024Y-14452024D01*
X4826548Y-14471071D01*
X4836071Y-14509167D01*
X4836071Y-14556786D01*
X4826548Y-14594881D01*
X4817024Y-14613928D01*
X4807500Y-14623452D01*
X4788452Y-14632976D01*
X4769405Y-14632976D01*
X4750357Y-14623452D01*
X4740833Y-14613928D01*
X4731310Y-14594881D01*
X4721786Y-14556786D01*
X4721786Y-14509167D01*
X4731310Y-14471071D01*
X4740833Y-14452024D01*
X4750357Y-14442500D01*
X4769405Y-14432976D01*
X4959881Y-14432976D02*
X4978929Y-14432976D01*
X4997976Y-14442500D01*
X5007500Y-14452024D01*
X5017024Y-14471071D01*
X5026548Y-14509167D01*
X5026548Y-14556786D01*
X5017024Y-14594881D01*
X5007500Y-14613928D01*
X4997976Y-14623452D01*
X4978929Y-14632976D01*
X4959881Y-14632976D01*
X4940833Y-14623452D01*
X4931310Y-14613928D01*
X4921786Y-14594881D01*
X4912262Y-14556786D01*
X4912262Y-14509167D01*
X4921786Y-14471071D01*
X4931310Y-14452024D01*
X4940833Y-14442500D01*
X4959881Y-14432976D01*
X5112262Y-14632976D02*
X5112262Y-14499643D01*
X5112262Y-14518690D02*
X5121786Y-14509167D01*
X5140833Y-14499643D01*
X5169405Y-14499643D01*
X5188452Y-14509167D01*
X5197976Y-14528214D01*
X5197976Y-14632976D01*
X5197976Y-14528214D02*
X5207500Y-14509167D01*
X5226548Y-14499643D01*
X5255119Y-14499643D01*
X5274167Y-14509167D01*
X5283690Y-14528214D01*
X5283690Y-14632976D01*
X5378929Y-14632976D02*
X5378929Y-14499643D01*
X5378929Y-14518690D02*
X5388452Y-14509167D01*
X5407500Y-14499643D01*
X5436071Y-14499643D01*
X5455119Y-14509167D01*
X5464643Y-14528214D01*
X5464643Y-14632976D01*
X5464643Y-14528214D02*
X5474167Y-14509167D01*
X5493214Y-14499643D01*
X5521786Y-14499643D01*
X5540833Y-14509167D01*
X5550357Y-14528214D01*
X5550357Y-14632976D01*
X5940833Y-14423452D02*
X5769405Y-14680595D01*
X6197976Y-14432976D02*
X6217024Y-14432976D01*
X6236071Y-14442500D01*
X6245595Y-14452024D01*
X6255119Y-14471071D01*
X6264643Y-14509167D01*
X6264643Y-14556786D01*
X6255119Y-14594881D01*
X6245595Y-14613928D01*
X6236071Y-14623452D01*
X6217024Y-14632976D01*
X6197976Y-14632976D01*
X6178928Y-14623452D01*
X6169405Y-14613928D01*
X6159881Y-14594881D01*
X6150357Y-14556786D01*
X6150357Y-14509167D01*
X6159881Y-14471071D01*
X6169405Y-14452024D01*
X6178928Y-14442500D01*
X6197976Y-14432976D01*
X6350357Y-14613928D02*
X6359881Y-14623452D01*
X6350357Y-14632976D01*
X6340833Y-14623452D01*
X6350357Y-14613928D01*
X6350357Y-14632976D01*
X6483690Y-14432976D02*
X6502738Y-14432976D01*
X6521786Y-14442500D01*
X6531309Y-14452024D01*
X6540833Y-14471071D01*
X6550357Y-14509167D01*
X6550357Y-14556786D01*
X6540833Y-14594881D01*
X6531309Y-14613928D01*
X6521786Y-14623452D01*
X6502738Y-14632976D01*
X6483690Y-14632976D01*
X6464643Y-14623452D01*
X6455119Y-14613928D01*
X6445595Y-14594881D01*
X6436071Y-14556786D01*
X6436071Y-14509167D01*
X6445595Y-14471071D01*
X6455119Y-14452024D01*
X6464643Y-14442500D01*
X6483690Y-14432976D01*
X6674167Y-14432976D02*
X6693214Y-14432976D01*
X6712262Y-14442500D01*
X6721786Y-14452024D01*
X6731309Y-14471071D01*
X6740833Y-14509167D01*
X6740833Y-14556786D01*
X6731309Y-14594881D01*
X6721786Y-14613928D01*
X6712262Y-14623452D01*
X6693214Y-14632976D01*
X6674167Y-14632976D01*
X6655119Y-14623452D01*
X6645595Y-14613928D01*
X6636071Y-14594881D01*
X6626548Y-14556786D01*
X6626548Y-14509167D01*
X6636071Y-14471071D01*
X6645595Y-14452024D01*
X6655119Y-14442500D01*
X6674167Y-14432976D01*
X6807500Y-14432976D02*
X6940833Y-14432976D01*
X6855119Y-14632976D01*
X7026548Y-14632976D02*
X7064643Y-14632976D01*
X7083690Y-14623452D01*
X7093214Y-14613928D01*
X7112262Y-14585357D01*
X7121786Y-14547262D01*
X7121786Y-14471071D01*
X7112262Y-14452024D01*
X7102738Y-14442500D01*
X7083690Y-14432976D01*
X7045595Y-14432976D01*
X7026548Y-14442500D01*
X7017024Y-14452024D01*
X7007500Y-14471071D01*
X7007500Y-14518690D01*
X7017024Y-14537738D01*
X7026548Y-14547262D01*
X7045595Y-14556786D01*
X7083690Y-14556786D01*
X7102738Y-14547262D01*
X7112262Y-14537738D01*
X7121786Y-14518690D01*
X7197976Y-14432976D02*
X7197976Y-14471071D01*
X7274167Y-14432976D02*
X7274167Y-14471071D01*
X7569405Y-14709167D02*
X7559881Y-14699643D01*
X7540833Y-14671071D01*
X7531309Y-14652024D01*
X7521786Y-14623452D01*
X7512262Y-14575833D01*
X7512262Y-14537738D01*
X7521786Y-14490119D01*
X7531309Y-14461548D01*
X7540833Y-14442500D01*
X7559881Y-14413928D01*
X7569405Y-14404405D01*
X7731309Y-14432976D02*
X7693214Y-14432976D01*
X7674167Y-14442500D01*
X7664643Y-14452024D01*
X7645595Y-14480595D01*
X7636071Y-14518690D01*
X7636071Y-14594881D01*
X7645595Y-14613928D01*
X7655119Y-14623452D01*
X7674167Y-14632976D01*
X7712262Y-14632976D01*
X7731309Y-14623452D01*
X7740833Y-14613928D01*
X7750357Y-14594881D01*
X7750357Y-14547262D01*
X7740833Y-14528214D01*
X7731309Y-14518690D01*
X7712262Y-14509167D01*
X7674167Y-14509167D01*
X7655119Y-14518690D01*
X7645595Y-14528214D01*
X7636071Y-14547262D01*
X7921786Y-14499643D02*
X7921786Y-14632976D01*
X7874167Y-14423452D02*
X7826548Y-14566309D01*
X7950357Y-14566309D01*
X8178928Y-14632976D02*
X8178928Y-14432976D01*
X8264643Y-14632976D02*
X8264643Y-14528214D01*
X8255119Y-14509167D01*
X8236071Y-14499643D01*
X8207500Y-14499643D01*
X8188452Y-14509167D01*
X8178928Y-14518690D01*
X8388452Y-14632976D02*
X8369405Y-14623452D01*
X8359881Y-14613928D01*
X8350357Y-14594881D01*
X8350357Y-14537738D01*
X8359881Y-14518690D01*
X8369405Y-14509167D01*
X8388452Y-14499643D01*
X8417024Y-14499643D01*
X8436071Y-14509167D01*
X8445595Y-14518690D01*
X8455119Y-14537738D01*
X8455119Y-14594881D01*
X8445595Y-14613928D01*
X8436071Y-14623452D01*
X8417024Y-14632976D01*
X8388452Y-14632976D01*
X8569405Y-14632976D02*
X8550357Y-14623452D01*
X8540833Y-14604405D01*
X8540833Y-14432976D01*
X8721786Y-14623452D02*
X8702738Y-14632976D01*
X8664643Y-14632976D01*
X8645595Y-14623452D01*
X8636071Y-14604405D01*
X8636071Y-14528214D01*
X8645595Y-14509167D01*
X8664643Y-14499643D01*
X8702738Y-14499643D01*
X8721786Y-14509167D01*
X8731310Y-14528214D01*
X8731310Y-14547262D01*
X8636071Y-14566309D01*
X8807500Y-14623452D02*
X8826548Y-14632976D01*
X8864643Y-14632976D01*
X8883690Y-14623452D01*
X8893214Y-14604405D01*
X8893214Y-14594881D01*
X8883690Y-14575833D01*
X8864643Y-14566309D01*
X8836071Y-14566309D01*
X8817024Y-14556786D01*
X8807500Y-14537738D01*
X8807500Y-14528214D01*
X8817024Y-14509167D01*
X8836071Y-14499643D01*
X8864643Y-14499643D01*
X8883690Y-14509167D01*
X8959881Y-14709167D02*
X8969405Y-14699643D01*
X8988452Y-14671071D01*
X8997976Y-14652024D01*
X9007500Y-14623452D01*
X9017024Y-14575833D01*
X9017024Y-14537738D01*
X9007500Y-14490119D01*
X8997976Y-14461548D01*
X8988452Y-14442500D01*
X8969405Y-14413928D01*
X8959881Y-14404405D01*
D13*
X3997500Y-14806500D02*
G75*
G03*
X3997500Y-14806500I-20000J0D01*
G01*
D11*
X4293214Y-14696976D02*
X4312262Y-14696976D01*
X4331310Y-14706500D01*
X4340833Y-14716024D01*
X4350357Y-14735071D01*
X4359881Y-14773167D01*
X4359881Y-14820786D01*
X4350357Y-14858881D01*
X4340833Y-14877928D01*
X4331310Y-14887452D01*
X4312262Y-14896976D01*
X4293214Y-14896976D01*
X4274167Y-14887452D01*
X4264643Y-14877928D01*
X4255119Y-14858881D01*
X4245595Y-14820786D01*
X4245595Y-14773167D01*
X4255119Y-14735071D01*
X4264643Y-14716024D01*
X4274167Y-14706500D01*
X4293214Y-14696976D01*
X4445595Y-14877928D02*
X4455119Y-14887452D01*
X4445595Y-14896976D01*
X4436071Y-14887452D01*
X4445595Y-14877928D01*
X4445595Y-14896976D01*
X4626548Y-14763643D02*
X4626548Y-14896976D01*
X4578929Y-14687452D02*
X4531310Y-14830309D01*
X4655119Y-14830309D01*
X4769405Y-14696976D02*
X4788452Y-14696976D01*
X4807500Y-14706500D01*
X4817024Y-14716024D01*
X4826548Y-14735071D01*
X4836071Y-14773167D01*
X4836071Y-14820786D01*
X4826548Y-14858881D01*
X4817024Y-14877928D01*
X4807500Y-14887452D01*
X4788452Y-14896976D01*
X4769405Y-14896976D01*
X4750357Y-14887452D01*
X4740833Y-14877928D01*
X4731310Y-14858881D01*
X4721786Y-14820786D01*
X4721786Y-14773167D01*
X4731310Y-14735071D01*
X4740833Y-14716024D01*
X4750357Y-14706500D01*
X4769405Y-14696976D01*
X4959881Y-14696976D02*
X4978929Y-14696976D01*
X4997976Y-14706500D01*
X5007500Y-14716024D01*
X5017024Y-14735071D01*
X5026548Y-14773167D01*
X5026548Y-14820786D01*
X5017024Y-14858881D01*
X5007500Y-14877928D01*
X4997976Y-14887452D01*
X4978929Y-14896976D01*
X4959881Y-14896976D01*
X4940833Y-14887452D01*
X4931310Y-14877928D01*
X4921786Y-14858881D01*
X4912262Y-14820786D01*
X4912262Y-14773167D01*
X4921786Y-14735071D01*
X4931310Y-14716024D01*
X4940833Y-14706500D01*
X4959881Y-14696976D01*
X5112262Y-14896976D02*
X5112262Y-14763643D01*
X5112262Y-14782690D02*
X5121786Y-14773167D01*
X5140833Y-14763643D01*
X5169405Y-14763643D01*
X5188452Y-14773167D01*
X5197976Y-14792214D01*
X5197976Y-14896976D01*
X5197976Y-14792214D02*
X5207500Y-14773167D01*
X5226548Y-14763643D01*
X5255119Y-14763643D01*
X5274167Y-14773167D01*
X5283690Y-14792214D01*
X5283690Y-14896976D01*
X5378929Y-14896976D02*
X5378929Y-14763643D01*
X5378929Y-14782690D02*
X5388452Y-14773167D01*
X5407500Y-14763643D01*
X5436071Y-14763643D01*
X5455119Y-14773167D01*
X5464643Y-14792214D01*
X5464643Y-14896976D01*
X5464643Y-14792214D02*
X5474167Y-14773167D01*
X5493214Y-14763643D01*
X5521786Y-14763643D01*
X5540833Y-14773167D01*
X5550357Y-14792214D01*
X5550357Y-14896976D01*
X5940833Y-14687452D02*
X5769405Y-14944595D01*
X6197976Y-14696976D02*
X6217024Y-14696976D01*
X6236071Y-14706500D01*
X6245595Y-14716024D01*
X6255119Y-14735071D01*
X6264643Y-14773167D01*
X6264643Y-14820786D01*
X6255119Y-14858881D01*
X6245595Y-14877928D01*
X6236071Y-14887452D01*
X6217024Y-14896976D01*
X6197976Y-14896976D01*
X6178928Y-14887452D01*
X6169405Y-14877928D01*
X6159881Y-14858881D01*
X6150357Y-14820786D01*
X6150357Y-14773167D01*
X6159881Y-14735071D01*
X6169405Y-14716024D01*
X6178928Y-14706500D01*
X6197976Y-14696976D01*
X6350357Y-14877928D02*
X6359881Y-14887452D01*
X6350357Y-14896976D01*
X6340833Y-14887452D01*
X6350357Y-14877928D01*
X6350357Y-14896976D01*
X6483690Y-14696976D02*
X6502738Y-14696976D01*
X6521786Y-14706500D01*
X6531309Y-14716024D01*
X6540833Y-14735071D01*
X6550357Y-14773167D01*
X6550357Y-14820786D01*
X6540833Y-14858881D01*
X6531309Y-14877928D01*
X6521786Y-14887452D01*
X6502738Y-14896976D01*
X6483690Y-14896976D01*
X6464643Y-14887452D01*
X6455119Y-14877928D01*
X6445595Y-14858881D01*
X6436071Y-14820786D01*
X6436071Y-14773167D01*
X6445595Y-14735071D01*
X6455119Y-14716024D01*
X6464643Y-14706500D01*
X6483690Y-14696976D01*
X6740833Y-14896976D02*
X6626548Y-14896976D01*
X6683690Y-14896976D02*
X6683690Y-14696976D01*
X6664643Y-14725548D01*
X6645595Y-14744595D01*
X6626548Y-14754119D01*
X6921786Y-14696976D02*
X6826548Y-14696976D01*
X6817024Y-14792214D01*
X6826548Y-14782690D01*
X6845595Y-14773167D01*
X6893214Y-14773167D01*
X6912262Y-14782690D01*
X6921786Y-14792214D01*
X6931309Y-14811262D01*
X6931309Y-14858881D01*
X6921786Y-14877928D01*
X6912262Y-14887452D01*
X6893214Y-14896976D01*
X6845595Y-14896976D01*
X6826548Y-14887452D01*
X6817024Y-14877928D01*
X6997976Y-14696976D02*
X7131309Y-14696976D01*
X7045595Y-14896976D01*
X7197976Y-14696976D02*
X7197976Y-14735071D01*
X7274167Y-14696976D02*
X7274167Y-14735071D01*
X7569405Y-14973167D02*
X7559881Y-14963643D01*
X7540833Y-14935071D01*
X7531309Y-14916024D01*
X7521786Y-14887452D01*
X7512262Y-14839833D01*
X7512262Y-14801738D01*
X7521786Y-14754119D01*
X7531309Y-14725548D01*
X7540833Y-14706500D01*
X7559881Y-14677928D01*
X7569405Y-14668405D01*
X7750357Y-14896976D02*
X7636071Y-14896976D01*
X7693214Y-14896976D02*
X7693214Y-14696976D01*
X7674167Y-14725548D01*
X7655119Y-14744595D01*
X7636071Y-14754119D01*
X7874167Y-14696976D02*
X7893214Y-14696976D01*
X7912262Y-14706500D01*
X7921786Y-14716024D01*
X7931309Y-14735071D01*
X7940833Y-14773167D01*
X7940833Y-14820786D01*
X7931309Y-14858881D01*
X7921786Y-14877928D01*
X7912262Y-14887452D01*
X7893214Y-14896976D01*
X7874167Y-14896976D01*
X7855119Y-14887452D01*
X7845595Y-14877928D01*
X7836071Y-14858881D01*
X7826548Y-14820786D01*
X7826548Y-14773167D01*
X7836071Y-14735071D01*
X7845595Y-14716024D01*
X7855119Y-14706500D01*
X7874167Y-14696976D01*
X8064643Y-14696976D02*
X8083690Y-14696976D01*
X8102738Y-14706500D01*
X8112262Y-14716024D01*
X8121786Y-14735071D01*
X8131309Y-14773167D01*
X8131309Y-14820786D01*
X8121786Y-14858881D01*
X8112262Y-14877928D01*
X8102738Y-14887452D01*
X8083690Y-14896976D01*
X8064643Y-14896976D01*
X8045595Y-14887452D01*
X8036071Y-14877928D01*
X8026548Y-14858881D01*
X8017024Y-14820786D01*
X8017024Y-14773167D01*
X8026548Y-14735071D01*
X8036071Y-14716024D01*
X8045595Y-14706500D01*
X8064643Y-14696976D01*
X8369405Y-14896976D02*
X8369405Y-14696976D01*
X8455119Y-14896976D02*
X8455119Y-14792214D01*
X8445595Y-14773167D01*
X8426548Y-14763643D01*
X8397976Y-14763643D01*
X8378928Y-14773167D01*
X8369405Y-14782690D01*
X8578929Y-14896976D02*
X8559881Y-14887452D01*
X8550357Y-14877928D01*
X8540833Y-14858881D01*
X8540833Y-14801738D01*
X8550357Y-14782690D01*
X8559881Y-14773167D01*
X8578929Y-14763643D01*
X8607500Y-14763643D01*
X8626548Y-14773167D01*
X8636071Y-14782690D01*
X8645595Y-14801738D01*
X8645595Y-14858881D01*
X8636071Y-14877928D01*
X8626548Y-14887452D01*
X8607500Y-14896976D01*
X8578929Y-14896976D01*
X8759881Y-14896976D02*
X8740833Y-14887452D01*
X8731310Y-14868405D01*
X8731310Y-14696976D01*
X8912262Y-14887452D02*
X8893214Y-14896976D01*
X8855119Y-14896976D01*
X8836071Y-14887452D01*
X8826548Y-14868405D01*
X8826548Y-14792214D01*
X8836071Y-14773167D01*
X8855119Y-14763643D01*
X8893214Y-14763643D01*
X8912262Y-14773167D01*
X8921786Y-14792214D01*
X8921786Y-14811262D01*
X8826548Y-14830309D01*
X8997976Y-14887452D02*
X9017024Y-14896976D01*
X9055119Y-14896976D01*
X9074167Y-14887452D01*
X9083690Y-14868405D01*
X9083690Y-14858881D01*
X9074167Y-14839833D01*
X9055119Y-14830309D01*
X9026548Y-14830309D01*
X9007500Y-14820786D01*
X8997976Y-14801738D01*
X8997976Y-14792214D01*
X9007500Y-14773167D01*
X9026548Y-14763643D01*
X9055119Y-14763643D01*
X9074167Y-14773167D01*
X9150357Y-14973167D02*
X9159881Y-14963643D01*
X9178929Y-14935071D01*
X9188452Y-14916024D01*
X9197976Y-14887452D01*
X9207500Y-14839833D01*
X9207500Y-14801738D01*
X9197976Y-14754119D01*
X9188452Y-14725548D01*
X9178929Y-14706500D01*
X9159881Y-14677928D01*
X9150357Y-14668405D01*
D14*
X3975500Y-15048500D02*
X3975500Y-15092500D01*
X3953500Y-15070500D02*
X3997500Y-15070500D01*
D11*
X4293214Y-14960976D02*
X4312262Y-14960976D01*
X4331310Y-14970500D01*
X4340833Y-14980024D01*
X4350357Y-14999071D01*
X4359881Y-15037167D01*
X4359881Y-15084786D01*
X4350357Y-15122881D01*
X4340833Y-15141928D01*
X4331310Y-15151452D01*
X4312262Y-15160976D01*
X4293214Y-15160976D01*
X4274167Y-15151452D01*
X4264643Y-15141928D01*
X4255119Y-15122881D01*
X4245595Y-15084786D01*
X4245595Y-15037167D01*
X4255119Y-14999071D01*
X4264643Y-14980024D01*
X4274167Y-14970500D01*
X4293214Y-14960976D01*
X4445595Y-15141928D02*
X4455119Y-15151452D01*
X4445595Y-15160976D01*
X4436071Y-15151452D01*
X4445595Y-15141928D01*
X4445595Y-15160976D01*
X4626548Y-15027643D02*
X4626548Y-15160976D01*
X4578929Y-14951452D02*
X4531310Y-15094309D01*
X4655119Y-15094309D01*
X4817024Y-15027643D02*
X4817024Y-15160976D01*
X4769405Y-14951452D02*
X4721786Y-15094309D01*
X4845595Y-15094309D01*
X4959881Y-14960976D02*
X4978929Y-14960976D01*
X4997976Y-14970500D01*
X5007500Y-14980024D01*
X5017024Y-14999071D01*
X5026548Y-15037167D01*
X5026548Y-15084786D01*
X5017024Y-15122881D01*
X5007500Y-15141928D01*
X4997976Y-15151452D01*
X4978929Y-15160976D01*
X4959881Y-15160976D01*
X4940833Y-15151452D01*
X4931310Y-15141928D01*
X4921786Y-15122881D01*
X4912262Y-15084786D01*
X4912262Y-15037167D01*
X4921786Y-14999071D01*
X4931310Y-14980024D01*
X4940833Y-14970500D01*
X4959881Y-14960976D01*
X5112262Y-15160976D02*
X5112262Y-15027643D01*
X5112262Y-15046690D02*
X5121786Y-15037167D01*
X5140833Y-15027643D01*
X5169405Y-15027643D01*
X5188452Y-15037167D01*
X5197976Y-15056214D01*
X5197976Y-15160976D01*
X5197976Y-15056214D02*
X5207500Y-15037167D01*
X5226548Y-15027643D01*
X5255119Y-15027643D01*
X5274167Y-15037167D01*
X5283690Y-15056214D01*
X5283690Y-15160976D01*
X5378929Y-15160976D02*
X5378929Y-15027643D01*
X5378929Y-15046690D02*
X5388452Y-15037167D01*
X5407500Y-15027643D01*
X5436071Y-15027643D01*
X5455119Y-15037167D01*
X5464643Y-15056214D01*
X5464643Y-15160976D01*
X5464643Y-15056214D02*
X5474167Y-15037167D01*
X5493214Y-15027643D01*
X5521786Y-15027643D01*
X5540833Y-15037167D01*
X5550357Y-15056214D01*
X5550357Y-15160976D01*
X5940833Y-14951452D02*
X5769405Y-15208595D01*
X6197976Y-14960976D02*
X6217024Y-14960976D01*
X6236071Y-14970500D01*
X6245595Y-14980024D01*
X6255119Y-14999071D01*
X6264643Y-15037167D01*
X6264643Y-15084786D01*
X6255119Y-15122881D01*
X6245595Y-15141928D01*
X6236071Y-15151452D01*
X6217024Y-15160976D01*
X6197976Y-15160976D01*
X6178928Y-15151452D01*
X6169405Y-15141928D01*
X6159881Y-15122881D01*
X6150357Y-15084786D01*
X6150357Y-15037167D01*
X6159881Y-14999071D01*
X6169405Y-14980024D01*
X6178928Y-14970500D01*
X6197976Y-14960976D01*
X6350357Y-15141928D02*
X6359881Y-15151452D01*
X6350357Y-15160976D01*
X6340833Y-15151452D01*
X6350357Y-15141928D01*
X6350357Y-15160976D01*
X6483690Y-14960976D02*
X6502738Y-14960976D01*
X6521786Y-14970500D01*
X6531309Y-14980024D01*
X6540833Y-14999071D01*
X6550357Y-15037167D01*
X6550357Y-15084786D01*
X6540833Y-15122881D01*
X6531309Y-15141928D01*
X6521786Y-15151452D01*
X6502738Y-15160976D01*
X6483690Y-15160976D01*
X6464643Y-15151452D01*
X6455119Y-15141928D01*
X6445595Y-15122881D01*
X6436071Y-15084786D01*
X6436071Y-15037167D01*
X6445595Y-14999071D01*
X6455119Y-14980024D01*
X6464643Y-14970500D01*
X6483690Y-14960976D01*
X6740833Y-15160976D02*
X6626548Y-15160976D01*
X6683690Y-15160976D02*
X6683690Y-14960976D01*
X6664643Y-14989548D01*
X6645595Y-15008595D01*
X6626548Y-15018119D01*
X6807500Y-14960976D02*
X6940833Y-14960976D01*
X6855119Y-15160976D01*
X6997976Y-14960976D02*
X7121786Y-14960976D01*
X7055119Y-15037167D01*
X7083690Y-15037167D01*
X7102738Y-15046690D01*
X7112262Y-15056214D01*
X7121786Y-15075262D01*
X7121786Y-15122881D01*
X7112262Y-15141928D01*
X7102738Y-15151452D01*
X7083690Y-15160976D01*
X7026548Y-15160976D01*
X7007500Y-15151452D01*
X6997976Y-15141928D01*
X7197976Y-14960976D02*
X7197976Y-14999071D01*
X7274167Y-14960976D02*
X7274167Y-14999071D01*
X7569405Y-15237167D02*
X7559881Y-15227643D01*
X7540833Y-15199071D01*
X7531309Y-15180024D01*
X7521786Y-15151452D01*
X7512262Y-15103833D01*
X7512262Y-15065738D01*
X7521786Y-15018119D01*
X7531309Y-14989548D01*
X7540833Y-14970500D01*
X7559881Y-14941928D01*
X7569405Y-14932405D01*
X7750357Y-15160976D02*
X7636071Y-15160976D01*
X7693214Y-15160976D02*
X7693214Y-14960976D01*
X7674167Y-14989548D01*
X7655119Y-15008595D01*
X7636071Y-15018119D01*
X7874167Y-14960976D02*
X7893214Y-14960976D01*
X7912262Y-14970500D01*
X7921786Y-14980024D01*
X7931309Y-14999071D01*
X7940833Y-15037167D01*
X7940833Y-15084786D01*
X7931309Y-15122881D01*
X7921786Y-15141928D01*
X7912262Y-15151452D01*
X7893214Y-15160976D01*
X7874167Y-15160976D01*
X7855119Y-15151452D01*
X7845595Y-15141928D01*
X7836071Y-15122881D01*
X7826548Y-15084786D01*
X7826548Y-15037167D01*
X7836071Y-14999071D01*
X7845595Y-14980024D01*
X7855119Y-14970500D01*
X7874167Y-14960976D01*
X8178928Y-15160976D02*
X8178928Y-14960976D01*
X8264643Y-15160976D02*
X8264643Y-15056214D01*
X8255119Y-15037167D01*
X8236071Y-15027643D01*
X8207500Y-15027643D01*
X8188452Y-15037167D01*
X8178928Y-15046690D01*
X8388452Y-15160976D02*
X8369405Y-15151452D01*
X8359881Y-15141928D01*
X8350357Y-15122881D01*
X8350357Y-15065738D01*
X8359881Y-15046690D01*
X8369405Y-15037167D01*
X8388452Y-15027643D01*
X8417024Y-15027643D01*
X8436071Y-15037167D01*
X8445595Y-15046690D01*
X8455119Y-15065738D01*
X8455119Y-15122881D01*
X8445595Y-15141928D01*
X8436071Y-15151452D01*
X8417024Y-15160976D01*
X8388452Y-15160976D01*
X8569405Y-15160976D02*
X8550357Y-15151452D01*
X8540833Y-15132405D01*
X8540833Y-14960976D01*
X8721786Y-15151452D02*
X8702738Y-15160976D01*
X8664643Y-15160976D01*
X8645595Y-15151452D01*
X8636071Y-15132405D01*
X8636071Y-15056214D01*
X8645595Y-15037167D01*
X8664643Y-15027643D01*
X8702738Y-15027643D01*
X8721786Y-15037167D01*
X8731310Y-15056214D01*
X8731310Y-15075262D01*
X8636071Y-15094309D01*
X8807500Y-15151452D02*
X8826548Y-15160976D01*
X8864643Y-15160976D01*
X8883690Y-15151452D01*
X8893214Y-15132405D01*
X8893214Y-15122881D01*
X8883690Y-15103833D01*
X8864643Y-15094309D01*
X8836071Y-15094309D01*
X8817024Y-15084786D01*
X8807500Y-15065738D01*
X8807500Y-15056214D01*
X8817024Y-15037167D01*
X8836071Y-15027643D01*
X8864643Y-15027643D01*
X8883690Y-15037167D01*
X8959881Y-15237167D02*
X8969405Y-15227643D01*
X8988452Y-15199071D01*
X8997976Y-15180024D01*
X9007500Y-15151452D01*
X9017024Y-15103833D01*
X9017024Y-15065738D01*
X9007500Y-15018119D01*
X8997976Y-14989548D01*
X8988452Y-14970500D01*
X8969405Y-14941928D01*
X8959881Y-14932405D01*
D10*
X3990178Y-15352178D02*
X3990178Y-15316822D01*
X3954822Y-15316822D01*
X3954822Y-15352178D01*
X3990178Y-15352178D01*
D11*
X4293214Y-15224976D02*
X4312262Y-15224976D01*
X4331310Y-15234500D01*
X4340833Y-15244024D01*
X4350357Y-15263071D01*
X4359881Y-15301167D01*
X4359881Y-15348786D01*
X4350357Y-15386881D01*
X4340833Y-15405928D01*
X4331310Y-15415452D01*
X4312262Y-15424976D01*
X4293214Y-15424976D01*
X4274167Y-15415452D01*
X4264643Y-15405928D01*
X4255119Y-15386881D01*
X4245595Y-15348786D01*
X4245595Y-15301167D01*
X4255119Y-15263071D01*
X4264643Y-15244024D01*
X4274167Y-15234500D01*
X4293214Y-15224976D01*
X4445595Y-15405928D02*
X4455119Y-15415452D01*
X4445595Y-15424976D01*
X4436071Y-15415452D01*
X4445595Y-15405928D01*
X4445595Y-15424976D01*
X4636071Y-15224976D02*
X4540833Y-15224976D01*
X4531310Y-15320214D01*
X4540833Y-15310690D01*
X4559881Y-15301167D01*
X4607500Y-15301167D01*
X4626548Y-15310690D01*
X4636071Y-15320214D01*
X4645595Y-15339262D01*
X4645595Y-15386881D01*
X4636071Y-15405928D01*
X4626548Y-15415452D01*
X4607500Y-15424976D01*
X4559881Y-15424976D01*
X4540833Y-15415452D01*
X4531310Y-15405928D01*
X4769405Y-15224976D02*
X4788452Y-15224976D01*
X4807500Y-15234500D01*
X4817024Y-15244024D01*
X4826548Y-15263071D01*
X4836071Y-15301167D01*
X4836071Y-15348786D01*
X4826548Y-15386881D01*
X4817024Y-15405928D01*
X4807500Y-15415452D01*
X4788452Y-15424976D01*
X4769405Y-15424976D01*
X4750357Y-15415452D01*
X4740833Y-15405928D01*
X4731310Y-15386881D01*
X4721786Y-15348786D01*
X4721786Y-15301167D01*
X4731310Y-15263071D01*
X4740833Y-15244024D01*
X4750357Y-15234500D01*
X4769405Y-15224976D01*
X4959881Y-15224976D02*
X4978929Y-15224976D01*
X4997976Y-15234500D01*
X5007500Y-15244024D01*
X5017024Y-15263071D01*
X5026548Y-15301167D01*
X5026548Y-15348786D01*
X5017024Y-15386881D01*
X5007500Y-15405928D01*
X4997976Y-15415452D01*
X4978929Y-15424976D01*
X4959881Y-15424976D01*
X4940833Y-15415452D01*
X4931310Y-15405928D01*
X4921786Y-15386881D01*
X4912262Y-15348786D01*
X4912262Y-15301167D01*
X4921786Y-15263071D01*
X4931310Y-15244024D01*
X4940833Y-15234500D01*
X4959881Y-15224976D01*
X5112262Y-15424976D02*
X5112262Y-15291643D01*
X5112262Y-15310690D02*
X5121786Y-15301167D01*
X5140833Y-15291643D01*
X5169405Y-15291643D01*
X5188452Y-15301167D01*
X5197976Y-15320214D01*
X5197976Y-15424976D01*
X5197976Y-15320214D02*
X5207500Y-15301167D01*
X5226548Y-15291643D01*
X5255119Y-15291643D01*
X5274167Y-15301167D01*
X5283690Y-15320214D01*
X5283690Y-15424976D01*
X5378929Y-15424976D02*
X5378929Y-15291643D01*
X5378929Y-15310690D02*
X5388452Y-15301167D01*
X5407500Y-15291643D01*
X5436071Y-15291643D01*
X5455119Y-15301167D01*
X5464643Y-15320214D01*
X5464643Y-15424976D01*
X5464643Y-15320214D02*
X5474167Y-15301167D01*
X5493214Y-15291643D01*
X5521786Y-15291643D01*
X5540833Y-15301167D01*
X5550357Y-15320214D01*
X5550357Y-15424976D01*
X5940833Y-15215452D02*
X5769405Y-15472595D01*
X6197976Y-15224976D02*
X6217024Y-15224976D01*
X6236071Y-15234500D01*
X6245595Y-15244024D01*
X6255119Y-15263071D01*
X6264643Y-15301167D01*
X6264643Y-15348786D01*
X6255119Y-15386881D01*
X6245595Y-15405928D01*
X6236071Y-15415452D01*
X6217024Y-15424976D01*
X6197976Y-15424976D01*
X6178928Y-15415452D01*
X6169405Y-15405928D01*
X6159881Y-15386881D01*
X6150357Y-15348786D01*
X6150357Y-15301167D01*
X6159881Y-15263071D01*
X6169405Y-15244024D01*
X6178928Y-15234500D01*
X6197976Y-15224976D01*
X6350357Y-15405928D02*
X6359881Y-15415452D01*
X6350357Y-15424976D01*
X6340833Y-15415452D01*
X6350357Y-15405928D01*
X6350357Y-15424976D01*
X6483690Y-15224976D02*
X6502738Y-15224976D01*
X6521786Y-15234500D01*
X6531309Y-15244024D01*
X6540833Y-15263071D01*
X6550357Y-15301167D01*
X6550357Y-15348786D01*
X6540833Y-15386881D01*
X6531309Y-15405928D01*
X6521786Y-15415452D01*
X6502738Y-15424976D01*
X6483690Y-15424976D01*
X6464643Y-15415452D01*
X6455119Y-15405928D01*
X6445595Y-15386881D01*
X6436071Y-15348786D01*
X6436071Y-15301167D01*
X6445595Y-15263071D01*
X6455119Y-15244024D01*
X6464643Y-15234500D01*
X6483690Y-15224976D01*
X6740833Y-15424976D02*
X6626548Y-15424976D01*
X6683690Y-15424976D02*
X6683690Y-15224976D01*
X6664643Y-15253548D01*
X6645595Y-15272595D01*
X6626548Y-15282119D01*
X6836071Y-15424976D02*
X6874167Y-15424976D01*
X6893214Y-15415452D01*
X6902738Y-15405928D01*
X6921786Y-15377357D01*
X6931309Y-15339262D01*
X6931309Y-15263071D01*
X6921786Y-15244024D01*
X6912262Y-15234500D01*
X6893214Y-15224976D01*
X6855119Y-15224976D01*
X6836071Y-15234500D01*
X6826548Y-15244024D01*
X6817024Y-15263071D01*
X6817024Y-15310690D01*
X6826548Y-15329738D01*
X6836071Y-15339262D01*
X6855119Y-15348786D01*
X6893214Y-15348786D01*
X6912262Y-15339262D01*
X6921786Y-15329738D01*
X6931309Y-15310690D01*
X6997976Y-15224976D02*
X7131309Y-15224976D01*
X7045595Y-15424976D01*
X7197976Y-15224976D02*
X7197976Y-15263071D01*
X7274167Y-15224976D02*
X7274167Y-15263071D01*
X7569405Y-15501167D02*
X7559881Y-15491643D01*
X7540833Y-15463071D01*
X7531309Y-15444024D01*
X7521786Y-15415452D01*
X7512262Y-15367833D01*
X7512262Y-15329738D01*
X7521786Y-15282119D01*
X7531309Y-15253548D01*
X7540833Y-15234500D01*
X7559881Y-15205928D01*
X7569405Y-15196405D01*
X7636071Y-15244024D02*
X7645595Y-15234500D01*
X7664643Y-15224976D01*
X7712262Y-15224976D01*
X7731309Y-15234500D01*
X7740833Y-15244024D01*
X7750357Y-15263071D01*
X7750357Y-15282119D01*
X7740833Y-15310690D01*
X7626548Y-15424976D01*
X7750357Y-15424976D01*
X7874167Y-15224976D02*
X7893214Y-15224976D01*
X7912262Y-15234500D01*
X7921786Y-15244024D01*
X7931309Y-15263071D01*
X7940833Y-15301167D01*
X7940833Y-15348786D01*
X7931309Y-15386881D01*
X7921786Y-15405928D01*
X7912262Y-15415452D01*
X7893214Y-15424976D01*
X7874167Y-15424976D01*
X7855119Y-15415452D01*
X7845595Y-15405928D01*
X7836071Y-15386881D01*
X7826548Y-15348786D01*
X7826548Y-15301167D01*
X7836071Y-15263071D01*
X7845595Y-15244024D01*
X7855119Y-15234500D01*
X7874167Y-15224976D01*
X8178928Y-15424976D02*
X8178928Y-15224976D01*
X8264643Y-15424976D02*
X8264643Y-15320214D01*
X8255119Y-15301167D01*
X8236071Y-15291643D01*
X8207500Y-15291643D01*
X8188452Y-15301167D01*
X8178928Y-15310690D01*
X8388452Y-15424976D02*
X8369405Y-15415452D01*
X8359881Y-15405928D01*
X8350357Y-15386881D01*
X8350357Y-15329738D01*
X8359881Y-15310690D01*
X8369405Y-15301167D01*
X8388452Y-15291643D01*
X8417024Y-15291643D01*
X8436071Y-15301167D01*
X8445595Y-15310690D01*
X8455119Y-15329738D01*
X8455119Y-15386881D01*
X8445595Y-15405928D01*
X8436071Y-15415452D01*
X8417024Y-15424976D01*
X8388452Y-15424976D01*
X8569405Y-15424976D02*
X8550357Y-15415452D01*
X8540833Y-15396405D01*
X8540833Y-15224976D01*
X8721786Y-15415452D02*
X8702738Y-15424976D01*
X8664643Y-15424976D01*
X8645595Y-15415452D01*
X8636071Y-15396405D01*
X8636071Y-15320214D01*
X8645595Y-15301167D01*
X8664643Y-15291643D01*
X8702738Y-15291643D01*
X8721786Y-15301167D01*
X8731310Y-15320214D01*
X8731310Y-15339262D01*
X8636071Y-15358309D01*
X8807500Y-15415452D02*
X8826548Y-15424976D01*
X8864643Y-15424976D01*
X8883690Y-15415452D01*
X8893214Y-15396405D01*
X8893214Y-15386881D01*
X8883690Y-15367833D01*
X8864643Y-15358309D01*
X8836071Y-15358309D01*
X8817024Y-15348786D01*
X8807500Y-15329738D01*
X8807500Y-15320214D01*
X8817024Y-15301167D01*
X8836071Y-15291643D01*
X8864643Y-15291643D01*
X8883690Y-15301167D01*
X8959881Y-15501167D02*
X8969405Y-15491643D01*
X8988452Y-15463071D01*
X8997976Y-15444024D01*
X9007500Y-15415452D01*
X9017024Y-15367833D01*
X9017024Y-15329738D01*
X9007500Y-15282119D01*
X8997976Y-15253548D01*
X8988452Y-15234500D01*
X8969405Y-15205928D01*
X8959881Y-15196405D01*
D15*
X3930000Y-15666000D02*
X3997500Y-15598500D01*
X3930000Y-15531000D01*
X3862500Y-15598500D01*
X3930000Y-15666000D01*
D11*
X4359881Y-15688976D02*
X4245595Y-15688976D01*
X4302738Y-15688976D02*
X4302738Y-15488976D01*
X4283690Y-15517548D01*
X4264643Y-15536595D01*
X4245595Y-15546119D01*
X4445595Y-15669928D02*
X4455119Y-15679452D01*
X4445595Y-15688976D01*
X4436071Y-15679452D01*
X4445595Y-15669928D01*
X4445595Y-15688976D01*
X4521786Y-15488976D02*
X4645595Y-15488976D01*
X4578929Y-15565167D01*
X4607500Y-15565167D01*
X4626548Y-15574690D01*
X4636071Y-15584214D01*
X4645595Y-15603262D01*
X4645595Y-15650881D01*
X4636071Y-15669928D01*
X4626548Y-15679452D01*
X4607500Y-15688976D01*
X4550357Y-15688976D01*
X4531310Y-15679452D01*
X4521786Y-15669928D01*
X4826548Y-15488976D02*
X4731310Y-15488976D01*
X4721786Y-15584214D01*
X4731310Y-15574690D01*
X4750357Y-15565167D01*
X4797976Y-15565167D01*
X4817024Y-15574690D01*
X4826548Y-15584214D01*
X4836071Y-15603262D01*
X4836071Y-15650881D01*
X4826548Y-15669928D01*
X4817024Y-15679452D01*
X4797976Y-15688976D01*
X4750357Y-15688976D01*
X4731310Y-15679452D01*
X4721786Y-15669928D01*
X4959881Y-15488976D02*
X4978929Y-15488976D01*
X4997976Y-15498500D01*
X5007500Y-15508024D01*
X5017024Y-15527071D01*
X5026548Y-15565167D01*
X5026548Y-15612786D01*
X5017024Y-15650881D01*
X5007500Y-15669928D01*
X4997976Y-15679452D01*
X4978929Y-15688976D01*
X4959881Y-15688976D01*
X4940833Y-15679452D01*
X4931310Y-15669928D01*
X4921786Y-15650881D01*
X4912262Y-15612786D01*
X4912262Y-15565167D01*
X4921786Y-15527071D01*
X4931310Y-15508024D01*
X4940833Y-15498500D01*
X4959881Y-15488976D01*
X5112262Y-15688976D02*
X5112262Y-15555643D01*
X5112262Y-15574690D02*
X5121786Y-15565167D01*
X5140833Y-15555643D01*
X5169405Y-15555643D01*
X5188452Y-15565167D01*
X5197976Y-15584214D01*
X5197976Y-15688976D01*
X5197976Y-15584214D02*
X5207500Y-15565167D01*
X5226548Y-15555643D01*
X5255119Y-15555643D01*
X5274167Y-15565167D01*
X5283690Y-15584214D01*
X5283690Y-15688976D01*
X5378929Y-15688976D02*
X5378929Y-15555643D01*
X5378929Y-15574690D02*
X5388452Y-15565167D01*
X5407500Y-15555643D01*
X5436071Y-15555643D01*
X5455119Y-15565167D01*
X5464643Y-15584214D01*
X5464643Y-15688976D01*
X5464643Y-15584214D02*
X5474167Y-15565167D01*
X5493214Y-15555643D01*
X5521786Y-15555643D01*
X5540833Y-15565167D01*
X5550357Y-15584214D01*
X5550357Y-15688976D01*
X5940833Y-15479452D02*
X5769405Y-15736595D01*
X6197976Y-15488976D02*
X6217024Y-15488976D01*
X6236071Y-15498500D01*
X6245595Y-15508024D01*
X6255119Y-15527071D01*
X6264643Y-15565167D01*
X6264643Y-15612786D01*
X6255119Y-15650881D01*
X6245595Y-15669928D01*
X6236071Y-15679452D01*
X6217024Y-15688976D01*
X6197976Y-15688976D01*
X6178928Y-15679452D01*
X6169405Y-15669928D01*
X6159881Y-15650881D01*
X6150357Y-15612786D01*
X6150357Y-15565167D01*
X6159881Y-15527071D01*
X6169405Y-15508024D01*
X6178928Y-15498500D01*
X6197976Y-15488976D01*
X6350357Y-15669928D02*
X6359881Y-15679452D01*
X6350357Y-15688976D01*
X6340833Y-15679452D01*
X6350357Y-15669928D01*
X6350357Y-15688976D01*
X6483690Y-15488976D02*
X6502738Y-15488976D01*
X6521786Y-15498500D01*
X6531309Y-15508024D01*
X6540833Y-15527071D01*
X6550357Y-15565167D01*
X6550357Y-15612786D01*
X6540833Y-15650881D01*
X6531309Y-15669928D01*
X6521786Y-15679452D01*
X6502738Y-15688976D01*
X6483690Y-15688976D01*
X6464643Y-15679452D01*
X6455119Y-15669928D01*
X6445595Y-15650881D01*
X6436071Y-15612786D01*
X6436071Y-15565167D01*
X6445595Y-15527071D01*
X6455119Y-15508024D01*
X6464643Y-15498500D01*
X6483690Y-15488976D01*
X6731309Y-15488976D02*
X6636071Y-15488976D01*
X6626548Y-15584214D01*
X6636071Y-15574690D01*
X6655119Y-15565167D01*
X6702738Y-15565167D01*
X6721786Y-15574690D01*
X6731309Y-15584214D01*
X6740833Y-15603262D01*
X6740833Y-15650881D01*
X6731309Y-15669928D01*
X6721786Y-15679452D01*
X6702738Y-15688976D01*
X6655119Y-15688976D01*
X6636071Y-15679452D01*
X6626548Y-15669928D01*
X6807500Y-15488976D02*
X6931309Y-15488976D01*
X6864643Y-15565167D01*
X6893214Y-15565167D01*
X6912262Y-15574690D01*
X6921786Y-15584214D01*
X6931309Y-15603262D01*
X6931309Y-15650881D01*
X6921786Y-15669928D01*
X6912262Y-15679452D01*
X6893214Y-15688976D01*
X6836071Y-15688976D01*
X6817024Y-15679452D01*
X6807500Y-15669928D01*
X7121786Y-15688976D02*
X7007500Y-15688976D01*
X7064643Y-15688976D02*
X7064643Y-15488976D01*
X7045595Y-15517548D01*
X7026548Y-15536595D01*
X7007500Y-15546119D01*
X7197976Y-15488976D02*
X7197976Y-15527071D01*
X7274167Y-15488976D02*
X7274167Y-15527071D01*
X7569405Y-15765167D02*
X7559881Y-15755643D01*
X7540833Y-15727071D01*
X7531309Y-15708024D01*
X7521786Y-15679452D01*
X7512262Y-15631833D01*
X7512262Y-15593738D01*
X7521786Y-15546119D01*
X7531309Y-15517548D01*
X7540833Y-15498500D01*
X7559881Y-15469928D01*
X7569405Y-15460405D01*
X7731309Y-15555643D02*
X7731309Y-15688976D01*
X7683690Y-15479452D02*
X7636071Y-15622309D01*
X7759881Y-15622309D01*
X7988452Y-15688976D02*
X7988452Y-15488976D01*
X8074167Y-15688976D02*
X8074167Y-15584214D01*
X8064643Y-15565167D01*
X8045595Y-15555643D01*
X8017024Y-15555643D01*
X7997976Y-15565167D01*
X7988452Y-15574690D01*
X8197976Y-15688976D02*
X8178928Y-15679452D01*
X8169405Y-15669928D01*
X8159881Y-15650881D01*
X8159881Y-15593738D01*
X8169405Y-15574690D01*
X8178928Y-15565167D01*
X8197976Y-15555643D01*
X8226548Y-15555643D01*
X8245595Y-15565167D01*
X8255119Y-15574690D01*
X8264643Y-15593738D01*
X8264643Y-15650881D01*
X8255119Y-15669928D01*
X8245595Y-15679452D01*
X8226548Y-15688976D01*
X8197976Y-15688976D01*
X8378928Y-15688976D02*
X8359881Y-15679452D01*
X8350357Y-15660405D01*
X8350357Y-15488976D01*
X8531310Y-15679452D02*
X8512262Y-15688976D01*
X8474167Y-15688976D01*
X8455119Y-15679452D01*
X8445595Y-15660405D01*
X8445595Y-15584214D01*
X8455119Y-15565167D01*
X8474167Y-15555643D01*
X8512262Y-15555643D01*
X8531310Y-15565167D01*
X8540833Y-15584214D01*
X8540833Y-15603262D01*
X8445595Y-15622309D01*
X8617024Y-15679452D02*
X8636071Y-15688976D01*
X8674167Y-15688976D01*
X8693214Y-15679452D01*
X8702738Y-15660405D01*
X8702738Y-15650881D01*
X8693214Y-15631833D01*
X8674167Y-15622309D01*
X8645595Y-15622309D01*
X8626548Y-15612786D01*
X8617024Y-15593738D01*
X8617024Y-15584214D01*
X8626548Y-15565167D01*
X8645595Y-15555643D01*
X8674167Y-15555643D01*
X8693214Y-15565167D01*
X8769405Y-15765167D02*
X8778929Y-15755643D01*
X8797976Y-15727071D01*
X8807500Y-15708024D01*
X8817024Y-15679452D01*
X8826548Y-15631833D01*
X8826548Y-15593738D01*
X8817024Y-15546119D01*
X8807500Y-15517548D01*
X8797976Y-15498500D01*
X8778929Y-15469928D01*
X8769405Y-15460405D01*
M02*
