G04 #@! TF.GenerationSoftware,KiCad,Pcbnew,(6.0.9)*
G04 #@! TF.CreationDate,2023-05-23T12:25:36-07:00*
G04 #@! TF.ProjectId,Keycad_fun,4b657963-6164-45f6-9675-6e2e6b696361,rev?*
G04 #@! TF.SameCoordinates,Original*
G04 #@! TF.FileFunction,Legend,Bot*
G04 #@! TF.FilePolarity,Positive*
%FSLAX46Y46*%
G04 Gerber Fmt 4.6, Leading zero omitted, Abs format (unit mm)*
G04 Created by KiCad (PCBNEW (6.0.9)) date 2023-05-23 12:25:36*
%MOMM*%
%LPD*%
G01*
G04 APERTURE LIST*
G04 Aperture macros list*
%AMRoundRect*
0 Rectangle with rounded corners*
0 $1 Rounding radius*
0 $2 $3 $4 $5 $6 $7 $8 $9 X,Y pos of 4 corners*
0 Add a 4 corners polygon primitive as box body*
4,1,4,$2,$3,$4,$5,$6,$7,$8,$9,$2,$3,0*
0 Add four circle primitives for the rounded corners*
1,1,$1+$1,$2,$3*
1,1,$1+$1,$4,$5*
1,1,$1+$1,$6,$7*
1,1,$1+$1,$8,$9*
0 Add four rect primitives between the rounded corners*
20,1,$1+$1,$2,$3,$4,$5,0*
20,1,$1+$1,$4,$5,$6,$7,0*
20,1,$1+$1,$6,$7,$8,$9,0*
20,1,$1+$1,$8,$9,$2,$3,0*%
G04 Aperture macros list end*
%ADD10C,0.150000*%
%ADD11C,0.120000*%
%ADD12R,0.850000X0.850000*%
%ADD13O,0.850000X0.850000*%
%ADD14R,0.840000X0.840000*%
%ADD15C,0.840000*%
%ADD16C,1.850000*%
%ADD17C,1.900000*%
%ADD18C,1.600000*%
%ADD19C,3.050000*%
%ADD20C,5.050000*%
%ADD21RoundRect,0.250000X1.025000X1.000000X-1.025000X1.000000X-1.025000X-1.000000X1.025000X-1.000000X0*%
%ADD22RoundRect,0.250000X1.183076X0.806818X-0.835780X1.162797X-1.183076X-0.806818X0.835780X-1.162797X0*%
%ADD23RoundRect,0.250000X-0.473124X1.351584X-1.339492X-0.506347X0.473124X-1.351584X1.339492X0.506347X0*%
%ADD24RoundRect,0.250000X1.356347X-0.459291X0.425666X1.367272X-1.356347X0.459291X-0.425666X-1.367272X0*%
%ADD25RoundRect,0.250000X0.835780X1.162797X-1.183076X0.806818X-0.835780X-1.162797X1.183076X-0.806818X0*%
%ADD26R,1.200000X0.900000*%
G04 APERTURE END LIST*
D10*
X42352380Y-51761904D02*
X41352380Y-51761904D01*
X41352380Y-52000000D01*
X41400000Y-52142857D01*
X41495238Y-52238095D01*
X41590476Y-52285714D01*
X41780952Y-52333333D01*
X41923809Y-52333333D01*
X42114285Y-52285714D01*
X42209523Y-52238095D01*
X42304761Y-52142857D01*
X42352380Y-52000000D01*
X42352380Y-51761904D01*
X42352380Y-53285714D02*
X42352380Y-52714285D01*
X42352380Y-53000000D02*
X41352380Y-53000000D01*
X41495238Y-52904761D01*
X41590476Y-52809523D01*
X41638095Y-52714285D01*
X57452380Y-55261904D02*
X56452380Y-55261904D01*
X56452380Y-55500000D01*
X56500000Y-55642857D01*
X56595238Y-55738095D01*
X56690476Y-55785714D01*
X56880952Y-55833333D01*
X57023809Y-55833333D01*
X57214285Y-55785714D01*
X57309523Y-55738095D01*
X57404761Y-55642857D01*
X57452380Y-55500000D01*
X57452380Y-55261904D01*
X56547619Y-56214285D02*
X56500000Y-56261904D01*
X56452380Y-56357142D01*
X56452380Y-56595238D01*
X56500000Y-56690476D01*
X56547619Y-56738095D01*
X56642857Y-56785714D01*
X56738095Y-56785714D01*
X56880952Y-56738095D01*
X57452380Y-56166666D01*
X57452380Y-56785714D01*
X76452380Y-53261904D02*
X75452380Y-53261904D01*
X75452380Y-53500000D01*
X75500000Y-53642857D01*
X75595238Y-53738095D01*
X75690476Y-53785714D01*
X75880952Y-53833333D01*
X76023809Y-53833333D01*
X76214285Y-53785714D01*
X76309523Y-53738095D01*
X76404761Y-53642857D01*
X76452380Y-53500000D01*
X76452380Y-53261904D01*
X75452380Y-54166666D02*
X75452380Y-54785714D01*
X75833333Y-54452380D01*
X75833333Y-54595238D01*
X75880952Y-54690476D01*
X75928571Y-54738095D01*
X76023809Y-54785714D01*
X76261904Y-54785714D01*
X76357142Y-54738095D01*
X76404761Y-54690476D01*
X76452380Y-54595238D01*
X76452380Y-54309523D01*
X76404761Y-54214285D01*
X76357142Y-54166666D01*
X94452380Y-49161904D02*
X93452380Y-49161904D01*
X93452380Y-49400000D01*
X93500000Y-49542857D01*
X93595238Y-49638095D01*
X93690476Y-49685714D01*
X93880952Y-49733333D01*
X94023809Y-49733333D01*
X94214285Y-49685714D01*
X94309523Y-49638095D01*
X94404761Y-49542857D01*
X94452380Y-49400000D01*
X94452380Y-49161904D01*
X93785714Y-50590476D02*
X94452380Y-50590476D01*
X93404761Y-50352380D02*
X94119047Y-50114285D01*
X94119047Y-50733333D01*
X112552380Y-51561904D02*
X111552380Y-51561904D01*
X111552380Y-51800000D01*
X111600000Y-51942857D01*
X111695238Y-52038095D01*
X111790476Y-52085714D01*
X111980952Y-52133333D01*
X112123809Y-52133333D01*
X112314285Y-52085714D01*
X112409523Y-52038095D01*
X112504761Y-51942857D01*
X112552380Y-51800000D01*
X112552380Y-51561904D01*
X111552380Y-53038095D02*
X111552380Y-52561904D01*
X112028571Y-52514285D01*
X111980952Y-52561904D01*
X111933333Y-52657142D01*
X111933333Y-52895238D01*
X111980952Y-52990476D01*
X112028571Y-53038095D01*
X112123809Y-53085714D01*
X112361904Y-53085714D01*
X112457142Y-53038095D01*
X112504761Y-52990476D01*
X112552380Y-52895238D01*
X112552380Y-52657142D01*
X112504761Y-52561904D01*
X112457142Y-52514285D01*
X132452380Y-51661904D02*
X131452380Y-51661904D01*
X131452380Y-51900000D01*
X131500000Y-52042857D01*
X131595238Y-52138095D01*
X131690476Y-52185714D01*
X131880952Y-52233333D01*
X132023809Y-52233333D01*
X132214285Y-52185714D01*
X132309523Y-52138095D01*
X132404761Y-52042857D01*
X132452380Y-51900000D01*
X132452380Y-51661904D01*
X131452380Y-53090476D02*
X131452380Y-52900000D01*
X131500000Y-52804761D01*
X131547619Y-52757142D01*
X131690476Y-52661904D01*
X131880952Y-52614285D01*
X132261904Y-52614285D01*
X132357142Y-52661904D01*
X132404761Y-52709523D01*
X132452380Y-52804761D01*
X132452380Y-52995238D01*
X132404761Y-53090476D01*
X132357142Y-53138095D01*
X132261904Y-53185714D01*
X132023809Y-53185714D01*
X131928571Y-53138095D01*
X131880952Y-53090476D01*
X131833333Y-52995238D01*
X131833333Y-52804761D01*
X131880952Y-52709523D01*
X131928571Y-52661904D01*
X132023809Y-52614285D01*
X42452380Y-70461904D02*
X41452380Y-70461904D01*
X41452380Y-70700000D01*
X41500000Y-70842857D01*
X41595238Y-70938095D01*
X41690476Y-70985714D01*
X41880952Y-71033333D01*
X42023809Y-71033333D01*
X42214285Y-70985714D01*
X42309523Y-70938095D01*
X42404761Y-70842857D01*
X42452380Y-70700000D01*
X42452380Y-70461904D01*
X41452380Y-71366666D02*
X41452380Y-72033333D01*
X42452380Y-71604761D01*
X58452380Y-74261904D02*
X57452380Y-74261904D01*
X57452380Y-74500000D01*
X57500000Y-74642857D01*
X57595238Y-74738095D01*
X57690476Y-74785714D01*
X57880952Y-74833333D01*
X58023809Y-74833333D01*
X58214285Y-74785714D01*
X58309523Y-74738095D01*
X58404761Y-74642857D01*
X58452380Y-74500000D01*
X58452380Y-74261904D01*
X57880952Y-75404761D02*
X57833333Y-75309523D01*
X57785714Y-75261904D01*
X57690476Y-75214285D01*
X57642857Y-75214285D01*
X57547619Y-75261904D01*
X57500000Y-75309523D01*
X57452380Y-75404761D01*
X57452380Y-75595238D01*
X57500000Y-75690476D01*
X57547619Y-75738095D01*
X57642857Y-75785714D01*
X57690476Y-75785714D01*
X57785714Y-75738095D01*
X57833333Y-75690476D01*
X57880952Y-75595238D01*
X57880952Y-75404761D01*
X57928571Y-75309523D01*
X57976190Y-75261904D01*
X58071428Y-75214285D01*
X58261904Y-75214285D01*
X58357142Y-75261904D01*
X58404761Y-75309523D01*
X58452380Y-75404761D01*
X58452380Y-75595238D01*
X58404761Y-75690476D01*
X58357142Y-75738095D01*
X58261904Y-75785714D01*
X58071428Y-75785714D01*
X57976190Y-75738095D01*
X57928571Y-75690476D01*
X57880952Y-75595238D01*
X76452380Y-70261904D02*
X75452380Y-70261904D01*
X75452380Y-70500000D01*
X75500000Y-70642857D01*
X75595238Y-70738095D01*
X75690476Y-70785714D01*
X75880952Y-70833333D01*
X76023809Y-70833333D01*
X76214285Y-70785714D01*
X76309523Y-70738095D01*
X76404761Y-70642857D01*
X76452380Y-70500000D01*
X76452380Y-70261904D01*
X76452380Y-71309523D02*
X76452380Y-71500000D01*
X76404761Y-71595238D01*
X76357142Y-71642857D01*
X76214285Y-71738095D01*
X76023809Y-71785714D01*
X75642857Y-71785714D01*
X75547619Y-71738095D01*
X75500000Y-71690476D01*
X75452380Y-71595238D01*
X75452380Y-71404761D01*
X75500000Y-71309523D01*
X75547619Y-71261904D01*
X75642857Y-71214285D01*
X75880952Y-71214285D01*
X75976190Y-71261904D01*
X76023809Y-71309523D01*
X76071428Y-71404761D01*
X76071428Y-71595238D01*
X76023809Y-71690476D01*
X75976190Y-71738095D01*
X75880952Y-71785714D01*
X94452380Y-65785714D02*
X93452380Y-65785714D01*
X93452380Y-66023809D01*
X93500000Y-66166666D01*
X93595238Y-66261904D01*
X93690476Y-66309523D01*
X93880952Y-66357142D01*
X94023809Y-66357142D01*
X94214285Y-66309523D01*
X94309523Y-66261904D01*
X94404761Y-66166666D01*
X94452380Y-66023809D01*
X94452380Y-65785714D01*
X94452380Y-67309523D02*
X94452380Y-66738095D01*
X94452380Y-67023809D02*
X93452380Y-67023809D01*
X93595238Y-66928571D01*
X93690476Y-66833333D01*
X93738095Y-66738095D01*
X93452380Y-67928571D02*
X93452380Y-68023809D01*
X93500000Y-68119047D01*
X93547619Y-68166666D01*
X93642857Y-68214285D01*
X93833333Y-68261904D01*
X94071428Y-68261904D01*
X94261904Y-68214285D01*
X94357142Y-68166666D01*
X94404761Y-68119047D01*
X94452380Y-68023809D01*
X94452380Y-67928571D01*
X94404761Y-67833333D01*
X94357142Y-67785714D01*
X94261904Y-67738095D01*
X94071428Y-67690476D01*
X93833333Y-67690476D01*
X93642857Y-67738095D01*
X93547619Y-67785714D01*
X93500000Y-67833333D01*
X93452380Y-67928571D01*
X114452380Y-65785714D02*
X113452380Y-65785714D01*
X113452380Y-66023809D01*
X113500000Y-66166666D01*
X113595238Y-66261904D01*
X113690476Y-66309523D01*
X113880952Y-66357142D01*
X114023809Y-66357142D01*
X114214285Y-66309523D01*
X114309523Y-66261904D01*
X114404761Y-66166666D01*
X114452380Y-66023809D01*
X114452380Y-65785714D01*
X114452380Y-67309523D02*
X114452380Y-66738095D01*
X114452380Y-67023809D02*
X113452380Y-67023809D01*
X113595238Y-66928571D01*
X113690476Y-66833333D01*
X113738095Y-66738095D01*
X114452380Y-68261904D02*
X114452380Y-67690476D01*
X114452380Y-67976190D02*
X113452380Y-67976190D01*
X113595238Y-67880952D01*
X113690476Y-67785714D01*
X113738095Y-67690476D01*
X132452380Y-69785714D02*
X131452380Y-69785714D01*
X131452380Y-70023809D01*
X131500000Y-70166666D01*
X131595238Y-70261904D01*
X131690476Y-70309523D01*
X131880952Y-70357142D01*
X132023809Y-70357142D01*
X132214285Y-70309523D01*
X132309523Y-70261904D01*
X132404761Y-70166666D01*
X132452380Y-70023809D01*
X132452380Y-69785714D01*
X132452380Y-71309523D02*
X132452380Y-70738095D01*
X132452380Y-71023809D02*
X131452380Y-71023809D01*
X131595238Y-70928571D01*
X131690476Y-70833333D01*
X131738095Y-70738095D01*
X131547619Y-71690476D02*
X131500000Y-71738095D01*
X131452380Y-71833333D01*
X131452380Y-72071428D01*
X131500000Y-72166666D01*
X131547619Y-72214285D01*
X131642857Y-72261904D01*
X131738095Y-72261904D01*
X131880952Y-72214285D01*
X132452380Y-71642857D01*
X132452380Y-72261904D01*
X42452380Y-88485714D02*
X41452380Y-88485714D01*
X41452380Y-88723809D01*
X41500000Y-88866666D01*
X41595238Y-88961904D01*
X41690476Y-89009523D01*
X41880952Y-89057142D01*
X42023809Y-89057142D01*
X42214285Y-89009523D01*
X42309523Y-88961904D01*
X42404761Y-88866666D01*
X42452380Y-88723809D01*
X42452380Y-88485714D01*
X42452380Y-90009523D02*
X42452380Y-89438095D01*
X42452380Y-89723809D02*
X41452380Y-89723809D01*
X41595238Y-89628571D01*
X41690476Y-89533333D01*
X41738095Y-89438095D01*
X41452380Y-90342857D02*
X41452380Y-90961904D01*
X41833333Y-90628571D01*
X41833333Y-90771428D01*
X41880952Y-90866666D01*
X41928571Y-90914285D01*
X42023809Y-90961904D01*
X42261904Y-90961904D01*
X42357142Y-90914285D01*
X42404761Y-90866666D01*
X42452380Y-90771428D01*
X42452380Y-90485714D01*
X42404761Y-90390476D01*
X42357142Y-90342857D01*
X58452380Y-92785714D02*
X57452380Y-92785714D01*
X57452380Y-93023809D01*
X57500000Y-93166666D01*
X57595238Y-93261904D01*
X57690476Y-93309523D01*
X57880952Y-93357142D01*
X58023809Y-93357142D01*
X58214285Y-93309523D01*
X58309523Y-93261904D01*
X58404761Y-93166666D01*
X58452380Y-93023809D01*
X58452380Y-92785714D01*
X58452380Y-94309523D02*
X58452380Y-93738095D01*
X58452380Y-94023809D02*
X57452380Y-94023809D01*
X57595238Y-93928571D01*
X57690476Y-93833333D01*
X57738095Y-93738095D01*
X57785714Y-95166666D02*
X58452380Y-95166666D01*
X57404761Y-94928571D02*
X58119047Y-94690476D01*
X58119047Y-95309523D01*
X76452380Y-88785714D02*
X75452380Y-88785714D01*
X75452380Y-89023809D01*
X75500000Y-89166666D01*
X75595238Y-89261904D01*
X75690476Y-89309523D01*
X75880952Y-89357142D01*
X76023809Y-89357142D01*
X76214285Y-89309523D01*
X76309523Y-89261904D01*
X76404761Y-89166666D01*
X76452380Y-89023809D01*
X76452380Y-88785714D01*
X76452380Y-90309523D02*
X76452380Y-89738095D01*
X76452380Y-90023809D02*
X75452380Y-90023809D01*
X75595238Y-89928571D01*
X75690476Y-89833333D01*
X75738095Y-89738095D01*
X75452380Y-91214285D02*
X75452380Y-90738095D01*
X75928571Y-90690476D01*
X75880952Y-90738095D01*
X75833333Y-90833333D01*
X75833333Y-91071428D01*
X75880952Y-91166666D01*
X75928571Y-91214285D01*
X76023809Y-91261904D01*
X76261904Y-91261904D01*
X76357142Y-91214285D01*
X76404761Y-91166666D01*
X76452380Y-91071428D01*
X76452380Y-90833333D01*
X76404761Y-90738095D01*
X76357142Y-90690476D01*
X94452380Y-84785714D02*
X93452380Y-84785714D01*
X93452380Y-85023809D01*
X93500000Y-85166666D01*
X93595238Y-85261904D01*
X93690476Y-85309523D01*
X93880952Y-85357142D01*
X94023809Y-85357142D01*
X94214285Y-85309523D01*
X94309523Y-85261904D01*
X94404761Y-85166666D01*
X94452380Y-85023809D01*
X94452380Y-84785714D01*
X94452380Y-86309523D02*
X94452380Y-85738095D01*
X94452380Y-86023809D02*
X93452380Y-86023809D01*
X93595238Y-85928571D01*
X93690476Y-85833333D01*
X93738095Y-85738095D01*
X93452380Y-87166666D02*
X93452380Y-86976190D01*
X93500000Y-86880952D01*
X93547619Y-86833333D01*
X93690476Y-86738095D01*
X93880952Y-86690476D01*
X94261904Y-86690476D01*
X94357142Y-86738095D01*
X94404761Y-86785714D01*
X94452380Y-86880952D01*
X94452380Y-87071428D01*
X94404761Y-87166666D01*
X94357142Y-87214285D01*
X94261904Y-87261904D01*
X94023809Y-87261904D01*
X93928571Y-87214285D01*
X93880952Y-87166666D01*
X93833333Y-87071428D01*
X93833333Y-86880952D01*
X93880952Y-86785714D01*
X93928571Y-86738095D01*
X94023809Y-86690476D01*
X114452380Y-84885714D02*
X113452380Y-84885714D01*
X113452380Y-85123809D01*
X113500000Y-85266666D01*
X113595238Y-85361904D01*
X113690476Y-85409523D01*
X113880952Y-85457142D01*
X114023809Y-85457142D01*
X114214285Y-85409523D01*
X114309523Y-85361904D01*
X114404761Y-85266666D01*
X114452380Y-85123809D01*
X114452380Y-84885714D01*
X114452380Y-86409523D02*
X114452380Y-85838095D01*
X114452380Y-86123809D02*
X113452380Y-86123809D01*
X113595238Y-86028571D01*
X113690476Y-85933333D01*
X113738095Y-85838095D01*
X113452380Y-86742857D02*
X113452380Y-87409523D01*
X114452380Y-86980952D01*
X132452380Y-87885714D02*
X131452380Y-87885714D01*
X131452380Y-88123809D01*
X131500000Y-88266666D01*
X131595238Y-88361904D01*
X131690476Y-88409523D01*
X131880952Y-88457142D01*
X132023809Y-88457142D01*
X132214285Y-88409523D01*
X132309523Y-88361904D01*
X132404761Y-88266666D01*
X132452380Y-88123809D01*
X132452380Y-87885714D01*
X132452380Y-89409523D02*
X132452380Y-88838095D01*
X132452380Y-89123809D02*
X131452380Y-89123809D01*
X131595238Y-89028571D01*
X131690476Y-88933333D01*
X131738095Y-88838095D01*
X131880952Y-89980952D02*
X131833333Y-89885714D01*
X131785714Y-89838095D01*
X131690476Y-89790476D01*
X131642857Y-89790476D01*
X131547619Y-89838095D01*
X131500000Y-89885714D01*
X131452380Y-89980952D01*
X131452380Y-90171428D01*
X131500000Y-90266666D01*
X131547619Y-90314285D01*
X131642857Y-90361904D01*
X131690476Y-90361904D01*
X131785714Y-90314285D01*
X131833333Y-90266666D01*
X131880952Y-90171428D01*
X131880952Y-89980952D01*
X131928571Y-89885714D01*
X131976190Y-89838095D01*
X132071428Y-89790476D01*
X132261904Y-89790476D01*
X132357142Y-89838095D01*
X132404761Y-89885714D01*
X132452380Y-89980952D01*
X132452380Y-90171428D01*
X132404761Y-90266666D01*
X132357142Y-90314285D01*
X132261904Y-90361904D01*
X132071428Y-90361904D01*
X131976190Y-90314285D01*
X131928571Y-90266666D01*
X131880952Y-90171428D01*
X101452380Y-111785714D02*
X100452380Y-111785714D01*
X100452380Y-112023809D01*
X100500000Y-112166666D01*
X100595238Y-112261904D01*
X100690476Y-112309523D01*
X100880952Y-112357142D01*
X101023809Y-112357142D01*
X101214285Y-112309523D01*
X101309523Y-112261904D01*
X101404761Y-112166666D01*
X101452380Y-112023809D01*
X101452380Y-111785714D01*
X101452380Y-113309523D02*
X101452380Y-112738095D01*
X101452380Y-113023809D02*
X100452380Y-113023809D01*
X100595238Y-112928571D01*
X100690476Y-112833333D01*
X100738095Y-112738095D01*
X101452380Y-113785714D02*
X101452380Y-113976190D01*
X101404761Y-114071428D01*
X101357142Y-114119047D01*
X101214285Y-114214285D01*
X101023809Y-114261904D01*
X100642857Y-114261904D01*
X100547619Y-114214285D01*
X100500000Y-114166666D01*
X100452380Y-114071428D01*
X100452380Y-113880952D01*
X100500000Y-113785714D01*
X100547619Y-113738095D01*
X100642857Y-113690476D01*
X100880952Y-113690476D01*
X100976190Y-113738095D01*
X101023809Y-113785714D01*
X101071428Y-113880952D01*
X101071428Y-114071428D01*
X101023809Y-114166666D01*
X100976190Y-114214285D01*
X100880952Y-114261904D01*
X121452380Y-111785714D02*
X120452380Y-111785714D01*
X120452380Y-112023809D01*
X120500000Y-112166666D01*
X120595238Y-112261904D01*
X120690476Y-112309523D01*
X120880952Y-112357142D01*
X121023809Y-112357142D01*
X121214285Y-112309523D01*
X121309523Y-112261904D01*
X121404761Y-112166666D01*
X121452380Y-112023809D01*
X121452380Y-111785714D01*
X120547619Y-112738095D02*
X120500000Y-112785714D01*
X120452380Y-112880952D01*
X120452380Y-113119047D01*
X120500000Y-113214285D01*
X120547619Y-113261904D01*
X120642857Y-113309523D01*
X120738095Y-113309523D01*
X120880952Y-113261904D01*
X121452380Y-112690476D01*
X121452380Y-113309523D01*
X120452380Y-113928571D02*
X120452380Y-114023809D01*
X120500000Y-114119047D01*
X120547619Y-114166666D01*
X120642857Y-114214285D01*
X120833333Y-114261904D01*
X121071428Y-114261904D01*
X121261904Y-114214285D01*
X121357142Y-114166666D01*
X121404761Y-114119047D01*
X121452380Y-114023809D01*
X121452380Y-113928571D01*
X121404761Y-113833333D01*
X121357142Y-113785714D01*
X121261904Y-113738095D01*
X121071428Y-113690476D01*
X120833333Y-113690476D01*
X120642857Y-113738095D01*
X120547619Y-113785714D01*
X120500000Y-113833333D01*
X120452380Y-113928571D01*
X144452380Y-114785714D02*
X143452380Y-114785714D01*
X143452380Y-115023809D01*
X143500000Y-115166666D01*
X143595238Y-115261904D01*
X143690476Y-115309523D01*
X143880952Y-115357142D01*
X144023809Y-115357142D01*
X144214285Y-115309523D01*
X144309523Y-115261904D01*
X144404761Y-115166666D01*
X144452380Y-115023809D01*
X144452380Y-114785714D01*
X143547619Y-115738095D02*
X143500000Y-115785714D01*
X143452380Y-115880952D01*
X143452380Y-116119047D01*
X143500000Y-116214285D01*
X143547619Y-116261904D01*
X143642857Y-116309523D01*
X143738095Y-116309523D01*
X143880952Y-116261904D01*
X144452380Y-115690476D01*
X144452380Y-116309523D01*
X144452380Y-117261904D02*
X144452380Y-116690476D01*
X144452380Y-116976190D02*
X143452380Y-116976190D01*
X143595238Y-116880952D01*
X143690476Y-116785714D01*
X143738095Y-116690476D01*
X209452380Y-55785714D02*
X208452380Y-55785714D01*
X208452380Y-56023809D01*
X208500000Y-56166666D01*
X208595238Y-56261904D01*
X208690476Y-56309523D01*
X208880952Y-56357142D01*
X209023809Y-56357142D01*
X209214285Y-56309523D01*
X209309523Y-56261904D01*
X209404761Y-56166666D01*
X209452380Y-56023809D01*
X209452380Y-55785714D01*
X208547619Y-56738095D02*
X208500000Y-56785714D01*
X208452380Y-56880952D01*
X208452380Y-57119047D01*
X208500000Y-57214285D01*
X208547619Y-57261904D01*
X208642857Y-57309523D01*
X208738095Y-57309523D01*
X208880952Y-57261904D01*
X209452380Y-56690476D01*
X209452380Y-57309523D01*
X208547619Y-57690476D02*
X208500000Y-57738095D01*
X208452380Y-57833333D01*
X208452380Y-58071428D01*
X208500000Y-58166666D01*
X208547619Y-58214285D01*
X208642857Y-58261904D01*
X208738095Y-58261904D01*
X208880952Y-58214285D01*
X209452380Y-57642857D01*
X209452380Y-58261904D01*
X227452380Y-52485714D02*
X226452380Y-52485714D01*
X226452380Y-52723809D01*
X226500000Y-52866666D01*
X226595238Y-52961904D01*
X226690476Y-53009523D01*
X226880952Y-53057142D01*
X227023809Y-53057142D01*
X227214285Y-53009523D01*
X227309523Y-52961904D01*
X227404761Y-52866666D01*
X227452380Y-52723809D01*
X227452380Y-52485714D01*
X226547619Y-53438095D02*
X226500000Y-53485714D01*
X226452380Y-53580952D01*
X226452380Y-53819047D01*
X226500000Y-53914285D01*
X226547619Y-53961904D01*
X226642857Y-54009523D01*
X226738095Y-54009523D01*
X226880952Y-53961904D01*
X227452380Y-53390476D01*
X227452380Y-54009523D01*
X226452380Y-54342857D02*
X226452380Y-54961904D01*
X226833333Y-54628571D01*
X226833333Y-54771428D01*
X226880952Y-54866666D01*
X226928571Y-54914285D01*
X227023809Y-54961904D01*
X227261904Y-54961904D01*
X227357142Y-54914285D01*
X227404761Y-54866666D01*
X227452380Y-54771428D01*
X227452380Y-54485714D01*
X227404761Y-54390476D01*
X227357142Y-54342857D01*
X245452380Y-48785714D02*
X244452380Y-48785714D01*
X244452380Y-49023809D01*
X244500000Y-49166666D01*
X244595238Y-49261904D01*
X244690476Y-49309523D01*
X244880952Y-49357142D01*
X245023809Y-49357142D01*
X245214285Y-49309523D01*
X245309523Y-49261904D01*
X245404761Y-49166666D01*
X245452380Y-49023809D01*
X245452380Y-48785714D01*
X244547619Y-49738095D02*
X244500000Y-49785714D01*
X244452380Y-49880952D01*
X244452380Y-50119047D01*
X244500000Y-50214285D01*
X244547619Y-50261904D01*
X244642857Y-50309523D01*
X244738095Y-50309523D01*
X244880952Y-50261904D01*
X245452380Y-49690476D01*
X245452380Y-50309523D01*
X244785714Y-51166666D02*
X245452380Y-51166666D01*
X244404761Y-50928571D02*
X245119047Y-50690476D01*
X245119047Y-51309523D01*
X263452380Y-51785714D02*
X262452380Y-51785714D01*
X262452380Y-52023809D01*
X262500000Y-52166666D01*
X262595238Y-52261904D01*
X262690476Y-52309523D01*
X262880952Y-52357142D01*
X263023809Y-52357142D01*
X263214285Y-52309523D01*
X263309523Y-52261904D01*
X263404761Y-52166666D01*
X263452380Y-52023809D01*
X263452380Y-51785714D01*
X262547619Y-52738095D02*
X262500000Y-52785714D01*
X262452380Y-52880952D01*
X262452380Y-53119047D01*
X262500000Y-53214285D01*
X262547619Y-53261904D01*
X262642857Y-53309523D01*
X262738095Y-53309523D01*
X262880952Y-53261904D01*
X263452380Y-52690476D01*
X263452380Y-53309523D01*
X262452380Y-54214285D02*
X262452380Y-53738095D01*
X262928571Y-53690476D01*
X262880952Y-53738095D01*
X262833333Y-53833333D01*
X262833333Y-54071428D01*
X262880952Y-54166666D01*
X262928571Y-54214285D01*
X263023809Y-54261904D01*
X263261904Y-54261904D01*
X263357142Y-54214285D01*
X263404761Y-54166666D01*
X263452380Y-54071428D01*
X263452380Y-53833333D01*
X263404761Y-53738095D01*
X263357142Y-53690476D01*
X283452380Y-57585714D02*
X282452380Y-57585714D01*
X282452380Y-57823809D01*
X282500000Y-57966666D01*
X282595238Y-58061904D01*
X282690476Y-58109523D01*
X282880952Y-58157142D01*
X283023809Y-58157142D01*
X283214285Y-58109523D01*
X283309523Y-58061904D01*
X283404761Y-57966666D01*
X283452380Y-57823809D01*
X283452380Y-57585714D01*
X282547619Y-58538095D02*
X282500000Y-58585714D01*
X282452380Y-58680952D01*
X282452380Y-58919047D01*
X282500000Y-59014285D01*
X282547619Y-59061904D01*
X282642857Y-59109523D01*
X282738095Y-59109523D01*
X282880952Y-59061904D01*
X283452380Y-58490476D01*
X283452380Y-59109523D01*
X282452380Y-59966666D02*
X282452380Y-59776190D01*
X282500000Y-59680952D01*
X282547619Y-59633333D01*
X282690476Y-59538095D01*
X282880952Y-59490476D01*
X283261904Y-59490476D01*
X283357142Y-59538095D01*
X283404761Y-59585714D01*
X283452380Y-59680952D01*
X283452380Y-59871428D01*
X283404761Y-59966666D01*
X283357142Y-60014285D01*
X283261904Y-60061904D01*
X283023809Y-60061904D01*
X282928571Y-60014285D01*
X282880952Y-59966666D01*
X282833333Y-59871428D01*
X282833333Y-59680952D01*
X282880952Y-59585714D01*
X282928571Y-59538095D01*
X283023809Y-59490476D01*
X300452380Y-53785714D02*
X299452380Y-53785714D01*
X299452380Y-54023809D01*
X299500000Y-54166666D01*
X299595238Y-54261904D01*
X299690476Y-54309523D01*
X299880952Y-54357142D01*
X300023809Y-54357142D01*
X300214285Y-54309523D01*
X300309523Y-54261904D01*
X300404761Y-54166666D01*
X300452380Y-54023809D01*
X300452380Y-53785714D01*
X299547619Y-54738095D02*
X299500000Y-54785714D01*
X299452380Y-54880952D01*
X299452380Y-55119047D01*
X299500000Y-55214285D01*
X299547619Y-55261904D01*
X299642857Y-55309523D01*
X299738095Y-55309523D01*
X299880952Y-55261904D01*
X300452380Y-54690476D01*
X300452380Y-55309523D01*
X299452380Y-55642857D02*
X299452380Y-56309523D01*
X300452380Y-55880952D01*
X211452380Y-76585714D02*
X210452380Y-76585714D01*
X210452380Y-76823809D01*
X210500000Y-76966666D01*
X210595238Y-77061904D01*
X210690476Y-77109523D01*
X210880952Y-77157142D01*
X211023809Y-77157142D01*
X211214285Y-77109523D01*
X211309523Y-77061904D01*
X211404761Y-76966666D01*
X211452380Y-76823809D01*
X211452380Y-76585714D01*
X210547619Y-77538095D02*
X210500000Y-77585714D01*
X210452380Y-77680952D01*
X210452380Y-77919047D01*
X210500000Y-78014285D01*
X210547619Y-78061904D01*
X210642857Y-78109523D01*
X210738095Y-78109523D01*
X210880952Y-78061904D01*
X211452380Y-77490476D01*
X211452380Y-78109523D01*
X210880952Y-78680952D02*
X210833333Y-78585714D01*
X210785714Y-78538095D01*
X210690476Y-78490476D01*
X210642857Y-78490476D01*
X210547619Y-78538095D01*
X210500000Y-78585714D01*
X210452380Y-78680952D01*
X210452380Y-78871428D01*
X210500000Y-78966666D01*
X210547619Y-79014285D01*
X210642857Y-79061904D01*
X210690476Y-79061904D01*
X210785714Y-79014285D01*
X210833333Y-78966666D01*
X210880952Y-78871428D01*
X210880952Y-78680952D01*
X210928571Y-78585714D01*
X210976190Y-78538095D01*
X211071428Y-78490476D01*
X211261904Y-78490476D01*
X211357142Y-78538095D01*
X211404761Y-78585714D01*
X211452380Y-78680952D01*
X211452380Y-78871428D01*
X211404761Y-78966666D01*
X211357142Y-79014285D01*
X211261904Y-79061904D01*
X211071428Y-79061904D01*
X210976190Y-79014285D01*
X210928571Y-78966666D01*
X210880952Y-78871428D01*
X227452380Y-68435714D02*
X226452380Y-68435714D01*
X226452380Y-68673809D01*
X226500000Y-68816666D01*
X226595238Y-68911904D01*
X226690476Y-68959523D01*
X226880952Y-69007142D01*
X227023809Y-69007142D01*
X227214285Y-68959523D01*
X227309523Y-68911904D01*
X227404761Y-68816666D01*
X227452380Y-68673809D01*
X227452380Y-68435714D01*
X226547619Y-69388095D02*
X226500000Y-69435714D01*
X226452380Y-69530952D01*
X226452380Y-69769047D01*
X226500000Y-69864285D01*
X226547619Y-69911904D01*
X226642857Y-69959523D01*
X226738095Y-69959523D01*
X226880952Y-69911904D01*
X227452380Y-69340476D01*
X227452380Y-69959523D01*
X227452380Y-70435714D02*
X227452380Y-70626190D01*
X227404761Y-70721428D01*
X227357142Y-70769047D01*
X227214285Y-70864285D01*
X227023809Y-70911904D01*
X226642857Y-70911904D01*
X226547619Y-70864285D01*
X226500000Y-70816666D01*
X226452380Y-70721428D01*
X226452380Y-70530952D01*
X226500000Y-70435714D01*
X226547619Y-70388095D01*
X226642857Y-70340476D01*
X226880952Y-70340476D01*
X226976190Y-70388095D01*
X227023809Y-70435714D01*
X227071428Y-70530952D01*
X227071428Y-70721428D01*
X227023809Y-70816666D01*
X226976190Y-70864285D01*
X226880952Y-70911904D01*
X245452380Y-65785714D02*
X244452380Y-65785714D01*
X244452380Y-66023809D01*
X244500000Y-66166666D01*
X244595238Y-66261904D01*
X244690476Y-66309523D01*
X244880952Y-66357142D01*
X245023809Y-66357142D01*
X245214285Y-66309523D01*
X245309523Y-66261904D01*
X245404761Y-66166666D01*
X245452380Y-66023809D01*
X245452380Y-65785714D01*
X244452380Y-66690476D02*
X244452380Y-67309523D01*
X244833333Y-66976190D01*
X244833333Y-67119047D01*
X244880952Y-67214285D01*
X244928571Y-67261904D01*
X245023809Y-67309523D01*
X245261904Y-67309523D01*
X245357142Y-67261904D01*
X245404761Y-67214285D01*
X245452380Y-67119047D01*
X245452380Y-66833333D01*
X245404761Y-66738095D01*
X245357142Y-66690476D01*
X244452380Y-67928571D02*
X244452380Y-68023809D01*
X244500000Y-68119047D01*
X244547619Y-68166666D01*
X244642857Y-68214285D01*
X244833333Y-68261904D01*
X245071428Y-68261904D01*
X245261904Y-68214285D01*
X245357142Y-68166666D01*
X245404761Y-68119047D01*
X245452380Y-68023809D01*
X245452380Y-67928571D01*
X245404761Y-67833333D01*
X245357142Y-67785714D01*
X245261904Y-67738095D01*
X245071428Y-67690476D01*
X244833333Y-67690476D01*
X244642857Y-67738095D01*
X244547619Y-67785714D01*
X244500000Y-67833333D01*
X244452380Y-67928571D01*
X265452380Y-64785714D02*
X264452380Y-64785714D01*
X264452380Y-65023809D01*
X264500000Y-65166666D01*
X264595238Y-65261904D01*
X264690476Y-65309523D01*
X264880952Y-65357142D01*
X265023809Y-65357142D01*
X265214285Y-65309523D01*
X265309523Y-65261904D01*
X265404761Y-65166666D01*
X265452380Y-65023809D01*
X265452380Y-64785714D01*
X264452380Y-65690476D02*
X264452380Y-66309523D01*
X264833333Y-65976190D01*
X264833333Y-66119047D01*
X264880952Y-66214285D01*
X264928571Y-66261904D01*
X265023809Y-66309523D01*
X265261904Y-66309523D01*
X265357142Y-66261904D01*
X265404761Y-66214285D01*
X265452380Y-66119047D01*
X265452380Y-65833333D01*
X265404761Y-65738095D01*
X265357142Y-65690476D01*
X265452380Y-67261904D02*
X265452380Y-66690476D01*
X265452380Y-66976190D02*
X264452380Y-66976190D01*
X264595238Y-66880952D01*
X264690476Y-66785714D01*
X264738095Y-66690476D01*
X283452380Y-69085714D02*
X282452380Y-69085714D01*
X282452380Y-69323809D01*
X282500000Y-69466666D01*
X282595238Y-69561904D01*
X282690476Y-69609523D01*
X282880952Y-69657142D01*
X283023809Y-69657142D01*
X283214285Y-69609523D01*
X283309523Y-69561904D01*
X283404761Y-69466666D01*
X283452380Y-69323809D01*
X283452380Y-69085714D01*
X282452380Y-69990476D02*
X282452380Y-70609523D01*
X282833333Y-70276190D01*
X282833333Y-70419047D01*
X282880952Y-70514285D01*
X282928571Y-70561904D01*
X283023809Y-70609523D01*
X283261904Y-70609523D01*
X283357142Y-70561904D01*
X283404761Y-70514285D01*
X283452380Y-70419047D01*
X283452380Y-70133333D01*
X283404761Y-70038095D01*
X283357142Y-69990476D01*
X282547619Y-70990476D02*
X282500000Y-71038095D01*
X282452380Y-71133333D01*
X282452380Y-71371428D01*
X282500000Y-71466666D01*
X282547619Y-71514285D01*
X282642857Y-71561904D01*
X282738095Y-71561904D01*
X282880952Y-71514285D01*
X283452380Y-70942857D01*
X283452380Y-71561904D01*
X302452380Y-68485714D02*
X301452380Y-68485714D01*
X301452380Y-68723809D01*
X301500000Y-68866666D01*
X301595238Y-68961904D01*
X301690476Y-69009523D01*
X301880952Y-69057142D01*
X302023809Y-69057142D01*
X302214285Y-69009523D01*
X302309523Y-68961904D01*
X302404761Y-68866666D01*
X302452380Y-68723809D01*
X302452380Y-68485714D01*
X301452380Y-69390476D02*
X301452380Y-70009523D01*
X301833333Y-69676190D01*
X301833333Y-69819047D01*
X301880952Y-69914285D01*
X301928571Y-69961904D01*
X302023809Y-70009523D01*
X302261904Y-70009523D01*
X302357142Y-69961904D01*
X302404761Y-69914285D01*
X302452380Y-69819047D01*
X302452380Y-69533333D01*
X302404761Y-69438095D01*
X302357142Y-69390476D01*
X301452380Y-70342857D02*
X301452380Y-70961904D01*
X301833333Y-70628571D01*
X301833333Y-70771428D01*
X301880952Y-70866666D01*
X301928571Y-70914285D01*
X302023809Y-70961904D01*
X302261904Y-70961904D01*
X302357142Y-70914285D01*
X302404761Y-70866666D01*
X302452380Y-70771428D01*
X302452380Y-70485714D01*
X302404761Y-70390476D01*
X302357142Y-70342857D01*
X211452380Y-95585714D02*
X210452380Y-95585714D01*
X210452380Y-95823809D01*
X210500000Y-95966666D01*
X210595238Y-96061904D01*
X210690476Y-96109523D01*
X210880952Y-96157142D01*
X211023809Y-96157142D01*
X211214285Y-96109523D01*
X211309523Y-96061904D01*
X211404761Y-95966666D01*
X211452380Y-95823809D01*
X211452380Y-95585714D01*
X210452380Y-96490476D02*
X210452380Y-97109523D01*
X210833333Y-96776190D01*
X210833333Y-96919047D01*
X210880952Y-97014285D01*
X210928571Y-97061904D01*
X211023809Y-97109523D01*
X211261904Y-97109523D01*
X211357142Y-97061904D01*
X211404761Y-97014285D01*
X211452380Y-96919047D01*
X211452380Y-96633333D01*
X211404761Y-96538095D01*
X211357142Y-96490476D01*
X210785714Y-97966666D02*
X211452380Y-97966666D01*
X210404761Y-97728571D02*
X211119047Y-97490476D01*
X211119047Y-98109523D01*
X227452380Y-87785714D02*
X226452380Y-87785714D01*
X226452380Y-88023809D01*
X226500000Y-88166666D01*
X226595238Y-88261904D01*
X226690476Y-88309523D01*
X226880952Y-88357142D01*
X227023809Y-88357142D01*
X227214285Y-88309523D01*
X227309523Y-88261904D01*
X227404761Y-88166666D01*
X227452380Y-88023809D01*
X227452380Y-87785714D01*
X226452380Y-88690476D02*
X226452380Y-89309523D01*
X226833333Y-88976190D01*
X226833333Y-89119047D01*
X226880952Y-89214285D01*
X226928571Y-89261904D01*
X227023809Y-89309523D01*
X227261904Y-89309523D01*
X227357142Y-89261904D01*
X227404761Y-89214285D01*
X227452380Y-89119047D01*
X227452380Y-88833333D01*
X227404761Y-88738095D01*
X227357142Y-88690476D01*
X226452380Y-90214285D02*
X226452380Y-89738095D01*
X226928571Y-89690476D01*
X226880952Y-89738095D01*
X226833333Y-89833333D01*
X226833333Y-90071428D01*
X226880952Y-90166666D01*
X226928571Y-90214285D01*
X227023809Y-90261904D01*
X227261904Y-90261904D01*
X227357142Y-90214285D01*
X227404761Y-90166666D01*
X227452380Y-90071428D01*
X227452380Y-89833333D01*
X227404761Y-89738095D01*
X227357142Y-89690476D01*
X245452380Y-84785714D02*
X244452380Y-84785714D01*
X244452380Y-85023809D01*
X244500000Y-85166666D01*
X244595238Y-85261904D01*
X244690476Y-85309523D01*
X244880952Y-85357142D01*
X245023809Y-85357142D01*
X245214285Y-85309523D01*
X245309523Y-85261904D01*
X245404761Y-85166666D01*
X245452380Y-85023809D01*
X245452380Y-84785714D01*
X244452380Y-85690476D02*
X244452380Y-86309523D01*
X244833333Y-85976190D01*
X244833333Y-86119047D01*
X244880952Y-86214285D01*
X244928571Y-86261904D01*
X245023809Y-86309523D01*
X245261904Y-86309523D01*
X245357142Y-86261904D01*
X245404761Y-86214285D01*
X245452380Y-86119047D01*
X245452380Y-85833333D01*
X245404761Y-85738095D01*
X245357142Y-85690476D01*
X244452380Y-87166666D02*
X244452380Y-86976190D01*
X244500000Y-86880952D01*
X244547619Y-86833333D01*
X244690476Y-86738095D01*
X244880952Y-86690476D01*
X245261904Y-86690476D01*
X245357142Y-86738095D01*
X245404761Y-86785714D01*
X245452380Y-86880952D01*
X245452380Y-87071428D01*
X245404761Y-87166666D01*
X245357142Y-87214285D01*
X245261904Y-87261904D01*
X245023809Y-87261904D01*
X244928571Y-87214285D01*
X244880952Y-87166666D01*
X244833333Y-87071428D01*
X244833333Y-86880952D01*
X244880952Y-86785714D01*
X244928571Y-86738095D01*
X245023809Y-86690476D01*
X265452380Y-83985714D02*
X264452380Y-83985714D01*
X264452380Y-84223809D01*
X264500000Y-84366666D01*
X264595238Y-84461904D01*
X264690476Y-84509523D01*
X264880952Y-84557142D01*
X265023809Y-84557142D01*
X265214285Y-84509523D01*
X265309523Y-84461904D01*
X265404761Y-84366666D01*
X265452380Y-84223809D01*
X265452380Y-83985714D01*
X264452380Y-84890476D02*
X264452380Y-85509523D01*
X264833333Y-85176190D01*
X264833333Y-85319047D01*
X264880952Y-85414285D01*
X264928571Y-85461904D01*
X265023809Y-85509523D01*
X265261904Y-85509523D01*
X265357142Y-85461904D01*
X265404761Y-85414285D01*
X265452380Y-85319047D01*
X265452380Y-85033333D01*
X265404761Y-84938095D01*
X265357142Y-84890476D01*
X264452380Y-85842857D02*
X264452380Y-86509523D01*
X265452380Y-86080952D01*
X283452380Y-87885714D02*
X282452380Y-87885714D01*
X282452380Y-88123809D01*
X282500000Y-88266666D01*
X282595238Y-88361904D01*
X282690476Y-88409523D01*
X282880952Y-88457142D01*
X283023809Y-88457142D01*
X283214285Y-88409523D01*
X283309523Y-88361904D01*
X283404761Y-88266666D01*
X283452380Y-88123809D01*
X283452380Y-87885714D01*
X282452380Y-88790476D02*
X282452380Y-89409523D01*
X282833333Y-89076190D01*
X282833333Y-89219047D01*
X282880952Y-89314285D01*
X282928571Y-89361904D01*
X283023809Y-89409523D01*
X283261904Y-89409523D01*
X283357142Y-89361904D01*
X283404761Y-89314285D01*
X283452380Y-89219047D01*
X283452380Y-88933333D01*
X283404761Y-88838095D01*
X283357142Y-88790476D01*
X282880952Y-89980952D02*
X282833333Y-89885714D01*
X282785714Y-89838095D01*
X282690476Y-89790476D01*
X282642857Y-89790476D01*
X282547619Y-89838095D01*
X282500000Y-89885714D01*
X282452380Y-89980952D01*
X282452380Y-90171428D01*
X282500000Y-90266666D01*
X282547619Y-90314285D01*
X282642857Y-90361904D01*
X282690476Y-90361904D01*
X282785714Y-90314285D01*
X282833333Y-90266666D01*
X282880952Y-90171428D01*
X282880952Y-89980952D01*
X282928571Y-89885714D01*
X282976190Y-89838095D01*
X283071428Y-89790476D01*
X283261904Y-89790476D01*
X283357142Y-89838095D01*
X283404761Y-89885714D01*
X283452380Y-89980952D01*
X283452380Y-90171428D01*
X283404761Y-90266666D01*
X283357142Y-90314285D01*
X283261904Y-90361904D01*
X283071428Y-90361904D01*
X282976190Y-90314285D01*
X282928571Y-90266666D01*
X282880952Y-90171428D01*
X302452380Y-87885714D02*
X301452380Y-87885714D01*
X301452380Y-88123809D01*
X301500000Y-88266666D01*
X301595238Y-88361904D01*
X301690476Y-88409523D01*
X301880952Y-88457142D01*
X302023809Y-88457142D01*
X302214285Y-88409523D01*
X302309523Y-88361904D01*
X302404761Y-88266666D01*
X302452380Y-88123809D01*
X302452380Y-87885714D01*
X301452380Y-88790476D02*
X301452380Y-89409523D01*
X301833333Y-89076190D01*
X301833333Y-89219047D01*
X301880952Y-89314285D01*
X301928571Y-89361904D01*
X302023809Y-89409523D01*
X302261904Y-89409523D01*
X302357142Y-89361904D01*
X302404761Y-89314285D01*
X302452380Y-89219047D01*
X302452380Y-88933333D01*
X302404761Y-88838095D01*
X302357142Y-88790476D01*
X302452380Y-89885714D02*
X302452380Y-90076190D01*
X302404761Y-90171428D01*
X302357142Y-90219047D01*
X302214285Y-90314285D01*
X302023809Y-90361904D01*
X301642857Y-90361904D01*
X301547619Y-90314285D01*
X301500000Y-90266666D01*
X301452380Y-90171428D01*
X301452380Y-89980952D01*
X301500000Y-89885714D01*
X301547619Y-89838095D01*
X301642857Y-89790476D01*
X301880952Y-89790476D01*
X301976190Y-89838095D01*
X302023809Y-89885714D01*
X302071428Y-89980952D01*
X302071428Y-90171428D01*
X302023809Y-90266666D01*
X301976190Y-90314285D01*
X301880952Y-90361904D01*
X210452380Y-110785714D02*
X209452380Y-110785714D01*
X209452380Y-111023809D01*
X209500000Y-111166666D01*
X209595238Y-111261904D01*
X209690476Y-111309523D01*
X209880952Y-111357142D01*
X210023809Y-111357142D01*
X210214285Y-111309523D01*
X210309523Y-111261904D01*
X210404761Y-111166666D01*
X210452380Y-111023809D01*
X210452380Y-110785714D01*
X209785714Y-112214285D02*
X210452380Y-112214285D01*
X209404761Y-111976190D02*
X210119047Y-111738095D01*
X210119047Y-112357142D01*
X209452380Y-112928571D02*
X209452380Y-113023809D01*
X209500000Y-113119047D01*
X209547619Y-113166666D01*
X209642857Y-113214285D01*
X209833333Y-113261904D01*
X210071428Y-113261904D01*
X210261904Y-113214285D01*
X210357142Y-113166666D01*
X210404761Y-113119047D01*
X210452380Y-113023809D01*
X210452380Y-112928571D01*
X210404761Y-112833333D01*
X210357142Y-112785714D01*
X210261904Y-112738095D01*
X210071428Y-112690476D01*
X209833333Y-112690476D01*
X209642857Y-112738095D01*
X209547619Y-112785714D01*
X209500000Y-112833333D01*
X209452380Y-112928571D01*
X216452380Y-110785714D02*
X215452380Y-110785714D01*
X215452380Y-111023809D01*
X215500000Y-111166666D01*
X215595238Y-111261904D01*
X215690476Y-111309523D01*
X215880952Y-111357142D01*
X216023809Y-111357142D01*
X216214285Y-111309523D01*
X216309523Y-111261904D01*
X216404761Y-111166666D01*
X216452380Y-111023809D01*
X216452380Y-110785714D01*
X215785714Y-112214285D02*
X216452380Y-112214285D01*
X215404761Y-111976190D02*
X216119047Y-111738095D01*
X216119047Y-112357142D01*
X216452380Y-113261904D02*
X216452380Y-112690476D01*
X216452380Y-112976190D02*
X215452380Y-112976190D01*
X215595238Y-112880952D01*
X215690476Y-112785714D01*
X215738095Y-112690476D01*
X237452380Y-110785714D02*
X236452380Y-110785714D01*
X236452380Y-111023809D01*
X236500000Y-111166666D01*
X236595238Y-111261904D01*
X236690476Y-111309523D01*
X236880952Y-111357142D01*
X237023809Y-111357142D01*
X237214285Y-111309523D01*
X237309523Y-111261904D01*
X237404761Y-111166666D01*
X237452380Y-111023809D01*
X237452380Y-110785714D01*
X236785714Y-112214285D02*
X237452380Y-112214285D01*
X236404761Y-111976190D02*
X237119047Y-111738095D01*
X237119047Y-112357142D01*
X236547619Y-112690476D02*
X236500000Y-112738095D01*
X236452380Y-112833333D01*
X236452380Y-113071428D01*
X236500000Y-113166666D01*
X236547619Y-113214285D01*
X236642857Y-113261904D01*
X236738095Y-113261904D01*
X236880952Y-113214285D01*
X237452380Y-112642857D01*
X237452380Y-113261904D01*
D11*
X44518000Y-65146000D02*
X44191000Y-65081000D01*
X48987000Y-67037000D02*
X48454000Y-66504000D01*
X48123000Y-65477000D02*
X47756000Y-65233000D01*
X44191000Y-65081000D02*
X43908000Y-64892000D01*
X43354000Y-60354000D02*
X47440000Y-60354000D01*
X49329000Y-67266000D02*
X48987000Y-67037000D01*
X48024000Y-60583000D02*
X48217000Y-60841000D01*
X49832000Y-62554000D02*
X52479000Y-62554000D01*
X47750000Y-60413000D02*
X48024000Y-60583000D01*
X47318000Y-65146000D02*
X44518000Y-65146000D01*
X48453000Y-61697000D02*
X48791000Y-62150000D01*
X47440000Y-60354000D02*
X47750000Y-60413000D01*
X48454000Y-66504000D02*
X48454000Y-66282000D01*
X48217000Y-60841000D02*
X48299000Y-61139000D01*
X43908000Y-64892000D02*
X43719000Y-64609000D01*
X48454000Y-66282000D02*
X48367000Y-65844000D01*
X43719000Y-64609000D02*
X43634000Y-64182000D01*
X43717000Y-61296000D02*
X43354000Y-61296000D01*
X52479000Y-62554000D02*
X53500000Y-63575000D01*
X49732000Y-67346000D02*
X49329000Y-67266000D01*
X43354000Y-61296000D02*
X43354000Y-60354000D01*
X49270000Y-62449000D02*
X49832000Y-62554000D01*
X48791000Y-62150000D02*
X49270000Y-62449000D01*
X47756000Y-65233000D02*
X47318000Y-65146000D01*
X52479000Y-67346000D02*
X49732000Y-67346000D01*
X53416000Y-66409000D02*
X52479000Y-67346000D01*
X48367000Y-65844000D02*
X48123000Y-65477000D01*
X48299000Y-61139000D02*
X48453000Y-61697000D01*
X71416000Y-66409000D02*
X70479000Y-67346000D01*
X66217000Y-60841000D02*
X66299000Y-61139000D01*
X66123000Y-65477000D02*
X65756000Y-65233000D01*
X61717000Y-61296000D02*
X61354000Y-61296000D01*
X67270000Y-62449000D02*
X67832000Y-62554000D01*
X62191000Y-65081000D02*
X61908000Y-64892000D01*
X65440000Y-60354000D02*
X65750000Y-60413000D01*
X66454000Y-66282000D02*
X66367000Y-65844000D01*
X61354000Y-61296000D02*
X61354000Y-60354000D01*
X67329000Y-67266000D02*
X66987000Y-67037000D01*
X61719000Y-64609000D02*
X61634000Y-64182000D01*
X67732000Y-67346000D02*
X67329000Y-67266000D01*
X62518000Y-65146000D02*
X62191000Y-65081000D01*
X66024000Y-60583000D02*
X66217000Y-60841000D01*
X70479000Y-67346000D02*
X67732000Y-67346000D01*
X70479000Y-62554000D02*
X71500000Y-63575000D01*
X66454000Y-66504000D02*
X66454000Y-66282000D01*
X65756000Y-65233000D02*
X65318000Y-65146000D01*
X61908000Y-64892000D02*
X61719000Y-64609000D01*
X66367000Y-65844000D02*
X66123000Y-65477000D01*
X66299000Y-61139000D02*
X66453000Y-61697000D01*
X65318000Y-65146000D02*
X62518000Y-65146000D01*
X67832000Y-62554000D02*
X70479000Y-62554000D01*
X66791000Y-62150000D02*
X67270000Y-62449000D01*
X66453000Y-61697000D02*
X66791000Y-62150000D01*
X66987000Y-67037000D02*
X66454000Y-66504000D01*
X65750000Y-60413000D02*
X66024000Y-60583000D01*
X61354000Y-60354000D02*
X65440000Y-60354000D01*
X83318000Y-61146000D02*
X80518000Y-61146000D01*
X88479000Y-63346000D02*
X85732000Y-63346000D01*
X84367000Y-61844000D02*
X84123000Y-61477000D01*
X80191000Y-61081000D02*
X79908000Y-60892000D01*
X84987000Y-63037000D02*
X84454000Y-62504000D01*
X84123000Y-61477000D02*
X83756000Y-61233000D01*
X84791000Y-58150000D02*
X85270000Y-58449000D01*
X84454000Y-62504000D02*
X84454000Y-62282000D01*
X80518000Y-61146000D02*
X80191000Y-61081000D01*
X85329000Y-63266000D02*
X84987000Y-63037000D01*
X79717000Y-57296000D02*
X79354000Y-57296000D01*
X84453000Y-57697000D02*
X84791000Y-58150000D01*
X85732000Y-63346000D02*
X85329000Y-63266000D01*
X84299000Y-57139000D02*
X84453000Y-57697000D01*
X84024000Y-56583000D02*
X84217000Y-56841000D01*
X83750000Y-56413000D02*
X84024000Y-56583000D01*
X79719000Y-60609000D02*
X79634000Y-60182000D01*
X79354000Y-56354000D02*
X83440000Y-56354000D01*
X84217000Y-56841000D02*
X84299000Y-57139000D01*
X79908000Y-60892000D02*
X79719000Y-60609000D01*
X89416000Y-62409000D02*
X88479000Y-63346000D01*
X83756000Y-61233000D02*
X83318000Y-61146000D01*
X88479000Y-58554000D02*
X89500000Y-59575000D01*
X84454000Y-62282000D02*
X84367000Y-61844000D01*
X83440000Y-56354000D02*
X83750000Y-56413000D01*
X79354000Y-57296000D02*
X79354000Y-56354000D01*
X85832000Y-58554000D02*
X88479000Y-58554000D01*
X85270000Y-58449000D02*
X85832000Y-58554000D01*
X101318000Y-57146000D02*
X98518000Y-57146000D01*
X103832000Y-54554000D02*
X106479000Y-54554000D01*
X102454000Y-58282000D02*
X102367000Y-57844000D01*
X102217000Y-52841000D02*
X102299000Y-53139000D01*
X101440000Y-52354000D02*
X101750000Y-52413000D01*
X102024000Y-52583000D02*
X102217000Y-52841000D01*
X98518000Y-57146000D02*
X98191000Y-57081000D01*
X106479000Y-54554000D02*
X107500000Y-55575000D01*
X97719000Y-56609000D02*
X97634000Y-56182000D01*
X102453000Y-53697000D02*
X102791000Y-54150000D01*
X98191000Y-57081000D02*
X97908000Y-56892000D01*
X97908000Y-56892000D02*
X97719000Y-56609000D01*
X97354000Y-53296000D02*
X97354000Y-52354000D01*
X107416000Y-58409000D02*
X106479000Y-59346000D01*
X102987000Y-59037000D02*
X102454000Y-58504000D01*
X106479000Y-59346000D02*
X103732000Y-59346000D01*
X97717000Y-53296000D02*
X97354000Y-53296000D01*
X102123000Y-57477000D02*
X101756000Y-57233000D01*
X102299000Y-53139000D02*
X102453000Y-53697000D01*
X102454000Y-58504000D02*
X102454000Y-58282000D01*
X103270000Y-54449000D02*
X103832000Y-54554000D01*
X101750000Y-52413000D02*
X102024000Y-52583000D01*
X102367000Y-57844000D02*
X102123000Y-57477000D01*
X97354000Y-52354000D02*
X101440000Y-52354000D01*
X101756000Y-57233000D02*
X101318000Y-57146000D01*
X103329000Y-59266000D02*
X102987000Y-59037000D01*
X103732000Y-59346000D02*
X103329000Y-59266000D01*
X102791000Y-54150000D02*
X103270000Y-54449000D01*
X120987000Y-63037000D02*
X120454000Y-62504000D01*
X121832000Y-58554000D02*
X124479000Y-58554000D01*
X119756000Y-61233000D02*
X119318000Y-61146000D01*
X115908000Y-60892000D02*
X115719000Y-60609000D01*
X120367000Y-61844000D02*
X120123000Y-61477000D01*
X120454000Y-62282000D02*
X120367000Y-61844000D01*
X125416000Y-62409000D02*
X124479000Y-63346000D01*
X115354000Y-57296000D02*
X115354000Y-56354000D01*
X115354000Y-56354000D02*
X119440000Y-56354000D01*
X116191000Y-61081000D02*
X115908000Y-60892000D01*
X115717000Y-57296000D02*
X115354000Y-57296000D01*
X115719000Y-60609000D02*
X115634000Y-60182000D01*
X120123000Y-61477000D02*
X119756000Y-61233000D01*
X124479000Y-63346000D02*
X121732000Y-63346000D01*
X119440000Y-56354000D02*
X119750000Y-56413000D01*
X120299000Y-57139000D02*
X120453000Y-57697000D01*
X116518000Y-61146000D02*
X116191000Y-61081000D01*
X121329000Y-63266000D02*
X120987000Y-63037000D01*
X121270000Y-58449000D02*
X121832000Y-58554000D01*
X119318000Y-61146000D02*
X116518000Y-61146000D01*
X119750000Y-56413000D02*
X120024000Y-56583000D01*
X120024000Y-56583000D02*
X120217000Y-56841000D01*
X120453000Y-57697000D02*
X120791000Y-58150000D01*
X121732000Y-63346000D02*
X121329000Y-63266000D01*
X124479000Y-58554000D02*
X125500000Y-59575000D01*
X120791000Y-58150000D02*
X121270000Y-58449000D01*
X120454000Y-62504000D02*
X120454000Y-62282000D01*
X120217000Y-56841000D02*
X120299000Y-57139000D01*
X139832000Y-62554000D02*
X142479000Y-62554000D01*
X134518000Y-65146000D02*
X134191000Y-65081000D01*
X139329000Y-67266000D02*
X138987000Y-67037000D01*
X133717000Y-61296000D02*
X133354000Y-61296000D01*
X134191000Y-65081000D02*
X133908000Y-64892000D01*
X138987000Y-67037000D02*
X138454000Y-66504000D01*
X139270000Y-62449000D02*
X139832000Y-62554000D01*
X137440000Y-60354000D02*
X137750000Y-60413000D01*
X142479000Y-62554000D02*
X143500000Y-63575000D01*
X133354000Y-61296000D02*
X133354000Y-60354000D01*
X137756000Y-65233000D02*
X137318000Y-65146000D01*
X138299000Y-61139000D02*
X138453000Y-61697000D01*
X138367000Y-65844000D02*
X138123000Y-65477000D01*
X139732000Y-67346000D02*
X139329000Y-67266000D01*
X143416000Y-66409000D02*
X142479000Y-67346000D01*
X133354000Y-60354000D02*
X137440000Y-60354000D01*
X142479000Y-67346000D02*
X139732000Y-67346000D01*
X137750000Y-60413000D02*
X138024000Y-60583000D01*
X133719000Y-64609000D02*
X133634000Y-64182000D01*
X138791000Y-62150000D02*
X139270000Y-62449000D01*
X133908000Y-64892000D02*
X133719000Y-64609000D01*
X138024000Y-60583000D02*
X138217000Y-60841000D01*
X137318000Y-65146000D02*
X134518000Y-65146000D01*
X138123000Y-65477000D02*
X137756000Y-65233000D01*
X138454000Y-66282000D02*
X138367000Y-65844000D01*
X138217000Y-60841000D02*
X138299000Y-61139000D01*
X138454000Y-66504000D02*
X138454000Y-66282000D01*
X138453000Y-61697000D02*
X138791000Y-62150000D01*
X53416000Y-85409000D02*
X52479000Y-86346000D01*
X48987000Y-86037000D02*
X48454000Y-85504000D01*
X43354000Y-79354000D02*
X47440000Y-79354000D01*
X48123000Y-84477000D02*
X47756000Y-84233000D01*
X49329000Y-86266000D02*
X48987000Y-86037000D01*
X47750000Y-79413000D02*
X48024000Y-79583000D01*
X48024000Y-79583000D02*
X48217000Y-79841000D01*
X43354000Y-80296000D02*
X43354000Y-79354000D01*
X49832000Y-81554000D02*
X52479000Y-81554000D01*
X48791000Y-81150000D02*
X49270000Y-81449000D01*
X43719000Y-83609000D02*
X43634000Y-83182000D01*
X52479000Y-81554000D02*
X53500000Y-82575000D01*
X48299000Y-80139000D02*
X48453000Y-80697000D01*
X47440000Y-79354000D02*
X47750000Y-79413000D01*
X48454000Y-85282000D02*
X48367000Y-84844000D01*
X44191000Y-84081000D02*
X43908000Y-83892000D01*
X47318000Y-84146000D02*
X44518000Y-84146000D01*
X48367000Y-84844000D02*
X48123000Y-84477000D01*
X43908000Y-83892000D02*
X43719000Y-83609000D01*
X49732000Y-86346000D02*
X49329000Y-86266000D01*
X48453000Y-80697000D02*
X48791000Y-81150000D01*
X44518000Y-84146000D02*
X44191000Y-84081000D01*
X49270000Y-81449000D02*
X49832000Y-81554000D01*
X47756000Y-84233000D02*
X47318000Y-84146000D01*
X48454000Y-85504000D02*
X48454000Y-85282000D01*
X48217000Y-79841000D02*
X48299000Y-80139000D01*
X52479000Y-86346000D02*
X49732000Y-86346000D01*
X43717000Y-80296000D02*
X43354000Y-80296000D01*
X67832000Y-81554000D02*
X70479000Y-81554000D01*
X65750000Y-79413000D02*
X66024000Y-79583000D01*
X66367000Y-84844000D02*
X66123000Y-84477000D01*
X62191000Y-84081000D02*
X61908000Y-83892000D01*
X65440000Y-79354000D02*
X65750000Y-79413000D01*
X65318000Y-84146000D02*
X62518000Y-84146000D01*
X66453000Y-80697000D02*
X66791000Y-81150000D01*
X67329000Y-86266000D02*
X66987000Y-86037000D01*
X70479000Y-86346000D02*
X67732000Y-86346000D01*
X61717000Y-80296000D02*
X61354000Y-80296000D01*
X61908000Y-83892000D02*
X61719000Y-83609000D01*
X66791000Y-81150000D02*
X67270000Y-81449000D01*
X71416000Y-85409000D02*
X70479000Y-86346000D01*
X66123000Y-84477000D02*
X65756000Y-84233000D01*
X67732000Y-86346000D02*
X67329000Y-86266000D01*
X66987000Y-86037000D02*
X66454000Y-85504000D01*
X66024000Y-79583000D02*
X66217000Y-79841000D01*
X70479000Y-81554000D02*
X71500000Y-82575000D01*
X66217000Y-79841000D02*
X66299000Y-80139000D01*
X65756000Y-84233000D02*
X65318000Y-84146000D01*
X61719000Y-83609000D02*
X61634000Y-83182000D01*
X61354000Y-79354000D02*
X65440000Y-79354000D01*
X67270000Y-81449000D02*
X67832000Y-81554000D01*
X62518000Y-84146000D02*
X62191000Y-84081000D01*
X66299000Y-80139000D02*
X66453000Y-80697000D01*
X66454000Y-85504000D02*
X66454000Y-85282000D01*
X66454000Y-85282000D02*
X66367000Y-84844000D01*
X61354000Y-80296000D02*
X61354000Y-79354000D01*
X80518000Y-80146000D02*
X80191000Y-80081000D01*
X79719000Y-79609000D02*
X79634000Y-79182000D01*
X85732000Y-82346000D02*
X85329000Y-82266000D01*
X84299000Y-76139000D02*
X84453000Y-76697000D01*
X89416000Y-81409000D02*
X88479000Y-82346000D01*
X83440000Y-75354000D02*
X83750000Y-75413000D01*
X88479000Y-82346000D02*
X85732000Y-82346000D01*
X84791000Y-77150000D02*
X85270000Y-77449000D01*
X84987000Y-82037000D02*
X84454000Y-81504000D01*
X88479000Y-77554000D02*
X89500000Y-78575000D01*
X83318000Y-80146000D02*
X80518000Y-80146000D01*
X79354000Y-76296000D02*
X79354000Y-75354000D01*
X84123000Y-80477000D02*
X83756000Y-80233000D01*
X80191000Y-80081000D02*
X79908000Y-79892000D01*
X84367000Y-80844000D02*
X84123000Y-80477000D01*
X79908000Y-79892000D02*
X79719000Y-79609000D01*
X84454000Y-81282000D02*
X84367000Y-80844000D01*
X84217000Y-75841000D02*
X84299000Y-76139000D01*
X85832000Y-77554000D02*
X88479000Y-77554000D01*
X85329000Y-82266000D02*
X84987000Y-82037000D01*
X83756000Y-80233000D02*
X83318000Y-80146000D01*
X84024000Y-75583000D02*
X84217000Y-75841000D01*
X79354000Y-75354000D02*
X83440000Y-75354000D01*
X83750000Y-75413000D02*
X84024000Y-75583000D01*
X84453000Y-76697000D02*
X84791000Y-77150000D01*
X84454000Y-81504000D02*
X84454000Y-81282000D01*
X85270000Y-77449000D02*
X85832000Y-77554000D01*
X79717000Y-76296000D02*
X79354000Y-76296000D01*
X107416000Y-77409000D02*
X106479000Y-78346000D01*
X101750000Y-71413000D02*
X102024000Y-71583000D01*
X101318000Y-76146000D02*
X98518000Y-76146000D01*
X106479000Y-73554000D02*
X107500000Y-74575000D01*
X102024000Y-71583000D02*
X102217000Y-71841000D01*
X102123000Y-76477000D02*
X101756000Y-76233000D01*
X102987000Y-78037000D02*
X102454000Y-77504000D01*
X103732000Y-78346000D02*
X103329000Y-78266000D01*
X103832000Y-73554000D02*
X106479000Y-73554000D01*
X102367000Y-76844000D02*
X102123000Y-76477000D01*
X102217000Y-71841000D02*
X102299000Y-72139000D01*
X101756000Y-76233000D02*
X101318000Y-76146000D01*
X101440000Y-71354000D02*
X101750000Y-71413000D01*
X97354000Y-72296000D02*
X97354000Y-71354000D01*
X106479000Y-78346000D02*
X103732000Y-78346000D01*
X103270000Y-73449000D02*
X103832000Y-73554000D01*
X102453000Y-72697000D02*
X102791000Y-73150000D01*
X102454000Y-77282000D02*
X102367000Y-76844000D01*
X97354000Y-71354000D02*
X101440000Y-71354000D01*
X98191000Y-76081000D02*
X97908000Y-75892000D01*
X103329000Y-78266000D02*
X102987000Y-78037000D01*
X102299000Y-72139000D02*
X102453000Y-72697000D01*
X102454000Y-77504000D02*
X102454000Y-77282000D01*
X97717000Y-72296000D02*
X97354000Y-72296000D01*
X97719000Y-75609000D02*
X97634000Y-75182000D01*
X102791000Y-73150000D02*
X103270000Y-73449000D01*
X98518000Y-76146000D02*
X98191000Y-76081000D01*
X97908000Y-75892000D02*
X97719000Y-75609000D01*
X124479000Y-77554000D02*
X125500000Y-78575000D01*
X119318000Y-80146000D02*
X116518000Y-80146000D01*
X121329000Y-82266000D02*
X120987000Y-82037000D01*
X121270000Y-77449000D02*
X121832000Y-77554000D01*
X120454000Y-81504000D02*
X120454000Y-81282000D01*
X120454000Y-81282000D02*
X120367000Y-80844000D01*
X119750000Y-75413000D02*
X120024000Y-75583000D01*
X120791000Y-77150000D02*
X121270000Y-77449000D01*
X120123000Y-80477000D02*
X119756000Y-80233000D01*
X115717000Y-76296000D02*
X115354000Y-76296000D01*
X116191000Y-80081000D02*
X115908000Y-79892000D01*
X119756000Y-80233000D02*
X119318000Y-80146000D01*
X125416000Y-81409000D02*
X124479000Y-82346000D01*
X120299000Y-76139000D02*
X120453000Y-76697000D01*
X120024000Y-75583000D02*
X120217000Y-75841000D01*
X115354000Y-75354000D02*
X119440000Y-75354000D01*
X119440000Y-75354000D02*
X119750000Y-75413000D01*
X115908000Y-79892000D02*
X115719000Y-79609000D01*
X120987000Y-82037000D02*
X120454000Y-81504000D01*
X120453000Y-76697000D02*
X120791000Y-77150000D01*
X115354000Y-76296000D02*
X115354000Y-75354000D01*
X121732000Y-82346000D02*
X121329000Y-82266000D01*
X120367000Y-80844000D02*
X120123000Y-80477000D01*
X121832000Y-77554000D02*
X124479000Y-77554000D01*
X115719000Y-79609000D02*
X115634000Y-79182000D01*
X116518000Y-80146000D02*
X116191000Y-80081000D01*
X120217000Y-75841000D02*
X120299000Y-76139000D01*
X124479000Y-82346000D02*
X121732000Y-82346000D01*
X138024000Y-79583000D02*
X138217000Y-79841000D01*
X139732000Y-86346000D02*
X139329000Y-86266000D01*
X142479000Y-81554000D02*
X143500000Y-82575000D01*
X138453000Y-80697000D02*
X138791000Y-81150000D01*
X142479000Y-86346000D02*
X139732000Y-86346000D01*
X133354000Y-80296000D02*
X133354000Y-79354000D01*
X137318000Y-84146000D02*
X134518000Y-84146000D01*
X143416000Y-85409000D02*
X142479000Y-86346000D01*
X139832000Y-81554000D02*
X142479000Y-81554000D01*
X139270000Y-81449000D02*
X139832000Y-81554000D01*
X134191000Y-84081000D02*
X133908000Y-83892000D01*
X138367000Y-84844000D02*
X138123000Y-84477000D01*
X133354000Y-79354000D02*
X137440000Y-79354000D01*
X138217000Y-79841000D02*
X138299000Y-80139000D01*
X138454000Y-85504000D02*
X138454000Y-85282000D01*
X137756000Y-84233000D02*
X137318000Y-84146000D01*
X133908000Y-83892000D02*
X133719000Y-83609000D01*
X133719000Y-83609000D02*
X133634000Y-83182000D01*
X134518000Y-84146000D02*
X134191000Y-84081000D01*
X139329000Y-86266000D02*
X138987000Y-86037000D01*
X133717000Y-80296000D02*
X133354000Y-80296000D01*
X138791000Y-81150000D02*
X139270000Y-81449000D01*
X138123000Y-84477000D02*
X137756000Y-84233000D01*
X138987000Y-86037000D02*
X138454000Y-85504000D01*
X137440000Y-79354000D02*
X137750000Y-79413000D01*
X138299000Y-80139000D02*
X138453000Y-80697000D01*
X138454000Y-85282000D02*
X138367000Y-84844000D01*
X137750000Y-79413000D02*
X138024000Y-79583000D01*
X48299000Y-99139000D02*
X48453000Y-99697000D01*
X48454000Y-104504000D02*
X48454000Y-104282000D01*
X48453000Y-99697000D02*
X48791000Y-100150000D01*
X43719000Y-102609000D02*
X43634000Y-102182000D01*
X48454000Y-104282000D02*
X48367000Y-103844000D01*
X48217000Y-98841000D02*
X48299000Y-99139000D01*
X48024000Y-98583000D02*
X48217000Y-98841000D01*
X44191000Y-103081000D02*
X43908000Y-102892000D01*
X49832000Y-100554000D02*
X52479000Y-100554000D01*
X48987000Y-105037000D02*
X48454000Y-104504000D01*
X48367000Y-103844000D02*
X48123000Y-103477000D01*
X49270000Y-100449000D02*
X49832000Y-100554000D01*
X47756000Y-103233000D02*
X47318000Y-103146000D01*
X48123000Y-103477000D02*
X47756000Y-103233000D01*
X52479000Y-100554000D02*
X53500000Y-101575000D01*
X52479000Y-105346000D02*
X49732000Y-105346000D01*
X47440000Y-98354000D02*
X47750000Y-98413000D01*
X53416000Y-104409000D02*
X52479000Y-105346000D01*
X43354000Y-98354000D02*
X47440000Y-98354000D01*
X43354000Y-99296000D02*
X43354000Y-98354000D01*
X49732000Y-105346000D02*
X49329000Y-105266000D01*
X47750000Y-98413000D02*
X48024000Y-98583000D01*
X49329000Y-105266000D02*
X48987000Y-105037000D01*
X43908000Y-102892000D02*
X43719000Y-102609000D01*
X47318000Y-103146000D02*
X44518000Y-103146000D01*
X48791000Y-100150000D02*
X49270000Y-100449000D01*
X43717000Y-99296000D02*
X43354000Y-99296000D01*
X44518000Y-103146000D02*
X44191000Y-103081000D01*
X67832000Y-100554000D02*
X70479000Y-100554000D01*
X66024000Y-98583000D02*
X66217000Y-98841000D01*
X66791000Y-100150000D02*
X67270000Y-100449000D01*
X62518000Y-103146000D02*
X62191000Y-103081000D01*
X66299000Y-99139000D02*
X66453000Y-99697000D01*
X66453000Y-99697000D02*
X66791000Y-100150000D01*
X65756000Y-103233000D02*
X65318000Y-103146000D01*
X61719000Y-102609000D02*
X61634000Y-102182000D01*
X67732000Y-105346000D02*
X67329000Y-105266000D01*
X66367000Y-103844000D02*
X66123000Y-103477000D01*
X67329000Y-105266000D02*
X66987000Y-105037000D01*
X61908000Y-102892000D02*
X61719000Y-102609000D01*
X66454000Y-104282000D02*
X66367000Y-103844000D01*
X61354000Y-98354000D02*
X65440000Y-98354000D01*
X65440000Y-98354000D02*
X65750000Y-98413000D01*
X65318000Y-103146000D02*
X62518000Y-103146000D01*
X61717000Y-99296000D02*
X61354000Y-99296000D01*
X66123000Y-103477000D02*
X65756000Y-103233000D01*
X71416000Y-104409000D02*
X70479000Y-105346000D01*
X70479000Y-100554000D02*
X71500000Y-101575000D01*
X66987000Y-105037000D02*
X66454000Y-104504000D01*
X65750000Y-98413000D02*
X66024000Y-98583000D01*
X67270000Y-100449000D02*
X67832000Y-100554000D01*
X66217000Y-98841000D02*
X66299000Y-99139000D01*
X61354000Y-99296000D02*
X61354000Y-98354000D01*
X66454000Y-104504000D02*
X66454000Y-104282000D01*
X62191000Y-103081000D02*
X61908000Y-102892000D01*
X70479000Y-105346000D02*
X67732000Y-105346000D01*
X80191000Y-99081000D02*
X79908000Y-98892000D01*
X85270000Y-96449000D02*
X85832000Y-96554000D01*
X79354000Y-95296000D02*
X79354000Y-94354000D01*
X84299000Y-95139000D02*
X84453000Y-95697000D01*
X84987000Y-101037000D02*
X84454000Y-100504000D01*
X89416000Y-100409000D02*
X88479000Y-101346000D01*
X84791000Y-96150000D02*
X85270000Y-96449000D01*
X84123000Y-99477000D02*
X83756000Y-99233000D01*
X85329000Y-101266000D02*
X84987000Y-101037000D01*
X88479000Y-101346000D02*
X85732000Y-101346000D01*
X85732000Y-101346000D02*
X85329000Y-101266000D01*
X79717000Y-95296000D02*
X79354000Y-95296000D01*
X79719000Y-98609000D02*
X79634000Y-98182000D01*
X84454000Y-100504000D02*
X84454000Y-100282000D01*
X85832000Y-96554000D02*
X88479000Y-96554000D01*
X84217000Y-94841000D02*
X84299000Y-95139000D01*
X83750000Y-94413000D02*
X84024000Y-94583000D01*
X84453000Y-95697000D02*
X84791000Y-96150000D01*
X84024000Y-94583000D02*
X84217000Y-94841000D01*
X83440000Y-94354000D02*
X83750000Y-94413000D01*
X80518000Y-99146000D02*
X80191000Y-99081000D01*
X84367000Y-99844000D02*
X84123000Y-99477000D01*
X88479000Y-96554000D02*
X89500000Y-97575000D01*
X83756000Y-99233000D02*
X83318000Y-99146000D01*
X84454000Y-100282000D02*
X84367000Y-99844000D01*
X79908000Y-98892000D02*
X79719000Y-98609000D01*
X79354000Y-94354000D02*
X83440000Y-94354000D01*
X83318000Y-99146000D02*
X80518000Y-99146000D01*
X101318000Y-95146000D02*
X98518000Y-95146000D01*
X97354000Y-90354000D02*
X101440000Y-90354000D01*
X101756000Y-95233000D02*
X101318000Y-95146000D01*
X102217000Y-90841000D02*
X102299000Y-91139000D01*
X102123000Y-95477000D02*
X101756000Y-95233000D01*
X103732000Y-97346000D02*
X103329000Y-97266000D01*
X98191000Y-95081000D02*
X97908000Y-94892000D01*
X102024000Y-90583000D02*
X102217000Y-90841000D01*
X101750000Y-90413000D02*
X102024000Y-90583000D01*
X101440000Y-90354000D02*
X101750000Y-90413000D01*
X102987000Y-97037000D02*
X102454000Y-96504000D01*
X106479000Y-92554000D02*
X107500000Y-93575000D01*
X102453000Y-91697000D02*
X102791000Y-92150000D01*
X97354000Y-91296000D02*
X97354000Y-90354000D01*
X102454000Y-96282000D02*
X102367000Y-95844000D01*
X97908000Y-94892000D02*
X97719000Y-94609000D01*
X106479000Y-97346000D02*
X103732000Y-97346000D01*
X107416000Y-96409000D02*
X106479000Y-97346000D01*
X97719000Y-94609000D02*
X97634000Y-94182000D01*
X103832000Y-92554000D02*
X106479000Y-92554000D01*
X102454000Y-96504000D02*
X102454000Y-96282000D01*
X98518000Y-95146000D02*
X98191000Y-95081000D01*
X102299000Y-91139000D02*
X102453000Y-91697000D01*
X97717000Y-91296000D02*
X97354000Y-91296000D01*
X103329000Y-97266000D02*
X102987000Y-97037000D01*
X103270000Y-92449000D02*
X103832000Y-92554000D01*
X102367000Y-95844000D02*
X102123000Y-95477000D01*
X102791000Y-92150000D02*
X103270000Y-92449000D01*
X120299000Y-95139000D02*
X120453000Y-95697000D01*
X119750000Y-94413000D02*
X120024000Y-94583000D01*
X116191000Y-99081000D02*
X115908000Y-98892000D01*
X121732000Y-101346000D02*
X121329000Y-101266000D01*
X121832000Y-96554000D02*
X124479000Y-96554000D01*
X115717000Y-95296000D02*
X115354000Y-95296000D01*
X119756000Y-99233000D02*
X119318000Y-99146000D01*
X124479000Y-96554000D02*
X125500000Y-97575000D01*
X121329000Y-101266000D02*
X120987000Y-101037000D01*
X115719000Y-98609000D02*
X115634000Y-98182000D01*
X120367000Y-99844000D02*
X120123000Y-99477000D01*
X120454000Y-100282000D02*
X120367000Y-99844000D01*
X121270000Y-96449000D02*
X121832000Y-96554000D01*
X120024000Y-94583000D02*
X120217000Y-94841000D01*
X120453000Y-95697000D02*
X120791000Y-96150000D01*
X120791000Y-96150000D02*
X121270000Y-96449000D01*
X116518000Y-99146000D02*
X116191000Y-99081000D01*
X120987000Y-101037000D02*
X120454000Y-100504000D01*
X125416000Y-100409000D02*
X124479000Y-101346000D01*
X120454000Y-100504000D02*
X120454000Y-100282000D01*
X120217000Y-94841000D02*
X120299000Y-95139000D01*
X119318000Y-99146000D02*
X116518000Y-99146000D01*
X115354000Y-94354000D02*
X119440000Y-94354000D01*
X115354000Y-95296000D02*
X115354000Y-94354000D01*
X115908000Y-98892000D02*
X115719000Y-98609000D01*
X124479000Y-101346000D02*
X121732000Y-101346000D01*
X120123000Y-99477000D02*
X119756000Y-99233000D01*
X119440000Y-94354000D02*
X119750000Y-94413000D01*
X137440000Y-97354000D02*
X137750000Y-97413000D01*
X134191000Y-102081000D02*
X133908000Y-101892000D01*
X142479000Y-104346000D02*
X139732000Y-104346000D01*
X138987000Y-104037000D02*
X138454000Y-103504000D01*
X138454000Y-103282000D02*
X138367000Y-102844000D01*
X139832000Y-99554000D02*
X142479000Y-99554000D01*
X137756000Y-102233000D02*
X137318000Y-102146000D01*
X139270000Y-99449000D02*
X139832000Y-99554000D01*
X134518000Y-102146000D02*
X134191000Y-102081000D01*
X137318000Y-102146000D02*
X134518000Y-102146000D01*
X133354000Y-98296000D02*
X133354000Y-97354000D01*
X138367000Y-102844000D02*
X138123000Y-102477000D01*
X138299000Y-98139000D02*
X138453000Y-98697000D01*
X138454000Y-103504000D02*
X138454000Y-103282000D01*
X137750000Y-97413000D02*
X138024000Y-97583000D01*
X133354000Y-97354000D02*
X137440000Y-97354000D01*
X133908000Y-101892000D02*
X133719000Y-101609000D01*
X143416000Y-103409000D02*
X142479000Y-104346000D01*
X138024000Y-97583000D02*
X138217000Y-97841000D01*
X142479000Y-99554000D02*
X143500000Y-100575000D01*
X138453000Y-98697000D02*
X138791000Y-99150000D01*
X133717000Y-98296000D02*
X133354000Y-98296000D01*
X138123000Y-102477000D02*
X137756000Y-102233000D01*
X139329000Y-104266000D02*
X138987000Y-104037000D01*
X138217000Y-97841000D02*
X138299000Y-98139000D01*
X138791000Y-99150000D02*
X139270000Y-99449000D01*
X133719000Y-101609000D02*
X133634000Y-101182000D01*
X139732000Y-104346000D02*
X139329000Y-104266000D01*
X110732000Y-124136000D02*
X110329000Y-124056000D01*
X109123000Y-122267000D02*
X108756000Y-122023000D01*
X108756000Y-122023000D02*
X108318000Y-121936000D01*
X109453000Y-118487000D02*
X109791000Y-118940000D01*
X110270000Y-119239000D02*
X110832000Y-119344000D01*
X104717000Y-118086000D02*
X104354000Y-118086000D01*
X110329000Y-124056000D02*
X109987000Y-123827000D01*
X109454000Y-123072000D02*
X109367000Y-122634000D01*
X104354000Y-118086000D02*
X104354000Y-117144000D01*
X113479000Y-119344000D02*
X114500000Y-120365000D01*
X105191000Y-121871000D02*
X104908000Y-121682000D01*
X109024000Y-117373000D02*
X109217000Y-117631000D01*
X108750000Y-117203000D02*
X109024000Y-117373000D01*
X114416000Y-123199000D02*
X113479000Y-124136000D01*
X108318000Y-121936000D02*
X105518000Y-121936000D01*
X109791000Y-118940000D02*
X110270000Y-119239000D01*
X109987000Y-123827000D02*
X109454000Y-123294000D01*
X104908000Y-121682000D02*
X104719000Y-121399000D01*
X104719000Y-121399000D02*
X104634000Y-120972000D01*
X105518000Y-121936000D02*
X105191000Y-121871000D01*
X108440000Y-117144000D02*
X108750000Y-117203000D01*
X113479000Y-124136000D02*
X110732000Y-124136000D01*
X109217000Y-117631000D02*
X109299000Y-117929000D01*
X109454000Y-123294000D02*
X109454000Y-123072000D01*
X109299000Y-117929000D02*
X109453000Y-118487000D01*
X104354000Y-117144000D02*
X108440000Y-117144000D01*
X109367000Y-122634000D02*
X109123000Y-122267000D01*
X110832000Y-119344000D02*
X113479000Y-119344000D01*
X128228173Y-124729262D02*
X128218553Y-124282809D01*
X124071464Y-118933405D02*
X124235040Y-118005716D01*
X127722935Y-123574992D02*
X127306696Y-123413256D01*
X128218553Y-124282809D02*
X128041989Y-123879014D01*
X129277568Y-120718556D02*
X129697370Y-121096191D01*
X127306696Y-123413256D02*
X124549234Y-122927041D01*
X128794327Y-119042174D02*
X128939594Y-119329768D01*
X124235040Y-118005716D02*
X128258965Y-118715242D01*
X133092736Y-125715975D02*
X132007263Y-126476031D01*
X129023366Y-120213745D02*
X129277568Y-120718556D01*
X128041989Y-123879014D02*
X127722935Y-123574992D01*
X124428949Y-118996439D02*
X124071464Y-118933405D01*
X129301996Y-125999020D02*
X128919010Y-125850255D01*
X123855622Y-122259454D02*
X123846061Y-121824181D01*
X128258965Y-118715242D02*
X128554010Y-118827177D01*
X128919010Y-125850255D02*
X128621972Y-125565346D01*
X128621972Y-125565346D02*
X128189624Y-124947889D01*
X128939594Y-119329768D02*
X128968601Y-119637480D01*
X130232599Y-121297186D02*
X132839385Y-121756832D01*
X132007263Y-126476031D02*
X129301996Y-125999020D01*
X123992608Y-122570974D02*
X123855622Y-122259454D01*
X128189624Y-124947889D02*
X128228173Y-124729262D01*
X132839385Y-121756832D02*
X133667579Y-122939616D01*
X129697370Y-121096191D02*
X130232599Y-121297186D01*
X124549234Y-122927041D02*
X124238489Y-122806246D01*
X124238489Y-122806246D02*
X123992608Y-122570974D01*
X128968601Y-119637480D02*
X129023366Y-120213745D01*
X128554010Y-118827177D02*
X128794327Y-119042174D01*
X156846070Y-123161556D02*
X158202904Y-122667709D01*
X151849543Y-130899961D02*
X150995802Y-130501854D01*
X152722620Y-126798681D02*
X152907104Y-126542660D01*
X160735880Y-123941539D02*
X161189097Y-125186743D01*
X153492366Y-126300295D02*
X153797100Y-126351918D01*
X155727400Y-125560553D02*
X156846070Y-123161556D01*
X155830756Y-131472099D02*
X155633650Y-131740991D01*
X157278043Y-128574242D02*
X157014087Y-128934437D01*
X152907104Y-126542660D02*
X153176973Y-126366177D01*
X155342757Y-131917602D02*
X155006397Y-131969293D01*
X155006397Y-131969293D02*
X154583481Y-131865871D01*
X160028165Y-127676370D02*
X159785345Y-128007803D01*
X157014087Y-128934437D02*
X155830756Y-131472099D01*
X154367903Y-126448167D02*
X154921306Y-126333281D01*
X158090017Y-128278708D02*
X157654283Y-128344746D01*
X159785345Y-128007803D02*
X159433265Y-128220981D01*
X150995802Y-130501854D02*
X152722620Y-126798681D01*
X154921306Y-126333281D02*
X155394726Y-126025523D01*
X161189097Y-125186743D02*
X160028165Y-127676370D01*
X157654283Y-128344746D02*
X157278043Y-128574242D01*
X158724948Y-128478787D02*
X158523747Y-128384966D01*
X155394726Y-126025523D02*
X155727400Y-125560553D01*
X158523747Y-128384966D02*
X158090017Y-128278708D01*
X152002954Y-130570971D02*
X151849543Y-130899961D01*
X159433265Y-128220981D02*
X158724948Y-128478787D01*
X153176973Y-126366177D02*
X153492366Y-126300295D01*
X153797100Y-126351918D02*
X154367903Y-126448167D01*
X155633650Y-131740991D02*
X155342757Y-131917602D01*
X222416000Y-65409000D02*
X221479000Y-66346000D01*
X221479000Y-66346000D02*
X218732000Y-66346000D01*
X216756000Y-64233000D02*
X216318000Y-64146000D01*
X217217000Y-59841000D02*
X217299000Y-60139000D01*
X217024000Y-59583000D02*
X217217000Y-59841000D01*
X218832000Y-61554000D02*
X221479000Y-61554000D01*
X216750000Y-59413000D02*
X217024000Y-59583000D01*
X216440000Y-59354000D02*
X216750000Y-59413000D01*
X213518000Y-64146000D02*
X213191000Y-64081000D01*
X212717000Y-60296000D02*
X212354000Y-60296000D01*
X217299000Y-60139000D02*
X217453000Y-60697000D01*
X212908000Y-63892000D02*
X212719000Y-63609000D01*
X213191000Y-64081000D02*
X212908000Y-63892000D01*
X212354000Y-59354000D02*
X216440000Y-59354000D01*
X212719000Y-63609000D02*
X212634000Y-63182000D01*
X217123000Y-64477000D02*
X216756000Y-64233000D01*
X217791000Y-61150000D02*
X218270000Y-61449000D01*
X218732000Y-66346000D02*
X218329000Y-66266000D01*
X217454000Y-65504000D02*
X217454000Y-65282000D01*
X217987000Y-66037000D02*
X217454000Y-65504000D01*
X212354000Y-60296000D02*
X212354000Y-59354000D01*
X218329000Y-66266000D02*
X217987000Y-66037000D01*
X218270000Y-61449000D02*
X218832000Y-61554000D01*
X217454000Y-65282000D02*
X217367000Y-64844000D01*
X217453000Y-60697000D02*
X217791000Y-61150000D01*
X216318000Y-64146000D02*
X213518000Y-64146000D01*
X217367000Y-64844000D02*
X217123000Y-64477000D01*
X221479000Y-61554000D02*
X222500000Y-62575000D01*
X235299000Y-56139000D02*
X235453000Y-56697000D01*
X239479000Y-62346000D02*
X236732000Y-62346000D01*
X231518000Y-60146000D02*
X231191000Y-60081000D01*
X230908000Y-59892000D02*
X230719000Y-59609000D01*
X236329000Y-62266000D02*
X235987000Y-62037000D01*
X235217000Y-55841000D02*
X235299000Y-56139000D01*
X235454000Y-61282000D02*
X235367000Y-60844000D01*
X235987000Y-62037000D02*
X235454000Y-61504000D01*
X240416000Y-61409000D02*
X239479000Y-62346000D01*
X234756000Y-60233000D02*
X234318000Y-60146000D01*
X234318000Y-60146000D02*
X231518000Y-60146000D01*
X235791000Y-57150000D02*
X236270000Y-57449000D01*
X236270000Y-57449000D02*
X236832000Y-57554000D01*
X234440000Y-55354000D02*
X234750000Y-55413000D01*
X230354000Y-55354000D02*
X234440000Y-55354000D01*
X230717000Y-56296000D02*
X230354000Y-56296000D01*
X235024000Y-55583000D02*
X235217000Y-55841000D01*
X235123000Y-60477000D02*
X234756000Y-60233000D01*
X231191000Y-60081000D02*
X230908000Y-59892000D01*
X235454000Y-61504000D02*
X235454000Y-61282000D01*
X235367000Y-60844000D02*
X235123000Y-60477000D01*
X230354000Y-56296000D02*
X230354000Y-55354000D01*
X235453000Y-56697000D02*
X235791000Y-57150000D01*
X230719000Y-59609000D02*
X230634000Y-59182000D01*
X236732000Y-62346000D02*
X236329000Y-62266000D01*
X234750000Y-55413000D02*
X235024000Y-55583000D01*
X236832000Y-57554000D02*
X239479000Y-57554000D01*
X239479000Y-57554000D02*
X240500000Y-58575000D01*
X248354000Y-51354000D02*
X252440000Y-51354000D01*
X253454000Y-57282000D02*
X253367000Y-56844000D01*
X253123000Y-56477000D02*
X252756000Y-56233000D01*
X252318000Y-56146000D02*
X249518000Y-56146000D01*
X253217000Y-51841000D02*
X253299000Y-52139000D01*
X248908000Y-55892000D02*
X248719000Y-55609000D01*
X248354000Y-52296000D02*
X248354000Y-51354000D01*
X252756000Y-56233000D02*
X252318000Y-56146000D01*
X249518000Y-56146000D02*
X249191000Y-56081000D01*
X252750000Y-51413000D02*
X253024000Y-51583000D01*
X254329000Y-58266000D02*
X253987000Y-58037000D01*
X253024000Y-51583000D02*
X253217000Y-51841000D01*
X253987000Y-58037000D02*
X253454000Y-57504000D01*
X248719000Y-55609000D02*
X248634000Y-55182000D01*
X257479000Y-58346000D02*
X254732000Y-58346000D01*
X253454000Y-57504000D02*
X253454000Y-57282000D01*
X257479000Y-53554000D02*
X258500000Y-54575000D01*
X253367000Y-56844000D02*
X253123000Y-56477000D01*
X254832000Y-53554000D02*
X257479000Y-53554000D01*
X253453000Y-52697000D02*
X253791000Y-53150000D01*
X258416000Y-57409000D02*
X257479000Y-58346000D01*
X254732000Y-58346000D02*
X254329000Y-58266000D01*
X253791000Y-53150000D02*
X254270000Y-53449000D01*
X254270000Y-53449000D02*
X254832000Y-53554000D01*
X253299000Y-52139000D02*
X253453000Y-52697000D01*
X252440000Y-51354000D02*
X252750000Y-51413000D01*
X249191000Y-56081000D02*
X248908000Y-55892000D01*
X248717000Y-52296000D02*
X248354000Y-52296000D01*
X266354000Y-55354000D02*
X270440000Y-55354000D01*
X270750000Y-55413000D02*
X271024000Y-55583000D01*
X271299000Y-56139000D02*
X271453000Y-56697000D01*
X275479000Y-57554000D02*
X276500000Y-58575000D01*
X271024000Y-55583000D02*
X271217000Y-55841000D01*
X270318000Y-60146000D02*
X267518000Y-60146000D01*
X270440000Y-55354000D02*
X270750000Y-55413000D01*
X271217000Y-55841000D02*
X271299000Y-56139000D01*
X272832000Y-57554000D02*
X275479000Y-57554000D01*
X275479000Y-62346000D02*
X272732000Y-62346000D01*
X276416000Y-61409000D02*
X275479000Y-62346000D01*
X266354000Y-56296000D02*
X266354000Y-55354000D01*
X271791000Y-57150000D02*
X272270000Y-57449000D01*
X272270000Y-57449000D02*
X272832000Y-57554000D01*
X266717000Y-56296000D02*
X266354000Y-56296000D01*
X271453000Y-56697000D02*
X271791000Y-57150000D01*
X271123000Y-60477000D02*
X270756000Y-60233000D01*
X267518000Y-60146000D02*
X267191000Y-60081000D01*
X270756000Y-60233000D02*
X270318000Y-60146000D01*
X271987000Y-62037000D02*
X271454000Y-61504000D01*
X266908000Y-59892000D02*
X266719000Y-59609000D01*
X272732000Y-62346000D02*
X272329000Y-62266000D01*
X267191000Y-60081000D02*
X266908000Y-59892000D01*
X271454000Y-61282000D02*
X271367000Y-60844000D01*
X266719000Y-59609000D02*
X266634000Y-59182000D01*
X272329000Y-62266000D02*
X271987000Y-62037000D01*
X271454000Y-61504000D02*
X271454000Y-61282000D01*
X271367000Y-60844000D02*
X271123000Y-60477000D01*
X289756000Y-64233000D02*
X289318000Y-64146000D01*
X290123000Y-64477000D02*
X289756000Y-64233000D01*
X290217000Y-59841000D02*
X290299000Y-60139000D01*
X290454000Y-65504000D02*
X290454000Y-65282000D01*
X285908000Y-63892000D02*
X285719000Y-63609000D01*
X294479000Y-66346000D02*
X291732000Y-66346000D01*
X290987000Y-66037000D02*
X290454000Y-65504000D01*
X285354000Y-59354000D02*
X289440000Y-59354000D01*
X285717000Y-60296000D02*
X285354000Y-60296000D01*
X294479000Y-61554000D02*
X295500000Y-62575000D01*
X286518000Y-64146000D02*
X286191000Y-64081000D01*
X290453000Y-60697000D02*
X290791000Y-61150000D01*
X290791000Y-61150000D02*
X291270000Y-61449000D01*
X285354000Y-60296000D02*
X285354000Y-59354000D01*
X291732000Y-66346000D02*
X291329000Y-66266000D01*
X290299000Y-60139000D02*
X290453000Y-60697000D01*
X290454000Y-65282000D02*
X290367000Y-64844000D01*
X290367000Y-64844000D02*
X290123000Y-64477000D01*
X291270000Y-61449000D02*
X291832000Y-61554000D01*
X289318000Y-64146000D02*
X286518000Y-64146000D01*
X285719000Y-63609000D02*
X285634000Y-63182000D01*
X290024000Y-59583000D02*
X290217000Y-59841000D01*
X291832000Y-61554000D02*
X294479000Y-61554000D01*
X289440000Y-59354000D02*
X289750000Y-59413000D01*
X295416000Y-65409000D02*
X294479000Y-66346000D01*
X289750000Y-59413000D02*
X290024000Y-59583000D01*
X291329000Y-66266000D02*
X290987000Y-66037000D01*
X286191000Y-64081000D02*
X285908000Y-63892000D01*
X308024000Y-59583000D02*
X308217000Y-59841000D01*
X303354000Y-59354000D02*
X307440000Y-59354000D01*
X312479000Y-61554000D02*
X313500000Y-62575000D01*
X312479000Y-66346000D02*
X309732000Y-66346000D01*
X309329000Y-66266000D02*
X308987000Y-66037000D01*
X308299000Y-60139000D02*
X308453000Y-60697000D01*
X309832000Y-61554000D02*
X312479000Y-61554000D01*
X307318000Y-64146000D02*
X304518000Y-64146000D01*
X307750000Y-59413000D02*
X308024000Y-59583000D01*
X303908000Y-63892000D02*
X303719000Y-63609000D01*
X308454000Y-65282000D02*
X308367000Y-64844000D01*
X307440000Y-59354000D02*
X307750000Y-59413000D01*
X307756000Y-64233000D02*
X307318000Y-64146000D01*
X308367000Y-64844000D02*
X308123000Y-64477000D01*
X308453000Y-60697000D02*
X308791000Y-61150000D01*
X308217000Y-59841000D02*
X308299000Y-60139000D01*
X309270000Y-61449000D02*
X309832000Y-61554000D01*
X308123000Y-64477000D02*
X307756000Y-64233000D01*
X313416000Y-65409000D02*
X312479000Y-66346000D01*
X303717000Y-60296000D02*
X303354000Y-60296000D01*
X308791000Y-61150000D02*
X309270000Y-61449000D01*
X308454000Y-65504000D02*
X308454000Y-65282000D01*
X303719000Y-63609000D02*
X303634000Y-63182000D01*
X308987000Y-66037000D02*
X308454000Y-65504000D01*
X304191000Y-64081000D02*
X303908000Y-63892000D01*
X303354000Y-60296000D02*
X303354000Y-59354000D01*
X309732000Y-66346000D02*
X309329000Y-66266000D01*
X304518000Y-64146000D02*
X304191000Y-64081000D01*
X213191000Y-83081000D02*
X212908000Y-82892000D01*
X221479000Y-85346000D02*
X218732000Y-85346000D01*
X216318000Y-83146000D02*
X213518000Y-83146000D01*
X212354000Y-78354000D02*
X216440000Y-78354000D01*
X217367000Y-83844000D02*
X217123000Y-83477000D01*
X218732000Y-85346000D02*
X218329000Y-85266000D01*
X218270000Y-80449000D02*
X218832000Y-80554000D01*
X217987000Y-85037000D02*
X217454000Y-84504000D01*
X217454000Y-84504000D02*
X217454000Y-84282000D01*
X222416000Y-84409000D02*
X221479000Y-85346000D01*
X217024000Y-78583000D02*
X217217000Y-78841000D01*
X221479000Y-80554000D02*
X222500000Y-81575000D01*
X212908000Y-82892000D02*
X212719000Y-82609000D01*
X217454000Y-84282000D02*
X217367000Y-83844000D01*
X217791000Y-80150000D02*
X218270000Y-80449000D01*
X217299000Y-79139000D02*
X217453000Y-79697000D01*
X216750000Y-78413000D02*
X217024000Y-78583000D01*
X218832000Y-80554000D02*
X221479000Y-80554000D01*
X217123000Y-83477000D02*
X216756000Y-83233000D01*
X217217000Y-78841000D02*
X217299000Y-79139000D01*
X212354000Y-79296000D02*
X212354000Y-78354000D01*
X213518000Y-83146000D02*
X213191000Y-83081000D01*
X212719000Y-82609000D02*
X212634000Y-82182000D01*
X217453000Y-79697000D02*
X217791000Y-80150000D01*
X216440000Y-78354000D02*
X216750000Y-78413000D01*
X212717000Y-79296000D02*
X212354000Y-79296000D01*
X216756000Y-83233000D02*
X216318000Y-83146000D01*
X218329000Y-85266000D02*
X217987000Y-85037000D01*
X235453000Y-75697000D02*
X235791000Y-76150000D01*
X234756000Y-79233000D02*
X234318000Y-79146000D01*
X234318000Y-79146000D02*
X231518000Y-79146000D01*
X236732000Y-81346000D02*
X236329000Y-81266000D01*
X239479000Y-76554000D02*
X240500000Y-77575000D01*
X230719000Y-78609000D02*
X230634000Y-78182000D01*
X239479000Y-81346000D02*
X236732000Y-81346000D01*
X230908000Y-78892000D02*
X230719000Y-78609000D01*
X234440000Y-74354000D02*
X234750000Y-74413000D01*
X240416000Y-80409000D02*
X239479000Y-81346000D01*
X234750000Y-74413000D02*
X235024000Y-74583000D01*
X235367000Y-79844000D02*
X235123000Y-79477000D01*
X230354000Y-75296000D02*
X230354000Y-74354000D01*
X235217000Y-74841000D02*
X235299000Y-75139000D01*
X236270000Y-76449000D02*
X236832000Y-76554000D01*
X230354000Y-74354000D02*
X234440000Y-74354000D01*
X235987000Y-81037000D02*
X235454000Y-80504000D01*
X235454000Y-80504000D02*
X235454000Y-80282000D01*
X235024000Y-74583000D02*
X235217000Y-74841000D01*
X231518000Y-79146000D02*
X231191000Y-79081000D01*
X235791000Y-76150000D02*
X236270000Y-76449000D01*
X236329000Y-81266000D02*
X235987000Y-81037000D01*
X235299000Y-75139000D02*
X235453000Y-75697000D01*
X236832000Y-76554000D02*
X239479000Y-76554000D01*
X230717000Y-75296000D02*
X230354000Y-75296000D01*
X235454000Y-80282000D02*
X235367000Y-79844000D01*
X235123000Y-79477000D02*
X234756000Y-79233000D01*
X231191000Y-79081000D02*
X230908000Y-78892000D01*
X253299000Y-71139000D02*
X253453000Y-71697000D01*
X253217000Y-70841000D02*
X253299000Y-71139000D01*
X248719000Y-74609000D02*
X248634000Y-74182000D01*
X258416000Y-76409000D02*
X257479000Y-77346000D01*
X257479000Y-72554000D02*
X258500000Y-73575000D01*
X254329000Y-77266000D02*
X253987000Y-77037000D01*
X253987000Y-77037000D02*
X253454000Y-76504000D01*
X253454000Y-76504000D02*
X253454000Y-76282000D01*
X252440000Y-70354000D02*
X252750000Y-70413000D01*
X253123000Y-75477000D02*
X252756000Y-75233000D01*
X254270000Y-72449000D02*
X254832000Y-72554000D01*
X252750000Y-70413000D02*
X253024000Y-70583000D01*
X252318000Y-75146000D02*
X249518000Y-75146000D01*
X254832000Y-72554000D02*
X257479000Y-72554000D01*
X253453000Y-71697000D02*
X253791000Y-72150000D01*
X249518000Y-75146000D02*
X249191000Y-75081000D01*
X257479000Y-77346000D02*
X254732000Y-77346000D01*
X253024000Y-70583000D02*
X253217000Y-70841000D01*
X248354000Y-70354000D02*
X252440000Y-70354000D01*
X254732000Y-77346000D02*
X254329000Y-77266000D01*
X248717000Y-71296000D02*
X248354000Y-71296000D01*
X249191000Y-75081000D02*
X248908000Y-74892000D01*
X253454000Y-76282000D02*
X253367000Y-75844000D01*
X253367000Y-75844000D02*
X253123000Y-75477000D01*
X252756000Y-75233000D02*
X252318000Y-75146000D01*
X248354000Y-71296000D02*
X248354000Y-70354000D01*
X248908000Y-74892000D02*
X248719000Y-74609000D01*
X253791000Y-72150000D02*
X254270000Y-72449000D01*
X271454000Y-80282000D02*
X271367000Y-79844000D01*
X270756000Y-79233000D02*
X270318000Y-79146000D01*
X266719000Y-78609000D02*
X266634000Y-78182000D01*
X270318000Y-79146000D02*
X267518000Y-79146000D01*
X270750000Y-74413000D02*
X271024000Y-74583000D01*
X271367000Y-79844000D02*
X271123000Y-79477000D01*
X275479000Y-76554000D02*
X276500000Y-77575000D01*
X266717000Y-75296000D02*
X266354000Y-75296000D01*
X272832000Y-76554000D02*
X275479000Y-76554000D01*
X271987000Y-81037000D02*
X271454000Y-80504000D01*
X272732000Y-81346000D02*
X272329000Y-81266000D01*
X271454000Y-80504000D02*
X271454000Y-80282000D01*
X271453000Y-75697000D02*
X271791000Y-76150000D01*
X267191000Y-79081000D02*
X266908000Y-78892000D01*
X271024000Y-74583000D02*
X271217000Y-74841000D01*
X270440000Y-74354000D02*
X270750000Y-74413000D01*
X271791000Y-76150000D02*
X272270000Y-76449000D01*
X266908000Y-78892000D02*
X266719000Y-78609000D01*
X271299000Y-75139000D02*
X271453000Y-75697000D01*
X266354000Y-74354000D02*
X270440000Y-74354000D01*
X266354000Y-75296000D02*
X266354000Y-74354000D01*
X267518000Y-79146000D02*
X267191000Y-79081000D01*
X275479000Y-81346000D02*
X272732000Y-81346000D01*
X271217000Y-74841000D02*
X271299000Y-75139000D01*
X271123000Y-79477000D02*
X270756000Y-79233000D01*
X276416000Y-80409000D02*
X275479000Y-81346000D01*
X272270000Y-76449000D02*
X272832000Y-76554000D01*
X272329000Y-81266000D02*
X271987000Y-81037000D01*
X289756000Y-83233000D02*
X289318000Y-83146000D01*
X285717000Y-79296000D02*
X285354000Y-79296000D01*
X289318000Y-83146000D02*
X286518000Y-83146000D01*
X290791000Y-80150000D02*
X291270000Y-80449000D01*
X290454000Y-84282000D02*
X290367000Y-83844000D01*
X290453000Y-79697000D02*
X290791000Y-80150000D01*
X285908000Y-82892000D02*
X285719000Y-82609000D01*
X294479000Y-85346000D02*
X291732000Y-85346000D01*
X290454000Y-84504000D02*
X290454000Y-84282000D01*
X291732000Y-85346000D02*
X291329000Y-85266000D01*
X294479000Y-80554000D02*
X295500000Y-81575000D01*
X286191000Y-83081000D02*
X285908000Y-82892000D01*
X286518000Y-83146000D02*
X286191000Y-83081000D01*
X285354000Y-78354000D02*
X289440000Y-78354000D01*
X289750000Y-78413000D02*
X290024000Y-78583000D01*
X291329000Y-85266000D02*
X290987000Y-85037000D01*
X291832000Y-80554000D02*
X294479000Y-80554000D01*
X290987000Y-85037000D02*
X290454000Y-84504000D01*
X289440000Y-78354000D02*
X289750000Y-78413000D01*
X285354000Y-79296000D02*
X285354000Y-78354000D01*
X290217000Y-78841000D02*
X290299000Y-79139000D01*
X290123000Y-83477000D02*
X289756000Y-83233000D01*
X285719000Y-82609000D02*
X285634000Y-82182000D01*
X290367000Y-83844000D02*
X290123000Y-83477000D01*
X291270000Y-80449000D02*
X291832000Y-80554000D01*
X290024000Y-78583000D02*
X290217000Y-78841000D01*
X295416000Y-84409000D02*
X294479000Y-85346000D01*
X290299000Y-79139000D02*
X290453000Y-79697000D01*
X308453000Y-79697000D02*
X308791000Y-80150000D01*
X303354000Y-79296000D02*
X303354000Y-78354000D01*
X308791000Y-80150000D02*
X309270000Y-80449000D01*
X307756000Y-83233000D02*
X307318000Y-83146000D01*
X308024000Y-78583000D02*
X308217000Y-78841000D01*
X307750000Y-78413000D02*
X308024000Y-78583000D01*
X303354000Y-78354000D02*
X307440000Y-78354000D01*
X307318000Y-83146000D02*
X304518000Y-83146000D01*
X309832000Y-80554000D02*
X312479000Y-80554000D01*
X308367000Y-83844000D02*
X308123000Y-83477000D01*
X308299000Y-79139000D02*
X308453000Y-79697000D01*
X313416000Y-84409000D02*
X312479000Y-85346000D01*
X309270000Y-80449000D02*
X309832000Y-80554000D01*
X303908000Y-82892000D02*
X303719000Y-82609000D01*
X308454000Y-84282000D02*
X308367000Y-83844000D01*
X304191000Y-83081000D02*
X303908000Y-82892000D01*
X303719000Y-82609000D02*
X303634000Y-82182000D01*
X303717000Y-79296000D02*
X303354000Y-79296000D01*
X312479000Y-80554000D02*
X313500000Y-81575000D01*
X308987000Y-85037000D02*
X308454000Y-84504000D01*
X309329000Y-85266000D02*
X308987000Y-85037000D01*
X304518000Y-83146000D02*
X304191000Y-83081000D01*
X309732000Y-85346000D02*
X309329000Y-85266000D01*
X308123000Y-83477000D02*
X307756000Y-83233000D01*
X308217000Y-78841000D02*
X308299000Y-79139000D01*
X312479000Y-85346000D02*
X309732000Y-85346000D01*
X307440000Y-78354000D02*
X307750000Y-78413000D01*
X308454000Y-84504000D02*
X308454000Y-84282000D01*
X216318000Y-102146000D02*
X213518000Y-102146000D01*
X216756000Y-102233000D02*
X216318000Y-102146000D01*
X217024000Y-97583000D02*
X217217000Y-97841000D01*
X217454000Y-103282000D02*
X217367000Y-102844000D01*
X217299000Y-98139000D02*
X217453000Y-98697000D01*
X218832000Y-99554000D02*
X221479000Y-99554000D01*
X213191000Y-102081000D02*
X212908000Y-101892000D01*
X218270000Y-99449000D02*
X218832000Y-99554000D01*
X216440000Y-97354000D02*
X216750000Y-97413000D01*
X212719000Y-101609000D02*
X212634000Y-101182000D01*
X217367000Y-102844000D02*
X217123000Y-102477000D01*
X217987000Y-104037000D02*
X217454000Y-103504000D01*
X217123000Y-102477000D02*
X216756000Y-102233000D01*
X212354000Y-97354000D02*
X216440000Y-97354000D01*
X212908000Y-101892000D02*
X212719000Y-101609000D01*
X218329000Y-104266000D02*
X217987000Y-104037000D01*
X218732000Y-104346000D02*
X218329000Y-104266000D01*
X217791000Y-99150000D02*
X218270000Y-99449000D01*
X217217000Y-97841000D02*
X217299000Y-98139000D01*
X221479000Y-104346000D02*
X218732000Y-104346000D01*
X213518000Y-102146000D02*
X213191000Y-102081000D01*
X217454000Y-103504000D02*
X217454000Y-103282000D01*
X212354000Y-98296000D02*
X212354000Y-97354000D01*
X217453000Y-98697000D02*
X217791000Y-99150000D01*
X216750000Y-97413000D02*
X217024000Y-97583000D01*
X222416000Y-103409000D02*
X221479000Y-104346000D01*
X212717000Y-98296000D02*
X212354000Y-98296000D01*
X221479000Y-99554000D02*
X222500000Y-100575000D01*
X230717000Y-94296000D02*
X230354000Y-94296000D01*
X235299000Y-94139000D02*
X235453000Y-94697000D01*
X235454000Y-99504000D02*
X235454000Y-99282000D01*
X236329000Y-100266000D02*
X235987000Y-100037000D01*
X235024000Y-93583000D02*
X235217000Y-93841000D01*
X239479000Y-95554000D02*
X240500000Y-96575000D01*
X230908000Y-97892000D02*
X230719000Y-97609000D01*
X235367000Y-98844000D02*
X235123000Y-98477000D01*
X235987000Y-100037000D02*
X235454000Y-99504000D01*
X231518000Y-98146000D02*
X231191000Y-98081000D01*
X234750000Y-93413000D02*
X235024000Y-93583000D01*
X235123000Y-98477000D02*
X234756000Y-98233000D01*
X235791000Y-95150000D02*
X236270000Y-95449000D01*
X234318000Y-98146000D02*
X231518000Y-98146000D01*
X230719000Y-97609000D02*
X230634000Y-97182000D01*
X236270000Y-95449000D02*
X236832000Y-95554000D01*
X239479000Y-100346000D02*
X236732000Y-100346000D01*
X234756000Y-98233000D02*
X234318000Y-98146000D01*
X240416000Y-99409000D02*
X239479000Y-100346000D01*
X230354000Y-94296000D02*
X230354000Y-93354000D01*
X235453000Y-94697000D02*
X235791000Y-95150000D01*
X235454000Y-99282000D02*
X235367000Y-98844000D01*
X231191000Y-98081000D02*
X230908000Y-97892000D01*
X236832000Y-95554000D02*
X239479000Y-95554000D01*
X236732000Y-100346000D02*
X236329000Y-100266000D01*
X230354000Y-93354000D02*
X234440000Y-93354000D01*
X234440000Y-93354000D02*
X234750000Y-93413000D01*
X235217000Y-93841000D02*
X235299000Y-94139000D01*
X252440000Y-89354000D02*
X252750000Y-89413000D01*
X253367000Y-94844000D02*
X253123000Y-94477000D01*
X252750000Y-89413000D02*
X253024000Y-89583000D01*
X248354000Y-89354000D02*
X252440000Y-89354000D01*
X253217000Y-89841000D02*
X253299000Y-90139000D01*
X253454000Y-95282000D02*
X253367000Y-94844000D01*
X258416000Y-95409000D02*
X257479000Y-96346000D01*
X254732000Y-96346000D02*
X254329000Y-96266000D01*
X254329000Y-96266000D02*
X253987000Y-96037000D01*
X248719000Y-93609000D02*
X248634000Y-93182000D01*
X252318000Y-94146000D02*
X249518000Y-94146000D01*
X253987000Y-96037000D02*
X253454000Y-95504000D01*
X253453000Y-90697000D02*
X253791000Y-91150000D01*
X257479000Y-96346000D02*
X254732000Y-96346000D01*
X253791000Y-91150000D02*
X254270000Y-91449000D01*
X254832000Y-91554000D02*
X257479000Y-91554000D01*
X253024000Y-89583000D02*
X253217000Y-89841000D01*
X248354000Y-90296000D02*
X248354000Y-89354000D01*
X249191000Y-94081000D02*
X248908000Y-93892000D01*
X253454000Y-95504000D02*
X253454000Y-95282000D01*
X249518000Y-94146000D02*
X249191000Y-94081000D01*
X253299000Y-90139000D02*
X253453000Y-90697000D01*
X253123000Y-94477000D02*
X252756000Y-94233000D01*
X252756000Y-94233000D02*
X252318000Y-94146000D01*
X257479000Y-91554000D02*
X258500000Y-92575000D01*
X248908000Y-93892000D02*
X248719000Y-93609000D01*
X248717000Y-90296000D02*
X248354000Y-90296000D01*
X254270000Y-91449000D02*
X254832000Y-91554000D01*
X267518000Y-98146000D02*
X267191000Y-98081000D01*
X271217000Y-93841000D02*
X271299000Y-94139000D01*
X270440000Y-93354000D02*
X270750000Y-93413000D01*
X272270000Y-95449000D02*
X272832000Y-95554000D01*
X271024000Y-93583000D02*
X271217000Y-93841000D01*
X271454000Y-99504000D02*
X271454000Y-99282000D01*
X266717000Y-94296000D02*
X266354000Y-94296000D01*
X270750000Y-93413000D02*
X271024000Y-93583000D01*
X271367000Y-98844000D02*
X271123000Y-98477000D01*
X266908000Y-97892000D02*
X266719000Y-97609000D01*
X271123000Y-98477000D02*
X270756000Y-98233000D01*
X271453000Y-94697000D02*
X271791000Y-95150000D01*
X272329000Y-100266000D02*
X271987000Y-100037000D01*
X271299000Y-94139000D02*
X271453000Y-94697000D01*
X266719000Y-97609000D02*
X266634000Y-97182000D01*
X275479000Y-95554000D02*
X276500000Y-96575000D01*
X266354000Y-94296000D02*
X266354000Y-93354000D01*
X266354000Y-93354000D02*
X270440000Y-93354000D01*
X276416000Y-99409000D02*
X275479000Y-100346000D01*
X271791000Y-95150000D02*
X272270000Y-95449000D01*
X272832000Y-95554000D02*
X275479000Y-95554000D01*
X271987000Y-100037000D02*
X271454000Y-99504000D01*
X271454000Y-99282000D02*
X271367000Y-98844000D01*
X272732000Y-100346000D02*
X272329000Y-100266000D01*
X275479000Y-100346000D02*
X272732000Y-100346000D01*
X267191000Y-98081000D02*
X266908000Y-97892000D01*
X270318000Y-98146000D02*
X267518000Y-98146000D01*
X270756000Y-98233000D02*
X270318000Y-98146000D01*
X286518000Y-102146000D02*
X286191000Y-102081000D01*
X290123000Y-102477000D02*
X289756000Y-102233000D01*
X290024000Y-97583000D02*
X290217000Y-97841000D01*
X290454000Y-103282000D02*
X290367000Y-102844000D01*
X290454000Y-103504000D02*
X290454000Y-103282000D01*
X289750000Y-97413000D02*
X290024000Y-97583000D01*
X294479000Y-104346000D02*
X291732000Y-104346000D01*
X295416000Y-103409000D02*
X294479000Y-104346000D01*
X291832000Y-99554000D02*
X294479000Y-99554000D01*
X289318000Y-102146000D02*
X286518000Y-102146000D01*
X291329000Y-104266000D02*
X290987000Y-104037000D01*
X294479000Y-99554000D02*
X295500000Y-100575000D01*
X290791000Y-99150000D02*
X291270000Y-99449000D01*
X290299000Y-98139000D02*
X290453000Y-98697000D01*
X290367000Y-102844000D02*
X290123000Y-102477000D01*
X285354000Y-97354000D02*
X289440000Y-97354000D01*
X290217000Y-97841000D02*
X290299000Y-98139000D01*
X285719000Y-101609000D02*
X285634000Y-101182000D01*
X290987000Y-104037000D02*
X290454000Y-103504000D01*
X285354000Y-98296000D02*
X285354000Y-97354000D01*
X291270000Y-99449000D02*
X291832000Y-99554000D01*
X285908000Y-101892000D02*
X285719000Y-101609000D01*
X290453000Y-98697000D02*
X290791000Y-99150000D01*
X285717000Y-98296000D02*
X285354000Y-98296000D01*
X291732000Y-104346000D02*
X291329000Y-104266000D01*
X286191000Y-102081000D02*
X285908000Y-101892000D01*
X289440000Y-97354000D02*
X289750000Y-97413000D01*
X289756000Y-102233000D02*
X289318000Y-102146000D01*
X303354000Y-98296000D02*
X303354000Y-97354000D01*
X308454000Y-103504000D02*
X308454000Y-103282000D01*
X312479000Y-104346000D02*
X309732000Y-104346000D01*
X304191000Y-102081000D02*
X303908000Y-101892000D01*
X309732000Y-104346000D02*
X309329000Y-104266000D01*
X303717000Y-98296000D02*
X303354000Y-98296000D01*
X308123000Y-102477000D02*
X307756000Y-102233000D01*
X308791000Y-99150000D02*
X309270000Y-99449000D01*
X309270000Y-99449000D02*
X309832000Y-99554000D01*
X313416000Y-103409000D02*
X312479000Y-104346000D01*
X304518000Y-102146000D02*
X304191000Y-102081000D01*
X309832000Y-99554000D02*
X312479000Y-99554000D01*
X308299000Y-98139000D02*
X308453000Y-98697000D01*
X308454000Y-103282000D02*
X308367000Y-102844000D01*
X312479000Y-99554000D02*
X313500000Y-100575000D01*
X308024000Y-97583000D02*
X308217000Y-97841000D01*
X308367000Y-102844000D02*
X308123000Y-102477000D01*
X308217000Y-97841000D02*
X308299000Y-98139000D01*
X307440000Y-97354000D02*
X307750000Y-97413000D01*
X303908000Y-101892000D02*
X303719000Y-101609000D01*
X309329000Y-104266000D02*
X308987000Y-104037000D01*
X307318000Y-102146000D02*
X304518000Y-102146000D01*
X303354000Y-97354000D02*
X307440000Y-97354000D01*
X308987000Y-104037000D02*
X308454000Y-103504000D01*
X308453000Y-98697000D02*
X308791000Y-99150000D01*
X307750000Y-97413000D02*
X308024000Y-97583000D01*
X303719000Y-101609000D02*
X303634000Y-101182000D01*
X307756000Y-102233000D02*
X307318000Y-102146000D01*
X200922820Y-125377071D02*
X200973611Y-124939298D01*
X204141515Y-125024372D02*
X204303102Y-125572787D01*
X202483038Y-119229726D02*
X203322366Y-118802067D01*
X200706594Y-125761091D02*
X200922820Y-125377071D01*
X200158027Y-126138242D02*
X200355831Y-126037456D01*
X205096201Y-123356125D02*
X204867909Y-123564477D01*
X204190464Y-124461837D02*
X204141515Y-125024372D01*
X200355831Y-126037456D02*
X200706594Y-125761091D01*
X205265539Y-122745717D02*
X205238461Y-123067032D01*
X199988000Y-127659208D02*
X199876322Y-127263814D01*
X202647836Y-119553162D02*
X202483038Y-119229726D01*
X199696840Y-121059014D02*
X200038710Y-120789425D01*
X200973611Y-124939298D02*
X200852281Y-124509540D01*
X199530489Y-121355894D02*
X199696840Y-121059014D01*
X202495374Y-130516287D02*
X201235111Y-130106803D01*
X199490568Y-121693853D02*
X199530489Y-121355894D01*
X204303102Y-125572787D02*
X205504815Y-127931281D01*
X199876322Y-127263814D02*
X199925098Y-126855126D01*
X203322366Y-118802067D02*
X205177371Y-122442720D01*
X199925098Y-126855126D02*
X200158027Y-126138242D01*
X205238461Y-123067032D02*
X205096201Y-123356125D01*
X200852281Y-124509540D02*
X199581107Y-122014721D01*
X204440642Y-123955019D02*
X204190464Y-124461837D01*
X204867909Y-123564477D02*
X204440642Y-123955019D01*
X199581107Y-122014721D02*
X199490568Y-121693853D01*
X201235111Y-130106803D02*
X199988000Y-127659208D01*
X205177371Y-122442720D02*
X205265539Y-122745717D01*
X205504815Y-127931281D02*
X205058621Y-129304523D01*
X222038878Y-125034000D02*
X221803607Y-124788119D01*
X222350399Y-125170986D02*
X222038878Y-125034000D01*
X230905798Y-125962380D02*
X228200531Y-126439391D01*
X231665855Y-124876907D02*
X230905798Y-125962380D01*
X226291427Y-124878186D02*
X225887633Y-124701621D01*
X221226341Y-121525798D02*
X220868856Y-121588833D01*
X227789762Y-126430587D02*
X227413192Y-126264454D01*
X226371551Y-121485733D02*
X226895195Y-121697013D01*
X226757185Y-125613478D02*
X226595449Y-125197240D01*
X225960024Y-121098308D02*
X226371551Y-121485733D01*
X225044740Y-119955890D02*
X225344097Y-120075728D01*
X226795735Y-125832106D02*
X226757185Y-125613478D01*
X220868856Y-121588833D02*
X220705280Y-120661144D01*
X225441180Y-124692001D02*
X222683718Y-125178216D01*
X222683718Y-125178216D02*
X222350399Y-125170986D01*
X228200531Y-126439391D02*
X227789762Y-126430587D01*
X225578966Y-120296294D02*
X225711468Y-120575528D01*
X225711468Y-120575528D02*
X225960024Y-121098308D01*
X230073676Y-121243181D02*
X231256460Y-122071375D01*
X227466890Y-121702828D02*
X230073676Y-121243181D01*
X226895195Y-121697013D02*
X227466890Y-121702828D01*
X225887633Y-124701621D02*
X225441180Y-124692001D01*
X226595449Y-125197240D02*
X226291427Y-124878186D01*
X224729204Y-119951617D02*
X225044740Y-119955890D01*
X225344097Y-120075728D02*
X225578966Y-120296294D01*
X220705280Y-120661144D02*
X224729204Y-119951617D01*
X227413192Y-126264454D02*
X226795735Y-125832106D01*
X221803607Y-124788119D02*
X221645751Y-124382366D01*
X240719000Y-121609000D02*
X240634000Y-121182000D01*
X245367000Y-122844000D02*
X245123000Y-122477000D01*
X245299000Y-118139000D02*
X245453000Y-118697000D01*
X245123000Y-122477000D02*
X244756000Y-122233000D01*
X241191000Y-122081000D02*
X240908000Y-121892000D01*
X246329000Y-124266000D02*
X245987000Y-124037000D01*
X245791000Y-119150000D02*
X246270000Y-119449000D01*
X246732000Y-124346000D02*
X246329000Y-124266000D01*
X240354000Y-118296000D02*
X240354000Y-117354000D01*
X245453000Y-118697000D02*
X245791000Y-119150000D01*
X245217000Y-117841000D02*
X245299000Y-118139000D01*
X241518000Y-122146000D02*
X241191000Y-122081000D01*
X244756000Y-122233000D02*
X244318000Y-122146000D01*
X246270000Y-119449000D02*
X246832000Y-119554000D01*
X244318000Y-122146000D02*
X241518000Y-122146000D01*
X245454000Y-123504000D02*
X245454000Y-123282000D01*
X240717000Y-118296000D02*
X240354000Y-118296000D01*
X250416000Y-123409000D02*
X249479000Y-124346000D01*
X245987000Y-124037000D02*
X245454000Y-123504000D01*
X244440000Y-117354000D02*
X244750000Y-117413000D01*
X245454000Y-123282000D02*
X245367000Y-122844000D01*
X240908000Y-121892000D02*
X240719000Y-121609000D01*
X246832000Y-119554000D02*
X249479000Y-119554000D01*
X244750000Y-117413000D02*
X245024000Y-117583000D01*
X249479000Y-124346000D02*
X246732000Y-124346000D01*
X245024000Y-117583000D02*
X245217000Y-117841000D01*
X240354000Y-117354000D02*
X244440000Y-117354000D01*
X249479000Y-119554000D02*
X250500000Y-120575000D01*
X41000000Y-53750000D02*
X43000000Y-53750000D01*
X43000000Y-53750000D02*
X43000000Y-57650000D01*
X41000000Y-53750000D02*
X41000000Y-57650000D01*
X60000000Y-53750000D02*
X60000000Y-57650000D01*
X58000000Y-53750000D02*
X58000000Y-57650000D01*
X58000000Y-53750000D02*
X60000000Y-53750000D01*
X77000000Y-51750000D02*
X79000000Y-51750000D01*
X77000000Y-51750000D02*
X77000000Y-55650000D01*
X79000000Y-51750000D02*
X79000000Y-55650000D01*
X97000000Y-47650000D02*
X97000000Y-51550000D01*
X95000000Y-47650000D02*
X97000000Y-47650000D01*
X95000000Y-47650000D02*
X95000000Y-51550000D01*
X113100000Y-50050000D02*
X113100000Y-53950000D01*
X115100000Y-50050000D02*
X115100000Y-53950000D01*
X113100000Y-50050000D02*
X115100000Y-50050000D01*
X131000000Y-53750000D02*
X133000000Y-53750000D01*
X131000000Y-53750000D02*
X131000000Y-57650000D01*
X133000000Y-53750000D02*
X133000000Y-57650000D01*
X41000000Y-72750000D02*
X43000000Y-72750000D01*
X41000000Y-72750000D02*
X41000000Y-76650000D01*
X43000000Y-72750000D02*
X43000000Y-76650000D01*
X59000000Y-72750000D02*
X59000000Y-76650000D01*
X59000000Y-72750000D02*
X61000000Y-72750000D01*
X61000000Y-72750000D02*
X61000000Y-76650000D01*
X77000000Y-68750000D02*
X79000000Y-68750000D01*
X77000000Y-68750000D02*
X77000000Y-72650000D01*
X79000000Y-68750000D02*
X79000000Y-72650000D01*
X97000000Y-64750000D02*
X97000000Y-68650000D01*
X95000000Y-64750000D02*
X95000000Y-68650000D01*
X95000000Y-64750000D02*
X97000000Y-64750000D01*
X113000000Y-68750000D02*
X113000000Y-72650000D01*
X113000000Y-68750000D02*
X115000000Y-68750000D01*
X115000000Y-68750000D02*
X115000000Y-72650000D01*
X131000000Y-72750000D02*
X133000000Y-72750000D01*
X133000000Y-72750000D02*
X133000000Y-76650000D01*
X131000000Y-72750000D02*
X131000000Y-76650000D01*
X43000000Y-91750000D02*
X43000000Y-95650000D01*
X41000000Y-91750000D02*
X43000000Y-91750000D01*
X41000000Y-91750000D02*
X41000000Y-95650000D01*
X59000000Y-91750000D02*
X61000000Y-91750000D01*
X61000000Y-91750000D02*
X61000000Y-95650000D01*
X59000000Y-91750000D02*
X59000000Y-95650000D01*
X79000000Y-87750000D02*
X79000000Y-91650000D01*
X77000000Y-87750000D02*
X77000000Y-91650000D01*
X77000000Y-87750000D02*
X79000000Y-87750000D01*
X97000000Y-83750000D02*
X97000000Y-87650000D01*
X95000000Y-83750000D02*
X97000000Y-83750000D01*
X95000000Y-83750000D02*
X95000000Y-87650000D01*
X113000000Y-87750000D02*
X115000000Y-87750000D01*
X115000000Y-87750000D02*
X115000000Y-91650000D01*
X113000000Y-87750000D02*
X113000000Y-91650000D01*
X131000000Y-90750000D02*
X131000000Y-94650000D01*
X131000000Y-90750000D02*
X133000000Y-90750000D01*
X133000000Y-90750000D02*
X133000000Y-94650000D01*
X104000000Y-110750000D02*
X104000000Y-114650000D01*
X102000000Y-110750000D02*
X102000000Y-114650000D01*
X102000000Y-110750000D02*
X104000000Y-110750000D01*
X122000000Y-110750000D02*
X124000000Y-110750000D01*
X122000000Y-110750000D02*
X122000000Y-114650000D01*
X124000000Y-110750000D02*
X124000000Y-114650000D01*
X147000000Y-113750000D02*
X147000000Y-117650000D01*
X145000000Y-113750000D02*
X145000000Y-117650000D01*
X145000000Y-113750000D02*
X147000000Y-113750000D01*
X210000000Y-54750000D02*
X212000000Y-54750000D01*
X212000000Y-54750000D02*
X212000000Y-58650000D01*
X210000000Y-54750000D02*
X210000000Y-58650000D01*
X228000000Y-51450000D02*
X228000000Y-55350000D01*
X228000000Y-51450000D02*
X230000000Y-51450000D01*
X230000000Y-51450000D02*
X230000000Y-55350000D01*
X248000000Y-47750000D02*
X248000000Y-51650000D01*
X246000000Y-47750000D02*
X246000000Y-51650000D01*
X246000000Y-47750000D02*
X248000000Y-47750000D01*
X264000000Y-50750000D02*
X266000000Y-50750000D01*
X264000000Y-50750000D02*
X264000000Y-54650000D01*
X266000000Y-50750000D02*
X266000000Y-54650000D01*
X282000000Y-52750000D02*
X282000000Y-56650000D01*
X284000000Y-52750000D02*
X284000000Y-56650000D01*
X282000000Y-52750000D02*
X284000000Y-52750000D01*
X301000000Y-52750000D02*
X301000000Y-56650000D01*
X301000000Y-52750000D02*
X303000000Y-52750000D01*
X303000000Y-52750000D02*
X303000000Y-56650000D01*
X212000000Y-71750000D02*
X212000000Y-75650000D01*
X210000000Y-71750000D02*
X212000000Y-71750000D01*
X210000000Y-71750000D02*
X210000000Y-75650000D01*
X228000000Y-67400000D02*
X228000000Y-71300000D01*
X228000000Y-67400000D02*
X230000000Y-67400000D01*
X230000000Y-67400000D02*
X230000000Y-71300000D01*
X246000000Y-64750000D02*
X246000000Y-68650000D01*
X248000000Y-64750000D02*
X248000000Y-68650000D01*
X246000000Y-64750000D02*
X248000000Y-64750000D01*
X264000000Y-67750000D02*
X264000000Y-71650000D01*
X266000000Y-67750000D02*
X266000000Y-71650000D01*
X264000000Y-67750000D02*
X266000000Y-67750000D01*
X282000000Y-71750000D02*
X282000000Y-75650000D01*
X284000000Y-71750000D02*
X284000000Y-75650000D01*
X282000000Y-71750000D02*
X284000000Y-71750000D01*
X303000000Y-71750000D02*
X303000000Y-75650000D01*
X301000000Y-71750000D02*
X301000000Y-75650000D01*
X301000000Y-71750000D02*
X303000000Y-71750000D01*
X210000000Y-90750000D02*
X210000000Y-94650000D01*
X212000000Y-90750000D02*
X212000000Y-94650000D01*
X210000000Y-90750000D02*
X212000000Y-90750000D01*
X228000000Y-86750000D02*
X230000000Y-86750000D01*
X230000000Y-86750000D02*
X230000000Y-90650000D01*
X228000000Y-86750000D02*
X228000000Y-90650000D01*
X248000000Y-83750000D02*
X248000000Y-87650000D01*
X246000000Y-83750000D02*
X248000000Y-83750000D01*
X246000000Y-83750000D02*
X246000000Y-87650000D01*
X264000000Y-86750000D02*
X266000000Y-86750000D01*
X266000000Y-86750000D02*
X266000000Y-90650000D01*
X264000000Y-86750000D02*
X264000000Y-90650000D01*
X284000000Y-90750000D02*
X284000000Y-94650000D01*
X282000000Y-90750000D02*
X282000000Y-94650000D01*
X282000000Y-90750000D02*
X284000000Y-90750000D01*
X301000000Y-90750000D02*
X301000000Y-94650000D01*
X303000000Y-90750000D02*
X303000000Y-94650000D01*
X301000000Y-90750000D02*
X303000000Y-90750000D01*
X211000000Y-109750000D02*
X213000000Y-109750000D01*
X211000000Y-109750000D02*
X211000000Y-113650000D01*
X213000000Y-109750000D02*
X213000000Y-113650000D01*
X217000000Y-109750000D02*
X219000000Y-109750000D01*
X219000000Y-109750000D02*
X219000000Y-113650000D01*
X217000000Y-109750000D02*
X217000000Y-113650000D01*
X240000000Y-109750000D02*
X240000000Y-113650000D01*
X238000000Y-109750000D02*
X240000000Y-109750000D01*
X238000000Y-109750000D02*
X238000000Y-113650000D01*
%LPC*%
D12*
X167000000Y-58000000D03*
D13*
X167000000Y-57000000D03*
X168000000Y-58000000D03*
X168000000Y-57000000D03*
X169000000Y-58000000D03*
X169000000Y-57000000D03*
X170000000Y-58000000D03*
X170000000Y-57000000D03*
X171000000Y-58000000D03*
X171000000Y-57000000D03*
D14*
X156000000Y-56000000D03*
D15*
X156650000Y-57000000D03*
X157300000Y-56000000D03*
X157950000Y-57000000D03*
X158600000Y-56000000D03*
D16*
X160875000Y-56220000D03*
X153725000Y-56220000D03*
D12*
X191800000Y-56200000D03*
D13*
X191800000Y-57200000D03*
X190800000Y-56200000D03*
X190800000Y-57200000D03*
X189800000Y-56200000D03*
X189800000Y-57200000D03*
X188800000Y-56200000D03*
X188800000Y-57200000D03*
X187800000Y-56200000D03*
X187800000Y-57200000D03*
D14*
X201500000Y-55880000D03*
D15*
X202150000Y-56880000D03*
X202800000Y-55880000D03*
X203450000Y-56880000D03*
X204100000Y-55880000D03*
D16*
X206375000Y-56100000D03*
X199225000Y-56100000D03*
D17*
X45500000Y-59000000D03*
D18*
X56000000Y-53850000D03*
D17*
X56500000Y-59000000D03*
D19*
X51000000Y-64900000D03*
X46000000Y-62800000D03*
D20*
X51000000Y-59000000D03*
D21*
X54500000Y-65000000D03*
X42500000Y-62800000D03*
D19*
X64000000Y-62800000D03*
X69000000Y-64900000D03*
D17*
X63500000Y-59000000D03*
D20*
X69000000Y-59000000D03*
D18*
X74000000Y-53850000D03*
D17*
X74500000Y-59000000D03*
D21*
X72500000Y-65000000D03*
X60500000Y-62800000D03*
D18*
X92000000Y-49850000D03*
D17*
X92500000Y-55000000D03*
X81500000Y-55000000D03*
D19*
X82000000Y-58800000D03*
X87000000Y-60900000D03*
D20*
X87000000Y-55000000D03*
D21*
X90500000Y-61000000D03*
X78500000Y-58800000D03*
D18*
X110000000Y-45850000D03*
D17*
X99500000Y-51000000D03*
X110500000Y-51000000D03*
D20*
X105000000Y-51000000D03*
D19*
X100000000Y-54800000D03*
X105000000Y-56900000D03*
D21*
X108500000Y-57000000D03*
X96500000Y-54800000D03*
D19*
X123000000Y-60900000D03*
D18*
X128000000Y-49850000D03*
D20*
X123000000Y-55000000D03*
D17*
X117500000Y-55000000D03*
D19*
X118000000Y-58800000D03*
D17*
X128500000Y-55000000D03*
D21*
X126500000Y-61000000D03*
X114500000Y-58800000D03*
D17*
X135500000Y-59000000D03*
D20*
X141000000Y-59000000D03*
D18*
X146000000Y-53850000D03*
D19*
X141000000Y-64900000D03*
D17*
X146500000Y-59000000D03*
D19*
X136000000Y-62800000D03*
D21*
X144500000Y-65000000D03*
X132500000Y-62800000D03*
D17*
X56500000Y-78000000D03*
X45500000Y-78000000D03*
D18*
X56000000Y-72850000D03*
D19*
X51000000Y-83900000D03*
D20*
X51000000Y-78000000D03*
D19*
X46000000Y-81800000D03*
D21*
X54500000Y-84000000D03*
X42500000Y-81800000D03*
D20*
X69000000Y-78000000D03*
D17*
X74500000Y-78000000D03*
D19*
X64000000Y-81800000D03*
X69000000Y-83900000D03*
D18*
X74000000Y-72850000D03*
D17*
X63500000Y-78000000D03*
D21*
X72500000Y-84000000D03*
X60500000Y-81800000D03*
D20*
X87000000Y-74000000D03*
D19*
X87000000Y-79900000D03*
D17*
X92500000Y-74000000D03*
D18*
X92000000Y-68850000D03*
D17*
X81500000Y-74000000D03*
D19*
X82000000Y-77800000D03*
D21*
X90500000Y-80000000D03*
X78500000Y-77800000D03*
D17*
X99500000Y-70000000D03*
D19*
X100000000Y-73800000D03*
D20*
X105000000Y-70000000D03*
D18*
X110000000Y-64850000D03*
D19*
X105000000Y-75900000D03*
D17*
X110500000Y-70000000D03*
D21*
X108500000Y-76000000D03*
X96500000Y-73800000D03*
D18*
X128000000Y-68850000D03*
D20*
X123000000Y-74000000D03*
D19*
X123000000Y-79900000D03*
D17*
X128500000Y-74000000D03*
D19*
X118000000Y-77800000D03*
D17*
X117500000Y-74000000D03*
D21*
X126500000Y-80000000D03*
X114500000Y-77800000D03*
D17*
X146500000Y-78000000D03*
D19*
X136000000Y-81800000D03*
D17*
X135500000Y-78000000D03*
D20*
X141000000Y-78000000D03*
D18*
X146000000Y-72850000D03*
D19*
X141000000Y-83900000D03*
D21*
X144500000Y-84000000D03*
X132500000Y-81800000D03*
D20*
X51000000Y-97000000D03*
D19*
X46000000Y-100800000D03*
D18*
X56000000Y-91850000D03*
D19*
X51000000Y-102900000D03*
D17*
X56500000Y-97000000D03*
X45500000Y-97000000D03*
D21*
X54500000Y-103000000D03*
X42500000Y-100800000D03*
D19*
X64000000Y-100800000D03*
D18*
X74000000Y-91850000D03*
D19*
X69000000Y-102900000D03*
D20*
X69000000Y-97000000D03*
D17*
X74500000Y-97000000D03*
X63500000Y-97000000D03*
D21*
X72500000Y-103000000D03*
X60500000Y-100800000D03*
D18*
X92000000Y-87850000D03*
D19*
X82000000Y-96800000D03*
D17*
X92500000Y-93000000D03*
D19*
X87000000Y-98900000D03*
D20*
X87000000Y-93000000D03*
D17*
X81500000Y-93000000D03*
D21*
X90500000Y-99000000D03*
X78500000Y-96800000D03*
D19*
X105000000Y-94900000D03*
D17*
X110500000Y-89000000D03*
X99500000Y-89000000D03*
D20*
X105000000Y-89000000D03*
D18*
X110000000Y-83850000D03*
D19*
X100000000Y-92800000D03*
D21*
X108500000Y-95000000D03*
X96500000Y-92800000D03*
D17*
X128500000Y-93000000D03*
D19*
X118000000Y-96800000D03*
D20*
X123000000Y-93000000D03*
D18*
X128000000Y-87850000D03*
D17*
X117500000Y-93000000D03*
D19*
X123000000Y-98900000D03*
D21*
X126500000Y-99000000D03*
X114500000Y-96800000D03*
D19*
X136000000Y-99800000D03*
D17*
X135500000Y-96000000D03*
X146500000Y-96000000D03*
D19*
X141000000Y-101900000D03*
D20*
X141000000Y-96000000D03*
D18*
X146000000Y-90850000D03*
D21*
X144500000Y-102000000D03*
X132500000Y-99800000D03*
D17*
X106500000Y-115790000D03*
X117500000Y-115790000D03*
D19*
X107000000Y-119590000D03*
D18*
X117000000Y-110640000D03*
D19*
X112000000Y-121690000D03*
D20*
X112000000Y-115790000D03*
D21*
X115500000Y-121790000D03*
X103500000Y-119590000D03*
D20*
X132000000Y-118000000D03*
D17*
X126583557Y-117044935D03*
X137416443Y-118955065D03*
D18*
X137818327Y-113796481D03*
D19*
X130975476Y-123810366D03*
X126416098Y-120874029D03*
D22*
X134404938Y-124516615D03*
X122969271Y-120266260D03*
D20*
X153000000Y-123000000D03*
D19*
X158347216Y-125493448D03*
D18*
X150445606Y-116291977D03*
D19*
X154330878Y-129137488D03*
D17*
X155324400Y-118015307D03*
X150675600Y-127984693D03*
D23*
X159917011Y-122363632D03*
X152851714Y-132309566D03*
D19*
X215000000Y-61800000D03*
D18*
X225000000Y-52850000D03*
D17*
X225500000Y-58000000D03*
D20*
X220000000Y-58000000D03*
D17*
X214500000Y-58000000D03*
D19*
X220000000Y-63900000D03*
D21*
X223500000Y-64000000D03*
X211500000Y-61800000D03*
D19*
X238000000Y-59900000D03*
X233000000Y-57800000D03*
D17*
X243500000Y-54000000D03*
X232500000Y-54000000D03*
D18*
X243000000Y-48850000D03*
D20*
X238000000Y-54000000D03*
D21*
X241500000Y-60000000D03*
X229500000Y-57800000D03*
D19*
X256000000Y-55900000D03*
D17*
X261500000Y-50000000D03*
X250500000Y-50000000D03*
D20*
X256000000Y-50000000D03*
D18*
X261000000Y-44850000D03*
D19*
X251000000Y-53800000D03*
D21*
X259500000Y-56000000D03*
X247500000Y-53800000D03*
D17*
X279500000Y-54000000D03*
X268500000Y-54000000D03*
D19*
X269000000Y-57800000D03*
D18*
X279000000Y-48850000D03*
D20*
X274000000Y-54000000D03*
D19*
X274000000Y-59900000D03*
D21*
X277500000Y-60000000D03*
X265500000Y-57800000D03*
D17*
X298500000Y-58000000D03*
D19*
X293000000Y-63900000D03*
X288000000Y-61800000D03*
D20*
X293000000Y-58000000D03*
D17*
X287500000Y-58000000D03*
D18*
X298000000Y-52850000D03*
D21*
X296500000Y-64000000D03*
X284500000Y-61800000D03*
D19*
X311000000Y-63900000D03*
D17*
X305500000Y-58000000D03*
D20*
X311000000Y-58000000D03*
D17*
X316500000Y-58000000D03*
D18*
X316000000Y-52850000D03*
D19*
X306000000Y-61800000D03*
D21*
X314500000Y-64000000D03*
X302500000Y-61800000D03*
D19*
X220000000Y-82900000D03*
D17*
X214500000Y-77000000D03*
D20*
X220000000Y-77000000D03*
D19*
X215000000Y-80800000D03*
D18*
X225000000Y-71850000D03*
D17*
X225500000Y-77000000D03*
D21*
X223500000Y-83000000D03*
X211500000Y-80800000D03*
D19*
X233000000Y-76800000D03*
D17*
X243500000Y-73000000D03*
D20*
X238000000Y-73000000D03*
D18*
X243000000Y-67850000D03*
D17*
X232500000Y-73000000D03*
D19*
X238000000Y-78900000D03*
D21*
X241500000Y-79000000D03*
X229500000Y-76800000D03*
D18*
X261000000Y-63850000D03*
D19*
X256000000Y-74900000D03*
D17*
X250500000Y-69000000D03*
D19*
X251000000Y-72800000D03*
D20*
X256000000Y-69000000D03*
D17*
X261500000Y-69000000D03*
D21*
X259500000Y-75000000D03*
X247500000Y-72800000D03*
D19*
X269000000Y-76800000D03*
D17*
X268500000Y-73000000D03*
D18*
X279000000Y-67850000D03*
D17*
X279500000Y-73000000D03*
D19*
X274000000Y-78900000D03*
D20*
X274000000Y-73000000D03*
D21*
X277500000Y-79000000D03*
X265500000Y-76800000D03*
D20*
X293000000Y-77000000D03*
D19*
X288000000Y-80800000D03*
D17*
X298500000Y-77000000D03*
D19*
X293000000Y-82900000D03*
D18*
X298000000Y-71850000D03*
D17*
X287500000Y-77000000D03*
D21*
X296500000Y-83000000D03*
X284500000Y-80800000D03*
D19*
X306000000Y-80800000D03*
D18*
X316000000Y-71850000D03*
D17*
X316500000Y-77000000D03*
X305500000Y-77000000D03*
D20*
X311000000Y-77000000D03*
D19*
X311000000Y-82900000D03*
D21*
X314500000Y-83000000D03*
X302500000Y-80800000D03*
D18*
X225000000Y-90850000D03*
D17*
X225500000Y-96000000D03*
D19*
X215000000Y-99800000D03*
X220000000Y-101900000D03*
D20*
X220000000Y-96000000D03*
D17*
X214500000Y-96000000D03*
D21*
X223500000Y-102000000D03*
X211500000Y-99800000D03*
D20*
X238000000Y-92000000D03*
D17*
X232500000Y-92000000D03*
D19*
X233000000Y-95800000D03*
X238000000Y-97900000D03*
D17*
X243500000Y-92000000D03*
D18*
X243000000Y-86850000D03*
D21*
X241500000Y-98000000D03*
X229500000Y-95800000D03*
D19*
X256000000Y-93900000D03*
D20*
X256000000Y-88000000D03*
D19*
X251000000Y-91800000D03*
D18*
X261000000Y-82850000D03*
D17*
X250500000Y-88000000D03*
X261500000Y-88000000D03*
D21*
X259500000Y-94000000D03*
X247500000Y-91800000D03*
D19*
X274000000Y-97900000D03*
D17*
X268500000Y-92000000D03*
D19*
X269000000Y-95800000D03*
D18*
X279000000Y-86850000D03*
D17*
X279500000Y-92000000D03*
D20*
X274000000Y-92000000D03*
D21*
X277500000Y-98000000D03*
X265500000Y-95800000D03*
D17*
X298500000Y-96000000D03*
D18*
X298000000Y-90850000D03*
D17*
X287500000Y-96000000D03*
D19*
X288000000Y-99800000D03*
X293000000Y-101900000D03*
D20*
X293000000Y-96000000D03*
D21*
X296500000Y-102000000D03*
X284500000Y-99800000D03*
D17*
X305500000Y-96000000D03*
D20*
X311000000Y-96000000D03*
D19*
X306000000Y-99800000D03*
X311000000Y-101900000D03*
D18*
X316000000Y-90850000D03*
D17*
X316500000Y-96000000D03*
D21*
X314500000Y-102000000D03*
X302500000Y-99800000D03*
D19*
X202344223Y-122270131D03*
D17*
X210496948Y-129900536D03*
D20*
X208000000Y-125000000D03*
D18*
X214858636Y-127116982D03*
D17*
X205503052Y-120099464D03*
D19*
X202743062Y-127678544D03*
D24*
X204242928Y-130842466D03*
X200755256Y-119151608D03*
D19*
X223735824Y-122610510D03*
D20*
X228000000Y-118000000D03*
D19*
X229024524Y-123810366D03*
D17*
X233416443Y-117044935D03*
X222583557Y-118955065D03*
D18*
X232029751Y-112059999D03*
D25*
X232488716Y-123301078D03*
X220288997Y-123218279D03*
D20*
X248000000Y-116000000D03*
D17*
X253500000Y-116000000D03*
D19*
X243000000Y-119800000D03*
X248000000Y-121900000D03*
D18*
X253000000Y-110850000D03*
D17*
X242500000Y-116000000D03*
D21*
X251500000Y-122000000D03*
X239500000Y-119800000D03*
D26*
X42000000Y-54350000D03*
X42000000Y-57650000D03*
X59000000Y-54350000D03*
X59000000Y-57650000D03*
X78000000Y-52350000D03*
X78000000Y-55650000D03*
X96000000Y-48250000D03*
X96000000Y-51550000D03*
X114100000Y-50650000D03*
X114100000Y-53950000D03*
X132000000Y-54350000D03*
X132000000Y-57650000D03*
X42000000Y-73350000D03*
X42000000Y-76650000D03*
X60000000Y-73350000D03*
X60000000Y-76650000D03*
X78000000Y-69350000D03*
X78000000Y-72650000D03*
X96000000Y-65350000D03*
X96000000Y-68650000D03*
X114000000Y-69350000D03*
X114000000Y-72650000D03*
X132000000Y-73350000D03*
X132000000Y-76650000D03*
X42000000Y-92350000D03*
X42000000Y-95650000D03*
X60000000Y-92350000D03*
X60000000Y-95650000D03*
X78000000Y-88350000D03*
X78000000Y-91650000D03*
X96000000Y-84350000D03*
X96000000Y-87650000D03*
X114000000Y-88350000D03*
X114000000Y-91650000D03*
X132000000Y-91350000D03*
X132000000Y-94650000D03*
X103000000Y-111350000D03*
X103000000Y-114650000D03*
X123000000Y-111350000D03*
X123000000Y-114650000D03*
X146000000Y-114350000D03*
X146000000Y-117650000D03*
X211000000Y-55350000D03*
X211000000Y-58650000D03*
X229000000Y-52050000D03*
X229000000Y-55350000D03*
X247000000Y-48350000D03*
X247000000Y-51650000D03*
X265000000Y-51350000D03*
X265000000Y-54650000D03*
X283000000Y-53350000D03*
X283000000Y-56650000D03*
X302000000Y-53350000D03*
X302000000Y-56650000D03*
X211000000Y-72350000D03*
X211000000Y-75650000D03*
X229000000Y-68000000D03*
X229000000Y-71300000D03*
X247000000Y-65350000D03*
X247000000Y-68650000D03*
X265000000Y-68350000D03*
X265000000Y-71650000D03*
X283000000Y-72350000D03*
X283000000Y-75650000D03*
X302000000Y-72350000D03*
X302000000Y-75650000D03*
X211000000Y-91350000D03*
X211000000Y-94650000D03*
X229000000Y-87350000D03*
X229000000Y-90650000D03*
X247000000Y-84350000D03*
X247000000Y-87650000D03*
X265000000Y-87350000D03*
X265000000Y-90650000D03*
X283000000Y-91350000D03*
X283000000Y-94650000D03*
X302000000Y-91350000D03*
X302000000Y-94650000D03*
X212000000Y-110350000D03*
X212000000Y-113650000D03*
X218000000Y-110350000D03*
X218000000Y-113650000D03*
X239000000Y-110350000D03*
X239000000Y-113650000D03*
M02*
