M48
; DRILL file {KiCad (6.0.9)} date Tue May 23 12:27:04 2023
; FORMAT={-:-/ absolute / metric / decimal}
; #@! TF.CreationDate,2023-05-23T12:27:04-07:00
; #@! TF.GenerationSoftware,Kicad,Pcbnew,(6.0.9)
; #@! TF.FileFunction,NonPlated,1,2,NPTH
FMAT,2
METRIC
; #@! TA.AperFunction,NonPlated,NPTH,ComponentDrill
T1C1.600
; #@! TA.AperFunction,NonPlated,NPTH,ComponentDrill
T2C1.900
; #@! TA.AperFunction,NonPlated,NPTH,ComponentDrill
T3C3.050
; #@! TA.AperFunction,NonPlated,NPTH,ComponentDrill
T4C5.050
%
G90
G05
T1
X56.0Y-53.85
X56.0Y-72.85
X56.0Y-91.85
X74.0Y-53.85
X74.0Y-72.85
X74.0Y-91.85
X92.0Y-49.85
X92.0Y-68.85
X92.0Y-87.85
X110.0Y-45.85
X110.0Y-64.85
X110.0Y-83.85
X117.0Y-110.64
X128.0Y-49.85
X128.0Y-68.85
X128.0Y-87.85
X137.818Y-113.796
X146.0Y-53.85
X146.0Y-72.85
X146.0Y-90.85
X150.446Y-116.292
X214.859Y-127.117
X225.0Y-52.85
X225.0Y-71.85
X225.0Y-90.85
X232.03Y-112.06
X243.0Y-48.85
X243.0Y-67.85
X243.0Y-86.85
X253.0Y-110.85
X261.0Y-44.85
X261.0Y-63.85
X261.0Y-82.85
X279.0Y-48.85
X279.0Y-67.85
X279.0Y-86.85
X298.0Y-52.85
X298.0Y-71.85
X298.0Y-90.85
X316.0Y-52.85
X316.0Y-71.85
X316.0Y-90.85
T2
X45.5Y-59.0
X45.5Y-78.0
X45.5Y-97.0
X56.5Y-59.0
X56.5Y-78.0
X56.5Y-97.0
X63.5Y-59.0
X63.5Y-78.0
X63.5Y-97.0
X74.5Y-59.0
X74.5Y-78.0
X74.5Y-97.0
X81.5Y-55.0
X81.5Y-74.0
X81.5Y-93.0
X92.5Y-55.0
X92.5Y-74.0
X92.5Y-93.0
X99.5Y-51.0
X99.5Y-70.0
X99.5Y-89.0
X106.5Y-115.79
X110.5Y-51.0
X110.5Y-70.0
X110.5Y-89.0
X117.5Y-55.0
X117.5Y-74.0
X117.5Y-93.0
X117.5Y-115.79
X126.584Y-117.045
X128.5Y-55.0
X128.5Y-74.0
X128.5Y-93.0
X135.5Y-59.0
X135.5Y-78.0
X135.5Y-96.0
X137.416Y-118.955
X146.5Y-59.0
X146.5Y-78.0
X146.5Y-96.0
X150.676Y-127.985
X155.324Y-118.015
X205.503Y-120.099
X210.497Y-129.901
X214.5Y-58.0
X214.5Y-77.0
X214.5Y-96.0
X222.584Y-118.955
X225.5Y-58.0
X225.5Y-77.0
X225.5Y-96.0
X232.5Y-54.0
X232.5Y-73.0
X232.5Y-92.0
X233.416Y-117.045
X242.5Y-116.0
X243.5Y-54.0
X243.5Y-73.0
X243.5Y-92.0
X250.5Y-50.0
X250.5Y-69.0
X250.5Y-88.0
X253.5Y-116.0
X261.5Y-50.0
X261.5Y-69.0
X261.5Y-88.0
X268.5Y-54.0
X268.5Y-73.0
X268.5Y-92.0
X279.5Y-54.0
X279.5Y-73.0
X279.5Y-92.0
X287.5Y-58.0
X287.5Y-77.0
X287.5Y-96.0
X298.5Y-58.0
X298.5Y-77.0
X298.5Y-96.0
X305.5Y-58.0
X305.5Y-77.0
X305.5Y-96.0
X316.5Y-58.0
X316.5Y-77.0
X316.5Y-96.0
T3
X46.0Y-62.8
X46.0Y-81.8
X46.0Y-100.8
X51.0Y-64.9
X51.0Y-83.9
X51.0Y-102.9
X64.0Y-62.8
X64.0Y-81.8
X64.0Y-100.8
X69.0Y-64.9
X69.0Y-83.9
X69.0Y-102.9
X82.0Y-58.8
X82.0Y-77.8
X82.0Y-96.8
X87.0Y-60.9
X87.0Y-79.9
X87.0Y-98.9
X100.0Y-54.8
X100.0Y-73.8
X100.0Y-92.8
X105.0Y-56.9
X105.0Y-75.9
X105.0Y-94.9
X107.0Y-119.59
X112.0Y-121.69
X118.0Y-58.8
X118.0Y-77.8
X118.0Y-96.8
X123.0Y-60.9
X123.0Y-79.9
X123.0Y-98.9
X126.416Y-120.874
X130.975Y-123.81
X136.0Y-62.8
X136.0Y-81.8
X136.0Y-99.8
X141.0Y-64.9
X141.0Y-83.9
X141.0Y-101.9
X154.331Y-129.137
X158.347Y-125.493
X202.344Y-122.27
X202.743Y-127.679
X215.0Y-61.8
X215.0Y-80.8
X215.0Y-99.8
X220.0Y-63.9
X220.0Y-82.9
X220.0Y-101.9
X223.736Y-122.611
X229.025Y-123.81
X233.0Y-57.8
X233.0Y-76.8
X233.0Y-95.8
X238.0Y-59.9
X238.0Y-78.9
X238.0Y-97.9
X243.0Y-119.8
X248.0Y-121.9
X251.0Y-53.8
X251.0Y-72.8
X251.0Y-91.8
X256.0Y-55.9
X256.0Y-74.9
X256.0Y-93.9
X269.0Y-57.8
X269.0Y-76.8
X269.0Y-95.8
X274.0Y-59.9
X274.0Y-78.9
X274.0Y-97.9
X288.0Y-61.8
X288.0Y-80.8
X288.0Y-99.8
X293.0Y-63.9
X293.0Y-82.9
X293.0Y-101.9
X306.0Y-61.8
X306.0Y-80.8
X306.0Y-99.8
X311.0Y-63.9
X311.0Y-82.9
X311.0Y-101.9
T4
X51.0Y-59.0
X51.0Y-78.0
X51.0Y-97.0
X69.0Y-59.0
X69.0Y-78.0
X69.0Y-97.0
X87.0Y-55.0
X87.0Y-74.0
X87.0Y-93.0
X105.0Y-51.0
X105.0Y-70.0
X105.0Y-89.0
X112.0Y-115.79
X123.0Y-55.0
X123.0Y-74.0
X123.0Y-93.0
X132.0Y-118.0
X141.0Y-59.0
X141.0Y-78.0
X141.0Y-96.0
X153.0Y-123.0
X208.0Y-125.0
X220.0Y-58.0
X220.0Y-77.0
X220.0Y-96.0
X228.0Y-118.0
X238.0Y-54.0
X238.0Y-73.0
X238.0Y-92.0
X248.0Y-116.0
X256.0Y-50.0
X256.0Y-69.0
X256.0Y-88.0
X274.0Y-54.0
X274.0Y-73.0
X274.0Y-92.0
X293.0Y-58.0
X293.0Y-77.0
X293.0Y-96.0
X311.0Y-58.0
X311.0Y-77.0
X311.0Y-96.0
T0
M30
