M48
; DRILL file {KiCad (6.0.9)} date Tue May 23 12:27:04 2023
; FORMAT={-:-/ absolute / metric / decimal}
; #@! TF.CreationDate,2023-05-23T12:27:04-07:00
; #@! TF.GenerationSoftware,Kicad,Pcbnew,(6.0.9)
; #@! TF.FileFunction,Plated,1,2,PTH
FMAT,2
METRIC
; #@! TA.AperFunction,Plated,PTH,ViaDrill
T1C0.200
; #@! TA.AperFunction,Plated,PTH,ViaDrill
T2C0.400
; #@! TA.AperFunction,Plated,PTH,ComponentDrill
T3C0.440
; #@! TA.AperFunction,Plated,PTH,ComponentDrill
T4C0.500
; #@! TA.AperFunction,Plated,PTH,ComponentDrill
T5C1.350
%
G90
G05
T1
X151.0Y-60.594
X153.2Y-63.4
X155.0Y-68.9
X155.87Y-61.28
X156.2Y-60.4
X156.4Y-61.8
X156.8Y-69.87
X157.472Y-75.201
X157.5Y-77.8
X157.8Y-70.7
X157.9Y-77.0
X158.7Y-76.5
X159.176Y-70.568
X159.27Y-74.48
X160.747Y-68.247
X161.2Y-81.4
X161.4Y-68.7
X162.0Y-69.2
X163.17Y-67.53
X164.0Y-85.6
X164.2Y-83.3
X164.7Y-66.0
X164.77Y-72.89
X165.05Y-68.38
X165.8Y-71.033
X165.9Y-72.7
X167.8Y-68.7
X193.6Y-72.29
X194.15Y-75.38
X194.6Y-66.6
X196.05Y-70.15
X196.2Y-72.8
X196.45Y-69.65
X197.4Y-72.87
X197.5Y-75.08
X197.6Y-69.6
X198.4Y-67.7
X198.4Y-68.6
X198.84Y-61.85
X199.1Y-79.06
X199.4Y-68.0
X200.0Y-66.6
X200.4Y-77.0
X200.463Y-68.4
X200.997Y-76.746
X201.0Y-68.0
X201.45Y-76.35
X201.487Y-67.6
X201.7Y-69.6
X201.75Y-61.81
X201.91Y-78.89
X202.72Y-80.6
X203.3Y-62.3
X203.4Y-78.2
X204.2Y-63.6
X204.2Y-64.8
X204.2Y-71.2
X204.6Y-71.8
X205.0Y-66.8
X205.2Y-72.4
X206.25Y-71.65
X206.273Y-69.473
X208.01Y-76.15
X209.6Y-73.8
T2
X54.0Y-68.0
X54.0Y-87.0
X54.0Y-106.0
X65.2Y-92.6
X72.0Y-68.0
X72.0Y-81.4
X72.0Y-89.876
X72.0Y-106.0
X89.9Y-77.5
X90.0Y-64.0
X90.0Y-85.7
X90.0Y-102.0
X108.0Y-60.0
X108.0Y-84.1
X108.0Y-98.0
X108.2Y-71.3
X116.0Y-120.0
X122.32Y-105.14
X126.0Y-64.0
X126.0Y-88.0
X126.0Y-102.0
X126.3Y-76.9
X136.0Y-122.0
X136.44Y-92.02
X138.3Y-68.9
X141.12Y-91.3
X144.0Y-67.0
X144.0Y-81.4
X144.0Y-90.9
X144.0Y-105.0
X145.15Y-111.11
X147.6Y-69.3
X148.99Y-106.21
X149.3Y-75.4
X151.0Y-57.88
X151.81Y-67.01
X154.0Y-76.2
X154.2Y-88.124
X155.5Y-87.4
X157.1Y-65.7
X160.0Y-119.0
X162.0Y-84.0
X163.0Y-78.0
X163.5Y-79.0
X164.0Y-80.0
X164.5Y-61.5
X166.1Y-75.0
X166.1Y-76.2
X166.1Y-77.5
X166.59Y-83.94
X168.1Y-70.8
X169.9Y-67.6
X171.78Y-70.64
X189.07Y-71.03
X189.2Y-91.6
X192.625Y-76.025
X195.53Y-62.38
X197.86Y-86.95
X198.4Y-76.8
X200.4Y-78.2
X201.4Y-64.4
X202.2Y-61.0
X202.479Y-65.279
X203.113Y-67.0
X206.59Y-90.85
X208.0Y-130.0
X208.39Y-60.83
X215.0Y-85.8
X216.4Y-86.8
X217.8Y-87.8
X219.2Y-89.0
X222.9Y-79.3
X223.0Y-66.4
X223.0Y-91.0
X223.0Y-106.0
X225.77Y-61.29
X228.52Y-80.05
X234.0Y-127.0
X234.51Y-87.22
X240.9Y-75.9
X241.0Y-63.0
X241.0Y-84.9
X241.0Y-102.0
X244.11Y-105.04
X251.0Y-126.0
X259.0Y-59.0
X259.0Y-77.6
X259.0Y-83.0
X259.0Y-98.0
X277.0Y-63.0
X277.0Y-86.5
X277.0Y-101.0
X277.1Y-75.9
X296.0Y-67.0
X296.0Y-79.7
X296.0Y-90.7
X296.0Y-105.0
X313.986Y-85.214
X313.986Y-104.998
X314.0Y-67.0
T3
X156.0Y-56.0
X156.65Y-57.0
X157.3Y-56.0
X157.95Y-57.0
X158.6Y-56.0
X201.5Y-55.88
X202.15Y-56.88
X202.8Y-55.88
X203.45Y-56.88
X204.1Y-55.88
T4
X167.0Y-57.0
X167.0Y-58.0
X168.0Y-57.0
X168.0Y-58.0
X169.0Y-57.0
X169.0Y-58.0
X170.0Y-57.0
X170.0Y-58.0
X171.0Y-57.0
X171.0Y-58.0
X187.8Y-56.2
X187.8Y-57.2
X188.8Y-56.2
X188.8Y-57.2
X189.8Y-56.2
X189.8Y-57.2
X190.8Y-56.2
X190.8Y-57.2
X191.8Y-56.2
X191.8Y-57.2
T5
X153.725Y-56.22
X160.875Y-56.22
X199.225Y-56.1
X206.375Y-56.1
T0
M30
