G04 #@! TF.GenerationSoftware,KiCad,Pcbnew,(6.0.9)*
G04 #@! TF.CreationDate,2023-05-23T12:25:36-07:00*
G04 #@! TF.ProjectId,Keycad_fun,4b657963-6164-45f6-9675-6e2e6b696361,rev?*
G04 #@! TF.SameCoordinates,Original*
G04 #@! TF.FileFunction,Legend,Top*
G04 #@! TF.FilePolarity,Positive*
%FSLAX46Y46*%
G04 Gerber Fmt 4.6, Leading zero omitted, Abs format (unit mm)*
G04 Created by KiCad (PCBNEW (6.0.9)) date 2023-05-23 12:25:36*
%MOMM*%
%LPD*%
G01*
G04 APERTURE LIST*
G04 Aperture macros list*
%AMRoundRect*
0 Rectangle with rounded corners*
0 $1 Rounding radius*
0 $2 $3 $4 $5 $6 $7 $8 $9 X,Y pos of 4 corners*
0 Add a 4 corners polygon primitive as box body*
4,1,4,$2,$3,$4,$5,$6,$7,$8,$9,$2,$3,0*
0 Add four circle primitives for the rounded corners*
1,1,$1+$1,$2,$3*
1,1,$1+$1,$4,$5*
1,1,$1+$1,$6,$7*
1,1,$1+$1,$8,$9*
0 Add four rect primitives between the rounded corners*
20,1,$1+$1,$2,$3,$4,$5,0*
20,1,$1+$1,$4,$5,$6,$7,0*
20,1,$1+$1,$6,$7,$8,$9,0*
20,1,$1+$1,$8,$9,$2,$3,0*%
%AMRotRect*
0 Rectangle, with rotation*
0 The origin of the aperture is its center*
0 $1 length*
0 $2 width*
0 $3 Rotation angle, in degrees counterclockwise*
0 Add horizontal line*
21,1,$1,$2,0,0,$3*%
G04 Aperture macros list end*
%ADD10C,0.150000*%
%ADD11C,0.062000*%
%ADD12C,0.120000*%
%ADD13RotRect,2.600000X5.560000X65.000000*%
%ADD14C,17.800000*%
%ADD15RotRect,2.600000X5.560000X295.000000*%
%ADD16RoundRect,0.225000X0.250000X-0.225000X0.250000X0.225000X-0.250000X0.225000X-0.250000X-0.225000X0*%
%ADD17RoundRect,0.100000X-0.130000X-0.100000X0.130000X-0.100000X0.130000X0.100000X-0.130000X0.100000X0*%
%ADD18RoundRect,0.100000X0.130000X0.100000X-0.130000X0.100000X-0.130000X-0.100000X0.130000X-0.100000X0*%
%ADD19RoundRect,0.225000X0.225000X0.250000X-0.225000X0.250000X-0.225000X-0.250000X0.225000X-0.250000X0*%
%ADD20RoundRect,0.140000X0.140000X0.170000X-0.140000X0.170000X-0.140000X-0.170000X0.140000X-0.170000X0*%
%ADD21RoundRect,0.100000X0.100000X-0.130000X0.100000X0.130000X-0.100000X0.130000X-0.100000X-0.130000X0*%
%ADD22RoundRect,0.140000X-0.140000X-0.170000X0.140000X-0.170000X0.140000X0.170000X-0.140000X0.170000X0*%
%ADD23RoundRect,0.225000X-0.225000X-0.250000X0.225000X-0.250000X0.225000X0.250000X-0.225000X0.250000X0*%
%ADD24RoundRect,0.100000X-0.100000X0.130000X-0.100000X-0.130000X0.100000X-0.130000X0.100000X0.130000X0*%
%ADD25R,0.700000X1.000000*%
%ADD26R,0.700000X0.600000*%
%ADD27R,0.850000X0.850000*%
%ADD28O,0.850000X0.850000*%
%ADD29R,0.840000X0.840000*%
%ADD30C,0.840000*%
%ADD31C,1.850000*%
%ADD32R,1.000000X1.500000*%
%ADD33R,1.500000X1.000000*%
%ADD34RoundRect,0.218750X0.218750X0.256250X-0.218750X0.256250X-0.218750X-0.256250X0.218750X-0.256250X0*%
%ADD35RoundRect,0.147500X0.147500X0.172500X-0.147500X0.172500X-0.147500X-0.172500X0.147500X-0.172500X0*%
%ADD36RoundRect,0.218750X-0.218750X-0.256250X0.218750X-0.256250X0.218750X0.256250X-0.218750X0.256250X0*%
%ADD37RoundRect,0.147500X-0.147500X-0.172500X0.147500X-0.172500X0.147500X0.172500X-0.147500X0.172500X0*%
%ADD38R,1.100000X1.500000*%
%ADD39R,1.500000X1.100000*%
%ADD40C,1.900000*%
%ADD41C,1.600000*%
%ADD42C,3.050000*%
%ADD43C,5.050000*%
%ADD44R,1.000000X1.550000*%
%ADD45C,0.250000*%
%ADD46R,4.850000X4.850000*%
%ADD47R,0.800000X0.900000*%
%ADD48R,1.100000X0.600000*%
%ADD49R,0.900000X0.800000*%
G04 APERTURE END LIST*
D10*
X149452559Y-95748586D02*
X149556091Y-95639239D01*
X149619373Y-95616206D01*
X149725812Y-95613298D01*
X149855285Y-95673672D01*
X149921475Y-95757079D01*
X149944508Y-95820361D01*
X149947416Y-95926800D01*
X149786419Y-96272061D01*
X148880111Y-95849442D01*
X149020984Y-95547340D01*
X149104391Y-95481149D01*
X149167673Y-95458116D01*
X149274113Y-95455208D01*
X149360428Y-95495458D01*
X149426618Y-95578865D01*
X149449651Y-95642147D01*
X149452559Y-95748586D01*
X149311686Y-96050689D01*
X149242355Y-95072607D02*
X149483852Y-94554717D01*
X150269411Y-95236280D02*
X149363103Y-94813662D01*
X150752404Y-94200500D02*
X150510907Y-94718390D01*
X150631655Y-94459445D02*
X149725348Y-94036827D01*
X149814571Y-94183516D01*
X149860637Y-94310080D01*
X149863545Y-94416520D01*
X209417967Y-99008960D02*
X209400751Y-98859363D01*
X209423784Y-98796081D01*
X209489974Y-98712674D01*
X209619447Y-98652300D01*
X209725886Y-98655208D01*
X209789169Y-98678241D01*
X209872575Y-98744432D01*
X210033573Y-99089692D01*
X209127265Y-99512310D01*
X208986392Y-99210207D01*
X208989300Y-99103768D01*
X209012333Y-99040485D01*
X209078524Y-98957079D01*
X209164839Y-98916829D01*
X209271278Y-98919737D01*
X209334561Y-98942770D01*
X209417967Y-99008960D01*
X209558840Y-99311063D01*
X208765021Y-98735475D02*
X208523525Y-98217584D01*
X209550581Y-98053911D02*
X208644273Y-98476530D01*
X208489092Y-97918390D02*
X208425809Y-97895357D01*
X208342403Y-97829167D01*
X208241779Y-97613379D01*
X208244687Y-97506940D01*
X208267720Y-97443657D01*
X208333911Y-97360251D01*
X208420226Y-97320001D01*
X208569823Y-97302785D01*
X209329209Y-97579179D01*
X209067588Y-97018131D01*
X157733333Y-63857142D02*
X157685714Y-63904761D01*
X157542857Y-63952380D01*
X157447619Y-63952380D01*
X157304761Y-63904761D01*
X157209523Y-63809523D01*
X157161904Y-63714285D01*
X157114285Y-63523809D01*
X157114285Y-63380952D01*
X157161904Y-63190476D01*
X157209523Y-63095238D01*
X157304761Y-63000000D01*
X157447619Y-62952380D01*
X157542857Y-62952380D01*
X157685714Y-63000000D01*
X157733333Y-63047619D01*
X158352380Y-62952380D02*
X158447619Y-62952380D01*
X158542857Y-63000000D01*
X158590476Y-63047619D01*
X158638095Y-63142857D01*
X158685714Y-63333333D01*
X158685714Y-63571428D01*
X158638095Y-63761904D01*
X158590476Y-63857142D01*
X158542857Y-63904761D01*
X158447619Y-63952380D01*
X158352380Y-63952380D01*
X158257142Y-63904761D01*
X158209523Y-63857142D01*
X158161904Y-63761904D01*
X158114285Y-63571428D01*
X158114285Y-63333333D01*
X158161904Y-63142857D01*
X158209523Y-63047619D01*
X158257142Y-63000000D01*
X158352380Y-62952380D01*
X164333333Y-68957142D02*
X164285714Y-69004761D01*
X164142857Y-69052380D01*
X164047619Y-69052380D01*
X163904761Y-69004761D01*
X163809523Y-68909523D01*
X163761904Y-68814285D01*
X163714285Y-68623809D01*
X163714285Y-68480952D01*
X163761904Y-68290476D01*
X163809523Y-68195238D01*
X163904761Y-68100000D01*
X164047619Y-68052380D01*
X164142857Y-68052380D01*
X164285714Y-68100000D01*
X164333333Y-68147619D01*
X165285714Y-69052380D02*
X164714285Y-69052380D01*
X165000000Y-69052380D02*
X165000000Y-68052380D01*
X164904761Y-68195238D01*
X164809523Y-68290476D01*
X164714285Y-68338095D01*
X165833333Y-81357142D02*
X165785714Y-81404761D01*
X165642857Y-81452380D01*
X165547619Y-81452380D01*
X165404761Y-81404761D01*
X165309523Y-81309523D01*
X165261904Y-81214285D01*
X165214285Y-81023809D01*
X165214285Y-80880952D01*
X165261904Y-80690476D01*
X165309523Y-80595238D01*
X165404761Y-80500000D01*
X165547619Y-80452380D01*
X165642857Y-80452380D01*
X165785714Y-80500000D01*
X165833333Y-80547619D01*
X166214285Y-80547619D02*
X166261904Y-80500000D01*
X166357142Y-80452380D01*
X166595238Y-80452380D01*
X166690476Y-80500000D01*
X166738095Y-80547619D01*
X166785714Y-80642857D01*
X166785714Y-80738095D01*
X166738095Y-80880952D01*
X166166666Y-81452380D01*
X166785714Y-81452380D01*
X160333333Y-80457142D02*
X160285714Y-80504761D01*
X160142857Y-80552380D01*
X160047619Y-80552380D01*
X159904761Y-80504761D01*
X159809523Y-80409523D01*
X159761904Y-80314285D01*
X159714285Y-80123809D01*
X159714285Y-79980952D01*
X159761904Y-79790476D01*
X159809523Y-79695238D01*
X159904761Y-79600000D01*
X160047619Y-79552380D01*
X160142857Y-79552380D01*
X160285714Y-79600000D01*
X160333333Y-79647619D01*
X160666666Y-79552380D02*
X161285714Y-79552380D01*
X160952380Y-79933333D01*
X161095238Y-79933333D01*
X161190476Y-79980952D01*
X161238095Y-80028571D01*
X161285714Y-80123809D01*
X161285714Y-80361904D01*
X161238095Y-80457142D01*
X161190476Y-80504761D01*
X161095238Y-80552380D01*
X160809523Y-80552380D01*
X160714285Y-80504761D01*
X160666666Y-80457142D01*
X154733333Y-74057142D02*
X154685714Y-74104761D01*
X154542857Y-74152380D01*
X154447619Y-74152380D01*
X154304761Y-74104761D01*
X154209523Y-74009523D01*
X154161904Y-73914285D01*
X154114285Y-73723809D01*
X154114285Y-73580952D01*
X154161904Y-73390476D01*
X154209523Y-73295238D01*
X154304761Y-73200000D01*
X154447619Y-73152380D01*
X154542857Y-73152380D01*
X154685714Y-73200000D01*
X154733333Y-73247619D01*
X155590476Y-73485714D02*
X155590476Y-74152380D01*
X155352380Y-73104761D02*
X155114285Y-73819047D01*
X155733333Y-73819047D01*
X151353333Y-68857142D02*
X151305714Y-68904761D01*
X151162857Y-68952380D01*
X151067619Y-68952380D01*
X150924761Y-68904761D01*
X150829523Y-68809523D01*
X150781904Y-68714285D01*
X150734285Y-68523809D01*
X150734285Y-68380952D01*
X150781904Y-68190476D01*
X150829523Y-68095238D01*
X150924761Y-68000000D01*
X151067619Y-67952380D01*
X151162857Y-67952380D01*
X151305714Y-68000000D01*
X151353333Y-68047619D01*
X152258095Y-67952380D02*
X151781904Y-67952380D01*
X151734285Y-68428571D01*
X151781904Y-68380952D01*
X151877142Y-68333333D01*
X152115238Y-68333333D01*
X152210476Y-68380952D01*
X152258095Y-68428571D01*
X152305714Y-68523809D01*
X152305714Y-68761904D01*
X152258095Y-68857142D01*
X152210476Y-68904761D01*
X152115238Y-68952380D01*
X151877142Y-68952380D01*
X151781904Y-68904761D01*
X151734285Y-68857142D01*
X156713333Y-70527142D02*
X156665714Y-70574761D01*
X156522857Y-70622380D01*
X156427619Y-70622380D01*
X156284761Y-70574761D01*
X156189523Y-70479523D01*
X156141904Y-70384285D01*
X156094285Y-70193809D01*
X156094285Y-70050952D01*
X156141904Y-69860476D01*
X156189523Y-69765238D01*
X156284761Y-69670000D01*
X156427619Y-69622380D01*
X156522857Y-69622380D01*
X156665714Y-69670000D01*
X156713333Y-69717619D01*
X157570476Y-69622380D02*
X157380000Y-69622380D01*
X157284761Y-69670000D01*
X157237142Y-69717619D01*
X157141904Y-69860476D01*
X157094285Y-70050952D01*
X157094285Y-70431904D01*
X157141904Y-70527142D01*
X157189523Y-70574761D01*
X157284761Y-70622380D01*
X157475238Y-70622380D01*
X157570476Y-70574761D01*
X157618095Y-70527142D01*
X157665714Y-70431904D01*
X157665714Y-70193809D01*
X157618095Y-70098571D01*
X157570476Y-70050952D01*
X157475238Y-70003333D01*
X157284761Y-70003333D01*
X157189523Y-70050952D01*
X157141904Y-70098571D01*
X157094285Y-70193809D01*
D11*
X167016666Y-74478571D02*
X166992857Y-74502380D01*
X166921428Y-74526190D01*
X166873809Y-74526190D01*
X166802380Y-74502380D01*
X166754761Y-74454761D01*
X166730952Y-74407142D01*
X166707142Y-74311904D01*
X166707142Y-74240476D01*
X166730952Y-74145238D01*
X166754761Y-74097619D01*
X166802380Y-74050000D01*
X166873809Y-74026190D01*
X166921428Y-74026190D01*
X166992857Y-74050000D01*
X167016666Y-74073809D01*
X167183333Y-74026190D02*
X167516666Y-74026190D01*
X167302380Y-74526190D01*
D10*
X161833333Y-68857142D02*
X161785714Y-68904761D01*
X161642857Y-68952380D01*
X161547619Y-68952380D01*
X161404761Y-68904761D01*
X161309523Y-68809523D01*
X161261904Y-68714285D01*
X161214285Y-68523809D01*
X161214285Y-68380952D01*
X161261904Y-68190476D01*
X161309523Y-68095238D01*
X161404761Y-68000000D01*
X161547619Y-67952380D01*
X161642857Y-67952380D01*
X161785714Y-68000000D01*
X161833333Y-68047619D01*
X162404761Y-68380952D02*
X162309523Y-68333333D01*
X162261904Y-68285714D01*
X162214285Y-68190476D01*
X162214285Y-68142857D01*
X162261904Y-68047619D01*
X162309523Y-68000000D01*
X162404761Y-67952380D01*
X162595238Y-67952380D01*
X162690476Y-68000000D01*
X162738095Y-68047619D01*
X162785714Y-68142857D01*
X162785714Y-68190476D01*
X162738095Y-68285714D01*
X162690476Y-68333333D01*
X162595238Y-68380952D01*
X162404761Y-68380952D01*
X162309523Y-68428571D01*
X162261904Y-68476190D01*
X162214285Y-68571428D01*
X162214285Y-68761904D01*
X162261904Y-68857142D01*
X162309523Y-68904761D01*
X162404761Y-68952380D01*
X162595238Y-68952380D01*
X162690476Y-68904761D01*
X162738095Y-68857142D01*
X162785714Y-68761904D01*
X162785714Y-68571428D01*
X162738095Y-68476190D01*
X162690476Y-68428571D01*
X162595238Y-68380952D01*
X166533333Y-69457142D02*
X166485714Y-69504761D01*
X166342857Y-69552380D01*
X166247619Y-69552380D01*
X166104761Y-69504761D01*
X166009523Y-69409523D01*
X165961904Y-69314285D01*
X165914285Y-69123809D01*
X165914285Y-68980952D01*
X165961904Y-68790476D01*
X166009523Y-68695238D01*
X166104761Y-68600000D01*
X166247619Y-68552380D01*
X166342857Y-68552380D01*
X166485714Y-68600000D01*
X166533333Y-68647619D01*
X167009523Y-69552380D02*
X167200000Y-69552380D01*
X167295238Y-69504761D01*
X167342857Y-69457142D01*
X167438095Y-69314285D01*
X167485714Y-69123809D01*
X167485714Y-68742857D01*
X167438095Y-68647619D01*
X167390476Y-68600000D01*
X167295238Y-68552380D01*
X167104761Y-68552380D01*
X167009523Y-68600000D01*
X166961904Y-68647619D01*
X166914285Y-68742857D01*
X166914285Y-68980952D01*
X166961904Y-69076190D01*
X167009523Y-69123809D01*
X167104761Y-69171428D01*
X167295238Y-69171428D01*
X167390476Y-69123809D01*
X167438095Y-69076190D01*
X167485714Y-68980952D01*
X158457142Y-85457142D02*
X158409523Y-85504761D01*
X158266666Y-85552380D01*
X158171428Y-85552380D01*
X158028571Y-85504761D01*
X157933333Y-85409523D01*
X157885714Y-85314285D01*
X157838095Y-85123809D01*
X157838095Y-84980952D01*
X157885714Y-84790476D01*
X157933333Y-84695238D01*
X158028571Y-84600000D01*
X158171428Y-84552380D01*
X158266666Y-84552380D01*
X158409523Y-84600000D01*
X158457142Y-84647619D01*
X159409523Y-85552380D02*
X158838095Y-85552380D01*
X159123809Y-85552380D02*
X159123809Y-84552380D01*
X159028571Y-84695238D01*
X158933333Y-84790476D01*
X158838095Y-84838095D01*
X160028571Y-84552380D02*
X160123809Y-84552380D01*
X160219047Y-84600000D01*
X160266666Y-84647619D01*
X160314285Y-84742857D01*
X160361904Y-84933333D01*
X160361904Y-85171428D01*
X160314285Y-85361904D01*
X160266666Y-85457142D01*
X160219047Y-85504761D01*
X160123809Y-85552380D01*
X160028571Y-85552380D01*
X159933333Y-85504761D01*
X159885714Y-85457142D01*
X159838095Y-85361904D01*
X159790476Y-85171428D01*
X159790476Y-84933333D01*
X159838095Y-84742857D01*
X159885714Y-84647619D01*
X159933333Y-84600000D01*
X160028571Y-84552380D01*
X161157142Y-61657142D02*
X161109523Y-61704761D01*
X160966666Y-61752380D01*
X160871428Y-61752380D01*
X160728571Y-61704761D01*
X160633333Y-61609523D01*
X160585714Y-61514285D01*
X160538095Y-61323809D01*
X160538095Y-61180952D01*
X160585714Y-60990476D01*
X160633333Y-60895238D01*
X160728571Y-60800000D01*
X160871428Y-60752380D01*
X160966666Y-60752380D01*
X161109523Y-60800000D01*
X161157142Y-60847619D01*
X162109523Y-61752380D02*
X161538095Y-61752380D01*
X161823809Y-61752380D02*
X161823809Y-60752380D01*
X161728571Y-60895238D01*
X161633333Y-60990476D01*
X161538095Y-61038095D01*
X163061904Y-61752380D02*
X162490476Y-61752380D01*
X162776190Y-61752380D02*
X162776190Y-60752380D01*
X162680952Y-60895238D01*
X162585714Y-60990476D01*
X162490476Y-61038095D01*
X162657142Y-63057142D02*
X162609523Y-63104761D01*
X162466666Y-63152380D01*
X162371428Y-63152380D01*
X162228571Y-63104761D01*
X162133333Y-63009523D01*
X162085714Y-62914285D01*
X162038095Y-62723809D01*
X162038095Y-62580952D01*
X162085714Y-62390476D01*
X162133333Y-62295238D01*
X162228571Y-62200000D01*
X162371428Y-62152380D01*
X162466666Y-62152380D01*
X162609523Y-62200000D01*
X162657142Y-62247619D01*
X163609523Y-63152380D02*
X163038095Y-63152380D01*
X163323809Y-63152380D02*
X163323809Y-62152380D01*
X163228571Y-62295238D01*
X163133333Y-62390476D01*
X163038095Y-62438095D01*
X163990476Y-62247619D02*
X164038095Y-62200000D01*
X164133333Y-62152380D01*
X164371428Y-62152380D01*
X164466666Y-62200000D01*
X164514285Y-62247619D01*
X164561904Y-62342857D01*
X164561904Y-62438095D01*
X164514285Y-62580952D01*
X163942857Y-63152380D01*
X164561904Y-63152380D01*
X150257142Y-70357142D02*
X150209523Y-70404761D01*
X150066666Y-70452380D01*
X149971428Y-70452380D01*
X149828571Y-70404761D01*
X149733333Y-70309523D01*
X149685714Y-70214285D01*
X149638095Y-70023809D01*
X149638095Y-69880952D01*
X149685714Y-69690476D01*
X149733333Y-69595238D01*
X149828571Y-69500000D01*
X149971428Y-69452380D01*
X150066666Y-69452380D01*
X150209523Y-69500000D01*
X150257142Y-69547619D01*
X151209523Y-70452380D02*
X150638095Y-70452380D01*
X150923809Y-70452380D02*
X150923809Y-69452380D01*
X150828571Y-69595238D01*
X150733333Y-69690476D01*
X150638095Y-69738095D01*
X151542857Y-69452380D02*
X152161904Y-69452380D01*
X151828571Y-69833333D01*
X151971428Y-69833333D01*
X152066666Y-69880952D01*
X152114285Y-69928571D01*
X152161904Y-70023809D01*
X152161904Y-70261904D01*
X152114285Y-70357142D01*
X152066666Y-70404761D01*
X151971428Y-70452380D01*
X151685714Y-70452380D01*
X151590476Y-70404761D01*
X151542857Y-70357142D01*
X150257142Y-71857142D02*
X150209523Y-71904761D01*
X150066666Y-71952380D01*
X149971428Y-71952380D01*
X149828571Y-71904761D01*
X149733333Y-71809523D01*
X149685714Y-71714285D01*
X149638095Y-71523809D01*
X149638095Y-71380952D01*
X149685714Y-71190476D01*
X149733333Y-71095238D01*
X149828571Y-71000000D01*
X149971428Y-70952380D01*
X150066666Y-70952380D01*
X150209523Y-71000000D01*
X150257142Y-71047619D01*
X151209523Y-71952380D02*
X150638095Y-71952380D01*
X150923809Y-71952380D02*
X150923809Y-70952380D01*
X150828571Y-71095238D01*
X150733333Y-71190476D01*
X150638095Y-71238095D01*
X152066666Y-71285714D02*
X152066666Y-71952380D01*
X151828571Y-70904761D02*
X151590476Y-71619047D01*
X152209523Y-71619047D01*
X170557142Y-71957142D02*
X170509523Y-72004761D01*
X170366666Y-72052380D01*
X170271428Y-72052380D01*
X170128571Y-72004761D01*
X170033333Y-71909523D01*
X169985714Y-71814285D01*
X169938095Y-71623809D01*
X169938095Y-71480952D01*
X169985714Y-71290476D01*
X170033333Y-71195238D01*
X170128571Y-71100000D01*
X170271428Y-71052380D01*
X170366666Y-71052380D01*
X170509523Y-71100000D01*
X170557142Y-71147619D01*
X171509523Y-72052380D02*
X170938095Y-72052380D01*
X171223809Y-72052380D02*
X171223809Y-71052380D01*
X171128571Y-71195238D01*
X171033333Y-71290476D01*
X170938095Y-71338095D01*
X172414285Y-71052380D02*
X171938095Y-71052380D01*
X171890476Y-71528571D01*
X171938095Y-71480952D01*
X172033333Y-71433333D01*
X172271428Y-71433333D01*
X172366666Y-71480952D01*
X172414285Y-71528571D01*
X172461904Y-71623809D01*
X172461904Y-71861904D01*
X172414285Y-71957142D01*
X172366666Y-72004761D01*
X172271428Y-72052380D01*
X172033333Y-72052380D01*
X171938095Y-72004761D01*
X171890476Y-71957142D01*
D11*
X166538571Y-72828571D02*
X166514761Y-72852380D01*
X166443333Y-72876190D01*
X166395714Y-72876190D01*
X166324285Y-72852380D01*
X166276666Y-72804761D01*
X166252857Y-72757142D01*
X166229047Y-72661904D01*
X166229047Y-72590476D01*
X166252857Y-72495238D01*
X166276666Y-72447619D01*
X166324285Y-72400000D01*
X166395714Y-72376190D01*
X166443333Y-72376190D01*
X166514761Y-72400000D01*
X166538571Y-72423809D01*
X167014761Y-72876190D02*
X166729047Y-72876190D01*
X166871904Y-72876190D02*
X166871904Y-72376190D01*
X166824285Y-72447619D01*
X166776666Y-72495238D01*
X166729047Y-72519047D01*
X167443333Y-72376190D02*
X167348095Y-72376190D01*
X167300476Y-72400000D01*
X167276666Y-72423809D01*
X167229047Y-72495238D01*
X167205238Y-72590476D01*
X167205238Y-72780952D01*
X167229047Y-72828571D01*
X167252857Y-72852380D01*
X167300476Y-72876190D01*
X167395714Y-72876190D01*
X167443333Y-72852380D01*
X167467142Y-72828571D01*
X167490952Y-72780952D01*
X167490952Y-72661904D01*
X167467142Y-72614285D01*
X167443333Y-72590476D01*
X167395714Y-72566666D01*
X167300476Y-72566666D01*
X167252857Y-72590476D01*
X167229047Y-72614285D01*
X167205238Y-72661904D01*
D10*
X171457142Y-69457142D02*
X171409523Y-69504761D01*
X171266666Y-69552380D01*
X171171428Y-69552380D01*
X171028571Y-69504761D01*
X170933333Y-69409523D01*
X170885714Y-69314285D01*
X170838095Y-69123809D01*
X170838095Y-68980952D01*
X170885714Y-68790476D01*
X170933333Y-68695238D01*
X171028571Y-68600000D01*
X171171428Y-68552380D01*
X171266666Y-68552380D01*
X171409523Y-68600000D01*
X171457142Y-68647619D01*
X172409523Y-69552380D02*
X171838095Y-69552380D01*
X172123809Y-69552380D02*
X172123809Y-68552380D01*
X172028571Y-68695238D01*
X171933333Y-68790476D01*
X171838095Y-68838095D01*
X172742857Y-68552380D02*
X173409523Y-68552380D01*
X172980952Y-69552380D01*
D11*
X165978571Y-67678571D02*
X165954761Y-67702380D01*
X165883333Y-67726190D01*
X165835714Y-67726190D01*
X165764285Y-67702380D01*
X165716666Y-67654761D01*
X165692857Y-67607142D01*
X165669047Y-67511904D01*
X165669047Y-67440476D01*
X165692857Y-67345238D01*
X165716666Y-67297619D01*
X165764285Y-67250000D01*
X165835714Y-67226190D01*
X165883333Y-67226190D01*
X165954761Y-67250000D01*
X165978571Y-67273809D01*
X166454761Y-67726190D02*
X166169047Y-67726190D01*
X166311904Y-67726190D02*
X166311904Y-67226190D01*
X166264285Y-67297619D01*
X166216666Y-67345238D01*
X166169047Y-67369047D01*
X166740476Y-67440476D02*
X166692857Y-67416666D01*
X166669047Y-67392857D01*
X166645238Y-67345238D01*
X166645238Y-67321428D01*
X166669047Y-67273809D01*
X166692857Y-67250000D01*
X166740476Y-67226190D01*
X166835714Y-67226190D01*
X166883333Y-67250000D01*
X166907142Y-67273809D01*
X166930952Y-67321428D01*
X166930952Y-67345238D01*
X166907142Y-67392857D01*
X166883333Y-67416666D01*
X166835714Y-67440476D01*
X166740476Y-67440476D01*
X166692857Y-67464285D01*
X166669047Y-67488095D01*
X166645238Y-67535714D01*
X166645238Y-67630952D01*
X166669047Y-67678571D01*
X166692857Y-67702380D01*
X166740476Y-67726190D01*
X166835714Y-67726190D01*
X166883333Y-67702380D01*
X166907142Y-67678571D01*
X166930952Y-67630952D01*
X166930952Y-67535714D01*
X166907142Y-67488095D01*
X166883333Y-67464285D01*
X166835714Y-67440476D01*
D10*
X167457142Y-62857142D02*
X167409523Y-62904761D01*
X167266666Y-62952380D01*
X167171428Y-62952380D01*
X167028571Y-62904761D01*
X166933333Y-62809523D01*
X166885714Y-62714285D01*
X166838095Y-62523809D01*
X166838095Y-62380952D01*
X166885714Y-62190476D01*
X166933333Y-62095238D01*
X167028571Y-62000000D01*
X167171428Y-61952380D01*
X167266666Y-61952380D01*
X167409523Y-62000000D01*
X167457142Y-62047619D01*
X168409523Y-62952380D02*
X167838095Y-62952380D01*
X168123809Y-62952380D02*
X168123809Y-61952380D01*
X168028571Y-62095238D01*
X167933333Y-62190476D01*
X167838095Y-62238095D01*
X168885714Y-62952380D02*
X169076190Y-62952380D01*
X169171428Y-62904761D01*
X169219047Y-62857142D01*
X169314285Y-62714285D01*
X169361904Y-62523809D01*
X169361904Y-62142857D01*
X169314285Y-62047619D01*
X169266666Y-62000000D01*
X169171428Y-61952380D01*
X168980952Y-61952380D01*
X168885714Y-62000000D01*
X168838095Y-62047619D01*
X168790476Y-62142857D01*
X168790476Y-62380952D01*
X168838095Y-62476190D01*
X168885714Y-62523809D01*
X168980952Y-62571428D01*
X169171428Y-62571428D01*
X169266666Y-62523809D01*
X169314285Y-62476190D01*
X169361904Y-62380952D01*
D11*
X158778571Y-60678571D02*
X158754761Y-60702380D01*
X158683333Y-60726190D01*
X158635714Y-60726190D01*
X158564285Y-60702380D01*
X158516666Y-60654761D01*
X158492857Y-60607142D01*
X158469047Y-60511904D01*
X158469047Y-60440476D01*
X158492857Y-60345238D01*
X158516666Y-60297619D01*
X158564285Y-60250000D01*
X158635714Y-60226190D01*
X158683333Y-60226190D01*
X158754761Y-60250000D01*
X158778571Y-60273809D01*
X158969047Y-60273809D02*
X158992857Y-60250000D01*
X159040476Y-60226190D01*
X159159523Y-60226190D01*
X159207142Y-60250000D01*
X159230952Y-60273809D01*
X159254761Y-60321428D01*
X159254761Y-60369047D01*
X159230952Y-60440476D01*
X158945238Y-60726190D01*
X159254761Y-60726190D01*
X159564285Y-60226190D02*
X159611904Y-60226190D01*
X159659523Y-60250000D01*
X159683333Y-60273809D01*
X159707142Y-60321428D01*
X159730952Y-60416666D01*
X159730952Y-60535714D01*
X159707142Y-60630952D01*
X159683333Y-60678571D01*
X159659523Y-60702380D01*
X159611904Y-60726190D01*
X159564285Y-60726190D01*
X159516666Y-60702380D01*
X159492857Y-60678571D01*
X159469047Y-60630952D01*
X159445238Y-60535714D01*
X159445238Y-60416666D01*
X159469047Y-60321428D01*
X159492857Y-60273809D01*
X159516666Y-60250000D01*
X159564285Y-60226190D01*
X158578571Y-59178571D02*
X158554761Y-59202380D01*
X158483333Y-59226190D01*
X158435714Y-59226190D01*
X158364285Y-59202380D01*
X158316666Y-59154761D01*
X158292857Y-59107142D01*
X158269047Y-59011904D01*
X158269047Y-58940476D01*
X158292857Y-58845238D01*
X158316666Y-58797619D01*
X158364285Y-58750000D01*
X158435714Y-58726190D01*
X158483333Y-58726190D01*
X158554761Y-58750000D01*
X158578571Y-58773809D01*
X158769047Y-58773809D02*
X158792857Y-58750000D01*
X158840476Y-58726190D01*
X158959523Y-58726190D01*
X159007142Y-58750000D01*
X159030952Y-58773809D01*
X159054761Y-58821428D01*
X159054761Y-58869047D01*
X159030952Y-58940476D01*
X158745238Y-59226190D01*
X159054761Y-59226190D01*
X159530952Y-59226190D02*
X159245238Y-59226190D01*
X159388095Y-59226190D02*
X159388095Y-58726190D01*
X159340476Y-58797619D01*
X159292857Y-58845238D01*
X159245238Y-58869047D01*
D10*
X204957142Y-79557142D02*
X204909523Y-79604761D01*
X204766666Y-79652380D01*
X204671428Y-79652380D01*
X204528571Y-79604761D01*
X204433333Y-79509523D01*
X204385714Y-79414285D01*
X204338095Y-79223809D01*
X204338095Y-79080952D01*
X204385714Y-78890476D01*
X204433333Y-78795238D01*
X204528571Y-78700000D01*
X204671428Y-78652380D01*
X204766666Y-78652380D01*
X204909523Y-78700000D01*
X204957142Y-78747619D01*
X205338095Y-78747619D02*
X205385714Y-78700000D01*
X205480952Y-78652380D01*
X205719047Y-78652380D01*
X205814285Y-78700000D01*
X205861904Y-78747619D01*
X205909523Y-78842857D01*
X205909523Y-78938095D01*
X205861904Y-79080952D01*
X205290476Y-79652380D01*
X205909523Y-79652380D01*
X206290476Y-78747619D02*
X206338095Y-78700000D01*
X206433333Y-78652380D01*
X206671428Y-78652380D01*
X206766666Y-78700000D01*
X206814285Y-78747619D01*
X206861904Y-78842857D01*
X206861904Y-78938095D01*
X206814285Y-79080952D01*
X206242857Y-79652380D01*
X206861904Y-79652380D01*
X191157142Y-70357142D02*
X191109523Y-70404761D01*
X190966666Y-70452380D01*
X190871428Y-70452380D01*
X190728571Y-70404761D01*
X190633333Y-70309523D01*
X190585714Y-70214285D01*
X190538095Y-70023809D01*
X190538095Y-69880952D01*
X190585714Y-69690476D01*
X190633333Y-69595238D01*
X190728571Y-69500000D01*
X190871428Y-69452380D01*
X190966666Y-69452380D01*
X191109523Y-69500000D01*
X191157142Y-69547619D01*
X191538095Y-69547619D02*
X191585714Y-69500000D01*
X191680952Y-69452380D01*
X191919047Y-69452380D01*
X192014285Y-69500000D01*
X192061904Y-69547619D01*
X192109523Y-69642857D01*
X192109523Y-69738095D01*
X192061904Y-69880952D01*
X191490476Y-70452380D01*
X192109523Y-70452380D01*
X192442857Y-69452380D02*
X193061904Y-69452380D01*
X192728571Y-69833333D01*
X192871428Y-69833333D01*
X192966666Y-69880952D01*
X193014285Y-69928571D01*
X193061904Y-70023809D01*
X193061904Y-70261904D01*
X193014285Y-70357142D01*
X192966666Y-70404761D01*
X192871428Y-70452380D01*
X192585714Y-70452380D01*
X192490476Y-70404761D01*
X192442857Y-70357142D01*
X192557142Y-67557142D02*
X192509523Y-67604761D01*
X192366666Y-67652380D01*
X192271428Y-67652380D01*
X192128571Y-67604761D01*
X192033333Y-67509523D01*
X191985714Y-67414285D01*
X191938095Y-67223809D01*
X191938095Y-67080952D01*
X191985714Y-66890476D01*
X192033333Y-66795238D01*
X192128571Y-66700000D01*
X192271428Y-66652380D01*
X192366666Y-66652380D01*
X192509523Y-66700000D01*
X192557142Y-66747619D01*
X192938095Y-66747619D02*
X192985714Y-66700000D01*
X193080952Y-66652380D01*
X193319047Y-66652380D01*
X193414285Y-66700000D01*
X193461904Y-66747619D01*
X193509523Y-66842857D01*
X193509523Y-66938095D01*
X193461904Y-67080952D01*
X192890476Y-67652380D01*
X193509523Y-67652380D01*
X194366666Y-66985714D02*
X194366666Y-67652380D01*
X194128571Y-66604761D02*
X193890476Y-67319047D01*
X194509523Y-67319047D01*
X196757142Y-67757142D02*
X196709523Y-67804761D01*
X196566666Y-67852380D01*
X196471428Y-67852380D01*
X196328571Y-67804761D01*
X196233333Y-67709523D01*
X196185714Y-67614285D01*
X196138095Y-67423809D01*
X196138095Y-67280952D01*
X196185714Y-67090476D01*
X196233333Y-66995238D01*
X196328571Y-66900000D01*
X196471428Y-66852380D01*
X196566666Y-66852380D01*
X196709523Y-66900000D01*
X196757142Y-66947619D01*
X197138095Y-66947619D02*
X197185714Y-66900000D01*
X197280952Y-66852380D01*
X197519047Y-66852380D01*
X197614285Y-66900000D01*
X197661904Y-66947619D01*
X197709523Y-67042857D01*
X197709523Y-67138095D01*
X197661904Y-67280952D01*
X197090476Y-67852380D01*
X197709523Y-67852380D01*
X198614285Y-66852380D02*
X198138095Y-66852380D01*
X198090476Y-67328571D01*
X198138095Y-67280952D01*
X198233333Y-67233333D01*
X198471428Y-67233333D01*
X198566666Y-67280952D01*
X198614285Y-67328571D01*
X198661904Y-67423809D01*
X198661904Y-67661904D01*
X198614285Y-67757142D01*
X198566666Y-67804761D01*
X198471428Y-67852380D01*
X198233333Y-67852380D01*
X198138095Y-67804761D01*
X198090476Y-67757142D01*
X196327142Y-66042857D02*
X196374761Y-66090476D01*
X196422380Y-66233333D01*
X196422380Y-66328571D01*
X196374761Y-66471428D01*
X196279523Y-66566666D01*
X196184285Y-66614285D01*
X195993809Y-66661904D01*
X195850952Y-66661904D01*
X195660476Y-66614285D01*
X195565238Y-66566666D01*
X195470000Y-66471428D01*
X195422380Y-66328571D01*
X195422380Y-66233333D01*
X195470000Y-66090476D01*
X195517619Y-66042857D01*
X195517619Y-65661904D02*
X195470000Y-65614285D01*
X195422380Y-65519047D01*
X195422380Y-65280952D01*
X195470000Y-65185714D01*
X195517619Y-65138095D01*
X195612857Y-65090476D01*
X195708095Y-65090476D01*
X195850952Y-65138095D01*
X196422380Y-65709523D01*
X196422380Y-65090476D01*
X195422380Y-64233333D02*
X195422380Y-64423809D01*
X195470000Y-64519047D01*
X195517619Y-64566666D01*
X195660476Y-64661904D01*
X195850952Y-64709523D01*
X196231904Y-64709523D01*
X196327142Y-64661904D01*
X196374761Y-64614285D01*
X196422380Y-64519047D01*
X196422380Y-64328571D01*
X196374761Y-64233333D01*
X196327142Y-64185714D01*
X196231904Y-64138095D01*
X195993809Y-64138095D01*
X195898571Y-64185714D01*
X195850952Y-64233333D01*
X195803333Y-64328571D01*
X195803333Y-64519047D01*
X195850952Y-64614285D01*
X195898571Y-64661904D01*
X195993809Y-64709523D01*
X211357142Y-67557142D02*
X211309523Y-67604761D01*
X211166666Y-67652380D01*
X211071428Y-67652380D01*
X210928571Y-67604761D01*
X210833333Y-67509523D01*
X210785714Y-67414285D01*
X210738095Y-67223809D01*
X210738095Y-67080952D01*
X210785714Y-66890476D01*
X210833333Y-66795238D01*
X210928571Y-66700000D01*
X211071428Y-66652380D01*
X211166666Y-66652380D01*
X211309523Y-66700000D01*
X211357142Y-66747619D01*
X211738095Y-66747619D02*
X211785714Y-66700000D01*
X211880952Y-66652380D01*
X212119047Y-66652380D01*
X212214285Y-66700000D01*
X212261904Y-66747619D01*
X212309523Y-66842857D01*
X212309523Y-66938095D01*
X212261904Y-67080952D01*
X211690476Y-67652380D01*
X212309523Y-67652380D01*
X212642857Y-66652380D02*
X213309523Y-66652380D01*
X212880952Y-67652380D01*
D11*
X205878571Y-76678571D02*
X205854761Y-76702380D01*
X205783333Y-76726190D01*
X205735714Y-76726190D01*
X205664285Y-76702380D01*
X205616666Y-76654761D01*
X205592857Y-76607142D01*
X205569047Y-76511904D01*
X205569047Y-76440476D01*
X205592857Y-76345238D01*
X205616666Y-76297619D01*
X205664285Y-76250000D01*
X205735714Y-76226190D01*
X205783333Y-76226190D01*
X205854761Y-76250000D01*
X205878571Y-76273809D01*
X206069047Y-76273809D02*
X206092857Y-76250000D01*
X206140476Y-76226190D01*
X206259523Y-76226190D01*
X206307142Y-76250000D01*
X206330952Y-76273809D01*
X206354761Y-76321428D01*
X206354761Y-76369047D01*
X206330952Y-76440476D01*
X206045238Y-76726190D01*
X206354761Y-76726190D01*
X206640476Y-76440476D02*
X206592857Y-76416666D01*
X206569047Y-76392857D01*
X206545238Y-76345238D01*
X206545238Y-76321428D01*
X206569047Y-76273809D01*
X206592857Y-76250000D01*
X206640476Y-76226190D01*
X206735714Y-76226190D01*
X206783333Y-76250000D01*
X206807142Y-76273809D01*
X206830952Y-76321428D01*
X206830952Y-76345238D01*
X206807142Y-76392857D01*
X206783333Y-76416666D01*
X206735714Y-76440476D01*
X206640476Y-76440476D01*
X206592857Y-76464285D01*
X206569047Y-76488095D01*
X206545238Y-76535714D01*
X206545238Y-76630952D01*
X206569047Y-76678571D01*
X206592857Y-76702380D01*
X206640476Y-76726190D01*
X206735714Y-76726190D01*
X206783333Y-76702380D01*
X206807142Y-76678571D01*
X206830952Y-76630952D01*
X206830952Y-76535714D01*
X206807142Y-76488095D01*
X206783333Y-76464285D01*
X206735714Y-76440476D01*
D10*
X191157142Y-71557142D02*
X191109523Y-71604761D01*
X190966666Y-71652380D01*
X190871428Y-71652380D01*
X190728571Y-71604761D01*
X190633333Y-71509523D01*
X190585714Y-71414285D01*
X190538095Y-71223809D01*
X190538095Y-71080952D01*
X190585714Y-70890476D01*
X190633333Y-70795238D01*
X190728571Y-70700000D01*
X190871428Y-70652380D01*
X190966666Y-70652380D01*
X191109523Y-70700000D01*
X191157142Y-70747619D01*
X191538095Y-70747619D02*
X191585714Y-70700000D01*
X191680952Y-70652380D01*
X191919047Y-70652380D01*
X192014285Y-70700000D01*
X192061904Y-70747619D01*
X192109523Y-70842857D01*
X192109523Y-70938095D01*
X192061904Y-71080952D01*
X191490476Y-71652380D01*
X192109523Y-71652380D01*
X192585714Y-71652380D02*
X192776190Y-71652380D01*
X192871428Y-71604761D01*
X192919047Y-71557142D01*
X193014285Y-71414285D01*
X193061904Y-71223809D01*
X193061904Y-70842857D01*
X193014285Y-70747619D01*
X192966666Y-70700000D01*
X192871428Y-70652380D01*
X192680952Y-70652380D01*
X192585714Y-70700000D01*
X192538095Y-70747619D01*
X192490476Y-70842857D01*
X192490476Y-71080952D01*
X192538095Y-71176190D01*
X192585714Y-71223809D01*
X192680952Y-71271428D01*
X192871428Y-71271428D01*
X192966666Y-71223809D01*
X193014285Y-71176190D01*
X193061904Y-71080952D01*
X201757142Y-79757142D02*
X201709523Y-79804761D01*
X201566666Y-79852380D01*
X201471428Y-79852380D01*
X201328571Y-79804761D01*
X201233333Y-79709523D01*
X201185714Y-79614285D01*
X201138095Y-79423809D01*
X201138095Y-79280952D01*
X201185714Y-79090476D01*
X201233333Y-78995238D01*
X201328571Y-78900000D01*
X201471428Y-78852380D01*
X201566666Y-78852380D01*
X201709523Y-78900000D01*
X201757142Y-78947619D01*
X202090476Y-78852380D02*
X202709523Y-78852380D01*
X202376190Y-79233333D01*
X202519047Y-79233333D01*
X202614285Y-79280952D01*
X202661904Y-79328571D01*
X202709523Y-79423809D01*
X202709523Y-79661904D01*
X202661904Y-79757142D01*
X202614285Y-79804761D01*
X202519047Y-79852380D01*
X202233333Y-79852380D01*
X202138095Y-79804761D01*
X202090476Y-79757142D01*
X203328571Y-78852380D02*
X203423809Y-78852380D01*
X203519047Y-78900000D01*
X203566666Y-78947619D01*
X203614285Y-79042857D01*
X203661904Y-79233333D01*
X203661904Y-79471428D01*
X203614285Y-79661904D01*
X203566666Y-79757142D01*
X203519047Y-79804761D01*
X203423809Y-79852380D01*
X203328571Y-79852380D01*
X203233333Y-79804761D01*
X203185714Y-79757142D01*
X203138095Y-79661904D01*
X203090476Y-79471428D01*
X203090476Y-79233333D01*
X203138095Y-79042857D01*
X203185714Y-78947619D01*
X203233333Y-78900000D01*
X203328571Y-78852380D01*
X192957142Y-75457142D02*
X192909523Y-75504761D01*
X192766666Y-75552380D01*
X192671428Y-75552380D01*
X192528571Y-75504761D01*
X192433333Y-75409523D01*
X192385714Y-75314285D01*
X192338095Y-75123809D01*
X192338095Y-74980952D01*
X192385714Y-74790476D01*
X192433333Y-74695238D01*
X192528571Y-74600000D01*
X192671428Y-74552380D01*
X192766666Y-74552380D01*
X192909523Y-74600000D01*
X192957142Y-74647619D01*
X193290476Y-74552380D02*
X193909523Y-74552380D01*
X193576190Y-74933333D01*
X193719047Y-74933333D01*
X193814285Y-74980952D01*
X193861904Y-75028571D01*
X193909523Y-75123809D01*
X193909523Y-75361904D01*
X193861904Y-75457142D01*
X193814285Y-75504761D01*
X193719047Y-75552380D01*
X193433333Y-75552380D01*
X193338095Y-75504761D01*
X193290476Y-75457142D01*
X194861904Y-75552380D02*
X194290476Y-75552380D01*
X194576190Y-75552380D02*
X194576190Y-74552380D01*
X194480952Y-74695238D01*
X194385714Y-74790476D01*
X194290476Y-74838095D01*
D11*
X200778571Y-66878571D02*
X200754761Y-66902380D01*
X200683333Y-66926190D01*
X200635714Y-66926190D01*
X200564285Y-66902380D01*
X200516666Y-66854761D01*
X200492857Y-66807142D01*
X200469047Y-66711904D01*
X200469047Y-66640476D01*
X200492857Y-66545238D01*
X200516666Y-66497619D01*
X200564285Y-66450000D01*
X200635714Y-66426190D01*
X200683333Y-66426190D01*
X200754761Y-66450000D01*
X200778571Y-66473809D01*
X200945238Y-66426190D02*
X201254761Y-66426190D01*
X201088095Y-66616666D01*
X201159523Y-66616666D01*
X201207142Y-66640476D01*
X201230952Y-66664285D01*
X201254761Y-66711904D01*
X201254761Y-66830952D01*
X201230952Y-66878571D01*
X201207142Y-66902380D01*
X201159523Y-66926190D01*
X201016666Y-66926190D01*
X200969047Y-66902380D01*
X200945238Y-66878571D01*
X201445238Y-66473809D02*
X201469047Y-66450000D01*
X201516666Y-66426190D01*
X201635714Y-66426190D01*
X201683333Y-66450000D01*
X201707142Y-66473809D01*
X201730952Y-66521428D01*
X201730952Y-66569047D01*
X201707142Y-66640476D01*
X201421428Y-66926190D01*
X201730952Y-66926190D01*
D10*
X192557142Y-79127142D02*
X192509523Y-79174761D01*
X192366666Y-79222380D01*
X192271428Y-79222380D01*
X192128571Y-79174761D01*
X192033333Y-79079523D01*
X191985714Y-78984285D01*
X191938095Y-78793809D01*
X191938095Y-78650952D01*
X191985714Y-78460476D01*
X192033333Y-78365238D01*
X192128571Y-78270000D01*
X192271428Y-78222380D01*
X192366666Y-78222380D01*
X192509523Y-78270000D01*
X192557142Y-78317619D01*
X192890476Y-78222380D02*
X193509523Y-78222380D01*
X193176190Y-78603333D01*
X193319047Y-78603333D01*
X193414285Y-78650952D01*
X193461904Y-78698571D01*
X193509523Y-78793809D01*
X193509523Y-79031904D01*
X193461904Y-79127142D01*
X193414285Y-79174761D01*
X193319047Y-79222380D01*
X193033333Y-79222380D01*
X192938095Y-79174761D01*
X192890476Y-79127142D01*
X193842857Y-78222380D02*
X194461904Y-78222380D01*
X194128571Y-78603333D01*
X194271428Y-78603333D01*
X194366666Y-78650952D01*
X194414285Y-78698571D01*
X194461904Y-78793809D01*
X194461904Y-79031904D01*
X194414285Y-79127142D01*
X194366666Y-79174761D01*
X194271428Y-79222380D01*
X193985714Y-79222380D01*
X193890476Y-79174761D01*
X193842857Y-79127142D01*
X192757142Y-83157142D02*
X192709523Y-83204761D01*
X192566666Y-83252380D01*
X192471428Y-83252380D01*
X192328571Y-83204761D01*
X192233333Y-83109523D01*
X192185714Y-83014285D01*
X192138095Y-82823809D01*
X192138095Y-82680952D01*
X192185714Y-82490476D01*
X192233333Y-82395238D01*
X192328571Y-82300000D01*
X192471428Y-82252380D01*
X192566666Y-82252380D01*
X192709523Y-82300000D01*
X192757142Y-82347619D01*
X193090476Y-82252380D02*
X193709523Y-82252380D01*
X193376190Y-82633333D01*
X193519047Y-82633333D01*
X193614285Y-82680952D01*
X193661904Y-82728571D01*
X193709523Y-82823809D01*
X193709523Y-83061904D01*
X193661904Y-83157142D01*
X193614285Y-83204761D01*
X193519047Y-83252380D01*
X193233333Y-83252380D01*
X193138095Y-83204761D01*
X193090476Y-83157142D01*
X194566666Y-82585714D02*
X194566666Y-83252380D01*
X194328571Y-82204761D02*
X194090476Y-82919047D01*
X194709523Y-82919047D01*
X208057142Y-76157142D02*
X208009523Y-76204761D01*
X207866666Y-76252380D01*
X207771428Y-76252380D01*
X207628571Y-76204761D01*
X207533333Y-76109523D01*
X207485714Y-76014285D01*
X207438095Y-75823809D01*
X207438095Y-75680952D01*
X207485714Y-75490476D01*
X207533333Y-75395238D01*
X207628571Y-75300000D01*
X207771428Y-75252380D01*
X207866666Y-75252380D01*
X208009523Y-75300000D01*
X208057142Y-75347619D01*
X208390476Y-75252380D02*
X209009523Y-75252380D01*
X208676190Y-75633333D01*
X208819047Y-75633333D01*
X208914285Y-75680952D01*
X208961904Y-75728571D01*
X209009523Y-75823809D01*
X209009523Y-76061904D01*
X208961904Y-76157142D01*
X208914285Y-76204761D01*
X208819047Y-76252380D01*
X208533333Y-76252380D01*
X208438095Y-76204761D01*
X208390476Y-76157142D01*
X209914285Y-75252380D02*
X209438095Y-75252380D01*
X209390476Y-75728571D01*
X209438095Y-75680952D01*
X209533333Y-75633333D01*
X209771428Y-75633333D01*
X209866666Y-75680952D01*
X209914285Y-75728571D01*
X209961904Y-75823809D01*
X209961904Y-76061904D01*
X209914285Y-76157142D01*
X209866666Y-76204761D01*
X209771428Y-76252380D01*
X209533333Y-76252380D01*
X209438095Y-76204761D01*
X209390476Y-76157142D01*
D11*
X209478571Y-73478571D02*
X209454761Y-73502380D01*
X209383333Y-73526190D01*
X209335714Y-73526190D01*
X209264285Y-73502380D01*
X209216666Y-73454761D01*
X209192857Y-73407142D01*
X209169047Y-73311904D01*
X209169047Y-73240476D01*
X209192857Y-73145238D01*
X209216666Y-73097619D01*
X209264285Y-73050000D01*
X209335714Y-73026190D01*
X209383333Y-73026190D01*
X209454761Y-73050000D01*
X209478571Y-73073809D01*
X209645238Y-73026190D02*
X209954761Y-73026190D01*
X209788095Y-73216666D01*
X209859523Y-73216666D01*
X209907142Y-73240476D01*
X209930952Y-73264285D01*
X209954761Y-73311904D01*
X209954761Y-73430952D01*
X209930952Y-73478571D01*
X209907142Y-73502380D01*
X209859523Y-73526190D01*
X209716666Y-73526190D01*
X209669047Y-73502380D01*
X209645238Y-73478571D01*
X210383333Y-73026190D02*
X210288095Y-73026190D01*
X210240476Y-73050000D01*
X210216666Y-73073809D01*
X210169047Y-73145238D01*
X210145238Y-73240476D01*
X210145238Y-73430952D01*
X210169047Y-73478571D01*
X210192857Y-73502380D01*
X210240476Y-73526190D01*
X210335714Y-73526190D01*
X210383333Y-73502380D01*
X210407142Y-73478571D01*
X210430952Y-73430952D01*
X210430952Y-73311904D01*
X210407142Y-73264285D01*
X210383333Y-73240476D01*
X210335714Y-73216666D01*
X210240476Y-73216666D01*
X210192857Y-73240476D01*
X210169047Y-73264285D01*
X210145238Y-73311904D01*
D10*
X190257142Y-73457142D02*
X190209523Y-73504761D01*
X190066666Y-73552380D01*
X189971428Y-73552380D01*
X189828571Y-73504761D01*
X189733333Y-73409523D01*
X189685714Y-73314285D01*
X189638095Y-73123809D01*
X189638095Y-72980952D01*
X189685714Y-72790476D01*
X189733333Y-72695238D01*
X189828571Y-72600000D01*
X189971428Y-72552380D01*
X190066666Y-72552380D01*
X190209523Y-72600000D01*
X190257142Y-72647619D01*
X190590476Y-72552380D02*
X191209523Y-72552380D01*
X190876190Y-72933333D01*
X191019047Y-72933333D01*
X191114285Y-72980952D01*
X191161904Y-73028571D01*
X191209523Y-73123809D01*
X191209523Y-73361904D01*
X191161904Y-73457142D01*
X191114285Y-73504761D01*
X191019047Y-73552380D01*
X190733333Y-73552380D01*
X190638095Y-73504761D01*
X190590476Y-73457142D01*
X191542857Y-72552380D02*
X192209523Y-72552380D01*
X191780952Y-73552380D01*
D11*
X195078571Y-72758571D02*
X195054761Y-72782380D01*
X194983333Y-72806190D01*
X194935714Y-72806190D01*
X194864285Y-72782380D01*
X194816666Y-72734761D01*
X194792857Y-72687142D01*
X194769047Y-72591904D01*
X194769047Y-72520476D01*
X194792857Y-72425238D01*
X194816666Y-72377619D01*
X194864285Y-72330000D01*
X194935714Y-72306190D01*
X194983333Y-72306190D01*
X195054761Y-72330000D01*
X195078571Y-72353809D01*
X195245238Y-72306190D02*
X195554761Y-72306190D01*
X195388095Y-72496666D01*
X195459523Y-72496666D01*
X195507142Y-72520476D01*
X195530952Y-72544285D01*
X195554761Y-72591904D01*
X195554761Y-72710952D01*
X195530952Y-72758571D01*
X195507142Y-72782380D01*
X195459523Y-72806190D01*
X195316666Y-72806190D01*
X195269047Y-72782380D01*
X195245238Y-72758571D01*
X195840476Y-72520476D02*
X195792857Y-72496666D01*
X195769047Y-72472857D01*
X195745238Y-72425238D01*
X195745238Y-72401428D01*
X195769047Y-72353809D01*
X195792857Y-72330000D01*
X195840476Y-72306190D01*
X195935714Y-72306190D01*
X195983333Y-72330000D01*
X196007142Y-72353809D01*
X196030952Y-72401428D01*
X196030952Y-72425238D01*
X196007142Y-72472857D01*
X195983333Y-72496666D01*
X195935714Y-72520476D01*
X195840476Y-72520476D01*
X195792857Y-72544285D01*
X195769047Y-72568095D01*
X195745238Y-72615714D01*
X195745238Y-72710952D01*
X195769047Y-72758571D01*
X195792857Y-72782380D01*
X195840476Y-72806190D01*
X195935714Y-72806190D01*
X195983333Y-72782380D01*
X196007142Y-72758571D01*
X196030952Y-72710952D01*
X196030952Y-72615714D01*
X196007142Y-72568095D01*
X195983333Y-72544285D01*
X195935714Y-72520476D01*
D10*
X187557142Y-69807142D02*
X187509523Y-69854761D01*
X187366666Y-69902380D01*
X187271428Y-69902380D01*
X187128571Y-69854761D01*
X187033333Y-69759523D01*
X186985714Y-69664285D01*
X186938095Y-69473809D01*
X186938095Y-69330952D01*
X186985714Y-69140476D01*
X187033333Y-69045238D01*
X187128571Y-68950000D01*
X187271428Y-68902380D01*
X187366666Y-68902380D01*
X187509523Y-68950000D01*
X187557142Y-68997619D01*
X187890476Y-68902380D02*
X188509523Y-68902380D01*
X188176190Y-69283333D01*
X188319047Y-69283333D01*
X188414285Y-69330952D01*
X188461904Y-69378571D01*
X188509523Y-69473809D01*
X188509523Y-69711904D01*
X188461904Y-69807142D01*
X188414285Y-69854761D01*
X188319047Y-69902380D01*
X188033333Y-69902380D01*
X187938095Y-69854761D01*
X187890476Y-69807142D01*
X188985714Y-69902380D02*
X189176190Y-69902380D01*
X189271428Y-69854761D01*
X189319047Y-69807142D01*
X189414285Y-69664285D01*
X189461904Y-69473809D01*
X189461904Y-69092857D01*
X189414285Y-68997619D01*
X189366666Y-68950000D01*
X189271428Y-68902380D01*
X189080952Y-68902380D01*
X188985714Y-68950000D01*
X188938095Y-68997619D01*
X188890476Y-69092857D01*
X188890476Y-69330952D01*
X188938095Y-69426190D01*
X188985714Y-69473809D01*
X189080952Y-69521428D01*
X189271428Y-69521428D01*
X189366666Y-69473809D01*
X189414285Y-69426190D01*
X189461904Y-69330952D01*
D11*
X197178571Y-79478571D02*
X197154761Y-79502380D01*
X197083333Y-79526190D01*
X197035714Y-79526190D01*
X196964285Y-79502380D01*
X196916666Y-79454761D01*
X196892857Y-79407142D01*
X196869047Y-79311904D01*
X196869047Y-79240476D01*
X196892857Y-79145238D01*
X196916666Y-79097619D01*
X196964285Y-79050000D01*
X197035714Y-79026190D01*
X197083333Y-79026190D01*
X197154761Y-79050000D01*
X197178571Y-79073809D01*
X197607142Y-79192857D02*
X197607142Y-79526190D01*
X197488095Y-79002380D02*
X197369047Y-79359523D01*
X197678571Y-79359523D01*
X197964285Y-79026190D02*
X198011904Y-79026190D01*
X198059523Y-79050000D01*
X198083333Y-79073809D01*
X198107142Y-79121428D01*
X198130952Y-79216666D01*
X198130952Y-79335714D01*
X198107142Y-79430952D01*
X198083333Y-79478571D01*
X198059523Y-79502380D01*
X198011904Y-79526190D01*
X197964285Y-79526190D01*
X197916666Y-79502380D01*
X197892857Y-79478571D01*
X197869047Y-79430952D01*
X197845238Y-79335714D01*
X197845238Y-79216666D01*
X197869047Y-79121428D01*
X197892857Y-79073809D01*
X197916666Y-79050000D01*
X197964285Y-79026190D01*
D10*
X199557142Y-77942857D02*
X199604761Y-77990476D01*
X199652380Y-78133333D01*
X199652380Y-78228571D01*
X199604761Y-78371428D01*
X199509523Y-78466666D01*
X199414285Y-78514285D01*
X199223809Y-78561904D01*
X199080952Y-78561904D01*
X198890476Y-78514285D01*
X198795238Y-78466666D01*
X198700000Y-78371428D01*
X198652380Y-78228571D01*
X198652380Y-78133333D01*
X198700000Y-77990476D01*
X198747619Y-77942857D01*
X198985714Y-77085714D02*
X199652380Y-77085714D01*
X198604761Y-77323809D02*
X199319047Y-77561904D01*
X199319047Y-76942857D01*
X199652380Y-76038095D02*
X199652380Y-76609523D01*
X199652380Y-76323809D02*
X198652380Y-76323809D01*
X198795238Y-76419047D01*
X198890476Y-76514285D01*
X198938095Y-76609523D01*
X197637142Y-62857142D02*
X197589523Y-62904761D01*
X197446666Y-62952380D01*
X197351428Y-62952380D01*
X197208571Y-62904761D01*
X197113333Y-62809523D01*
X197065714Y-62714285D01*
X197018095Y-62523809D01*
X197018095Y-62380952D01*
X197065714Y-62190476D01*
X197113333Y-62095238D01*
X197208571Y-62000000D01*
X197351428Y-61952380D01*
X197446666Y-61952380D01*
X197589523Y-62000000D01*
X197637142Y-62047619D01*
X198494285Y-62285714D02*
X198494285Y-62952380D01*
X198256190Y-61904761D02*
X198018095Y-62619047D01*
X198637142Y-62619047D01*
X198970476Y-62047619D02*
X199018095Y-62000000D01*
X199113333Y-61952380D01*
X199351428Y-61952380D01*
X199446666Y-62000000D01*
X199494285Y-62047619D01*
X199541904Y-62142857D01*
X199541904Y-62238095D01*
X199494285Y-62380952D01*
X198922857Y-62952380D01*
X199541904Y-62952380D01*
X197757142Y-61557142D02*
X197709523Y-61604761D01*
X197566666Y-61652380D01*
X197471428Y-61652380D01*
X197328571Y-61604761D01*
X197233333Y-61509523D01*
X197185714Y-61414285D01*
X197138095Y-61223809D01*
X197138095Y-61080952D01*
X197185714Y-60890476D01*
X197233333Y-60795238D01*
X197328571Y-60700000D01*
X197471428Y-60652380D01*
X197566666Y-60652380D01*
X197709523Y-60700000D01*
X197757142Y-60747619D01*
X198614285Y-60985714D02*
X198614285Y-61652380D01*
X198376190Y-60604761D02*
X198138095Y-61319047D01*
X198757142Y-61319047D01*
X199042857Y-60652380D02*
X199661904Y-60652380D01*
X199328571Y-61033333D01*
X199471428Y-61033333D01*
X199566666Y-61080952D01*
X199614285Y-61128571D01*
X199661904Y-61223809D01*
X199661904Y-61461904D01*
X199614285Y-61557142D01*
X199566666Y-61604761D01*
X199471428Y-61652380D01*
X199185714Y-61652380D01*
X199090476Y-61604761D01*
X199042857Y-61557142D01*
X206585714Y-60252380D02*
X206585714Y-59252380D01*
X206823809Y-59252380D01*
X206966666Y-59300000D01*
X207061904Y-59395238D01*
X207109523Y-59490476D01*
X207157142Y-59680952D01*
X207157142Y-59823809D01*
X207109523Y-60014285D01*
X207061904Y-60109523D01*
X206966666Y-60204761D01*
X206823809Y-60252380D01*
X206585714Y-60252380D01*
X208014285Y-59585714D02*
X208014285Y-60252380D01*
X207776190Y-59204761D02*
X207538095Y-59919047D01*
X208157142Y-59919047D01*
X208442857Y-59252380D02*
X209061904Y-59252380D01*
X208728571Y-59633333D01*
X208871428Y-59633333D01*
X208966666Y-59680952D01*
X209014285Y-59728571D01*
X209061904Y-59823809D01*
X209061904Y-60061904D01*
X209014285Y-60157142D01*
X208966666Y-60204761D01*
X208871428Y-60252380D01*
X208585714Y-60252380D01*
X208490476Y-60204761D01*
X208442857Y-60157142D01*
X149785714Y-62252380D02*
X149785714Y-61252380D01*
X150023809Y-61252380D01*
X150166666Y-61300000D01*
X150261904Y-61395238D01*
X150309523Y-61490476D01*
X150357142Y-61680952D01*
X150357142Y-61823809D01*
X150309523Y-62014285D01*
X150261904Y-62109523D01*
X150166666Y-62204761D01*
X150023809Y-62252380D01*
X149785714Y-62252380D01*
X151214285Y-61585714D02*
X151214285Y-62252380D01*
X150976190Y-61204761D02*
X150738095Y-61919047D01*
X151357142Y-61919047D01*
X152166666Y-61252380D02*
X151976190Y-61252380D01*
X151880952Y-61300000D01*
X151833333Y-61347619D01*
X151738095Y-61490476D01*
X151690476Y-61680952D01*
X151690476Y-62061904D01*
X151738095Y-62157142D01*
X151785714Y-62204761D01*
X151880952Y-62252380D01*
X152071428Y-62252380D01*
X152166666Y-62204761D01*
X152214285Y-62157142D01*
X152261904Y-62061904D01*
X152261904Y-61823809D01*
X152214285Y-61728571D01*
X152166666Y-61680952D01*
X152071428Y-61633333D01*
X151880952Y-61633333D01*
X151785714Y-61680952D01*
X151738095Y-61728571D01*
X151690476Y-61823809D01*
X165106666Y-56952380D02*
X165106666Y-57666666D01*
X165059047Y-57809523D01*
X164963809Y-57904761D01*
X164820952Y-57952380D01*
X164725714Y-57952380D01*
X166106666Y-57952380D02*
X165535238Y-57952380D01*
X165820952Y-57952380D02*
X165820952Y-56952380D01*
X165725714Y-57095238D01*
X165630476Y-57190476D01*
X165535238Y-57238095D01*
X151766666Y-54752380D02*
X151766666Y-55466666D01*
X151719047Y-55609523D01*
X151623809Y-55704761D01*
X151480952Y-55752380D01*
X151385714Y-55752380D01*
X152195238Y-54847619D02*
X152242857Y-54800000D01*
X152338095Y-54752380D01*
X152576190Y-54752380D01*
X152671428Y-54800000D01*
X152719047Y-54847619D01*
X152766666Y-54942857D01*
X152766666Y-55038095D01*
X152719047Y-55180952D01*
X152147619Y-55752380D01*
X152766666Y-55752380D01*
X193026666Y-56152380D02*
X193026666Y-56866666D01*
X192979047Y-57009523D01*
X192883809Y-57104761D01*
X192740952Y-57152380D01*
X192645714Y-57152380D01*
X193407619Y-56152380D02*
X194026666Y-56152380D01*
X193693333Y-56533333D01*
X193836190Y-56533333D01*
X193931428Y-56580952D01*
X193979047Y-56628571D01*
X194026666Y-56723809D01*
X194026666Y-56961904D01*
X193979047Y-57057142D01*
X193931428Y-57104761D01*
X193836190Y-57152380D01*
X193550476Y-57152380D01*
X193455238Y-57104761D01*
X193407619Y-57057142D01*
X196566666Y-55452380D02*
X196566666Y-56166666D01*
X196519047Y-56309523D01*
X196423809Y-56404761D01*
X196280952Y-56452380D01*
X196185714Y-56452380D01*
X197471428Y-55785714D02*
X197471428Y-56452380D01*
X197233333Y-55404761D02*
X196995238Y-56119047D01*
X197614285Y-56119047D01*
D11*
X155683333Y-65626190D02*
X155683333Y-65983333D01*
X155659523Y-66054761D01*
X155611904Y-66102380D01*
X155540476Y-66126190D01*
X155492857Y-66126190D01*
X155921428Y-66126190D02*
X155921428Y-65626190D01*
X156111904Y-65626190D01*
X156159523Y-65650000D01*
X156183333Y-65673809D01*
X156207142Y-65721428D01*
X156207142Y-65792857D01*
X156183333Y-65840476D01*
X156159523Y-65864285D01*
X156111904Y-65888095D01*
X155921428Y-65888095D01*
X156683333Y-66126190D02*
X156397619Y-66126190D01*
X156540476Y-66126190D02*
X156540476Y-65626190D01*
X156492857Y-65697619D01*
X156445238Y-65745238D01*
X156397619Y-65769047D01*
D10*
X170766666Y-91877678D02*
X170766666Y-92591964D01*
X170719047Y-92734821D01*
X170623809Y-92830059D01*
X170480952Y-92877678D01*
X170385714Y-92877678D01*
X171242857Y-92877678D02*
X171242857Y-91877678D01*
X171623809Y-91877678D01*
X171719047Y-91925298D01*
X171766666Y-91972917D01*
X171814285Y-92068155D01*
X171814285Y-92211012D01*
X171766666Y-92306250D01*
X171719047Y-92353869D01*
X171623809Y-92401488D01*
X171242857Y-92401488D01*
X172195238Y-91972917D02*
X172242857Y-91925298D01*
X172338095Y-91877678D01*
X172576190Y-91877678D01*
X172671428Y-91925298D01*
X172719047Y-91972917D01*
X172766666Y-92068155D01*
X172766666Y-92163393D01*
X172719047Y-92306250D01*
X172147619Y-92877678D01*
X172766666Y-92877678D01*
X150366666Y-64552380D02*
X150366666Y-65266666D01*
X150319047Y-65409523D01*
X150223809Y-65504761D01*
X150080952Y-65552380D01*
X149985714Y-65552380D01*
X150842857Y-65552380D02*
X150842857Y-64552380D01*
X151223809Y-64552380D01*
X151319047Y-64600000D01*
X151366666Y-64647619D01*
X151414285Y-64742857D01*
X151414285Y-64885714D01*
X151366666Y-64980952D01*
X151319047Y-65028571D01*
X151223809Y-65076190D01*
X150842857Y-65076190D01*
X151747619Y-64552380D02*
X152366666Y-64552380D01*
X152033333Y-64933333D01*
X152176190Y-64933333D01*
X152271428Y-64980952D01*
X152319047Y-65028571D01*
X152366666Y-65123809D01*
X152366666Y-65361904D01*
X152319047Y-65457142D01*
X152271428Y-65504761D01*
X152176190Y-65552380D01*
X151890476Y-65552380D01*
X151795238Y-65504761D01*
X151747619Y-65457142D01*
X209566666Y-70352380D02*
X209566666Y-71066666D01*
X209519047Y-71209523D01*
X209423809Y-71304761D01*
X209280952Y-71352380D01*
X209185714Y-71352380D01*
X210042857Y-71352380D02*
X210042857Y-70352380D01*
X210423809Y-70352380D01*
X210519047Y-70400000D01*
X210566666Y-70447619D01*
X210614285Y-70542857D01*
X210614285Y-70685714D01*
X210566666Y-70780952D01*
X210519047Y-70828571D01*
X210423809Y-70876190D01*
X210042857Y-70876190D01*
X211471428Y-70685714D02*
X211471428Y-71352380D01*
X211233333Y-70304761D02*
X210995238Y-71019047D01*
X211614285Y-71019047D01*
X187416666Y-97552380D02*
X187416666Y-98266666D01*
X187369047Y-98409523D01*
X187273809Y-98504761D01*
X187130952Y-98552380D01*
X187035714Y-98552380D01*
X187892857Y-98552380D02*
X187892857Y-97552380D01*
X188273809Y-97552380D01*
X188369047Y-97600000D01*
X188416666Y-97647619D01*
X188464285Y-97742857D01*
X188464285Y-97885714D01*
X188416666Y-97980952D01*
X188369047Y-98028571D01*
X188273809Y-98076190D01*
X187892857Y-98076190D01*
X189369047Y-97552380D02*
X188892857Y-97552380D01*
X188845238Y-98028571D01*
X188892857Y-97980952D01*
X188988095Y-97933333D01*
X189226190Y-97933333D01*
X189321428Y-97980952D01*
X189369047Y-98028571D01*
X189416666Y-98123809D01*
X189416666Y-98361904D01*
X189369047Y-98457142D01*
X189321428Y-98504761D01*
X189226190Y-98552380D01*
X188988095Y-98552380D01*
X188892857Y-98504761D01*
X188845238Y-98457142D01*
X195966666Y-58752380D02*
X195966666Y-59466666D01*
X195919047Y-59609523D01*
X195823809Y-59704761D01*
X195680952Y-59752380D01*
X195585714Y-59752380D01*
X196442857Y-59752380D02*
X196442857Y-58752380D01*
X196823809Y-58752380D01*
X196919047Y-58800000D01*
X196966666Y-58847619D01*
X197014285Y-58942857D01*
X197014285Y-59085714D01*
X196966666Y-59180952D01*
X196919047Y-59228571D01*
X196823809Y-59276190D01*
X196442857Y-59276190D01*
X197871428Y-58752380D02*
X197680952Y-58752380D01*
X197585714Y-58800000D01*
X197538095Y-58847619D01*
X197442857Y-58990476D01*
X197395238Y-59180952D01*
X197395238Y-59561904D01*
X197442857Y-59657142D01*
X197490476Y-59704761D01*
X197585714Y-59752380D01*
X197776190Y-59752380D01*
X197871428Y-59704761D01*
X197919047Y-59657142D01*
X197966666Y-59561904D01*
X197966666Y-59323809D01*
X197919047Y-59228571D01*
X197871428Y-59180952D01*
X197776190Y-59133333D01*
X197585714Y-59133333D01*
X197490476Y-59180952D01*
X197442857Y-59228571D01*
X197395238Y-59323809D01*
X158833333Y-83152380D02*
X158357142Y-83152380D01*
X158357142Y-82152380D01*
X159690476Y-83152380D02*
X159119047Y-83152380D01*
X159404761Y-83152380D02*
X159404761Y-82152380D01*
X159309523Y-82295238D01*
X159214285Y-82390476D01*
X159119047Y-82438095D01*
X160333333Y-67882380D02*
X159857142Y-67882380D01*
X159857142Y-66882380D01*
X160619047Y-66977619D02*
X160666666Y-66930000D01*
X160761904Y-66882380D01*
X161000000Y-66882380D01*
X161095238Y-66930000D01*
X161142857Y-66977619D01*
X161190476Y-67072857D01*
X161190476Y-67168095D01*
X161142857Y-67310952D01*
X160571428Y-67882380D01*
X161190476Y-67882380D01*
X163733333Y-65352380D02*
X163257142Y-65352380D01*
X163257142Y-64352380D01*
X163971428Y-64352380D02*
X164590476Y-64352380D01*
X164257142Y-64733333D01*
X164400000Y-64733333D01*
X164495238Y-64780952D01*
X164542857Y-64828571D01*
X164590476Y-64923809D01*
X164590476Y-65161904D01*
X164542857Y-65257142D01*
X164495238Y-65304761D01*
X164400000Y-65352380D01*
X164114285Y-65352380D01*
X164019047Y-65304761D01*
X163971428Y-65257142D01*
D11*
X167516666Y-71626190D02*
X167278571Y-71626190D01*
X167278571Y-71126190D01*
X167897619Y-71292857D02*
X167897619Y-71626190D01*
X167778571Y-71102380D02*
X167659523Y-71459523D01*
X167969047Y-71459523D01*
D10*
X209833333Y-69052380D02*
X209357142Y-69052380D01*
X209357142Y-68052380D01*
X210642857Y-68052380D02*
X210166666Y-68052380D01*
X210119047Y-68528571D01*
X210166666Y-68480952D01*
X210261904Y-68433333D01*
X210500000Y-68433333D01*
X210595238Y-68480952D01*
X210642857Y-68528571D01*
X210690476Y-68623809D01*
X210690476Y-68861904D01*
X210642857Y-68957142D01*
X210595238Y-69004761D01*
X210500000Y-69052380D01*
X210261904Y-69052380D01*
X210166666Y-69004761D01*
X210119047Y-68957142D01*
X198433333Y-82152380D02*
X197957142Y-82152380D01*
X197957142Y-81152380D01*
X199195238Y-81152380D02*
X199004761Y-81152380D01*
X198909523Y-81200000D01*
X198861904Y-81247619D01*
X198766666Y-81390476D01*
X198719047Y-81580952D01*
X198719047Y-81961904D01*
X198766666Y-82057142D01*
X198814285Y-82104761D01*
X198909523Y-82152380D01*
X199100000Y-82152380D01*
X199195238Y-82104761D01*
X199242857Y-82057142D01*
X199290476Y-81961904D01*
X199290476Y-81723809D01*
X199242857Y-81628571D01*
X199195238Y-81580952D01*
X199100000Y-81533333D01*
X198909523Y-81533333D01*
X198814285Y-81580952D01*
X198766666Y-81628571D01*
X198719047Y-81723809D01*
X195833333Y-81952380D02*
X195357142Y-81952380D01*
X195357142Y-80952380D01*
X196071428Y-80952380D02*
X196738095Y-80952380D01*
X196309523Y-81952380D01*
X193733333Y-72847380D02*
X193257142Y-72847380D01*
X193257142Y-71847380D01*
X194209523Y-72275952D02*
X194114285Y-72228333D01*
X194066666Y-72180714D01*
X194019047Y-72085476D01*
X194019047Y-72037857D01*
X194066666Y-71942619D01*
X194114285Y-71895000D01*
X194209523Y-71847380D01*
X194400000Y-71847380D01*
X194495238Y-71895000D01*
X194542857Y-71942619D01*
X194590476Y-72037857D01*
X194590476Y-72085476D01*
X194542857Y-72180714D01*
X194495238Y-72228333D01*
X194400000Y-72275952D01*
X194209523Y-72275952D01*
X194114285Y-72323571D01*
X194066666Y-72371190D01*
X194019047Y-72466428D01*
X194019047Y-72656904D01*
X194066666Y-72752142D01*
X194114285Y-72799761D01*
X194209523Y-72847380D01*
X194400000Y-72847380D01*
X194495238Y-72799761D01*
X194542857Y-72752142D01*
X194590476Y-72656904D01*
X194590476Y-72466428D01*
X194542857Y-72371190D01*
X194495238Y-72323571D01*
X194400000Y-72275952D01*
X154180952Y-83652380D02*
X153704761Y-83652380D01*
X153704761Y-82652380D01*
X154514285Y-83128571D02*
X154847619Y-83128571D01*
X154990476Y-83652380D02*
X154514285Y-83652380D01*
X154514285Y-82652380D01*
X154990476Y-82652380D01*
X155419047Y-83652380D02*
X155419047Y-82652380D01*
X155657142Y-82652380D01*
X155800000Y-82700000D01*
X155895238Y-82795238D01*
X155942857Y-82890476D01*
X155990476Y-83080952D01*
X155990476Y-83223809D01*
X155942857Y-83414285D01*
X155895238Y-83509523D01*
X155800000Y-83604761D01*
X155657142Y-83652380D01*
X155419047Y-83652380D01*
X156942857Y-83652380D02*
X156371428Y-83652380D01*
X156657142Y-83652380D02*
X156657142Y-82652380D01*
X156561904Y-82795238D01*
X156466666Y-82890476D01*
X156371428Y-82938095D01*
X205680952Y-67652380D02*
X205204761Y-67652380D01*
X205204761Y-66652380D01*
X206014285Y-67128571D02*
X206347619Y-67128571D01*
X206490476Y-67652380D02*
X206014285Y-67652380D01*
X206014285Y-66652380D01*
X206490476Y-66652380D01*
X206919047Y-67652380D02*
X206919047Y-66652380D01*
X207157142Y-66652380D01*
X207300000Y-66700000D01*
X207395238Y-66795238D01*
X207442857Y-66890476D01*
X207490476Y-67080952D01*
X207490476Y-67223809D01*
X207442857Y-67414285D01*
X207395238Y-67509523D01*
X207300000Y-67604761D01*
X207157142Y-67652380D01*
X206919047Y-67652380D01*
X207871428Y-66747619D02*
X207919047Y-66700000D01*
X208014285Y-66652380D01*
X208252380Y-66652380D01*
X208347619Y-66700000D01*
X208395238Y-66747619D01*
X208442857Y-66842857D01*
X208442857Y-66938095D01*
X208395238Y-67080952D01*
X207823809Y-67652380D01*
X208442857Y-67652380D01*
X152013333Y-67452380D02*
X151680000Y-66976190D01*
X151441904Y-67452380D02*
X151441904Y-66452380D01*
X151822857Y-66452380D01*
X151918095Y-66500000D01*
X151965714Y-66547619D01*
X152013333Y-66642857D01*
X152013333Y-66785714D01*
X151965714Y-66880952D01*
X151918095Y-66928571D01*
X151822857Y-66976190D01*
X151441904Y-66976190D01*
X152965714Y-67452380D02*
X152394285Y-67452380D01*
X152680000Y-67452380D02*
X152680000Y-66452380D01*
X152584761Y-66595238D01*
X152489523Y-66690476D01*
X152394285Y-66738095D01*
X169233333Y-70452380D02*
X168900000Y-69976190D01*
X168661904Y-70452380D02*
X168661904Y-69452380D01*
X169042857Y-69452380D01*
X169138095Y-69500000D01*
X169185714Y-69547619D01*
X169233333Y-69642857D01*
X169233333Y-69785714D01*
X169185714Y-69880952D01*
X169138095Y-69928571D01*
X169042857Y-69976190D01*
X168661904Y-69976190D01*
X169614285Y-69547619D02*
X169661904Y-69500000D01*
X169757142Y-69452380D01*
X169995238Y-69452380D01*
X170090476Y-69500000D01*
X170138095Y-69547619D01*
X170185714Y-69642857D01*
X170185714Y-69738095D01*
X170138095Y-69880952D01*
X169566666Y-70452380D01*
X170185714Y-70452380D01*
X151883333Y-78102380D02*
X151550000Y-77626190D01*
X151311904Y-78102380D02*
X151311904Y-77102380D01*
X151692857Y-77102380D01*
X151788095Y-77150000D01*
X151835714Y-77197619D01*
X151883333Y-77292857D01*
X151883333Y-77435714D01*
X151835714Y-77530952D01*
X151788095Y-77578571D01*
X151692857Y-77626190D01*
X151311904Y-77626190D01*
X152216666Y-77102380D02*
X152835714Y-77102380D01*
X152502380Y-77483333D01*
X152645238Y-77483333D01*
X152740476Y-77530952D01*
X152788095Y-77578571D01*
X152835714Y-77673809D01*
X152835714Y-77911904D01*
X152788095Y-78007142D01*
X152740476Y-78054761D01*
X152645238Y-78102380D01*
X152359523Y-78102380D01*
X152264285Y-78054761D01*
X152216666Y-78007142D01*
X151883333Y-80102380D02*
X151550000Y-79626190D01*
X151311904Y-80102380D02*
X151311904Y-79102380D01*
X151692857Y-79102380D01*
X151788095Y-79150000D01*
X151835714Y-79197619D01*
X151883333Y-79292857D01*
X151883333Y-79435714D01*
X151835714Y-79530952D01*
X151788095Y-79578571D01*
X151692857Y-79626190D01*
X151311904Y-79626190D01*
X152740476Y-79435714D02*
X152740476Y-80102380D01*
X152502380Y-79054761D02*
X152264285Y-79769047D01*
X152883333Y-79769047D01*
X151883333Y-82102380D02*
X151550000Y-81626190D01*
X151311904Y-82102380D02*
X151311904Y-81102380D01*
X151692857Y-81102380D01*
X151788095Y-81150000D01*
X151835714Y-81197619D01*
X151883333Y-81292857D01*
X151883333Y-81435714D01*
X151835714Y-81530952D01*
X151788095Y-81578571D01*
X151692857Y-81626190D01*
X151311904Y-81626190D01*
X152788095Y-81102380D02*
X152311904Y-81102380D01*
X152264285Y-81578571D01*
X152311904Y-81530952D01*
X152407142Y-81483333D01*
X152645238Y-81483333D01*
X152740476Y-81530952D01*
X152788095Y-81578571D01*
X152835714Y-81673809D01*
X152835714Y-81911904D01*
X152788095Y-82007142D01*
X152740476Y-82054761D01*
X152645238Y-82102380D01*
X152407142Y-82102380D01*
X152311904Y-82054761D01*
X152264285Y-82007142D01*
X199602380Y-64166666D02*
X199126190Y-64500000D01*
X199602380Y-64738095D02*
X198602380Y-64738095D01*
X198602380Y-64357142D01*
X198650000Y-64261904D01*
X198697619Y-64214285D01*
X198792857Y-64166666D01*
X198935714Y-64166666D01*
X199030952Y-64214285D01*
X199078571Y-64261904D01*
X199126190Y-64357142D01*
X199126190Y-64738095D01*
X198602380Y-63309523D02*
X198602380Y-63500000D01*
X198650000Y-63595238D01*
X198697619Y-63642857D01*
X198840476Y-63738095D01*
X199030952Y-63785714D01*
X199411904Y-63785714D01*
X199507142Y-63738095D01*
X199554761Y-63690476D01*
X199602380Y-63595238D01*
X199602380Y-63404761D01*
X199554761Y-63309523D01*
X199507142Y-63261904D01*
X199411904Y-63214285D01*
X199173809Y-63214285D01*
X199078571Y-63261904D01*
X199030952Y-63309523D01*
X198983333Y-63404761D01*
X198983333Y-63595238D01*
X199030952Y-63690476D01*
X199078571Y-63738095D01*
X199173809Y-63785714D01*
X203433333Y-66452380D02*
X203100000Y-65976190D01*
X202861904Y-66452380D02*
X202861904Y-65452380D01*
X203242857Y-65452380D01*
X203338095Y-65500000D01*
X203385714Y-65547619D01*
X203433333Y-65642857D01*
X203433333Y-65785714D01*
X203385714Y-65880952D01*
X203338095Y-65928571D01*
X203242857Y-65976190D01*
X202861904Y-65976190D01*
X203766666Y-65452380D02*
X204433333Y-65452380D01*
X204004761Y-66452380D01*
X203433333Y-65252380D02*
X203100000Y-64776190D01*
X202861904Y-65252380D02*
X202861904Y-64252380D01*
X203242857Y-64252380D01*
X203338095Y-64300000D01*
X203385714Y-64347619D01*
X203433333Y-64442857D01*
X203433333Y-64585714D01*
X203385714Y-64680952D01*
X203338095Y-64728571D01*
X203242857Y-64776190D01*
X202861904Y-64776190D01*
X204004761Y-64680952D02*
X203909523Y-64633333D01*
X203861904Y-64585714D01*
X203814285Y-64490476D01*
X203814285Y-64442857D01*
X203861904Y-64347619D01*
X203909523Y-64300000D01*
X204004761Y-64252380D01*
X204195238Y-64252380D01*
X204290476Y-64300000D01*
X204338095Y-64347619D01*
X204385714Y-64442857D01*
X204385714Y-64490476D01*
X204338095Y-64585714D01*
X204290476Y-64633333D01*
X204195238Y-64680952D01*
X204004761Y-64680952D01*
X203909523Y-64728571D01*
X203861904Y-64776190D01*
X203814285Y-64871428D01*
X203814285Y-65061904D01*
X203861904Y-65157142D01*
X203909523Y-65204761D01*
X204004761Y-65252380D01*
X204195238Y-65252380D01*
X204290476Y-65204761D01*
X204338095Y-65157142D01*
X204385714Y-65061904D01*
X204385714Y-64871428D01*
X204338095Y-64776190D01*
X204290476Y-64728571D01*
X204195238Y-64680952D01*
X203433333Y-64052380D02*
X203100000Y-63576190D01*
X202861904Y-64052380D02*
X202861904Y-63052380D01*
X203242857Y-63052380D01*
X203338095Y-63100000D01*
X203385714Y-63147619D01*
X203433333Y-63242857D01*
X203433333Y-63385714D01*
X203385714Y-63480952D01*
X203338095Y-63528571D01*
X203242857Y-63576190D01*
X202861904Y-63576190D01*
X203909523Y-64052380D02*
X204100000Y-64052380D01*
X204195238Y-64004761D01*
X204242857Y-63957142D01*
X204338095Y-63814285D01*
X204385714Y-63623809D01*
X204385714Y-63242857D01*
X204338095Y-63147619D01*
X204290476Y-63100000D01*
X204195238Y-63052380D01*
X204004761Y-63052380D01*
X203909523Y-63100000D01*
X203861904Y-63147619D01*
X203814285Y-63242857D01*
X203814285Y-63480952D01*
X203861904Y-63576190D01*
X203909523Y-63623809D01*
X204004761Y-63671428D01*
X204195238Y-63671428D01*
X204290476Y-63623809D01*
X204338095Y-63576190D01*
X204385714Y-63480952D01*
X190557142Y-59852380D02*
X190223809Y-59376190D01*
X189985714Y-59852380D02*
X189985714Y-58852380D01*
X190366666Y-58852380D01*
X190461904Y-58900000D01*
X190509523Y-58947619D01*
X190557142Y-59042857D01*
X190557142Y-59185714D01*
X190509523Y-59280952D01*
X190461904Y-59328571D01*
X190366666Y-59376190D01*
X189985714Y-59376190D01*
X191509523Y-59852380D02*
X190938095Y-59852380D01*
X191223809Y-59852380D02*
X191223809Y-58852380D01*
X191128571Y-58995238D01*
X191033333Y-59090476D01*
X190938095Y-59138095D01*
X192128571Y-58852380D02*
X192223809Y-58852380D01*
X192319047Y-58900000D01*
X192366666Y-58947619D01*
X192414285Y-59042857D01*
X192461904Y-59233333D01*
X192461904Y-59471428D01*
X192414285Y-59661904D01*
X192366666Y-59757142D01*
X192319047Y-59804761D01*
X192223809Y-59852380D01*
X192128571Y-59852380D01*
X192033333Y-59804761D01*
X191985714Y-59757142D01*
X191938095Y-59661904D01*
X191890476Y-59471428D01*
X191890476Y-59233333D01*
X191938095Y-59042857D01*
X191985714Y-58947619D01*
X192033333Y-58900000D01*
X192128571Y-58852380D01*
X49666666Y-68404761D02*
X49809523Y-68452380D01*
X50047619Y-68452380D01*
X50142857Y-68404761D01*
X50190476Y-68357142D01*
X50238095Y-68261904D01*
X50238095Y-68166666D01*
X50190476Y-68071428D01*
X50142857Y-68023809D01*
X50047619Y-67976190D01*
X49857142Y-67928571D01*
X49761904Y-67880952D01*
X49714285Y-67833333D01*
X49666666Y-67738095D01*
X49666666Y-67642857D01*
X49714285Y-67547619D01*
X49761904Y-67500000D01*
X49857142Y-67452380D01*
X50095238Y-67452380D01*
X50238095Y-67500000D01*
X50571428Y-67452380D02*
X50809523Y-68452380D01*
X51000000Y-67738095D01*
X51190476Y-68452380D01*
X51428571Y-67452380D01*
X52333333Y-68452380D02*
X51761904Y-68452380D01*
X52047619Y-68452380D02*
X52047619Y-67452380D01*
X51952380Y-67595238D01*
X51857142Y-67690476D01*
X51761904Y-67738095D01*
X67666666Y-68404761D02*
X67809523Y-68452380D01*
X68047619Y-68452380D01*
X68142857Y-68404761D01*
X68190476Y-68357142D01*
X68238095Y-68261904D01*
X68238095Y-68166666D01*
X68190476Y-68071428D01*
X68142857Y-68023809D01*
X68047619Y-67976190D01*
X67857142Y-67928571D01*
X67761904Y-67880952D01*
X67714285Y-67833333D01*
X67666666Y-67738095D01*
X67666666Y-67642857D01*
X67714285Y-67547619D01*
X67761904Y-67500000D01*
X67857142Y-67452380D01*
X68095238Y-67452380D01*
X68238095Y-67500000D01*
X68571428Y-67452380D02*
X68809523Y-68452380D01*
X69000000Y-67738095D01*
X69190476Y-68452380D01*
X69428571Y-67452380D01*
X69761904Y-67547619D02*
X69809523Y-67500000D01*
X69904761Y-67452380D01*
X70142857Y-67452380D01*
X70238095Y-67500000D01*
X70285714Y-67547619D01*
X70333333Y-67642857D01*
X70333333Y-67738095D01*
X70285714Y-67880952D01*
X69714285Y-68452380D01*
X70333333Y-68452380D01*
X85666666Y-64404761D02*
X85809523Y-64452380D01*
X86047619Y-64452380D01*
X86142857Y-64404761D01*
X86190476Y-64357142D01*
X86238095Y-64261904D01*
X86238095Y-64166666D01*
X86190476Y-64071428D01*
X86142857Y-64023809D01*
X86047619Y-63976190D01*
X85857142Y-63928571D01*
X85761904Y-63880952D01*
X85714285Y-63833333D01*
X85666666Y-63738095D01*
X85666666Y-63642857D01*
X85714285Y-63547619D01*
X85761904Y-63500000D01*
X85857142Y-63452380D01*
X86095238Y-63452380D01*
X86238095Y-63500000D01*
X86571428Y-63452380D02*
X86809523Y-64452380D01*
X87000000Y-63738095D01*
X87190476Y-64452380D01*
X87428571Y-63452380D01*
X87714285Y-63452380D02*
X88333333Y-63452380D01*
X88000000Y-63833333D01*
X88142857Y-63833333D01*
X88238095Y-63880952D01*
X88285714Y-63928571D01*
X88333333Y-64023809D01*
X88333333Y-64261904D01*
X88285714Y-64357142D01*
X88238095Y-64404761D01*
X88142857Y-64452380D01*
X87857142Y-64452380D01*
X87761904Y-64404761D01*
X87714285Y-64357142D01*
X103666666Y-60404761D02*
X103809523Y-60452380D01*
X104047619Y-60452380D01*
X104142857Y-60404761D01*
X104190476Y-60357142D01*
X104238095Y-60261904D01*
X104238095Y-60166666D01*
X104190476Y-60071428D01*
X104142857Y-60023809D01*
X104047619Y-59976190D01*
X103857142Y-59928571D01*
X103761904Y-59880952D01*
X103714285Y-59833333D01*
X103666666Y-59738095D01*
X103666666Y-59642857D01*
X103714285Y-59547619D01*
X103761904Y-59500000D01*
X103857142Y-59452380D01*
X104095238Y-59452380D01*
X104238095Y-59500000D01*
X104571428Y-59452380D02*
X104809523Y-60452380D01*
X105000000Y-59738095D01*
X105190476Y-60452380D01*
X105428571Y-59452380D01*
X106238095Y-59785714D02*
X106238095Y-60452380D01*
X106000000Y-59404761D02*
X105761904Y-60119047D01*
X106380952Y-60119047D01*
X121666666Y-64404761D02*
X121809523Y-64452380D01*
X122047619Y-64452380D01*
X122142857Y-64404761D01*
X122190476Y-64357142D01*
X122238095Y-64261904D01*
X122238095Y-64166666D01*
X122190476Y-64071428D01*
X122142857Y-64023809D01*
X122047619Y-63976190D01*
X121857142Y-63928571D01*
X121761904Y-63880952D01*
X121714285Y-63833333D01*
X121666666Y-63738095D01*
X121666666Y-63642857D01*
X121714285Y-63547619D01*
X121761904Y-63500000D01*
X121857142Y-63452380D01*
X122095238Y-63452380D01*
X122238095Y-63500000D01*
X122571428Y-63452380D02*
X122809523Y-64452380D01*
X123000000Y-63738095D01*
X123190476Y-64452380D01*
X123428571Y-63452380D01*
X124285714Y-63452380D02*
X123809523Y-63452380D01*
X123761904Y-63928571D01*
X123809523Y-63880952D01*
X123904761Y-63833333D01*
X124142857Y-63833333D01*
X124238095Y-63880952D01*
X124285714Y-63928571D01*
X124333333Y-64023809D01*
X124333333Y-64261904D01*
X124285714Y-64357142D01*
X124238095Y-64404761D01*
X124142857Y-64452380D01*
X123904761Y-64452380D01*
X123809523Y-64404761D01*
X123761904Y-64357142D01*
X139666666Y-68404761D02*
X139809523Y-68452380D01*
X140047619Y-68452380D01*
X140142857Y-68404761D01*
X140190476Y-68357142D01*
X140238095Y-68261904D01*
X140238095Y-68166666D01*
X140190476Y-68071428D01*
X140142857Y-68023809D01*
X140047619Y-67976190D01*
X139857142Y-67928571D01*
X139761904Y-67880952D01*
X139714285Y-67833333D01*
X139666666Y-67738095D01*
X139666666Y-67642857D01*
X139714285Y-67547619D01*
X139761904Y-67500000D01*
X139857142Y-67452380D01*
X140095238Y-67452380D01*
X140238095Y-67500000D01*
X140571428Y-67452380D02*
X140809523Y-68452380D01*
X141000000Y-67738095D01*
X141190476Y-68452380D01*
X141428571Y-67452380D01*
X142238095Y-67452380D02*
X142047619Y-67452380D01*
X141952380Y-67500000D01*
X141904761Y-67547619D01*
X141809523Y-67690476D01*
X141761904Y-67880952D01*
X141761904Y-68261904D01*
X141809523Y-68357142D01*
X141857142Y-68404761D01*
X141952380Y-68452380D01*
X142142857Y-68452380D01*
X142238095Y-68404761D01*
X142285714Y-68357142D01*
X142333333Y-68261904D01*
X142333333Y-68023809D01*
X142285714Y-67928571D01*
X142238095Y-67880952D01*
X142142857Y-67833333D01*
X141952380Y-67833333D01*
X141857142Y-67880952D01*
X141809523Y-67928571D01*
X141761904Y-68023809D01*
X49666666Y-87404761D02*
X49809523Y-87452380D01*
X50047619Y-87452380D01*
X50142857Y-87404761D01*
X50190476Y-87357142D01*
X50238095Y-87261904D01*
X50238095Y-87166666D01*
X50190476Y-87071428D01*
X50142857Y-87023809D01*
X50047619Y-86976190D01*
X49857142Y-86928571D01*
X49761904Y-86880952D01*
X49714285Y-86833333D01*
X49666666Y-86738095D01*
X49666666Y-86642857D01*
X49714285Y-86547619D01*
X49761904Y-86500000D01*
X49857142Y-86452380D01*
X50095238Y-86452380D01*
X50238095Y-86500000D01*
X50571428Y-86452380D02*
X50809523Y-87452380D01*
X51000000Y-86738095D01*
X51190476Y-87452380D01*
X51428571Y-86452380D01*
X51714285Y-86452380D02*
X52380952Y-86452380D01*
X51952380Y-87452380D01*
X67666666Y-87404761D02*
X67809523Y-87452380D01*
X68047619Y-87452380D01*
X68142857Y-87404761D01*
X68190476Y-87357142D01*
X68238095Y-87261904D01*
X68238095Y-87166666D01*
X68190476Y-87071428D01*
X68142857Y-87023809D01*
X68047619Y-86976190D01*
X67857142Y-86928571D01*
X67761904Y-86880952D01*
X67714285Y-86833333D01*
X67666666Y-86738095D01*
X67666666Y-86642857D01*
X67714285Y-86547619D01*
X67761904Y-86500000D01*
X67857142Y-86452380D01*
X68095238Y-86452380D01*
X68238095Y-86500000D01*
X68571428Y-86452380D02*
X68809523Y-87452380D01*
X69000000Y-86738095D01*
X69190476Y-87452380D01*
X69428571Y-86452380D01*
X69952380Y-86880952D02*
X69857142Y-86833333D01*
X69809523Y-86785714D01*
X69761904Y-86690476D01*
X69761904Y-86642857D01*
X69809523Y-86547619D01*
X69857142Y-86500000D01*
X69952380Y-86452380D01*
X70142857Y-86452380D01*
X70238095Y-86500000D01*
X70285714Y-86547619D01*
X70333333Y-86642857D01*
X70333333Y-86690476D01*
X70285714Y-86785714D01*
X70238095Y-86833333D01*
X70142857Y-86880952D01*
X69952380Y-86880952D01*
X69857142Y-86928571D01*
X69809523Y-86976190D01*
X69761904Y-87071428D01*
X69761904Y-87261904D01*
X69809523Y-87357142D01*
X69857142Y-87404761D01*
X69952380Y-87452380D01*
X70142857Y-87452380D01*
X70238095Y-87404761D01*
X70285714Y-87357142D01*
X70333333Y-87261904D01*
X70333333Y-87071428D01*
X70285714Y-86976190D01*
X70238095Y-86928571D01*
X70142857Y-86880952D01*
X85666666Y-83404761D02*
X85809523Y-83452380D01*
X86047619Y-83452380D01*
X86142857Y-83404761D01*
X86190476Y-83357142D01*
X86238095Y-83261904D01*
X86238095Y-83166666D01*
X86190476Y-83071428D01*
X86142857Y-83023809D01*
X86047619Y-82976190D01*
X85857142Y-82928571D01*
X85761904Y-82880952D01*
X85714285Y-82833333D01*
X85666666Y-82738095D01*
X85666666Y-82642857D01*
X85714285Y-82547619D01*
X85761904Y-82500000D01*
X85857142Y-82452380D01*
X86095238Y-82452380D01*
X86238095Y-82500000D01*
X86571428Y-82452380D02*
X86809523Y-83452380D01*
X87000000Y-82738095D01*
X87190476Y-83452380D01*
X87428571Y-82452380D01*
X87857142Y-83452380D02*
X88047619Y-83452380D01*
X88142857Y-83404761D01*
X88190476Y-83357142D01*
X88285714Y-83214285D01*
X88333333Y-83023809D01*
X88333333Y-82642857D01*
X88285714Y-82547619D01*
X88238095Y-82500000D01*
X88142857Y-82452380D01*
X87952380Y-82452380D01*
X87857142Y-82500000D01*
X87809523Y-82547619D01*
X87761904Y-82642857D01*
X87761904Y-82880952D01*
X87809523Y-82976190D01*
X87857142Y-83023809D01*
X87952380Y-83071428D01*
X88142857Y-83071428D01*
X88238095Y-83023809D01*
X88285714Y-82976190D01*
X88333333Y-82880952D01*
X103190476Y-79404761D02*
X103333333Y-79452380D01*
X103571428Y-79452380D01*
X103666666Y-79404761D01*
X103714285Y-79357142D01*
X103761904Y-79261904D01*
X103761904Y-79166666D01*
X103714285Y-79071428D01*
X103666666Y-79023809D01*
X103571428Y-78976190D01*
X103380952Y-78928571D01*
X103285714Y-78880952D01*
X103238095Y-78833333D01*
X103190476Y-78738095D01*
X103190476Y-78642857D01*
X103238095Y-78547619D01*
X103285714Y-78500000D01*
X103380952Y-78452380D01*
X103619047Y-78452380D01*
X103761904Y-78500000D01*
X104095238Y-78452380D02*
X104333333Y-79452380D01*
X104523809Y-78738095D01*
X104714285Y-79452380D01*
X104952380Y-78452380D01*
X105857142Y-79452380D02*
X105285714Y-79452380D01*
X105571428Y-79452380D02*
X105571428Y-78452380D01*
X105476190Y-78595238D01*
X105380952Y-78690476D01*
X105285714Y-78738095D01*
X106476190Y-78452380D02*
X106571428Y-78452380D01*
X106666666Y-78500000D01*
X106714285Y-78547619D01*
X106761904Y-78642857D01*
X106809523Y-78833333D01*
X106809523Y-79071428D01*
X106761904Y-79261904D01*
X106714285Y-79357142D01*
X106666666Y-79404761D01*
X106571428Y-79452380D01*
X106476190Y-79452380D01*
X106380952Y-79404761D01*
X106333333Y-79357142D01*
X106285714Y-79261904D01*
X106238095Y-79071428D01*
X106238095Y-78833333D01*
X106285714Y-78642857D01*
X106333333Y-78547619D01*
X106380952Y-78500000D01*
X106476190Y-78452380D01*
X121190476Y-83404761D02*
X121333333Y-83452380D01*
X121571428Y-83452380D01*
X121666666Y-83404761D01*
X121714285Y-83357142D01*
X121761904Y-83261904D01*
X121761904Y-83166666D01*
X121714285Y-83071428D01*
X121666666Y-83023809D01*
X121571428Y-82976190D01*
X121380952Y-82928571D01*
X121285714Y-82880952D01*
X121238095Y-82833333D01*
X121190476Y-82738095D01*
X121190476Y-82642857D01*
X121238095Y-82547619D01*
X121285714Y-82500000D01*
X121380952Y-82452380D01*
X121619047Y-82452380D01*
X121761904Y-82500000D01*
X122095238Y-82452380D02*
X122333333Y-83452380D01*
X122523809Y-82738095D01*
X122714285Y-83452380D01*
X122952380Y-82452380D01*
X123857142Y-83452380D02*
X123285714Y-83452380D01*
X123571428Y-83452380D02*
X123571428Y-82452380D01*
X123476190Y-82595238D01*
X123380952Y-82690476D01*
X123285714Y-82738095D01*
X124809523Y-83452380D02*
X124238095Y-83452380D01*
X124523809Y-83452380D02*
X124523809Y-82452380D01*
X124428571Y-82595238D01*
X124333333Y-82690476D01*
X124238095Y-82738095D01*
X139190476Y-87404761D02*
X139333333Y-87452380D01*
X139571428Y-87452380D01*
X139666666Y-87404761D01*
X139714285Y-87357142D01*
X139761904Y-87261904D01*
X139761904Y-87166666D01*
X139714285Y-87071428D01*
X139666666Y-87023809D01*
X139571428Y-86976190D01*
X139380952Y-86928571D01*
X139285714Y-86880952D01*
X139238095Y-86833333D01*
X139190476Y-86738095D01*
X139190476Y-86642857D01*
X139238095Y-86547619D01*
X139285714Y-86500000D01*
X139380952Y-86452380D01*
X139619047Y-86452380D01*
X139761904Y-86500000D01*
X140095238Y-86452380D02*
X140333333Y-87452380D01*
X140523809Y-86738095D01*
X140714285Y-87452380D01*
X140952380Y-86452380D01*
X141857142Y-87452380D02*
X141285714Y-87452380D01*
X141571428Y-87452380D02*
X141571428Y-86452380D01*
X141476190Y-86595238D01*
X141380952Y-86690476D01*
X141285714Y-86738095D01*
X142238095Y-86547619D02*
X142285714Y-86500000D01*
X142380952Y-86452380D01*
X142619047Y-86452380D01*
X142714285Y-86500000D01*
X142761904Y-86547619D01*
X142809523Y-86642857D01*
X142809523Y-86738095D01*
X142761904Y-86880952D01*
X142190476Y-87452380D01*
X142809523Y-87452380D01*
X49190476Y-106404761D02*
X49333333Y-106452380D01*
X49571428Y-106452380D01*
X49666666Y-106404761D01*
X49714285Y-106357142D01*
X49761904Y-106261904D01*
X49761904Y-106166666D01*
X49714285Y-106071428D01*
X49666666Y-106023809D01*
X49571428Y-105976190D01*
X49380952Y-105928571D01*
X49285714Y-105880952D01*
X49238095Y-105833333D01*
X49190476Y-105738095D01*
X49190476Y-105642857D01*
X49238095Y-105547619D01*
X49285714Y-105500000D01*
X49380952Y-105452380D01*
X49619047Y-105452380D01*
X49761904Y-105500000D01*
X50095238Y-105452380D02*
X50333333Y-106452380D01*
X50523809Y-105738095D01*
X50714285Y-106452380D01*
X50952380Y-105452380D01*
X51857142Y-106452380D02*
X51285714Y-106452380D01*
X51571428Y-106452380D02*
X51571428Y-105452380D01*
X51476190Y-105595238D01*
X51380952Y-105690476D01*
X51285714Y-105738095D01*
X52190476Y-105452380D02*
X52809523Y-105452380D01*
X52476190Y-105833333D01*
X52619047Y-105833333D01*
X52714285Y-105880952D01*
X52761904Y-105928571D01*
X52809523Y-106023809D01*
X52809523Y-106261904D01*
X52761904Y-106357142D01*
X52714285Y-106404761D01*
X52619047Y-106452380D01*
X52333333Y-106452380D01*
X52238095Y-106404761D01*
X52190476Y-106357142D01*
X67190476Y-106404761D02*
X67333333Y-106452380D01*
X67571428Y-106452380D01*
X67666666Y-106404761D01*
X67714285Y-106357142D01*
X67761904Y-106261904D01*
X67761904Y-106166666D01*
X67714285Y-106071428D01*
X67666666Y-106023809D01*
X67571428Y-105976190D01*
X67380952Y-105928571D01*
X67285714Y-105880952D01*
X67238095Y-105833333D01*
X67190476Y-105738095D01*
X67190476Y-105642857D01*
X67238095Y-105547619D01*
X67285714Y-105500000D01*
X67380952Y-105452380D01*
X67619047Y-105452380D01*
X67761904Y-105500000D01*
X68095238Y-105452380D02*
X68333333Y-106452380D01*
X68523809Y-105738095D01*
X68714285Y-106452380D01*
X68952380Y-105452380D01*
X69857142Y-106452380D02*
X69285714Y-106452380D01*
X69571428Y-106452380D02*
X69571428Y-105452380D01*
X69476190Y-105595238D01*
X69380952Y-105690476D01*
X69285714Y-105738095D01*
X70714285Y-105785714D02*
X70714285Y-106452380D01*
X70476190Y-105404761D02*
X70238095Y-106119047D01*
X70857142Y-106119047D01*
X85190476Y-102404761D02*
X85333333Y-102452380D01*
X85571428Y-102452380D01*
X85666666Y-102404761D01*
X85714285Y-102357142D01*
X85761904Y-102261904D01*
X85761904Y-102166666D01*
X85714285Y-102071428D01*
X85666666Y-102023809D01*
X85571428Y-101976190D01*
X85380952Y-101928571D01*
X85285714Y-101880952D01*
X85238095Y-101833333D01*
X85190476Y-101738095D01*
X85190476Y-101642857D01*
X85238095Y-101547619D01*
X85285714Y-101500000D01*
X85380952Y-101452380D01*
X85619047Y-101452380D01*
X85761904Y-101500000D01*
X86095238Y-101452380D02*
X86333333Y-102452380D01*
X86523809Y-101738095D01*
X86714285Y-102452380D01*
X86952380Y-101452380D01*
X87857142Y-102452380D02*
X87285714Y-102452380D01*
X87571428Y-102452380D02*
X87571428Y-101452380D01*
X87476190Y-101595238D01*
X87380952Y-101690476D01*
X87285714Y-101738095D01*
X88761904Y-101452380D02*
X88285714Y-101452380D01*
X88238095Y-101928571D01*
X88285714Y-101880952D01*
X88380952Y-101833333D01*
X88619047Y-101833333D01*
X88714285Y-101880952D01*
X88761904Y-101928571D01*
X88809523Y-102023809D01*
X88809523Y-102261904D01*
X88761904Y-102357142D01*
X88714285Y-102404761D01*
X88619047Y-102452380D01*
X88380952Y-102452380D01*
X88285714Y-102404761D01*
X88238095Y-102357142D01*
X103190476Y-98404761D02*
X103333333Y-98452380D01*
X103571428Y-98452380D01*
X103666666Y-98404761D01*
X103714285Y-98357142D01*
X103761904Y-98261904D01*
X103761904Y-98166666D01*
X103714285Y-98071428D01*
X103666666Y-98023809D01*
X103571428Y-97976190D01*
X103380952Y-97928571D01*
X103285714Y-97880952D01*
X103238095Y-97833333D01*
X103190476Y-97738095D01*
X103190476Y-97642857D01*
X103238095Y-97547619D01*
X103285714Y-97500000D01*
X103380952Y-97452380D01*
X103619047Y-97452380D01*
X103761904Y-97500000D01*
X104095238Y-97452380D02*
X104333333Y-98452380D01*
X104523809Y-97738095D01*
X104714285Y-98452380D01*
X104952380Y-97452380D01*
X105857142Y-98452380D02*
X105285714Y-98452380D01*
X105571428Y-98452380D02*
X105571428Y-97452380D01*
X105476190Y-97595238D01*
X105380952Y-97690476D01*
X105285714Y-97738095D01*
X106714285Y-97452380D02*
X106523809Y-97452380D01*
X106428571Y-97500000D01*
X106380952Y-97547619D01*
X106285714Y-97690476D01*
X106238095Y-97880952D01*
X106238095Y-98261904D01*
X106285714Y-98357142D01*
X106333333Y-98404761D01*
X106428571Y-98452380D01*
X106619047Y-98452380D01*
X106714285Y-98404761D01*
X106761904Y-98357142D01*
X106809523Y-98261904D01*
X106809523Y-98023809D01*
X106761904Y-97928571D01*
X106714285Y-97880952D01*
X106619047Y-97833333D01*
X106428571Y-97833333D01*
X106333333Y-97880952D01*
X106285714Y-97928571D01*
X106238095Y-98023809D01*
X121190476Y-102404761D02*
X121333333Y-102452380D01*
X121571428Y-102452380D01*
X121666666Y-102404761D01*
X121714285Y-102357142D01*
X121761904Y-102261904D01*
X121761904Y-102166666D01*
X121714285Y-102071428D01*
X121666666Y-102023809D01*
X121571428Y-101976190D01*
X121380952Y-101928571D01*
X121285714Y-101880952D01*
X121238095Y-101833333D01*
X121190476Y-101738095D01*
X121190476Y-101642857D01*
X121238095Y-101547619D01*
X121285714Y-101500000D01*
X121380952Y-101452380D01*
X121619047Y-101452380D01*
X121761904Y-101500000D01*
X122095238Y-101452380D02*
X122333333Y-102452380D01*
X122523809Y-101738095D01*
X122714285Y-102452380D01*
X122952380Y-101452380D01*
X123857142Y-102452380D02*
X123285714Y-102452380D01*
X123571428Y-102452380D02*
X123571428Y-101452380D01*
X123476190Y-101595238D01*
X123380952Y-101690476D01*
X123285714Y-101738095D01*
X124190476Y-101452380D02*
X124857142Y-101452380D01*
X124428571Y-102452380D01*
X139190476Y-105404761D02*
X139333333Y-105452380D01*
X139571428Y-105452380D01*
X139666666Y-105404761D01*
X139714285Y-105357142D01*
X139761904Y-105261904D01*
X139761904Y-105166666D01*
X139714285Y-105071428D01*
X139666666Y-105023809D01*
X139571428Y-104976190D01*
X139380952Y-104928571D01*
X139285714Y-104880952D01*
X139238095Y-104833333D01*
X139190476Y-104738095D01*
X139190476Y-104642857D01*
X139238095Y-104547619D01*
X139285714Y-104500000D01*
X139380952Y-104452380D01*
X139619047Y-104452380D01*
X139761904Y-104500000D01*
X140095238Y-104452380D02*
X140333333Y-105452380D01*
X140523809Y-104738095D01*
X140714285Y-105452380D01*
X140952380Y-104452380D01*
X141857142Y-105452380D02*
X141285714Y-105452380D01*
X141571428Y-105452380D02*
X141571428Y-104452380D01*
X141476190Y-104595238D01*
X141380952Y-104690476D01*
X141285714Y-104738095D01*
X142428571Y-104880952D02*
X142333333Y-104833333D01*
X142285714Y-104785714D01*
X142238095Y-104690476D01*
X142238095Y-104642857D01*
X142285714Y-104547619D01*
X142333333Y-104500000D01*
X142428571Y-104452380D01*
X142619047Y-104452380D01*
X142714285Y-104500000D01*
X142761904Y-104547619D01*
X142809523Y-104642857D01*
X142809523Y-104690476D01*
X142761904Y-104785714D01*
X142714285Y-104833333D01*
X142619047Y-104880952D01*
X142428571Y-104880952D01*
X142333333Y-104928571D01*
X142285714Y-104976190D01*
X142238095Y-105071428D01*
X142238095Y-105261904D01*
X142285714Y-105357142D01*
X142333333Y-105404761D01*
X142428571Y-105452380D01*
X142619047Y-105452380D01*
X142714285Y-105404761D01*
X142761904Y-105357142D01*
X142809523Y-105261904D01*
X142809523Y-105071428D01*
X142761904Y-104976190D01*
X142714285Y-104928571D01*
X142619047Y-104880952D01*
X110190476Y-125194761D02*
X110333333Y-125242380D01*
X110571428Y-125242380D01*
X110666666Y-125194761D01*
X110714285Y-125147142D01*
X110761904Y-125051904D01*
X110761904Y-124956666D01*
X110714285Y-124861428D01*
X110666666Y-124813809D01*
X110571428Y-124766190D01*
X110380952Y-124718571D01*
X110285714Y-124670952D01*
X110238095Y-124623333D01*
X110190476Y-124528095D01*
X110190476Y-124432857D01*
X110238095Y-124337619D01*
X110285714Y-124290000D01*
X110380952Y-124242380D01*
X110619047Y-124242380D01*
X110761904Y-124290000D01*
X111095238Y-124242380D02*
X111333333Y-125242380D01*
X111523809Y-124528095D01*
X111714285Y-125242380D01*
X111952380Y-124242380D01*
X112857142Y-125242380D02*
X112285714Y-125242380D01*
X112571428Y-125242380D02*
X112571428Y-124242380D01*
X112476190Y-124385238D01*
X112380952Y-124480476D01*
X112285714Y-124528095D01*
X113333333Y-125242380D02*
X113523809Y-125242380D01*
X113619047Y-125194761D01*
X113666666Y-125147142D01*
X113761904Y-125004285D01*
X113809523Y-124813809D01*
X113809523Y-124432857D01*
X113761904Y-124337619D01*
X113714285Y-124290000D01*
X113619047Y-124242380D01*
X113428571Y-124242380D01*
X113333333Y-124290000D01*
X113285714Y-124337619D01*
X113238095Y-124432857D01*
X113238095Y-124670952D01*
X113285714Y-124766190D01*
X113333333Y-124813809D01*
X113428571Y-124861428D01*
X113619047Y-124861428D01*
X113714285Y-124813809D01*
X113761904Y-124766190D01*
X113809523Y-124670952D01*
X132289485Y-126778877D02*
X132157067Y-126707175D01*
X131922589Y-126665830D01*
X131820529Y-126696188D01*
X131765364Y-126734814D01*
X131701931Y-126820337D01*
X131685393Y-126914128D01*
X131715750Y-127016188D01*
X131754377Y-127071353D01*
X131839899Y-127134786D01*
X132019213Y-127214758D01*
X132104735Y-127278191D01*
X132143362Y-127333356D01*
X132173719Y-127435416D01*
X132157181Y-127529207D01*
X132093748Y-127614729D01*
X132038583Y-127653356D01*
X131936523Y-127683714D01*
X131702045Y-127642369D01*
X131569627Y-127570666D01*
X131233089Y-127559679D02*
X131172259Y-126533527D01*
X130860642Y-127203885D01*
X130797094Y-126467375D01*
X130388968Y-127410838D01*
X130077237Y-127259164D02*
X130022072Y-127297791D01*
X129920012Y-127328148D01*
X129685534Y-127286804D01*
X129600012Y-127223370D01*
X129561385Y-127168205D01*
X129531027Y-127066145D01*
X129547565Y-126972354D01*
X129619268Y-126839936D01*
X130281243Y-126376416D01*
X129671600Y-126268920D01*
X128888309Y-127146231D02*
X128794517Y-127129693D01*
X128708995Y-127066260D01*
X128670369Y-127011095D01*
X128640011Y-126909035D01*
X128626191Y-126713184D01*
X128667536Y-126478706D01*
X128747507Y-126299392D01*
X128810941Y-126213870D01*
X128866105Y-126175243D01*
X128968166Y-126144886D01*
X129061957Y-126161423D01*
X129147479Y-126224857D01*
X129186106Y-126280022D01*
X129216463Y-126382082D01*
X129230283Y-126577933D01*
X129188938Y-126812411D01*
X129108967Y-126991725D01*
X129045533Y-127077247D01*
X128990369Y-127115874D01*
X128888309Y-127146231D01*
X160758871Y-128614609D02*
X160862402Y-128505261D01*
X160963026Y-128289473D01*
X160960117Y-128183034D01*
X160937085Y-128119751D01*
X160870894Y-128036345D01*
X160784579Y-127996095D01*
X160678139Y-127999003D01*
X160614857Y-128022036D01*
X160531450Y-128088227D01*
X160407794Y-128240732D01*
X160324387Y-128306922D01*
X160261105Y-128329955D01*
X160154665Y-128332863D01*
X160068350Y-128292614D01*
X160002160Y-128209207D01*
X159979127Y-128145925D01*
X159976219Y-128039485D01*
X160076842Y-127823698D01*
X160180374Y-127714350D01*
X160278089Y-127392122D02*
X161285020Y-127598953D01*
X160718156Y-127124453D01*
X161446018Y-127253693D01*
X160640333Y-126615287D01*
X160867521Y-126353434D02*
X160844488Y-126290152D01*
X160841580Y-126183712D01*
X160942204Y-125967924D01*
X161025610Y-125901734D01*
X161088893Y-125878701D01*
X161195332Y-125875793D01*
X161281647Y-125916043D01*
X161390995Y-126019574D01*
X161667389Y-126778960D01*
X161929010Y-126217913D01*
X162331504Y-125354762D02*
X162090008Y-125872653D01*
X162210756Y-125613708D02*
X161304448Y-125191089D01*
X161393671Y-125337778D01*
X161439737Y-125464343D01*
X161442645Y-125570782D01*
X218190476Y-67404761D02*
X218333333Y-67452380D01*
X218571428Y-67452380D01*
X218666666Y-67404761D01*
X218714285Y-67357142D01*
X218761904Y-67261904D01*
X218761904Y-67166666D01*
X218714285Y-67071428D01*
X218666666Y-67023809D01*
X218571428Y-66976190D01*
X218380952Y-66928571D01*
X218285714Y-66880952D01*
X218238095Y-66833333D01*
X218190476Y-66738095D01*
X218190476Y-66642857D01*
X218238095Y-66547619D01*
X218285714Y-66500000D01*
X218380952Y-66452380D01*
X218619047Y-66452380D01*
X218761904Y-66500000D01*
X219095238Y-66452380D02*
X219333333Y-67452380D01*
X219523809Y-66738095D01*
X219714285Y-67452380D01*
X219952380Y-66452380D01*
X220285714Y-66547619D02*
X220333333Y-66500000D01*
X220428571Y-66452380D01*
X220666666Y-66452380D01*
X220761904Y-66500000D01*
X220809523Y-66547619D01*
X220857142Y-66642857D01*
X220857142Y-66738095D01*
X220809523Y-66880952D01*
X220238095Y-67452380D01*
X220857142Y-67452380D01*
X221238095Y-66547619D02*
X221285714Y-66500000D01*
X221380952Y-66452380D01*
X221619047Y-66452380D01*
X221714285Y-66500000D01*
X221761904Y-66547619D01*
X221809523Y-66642857D01*
X221809523Y-66738095D01*
X221761904Y-66880952D01*
X221190476Y-67452380D01*
X221809523Y-67452380D01*
X236190476Y-63404761D02*
X236333333Y-63452380D01*
X236571428Y-63452380D01*
X236666666Y-63404761D01*
X236714285Y-63357142D01*
X236761904Y-63261904D01*
X236761904Y-63166666D01*
X236714285Y-63071428D01*
X236666666Y-63023809D01*
X236571428Y-62976190D01*
X236380952Y-62928571D01*
X236285714Y-62880952D01*
X236238095Y-62833333D01*
X236190476Y-62738095D01*
X236190476Y-62642857D01*
X236238095Y-62547619D01*
X236285714Y-62500000D01*
X236380952Y-62452380D01*
X236619047Y-62452380D01*
X236761904Y-62500000D01*
X237095238Y-62452380D02*
X237333333Y-63452380D01*
X237523809Y-62738095D01*
X237714285Y-63452380D01*
X237952380Y-62452380D01*
X238285714Y-62547619D02*
X238333333Y-62500000D01*
X238428571Y-62452380D01*
X238666666Y-62452380D01*
X238761904Y-62500000D01*
X238809523Y-62547619D01*
X238857142Y-62642857D01*
X238857142Y-62738095D01*
X238809523Y-62880952D01*
X238238095Y-63452380D01*
X238857142Y-63452380D01*
X239190476Y-62452380D02*
X239809523Y-62452380D01*
X239476190Y-62833333D01*
X239619047Y-62833333D01*
X239714285Y-62880952D01*
X239761904Y-62928571D01*
X239809523Y-63023809D01*
X239809523Y-63261904D01*
X239761904Y-63357142D01*
X239714285Y-63404761D01*
X239619047Y-63452380D01*
X239333333Y-63452380D01*
X239238095Y-63404761D01*
X239190476Y-63357142D01*
X254190476Y-59404761D02*
X254333333Y-59452380D01*
X254571428Y-59452380D01*
X254666666Y-59404761D01*
X254714285Y-59357142D01*
X254761904Y-59261904D01*
X254761904Y-59166666D01*
X254714285Y-59071428D01*
X254666666Y-59023809D01*
X254571428Y-58976190D01*
X254380952Y-58928571D01*
X254285714Y-58880952D01*
X254238095Y-58833333D01*
X254190476Y-58738095D01*
X254190476Y-58642857D01*
X254238095Y-58547619D01*
X254285714Y-58500000D01*
X254380952Y-58452380D01*
X254619047Y-58452380D01*
X254761904Y-58500000D01*
X255095238Y-58452380D02*
X255333333Y-59452380D01*
X255523809Y-58738095D01*
X255714285Y-59452380D01*
X255952380Y-58452380D01*
X256285714Y-58547619D02*
X256333333Y-58500000D01*
X256428571Y-58452380D01*
X256666666Y-58452380D01*
X256761904Y-58500000D01*
X256809523Y-58547619D01*
X256857142Y-58642857D01*
X256857142Y-58738095D01*
X256809523Y-58880952D01*
X256238095Y-59452380D01*
X256857142Y-59452380D01*
X257714285Y-58785714D02*
X257714285Y-59452380D01*
X257476190Y-58404761D02*
X257238095Y-59119047D01*
X257857142Y-59119047D01*
X272190476Y-63404761D02*
X272333333Y-63452380D01*
X272571428Y-63452380D01*
X272666666Y-63404761D01*
X272714285Y-63357142D01*
X272761904Y-63261904D01*
X272761904Y-63166666D01*
X272714285Y-63071428D01*
X272666666Y-63023809D01*
X272571428Y-62976190D01*
X272380952Y-62928571D01*
X272285714Y-62880952D01*
X272238095Y-62833333D01*
X272190476Y-62738095D01*
X272190476Y-62642857D01*
X272238095Y-62547619D01*
X272285714Y-62500000D01*
X272380952Y-62452380D01*
X272619047Y-62452380D01*
X272761904Y-62500000D01*
X273095238Y-62452380D02*
X273333333Y-63452380D01*
X273523809Y-62738095D01*
X273714285Y-63452380D01*
X273952380Y-62452380D01*
X274285714Y-62547619D02*
X274333333Y-62500000D01*
X274428571Y-62452380D01*
X274666666Y-62452380D01*
X274761904Y-62500000D01*
X274809523Y-62547619D01*
X274857142Y-62642857D01*
X274857142Y-62738095D01*
X274809523Y-62880952D01*
X274238095Y-63452380D01*
X274857142Y-63452380D01*
X275761904Y-62452380D02*
X275285714Y-62452380D01*
X275238095Y-62928571D01*
X275285714Y-62880952D01*
X275380952Y-62833333D01*
X275619047Y-62833333D01*
X275714285Y-62880952D01*
X275761904Y-62928571D01*
X275809523Y-63023809D01*
X275809523Y-63261904D01*
X275761904Y-63357142D01*
X275714285Y-63404761D01*
X275619047Y-63452380D01*
X275380952Y-63452380D01*
X275285714Y-63404761D01*
X275238095Y-63357142D01*
X291190476Y-67404761D02*
X291333333Y-67452380D01*
X291571428Y-67452380D01*
X291666666Y-67404761D01*
X291714285Y-67357142D01*
X291761904Y-67261904D01*
X291761904Y-67166666D01*
X291714285Y-67071428D01*
X291666666Y-67023809D01*
X291571428Y-66976190D01*
X291380952Y-66928571D01*
X291285714Y-66880952D01*
X291238095Y-66833333D01*
X291190476Y-66738095D01*
X291190476Y-66642857D01*
X291238095Y-66547619D01*
X291285714Y-66500000D01*
X291380952Y-66452380D01*
X291619047Y-66452380D01*
X291761904Y-66500000D01*
X292095238Y-66452380D02*
X292333333Y-67452380D01*
X292523809Y-66738095D01*
X292714285Y-67452380D01*
X292952380Y-66452380D01*
X293285714Y-66547619D02*
X293333333Y-66500000D01*
X293428571Y-66452380D01*
X293666666Y-66452380D01*
X293761904Y-66500000D01*
X293809523Y-66547619D01*
X293857142Y-66642857D01*
X293857142Y-66738095D01*
X293809523Y-66880952D01*
X293238095Y-67452380D01*
X293857142Y-67452380D01*
X294714285Y-66452380D02*
X294523809Y-66452380D01*
X294428571Y-66500000D01*
X294380952Y-66547619D01*
X294285714Y-66690476D01*
X294238095Y-66880952D01*
X294238095Y-67261904D01*
X294285714Y-67357142D01*
X294333333Y-67404761D01*
X294428571Y-67452380D01*
X294619047Y-67452380D01*
X294714285Y-67404761D01*
X294761904Y-67357142D01*
X294809523Y-67261904D01*
X294809523Y-67023809D01*
X294761904Y-66928571D01*
X294714285Y-66880952D01*
X294619047Y-66833333D01*
X294428571Y-66833333D01*
X294333333Y-66880952D01*
X294285714Y-66928571D01*
X294238095Y-67023809D01*
X309190476Y-67404761D02*
X309333333Y-67452380D01*
X309571428Y-67452380D01*
X309666666Y-67404761D01*
X309714285Y-67357142D01*
X309761904Y-67261904D01*
X309761904Y-67166666D01*
X309714285Y-67071428D01*
X309666666Y-67023809D01*
X309571428Y-66976190D01*
X309380952Y-66928571D01*
X309285714Y-66880952D01*
X309238095Y-66833333D01*
X309190476Y-66738095D01*
X309190476Y-66642857D01*
X309238095Y-66547619D01*
X309285714Y-66500000D01*
X309380952Y-66452380D01*
X309619047Y-66452380D01*
X309761904Y-66500000D01*
X310095238Y-66452380D02*
X310333333Y-67452380D01*
X310523809Y-66738095D01*
X310714285Y-67452380D01*
X310952380Y-66452380D01*
X311285714Y-66547619D02*
X311333333Y-66500000D01*
X311428571Y-66452380D01*
X311666666Y-66452380D01*
X311761904Y-66500000D01*
X311809523Y-66547619D01*
X311857142Y-66642857D01*
X311857142Y-66738095D01*
X311809523Y-66880952D01*
X311238095Y-67452380D01*
X311857142Y-67452380D01*
X312190476Y-66452380D02*
X312857142Y-66452380D01*
X312428571Y-67452380D01*
X218190476Y-86404761D02*
X218333333Y-86452380D01*
X218571428Y-86452380D01*
X218666666Y-86404761D01*
X218714285Y-86357142D01*
X218761904Y-86261904D01*
X218761904Y-86166666D01*
X218714285Y-86071428D01*
X218666666Y-86023809D01*
X218571428Y-85976190D01*
X218380952Y-85928571D01*
X218285714Y-85880952D01*
X218238095Y-85833333D01*
X218190476Y-85738095D01*
X218190476Y-85642857D01*
X218238095Y-85547619D01*
X218285714Y-85500000D01*
X218380952Y-85452380D01*
X218619047Y-85452380D01*
X218761904Y-85500000D01*
X219095238Y-85452380D02*
X219333333Y-86452380D01*
X219523809Y-85738095D01*
X219714285Y-86452380D01*
X219952380Y-85452380D01*
X220285714Y-85547619D02*
X220333333Y-85500000D01*
X220428571Y-85452380D01*
X220666666Y-85452380D01*
X220761904Y-85500000D01*
X220809523Y-85547619D01*
X220857142Y-85642857D01*
X220857142Y-85738095D01*
X220809523Y-85880952D01*
X220238095Y-86452380D01*
X220857142Y-86452380D01*
X221428571Y-85880952D02*
X221333333Y-85833333D01*
X221285714Y-85785714D01*
X221238095Y-85690476D01*
X221238095Y-85642857D01*
X221285714Y-85547619D01*
X221333333Y-85500000D01*
X221428571Y-85452380D01*
X221619047Y-85452380D01*
X221714285Y-85500000D01*
X221761904Y-85547619D01*
X221809523Y-85642857D01*
X221809523Y-85690476D01*
X221761904Y-85785714D01*
X221714285Y-85833333D01*
X221619047Y-85880952D01*
X221428571Y-85880952D01*
X221333333Y-85928571D01*
X221285714Y-85976190D01*
X221238095Y-86071428D01*
X221238095Y-86261904D01*
X221285714Y-86357142D01*
X221333333Y-86404761D01*
X221428571Y-86452380D01*
X221619047Y-86452380D01*
X221714285Y-86404761D01*
X221761904Y-86357142D01*
X221809523Y-86261904D01*
X221809523Y-86071428D01*
X221761904Y-85976190D01*
X221714285Y-85928571D01*
X221619047Y-85880952D01*
X236190476Y-82404761D02*
X236333333Y-82452380D01*
X236571428Y-82452380D01*
X236666666Y-82404761D01*
X236714285Y-82357142D01*
X236761904Y-82261904D01*
X236761904Y-82166666D01*
X236714285Y-82071428D01*
X236666666Y-82023809D01*
X236571428Y-81976190D01*
X236380952Y-81928571D01*
X236285714Y-81880952D01*
X236238095Y-81833333D01*
X236190476Y-81738095D01*
X236190476Y-81642857D01*
X236238095Y-81547619D01*
X236285714Y-81500000D01*
X236380952Y-81452380D01*
X236619047Y-81452380D01*
X236761904Y-81500000D01*
X237095238Y-81452380D02*
X237333333Y-82452380D01*
X237523809Y-81738095D01*
X237714285Y-82452380D01*
X237952380Y-81452380D01*
X238285714Y-81547619D02*
X238333333Y-81500000D01*
X238428571Y-81452380D01*
X238666666Y-81452380D01*
X238761904Y-81500000D01*
X238809523Y-81547619D01*
X238857142Y-81642857D01*
X238857142Y-81738095D01*
X238809523Y-81880952D01*
X238238095Y-82452380D01*
X238857142Y-82452380D01*
X239333333Y-82452380D02*
X239523809Y-82452380D01*
X239619047Y-82404761D01*
X239666666Y-82357142D01*
X239761904Y-82214285D01*
X239809523Y-82023809D01*
X239809523Y-81642857D01*
X239761904Y-81547619D01*
X239714285Y-81500000D01*
X239619047Y-81452380D01*
X239428571Y-81452380D01*
X239333333Y-81500000D01*
X239285714Y-81547619D01*
X239238095Y-81642857D01*
X239238095Y-81880952D01*
X239285714Y-81976190D01*
X239333333Y-82023809D01*
X239428571Y-82071428D01*
X239619047Y-82071428D01*
X239714285Y-82023809D01*
X239761904Y-81976190D01*
X239809523Y-81880952D01*
X254190476Y-78404761D02*
X254333333Y-78452380D01*
X254571428Y-78452380D01*
X254666666Y-78404761D01*
X254714285Y-78357142D01*
X254761904Y-78261904D01*
X254761904Y-78166666D01*
X254714285Y-78071428D01*
X254666666Y-78023809D01*
X254571428Y-77976190D01*
X254380952Y-77928571D01*
X254285714Y-77880952D01*
X254238095Y-77833333D01*
X254190476Y-77738095D01*
X254190476Y-77642857D01*
X254238095Y-77547619D01*
X254285714Y-77500000D01*
X254380952Y-77452380D01*
X254619047Y-77452380D01*
X254761904Y-77500000D01*
X255095238Y-77452380D02*
X255333333Y-78452380D01*
X255523809Y-77738095D01*
X255714285Y-78452380D01*
X255952380Y-77452380D01*
X256238095Y-77452380D02*
X256857142Y-77452380D01*
X256523809Y-77833333D01*
X256666666Y-77833333D01*
X256761904Y-77880952D01*
X256809523Y-77928571D01*
X256857142Y-78023809D01*
X256857142Y-78261904D01*
X256809523Y-78357142D01*
X256761904Y-78404761D01*
X256666666Y-78452380D01*
X256380952Y-78452380D01*
X256285714Y-78404761D01*
X256238095Y-78357142D01*
X257476190Y-77452380D02*
X257571428Y-77452380D01*
X257666666Y-77500000D01*
X257714285Y-77547619D01*
X257761904Y-77642857D01*
X257809523Y-77833333D01*
X257809523Y-78071428D01*
X257761904Y-78261904D01*
X257714285Y-78357142D01*
X257666666Y-78404761D01*
X257571428Y-78452380D01*
X257476190Y-78452380D01*
X257380952Y-78404761D01*
X257333333Y-78357142D01*
X257285714Y-78261904D01*
X257238095Y-78071428D01*
X257238095Y-77833333D01*
X257285714Y-77642857D01*
X257333333Y-77547619D01*
X257380952Y-77500000D01*
X257476190Y-77452380D01*
X272190476Y-82404761D02*
X272333333Y-82452380D01*
X272571428Y-82452380D01*
X272666666Y-82404761D01*
X272714285Y-82357142D01*
X272761904Y-82261904D01*
X272761904Y-82166666D01*
X272714285Y-82071428D01*
X272666666Y-82023809D01*
X272571428Y-81976190D01*
X272380952Y-81928571D01*
X272285714Y-81880952D01*
X272238095Y-81833333D01*
X272190476Y-81738095D01*
X272190476Y-81642857D01*
X272238095Y-81547619D01*
X272285714Y-81500000D01*
X272380952Y-81452380D01*
X272619047Y-81452380D01*
X272761904Y-81500000D01*
X273095238Y-81452380D02*
X273333333Y-82452380D01*
X273523809Y-81738095D01*
X273714285Y-82452380D01*
X273952380Y-81452380D01*
X274238095Y-81452380D02*
X274857142Y-81452380D01*
X274523809Y-81833333D01*
X274666666Y-81833333D01*
X274761904Y-81880952D01*
X274809523Y-81928571D01*
X274857142Y-82023809D01*
X274857142Y-82261904D01*
X274809523Y-82357142D01*
X274761904Y-82404761D01*
X274666666Y-82452380D01*
X274380952Y-82452380D01*
X274285714Y-82404761D01*
X274238095Y-82357142D01*
X275809523Y-82452380D02*
X275238095Y-82452380D01*
X275523809Y-82452380D02*
X275523809Y-81452380D01*
X275428571Y-81595238D01*
X275333333Y-81690476D01*
X275238095Y-81738095D01*
X291190476Y-86404761D02*
X291333333Y-86452380D01*
X291571428Y-86452380D01*
X291666666Y-86404761D01*
X291714285Y-86357142D01*
X291761904Y-86261904D01*
X291761904Y-86166666D01*
X291714285Y-86071428D01*
X291666666Y-86023809D01*
X291571428Y-85976190D01*
X291380952Y-85928571D01*
X291285714Y-85880952D01*
X291238095Y-85833333D01*
X291190476Y-85738095D01*
X291190476Y-85642857D01*
X291238095Y-85547619D01*
X291285714Y-85500000D01*
X291380952Y-85452380D01*
X291619047Y-85452380D01*
X291761904Y-85500000D01*
X292095238Y-85452380D02*
X292333333Y-86452380D01*
X292523809Y-85738095D01*
X292714285Y-86452380D01*
X292952380Y-85452380D01*
X293238095Y-85452380D02*
X293857142Y-85452380D01*
X293523809Y-85833333D01*
X293666666Y-85833333D01*
X293761904Y-85880952D01*
X293809523Y-85928571D01*
X293857142Y-86023809D01*
X293857142Y-86261904D01*
X293809523Y-86357142D01*
X293761904Y-86404761D01*
X293666666Y-86452380D01*
X293380952Y-86452380D01*
X293285714Y-86404761D01*
X293238095Y-86357142D01*
X294238095Y-85547619D02*
X294285714Y-85500000D01*
X294380952Y-85452380D01*
X294619047Y-85452380D01*
X294714285Y-85500000D01*
X294761904Y-85547619D01*
X294809523Y-85642857D01*
X294809523Y-85738095D01*
X294761904Y-85880952D01*
X294190476Y-86452380D01*
X294809523Y-86452380D01*
X309190476Y-86404761D02*
X309333333Y-86452380D01*
X309571428Y-86452380D01*
X309666666Y-86404761D01*
X309714285Y-86357142D01*
X309761904Y-86261904D01*
X309761904Y-86166666D01*
X309714285Y-86071428D01*
X309666666Y-86023809D01*
X309571428Y-85976190D01*
X309380952Y-85928571D01*
X309285714Y-85880952D01*
X309238095Y-85833333D01*
X309190476Y-85738095D01*
X309190476Y-85642857D01*
X309238095Y-85547619D01*
X309285714Y-85500000D01*
X309380952Y-85452380D01*
X309619047Y-85452380D01*
X309761904Y-85500000D01*
X310095238Y-85452380D02*
X310333333Y-86452380D01*
X310523809Y-85738095D01*
X310714285Y-86452380D01*
X310952380Y-85452380D01*
X311238095Y-85452380D02*
X311857142Y-85452380D01*
X311523809Y-85833333D01*
X311666666Y-85833333D01*
X311761904Y-85880952D01*
X311809523Y-85928571D01*
X311857142Y-86023809D01*
X311857142Y-86261904D01*
X311809523Y-86357142D01*
X311761904Y-86404761D01*
X311666666Y-86452380D01*
X311380952Y-86452380D01*
X311285714Y-86404761D01*
X311238095Y-86357142D01*
X312190476Y-85452380D02*
X312809523Y-85452380D01*
X312476190Y-85833333D01*
X312619047Y-85833333D01*
X312714285Y-85880952D01*
X312761904Y-85928571D01*
X312809523Y-86023809D01*
X312809523Y-86261904D01*
X312761904Y-86357142D01*
X312714285Y-86404761D01*
X312619047Y-86452380D01*
X312333333Y-86452380D01*
X312238095Y-86404761D01*
X312190476Y-86357142D01*
X218190476Y-105404761D02*
X218333333Y-105452380D01*
X218571428Y-105452380D01*
X218666666Y-105404761D01*
X218714285Y-105357142D01*
X218761904Y-105261904D01*
X218761904Y-105166666D01*
X218714285Y-105071428D01*
X218666666Y-105023809D01*
X218571428Y-104976190D01*
X218380952Y-104928571D01*
X218285714Y-104880952D01*
X218238095Y-104833333D01*
X218190476Y-104738095D01*
X218190476Y-104642857D01*
X218238095Y-104547619D01*
X218285714Y-104500000D01*
X218380952Y-104452380D01*
X218619047Y-104452380D01*
X218761904Y-104500000D01*
X219095238Y-104452380D02*
X219333333Y-105452380D01*
X219523809Y-104738095D01*
X219714285Y-105452380D01*
X219952380Y-104452380D01*
X220238095Y-104452380D02*
X220857142Y-104452380D01*
X220523809Y-104833333D01*
X220666666Y-104833333D01*
X220761904Y-104880952D01*
X220809523Y-104928571D01*
X220857142Y-105023809D01*
X220857142Y-105261904D01*
X220809523Y-105357142D01*
X220761904Y-105404761D01*
X220666666Y-105452380D01*
X220380952Y-105452380D01*
X220285714Y-105404761D01*
X220238095Y-105357142D01*
X221714285Y-104785714D02*
X221714285Y-105452380D01*
X221476190Y-104404761D02*
X221238095Y-105119047D01*
X221857142Y-105119047D01*
X236190476Y-101404761D02*
X236333333Y-101452380D01*
X236571428Y-101452380D01*
X236666666Y-101404761D01*
X236714285Y-101357142D01*
X236761904Y-101261904D01*
X236761904Y-101166666D01*
X236714285Y-101071428D01*
X236666666Y-101023809D01*
X236571428Y-100976190D01*
X236380952Y-100928571D01*
X236285714Y-100880952D01*
X236238095Y-100833333D01*
X236190476Y-100738095D01*
X236190476Y-100642857D01*
X236238095Y-100547619D01*
X236285714Y-100500000D01*
X236380952Y-100452380D01*
X236619047Y-100452380D01*
X236761904Y-100500000D01*
X237095238Y-100452380D02*
X237333333Y-101452380D01*
X237523809Y-100738095D01*
X237714285Y-101452380D01*
X237952380Y-100452380D01*
X238238095Y-100452380D02*
X238857142Y-100452380D01*
X238523809Y-100833333D01*
X238666666Y-100833333D01*
X238761904Y-100880952D01*
X238809523Y-100928571D01*
X238857142Y-101023809D01*
X238857142Y-101261904D01*
X238809523Y-101357142D01*
X238761904Y-101404761D01*
X238666666Y-101452380D01*
X238380952Y-101452380D01*
X238285714Y-101404761D01*
X238238095Y-101357142D01*
X239761904Y-100452380D02*
X239285714Y-100452380D01*
X239238095Y-100928571D01*
X239285714Y-100880952D01*
X239380952Y-100833333D01*
X239619047Y-100833333D01*
X239714285Y-100880952D01*
X239761904Y-100928571D01*
X239809523Y-101023809D01*
X239809523Y-101261904D01*
X239761904Y-101357142D01*
X239714285Y-101404761D01*
X239619047Y-101452380D01*
X239380952Y-101452380D01*
X239285714Y-101404761D01*
X239238095Y-101357142D01*
X254190476Y-97404761D02*
X254333333Y-97452380D01*
X254571428Y-97452380D01*
X254666666Y-97404761D01*
X254714285Y-97357142D01*
X254761904Y-97261904D01*
X254761904Y-97166666D01*
X254714285Y-97071428D01*
X254666666Y-97023809D01*
X254571428Y-96976190D01*
X254380952Y-96928571D01*
X254285714Y-96880952D01*
X254238095Y-96833333D01*
X254190476Y-96738095D01*
X254190476Y-96642857D01*
X254238095Y-96547619D01*
X254285714Y-96500000D01*
X254380952Y-96452380D01*
X254619047Y-96452380D01*
X254761904Y-96500000D01*
X255095238Y-96452380D02*
X255333333Y-97452380D01*
X255523809Y-96738095D01*
X255714285Y-97452380D01*
X255952380Y-96452380D01*
X256238095Y-96452380D02*
X256857142Y-96452380D01*
X256523809Y-96833333D01*
X256666666Y-96833333D01*
X256761904Y-96880952D01*
X256809523Y-96928571D01*
X256857142Y-97023809D01*
X256857142Y-97261904D01*
X256809523Y-97357142D01*
X256761904Y-97404761D01*
X256666666Y-97452380D01*
X256380952Y-97452380D01*
X256285714Y-97404761D01*
X256238095Y-97357142D01*
X257714285Y-96452380D02*
X257523809Y-96452380D01*
X257428571Y-96500000D01*
X257380952Y-96547619D01*
X257285714Y-96690476D01*
X257238095Y-96880952D01*
X257238095Y-97261904D01*
X257285714Y-97357142D01*
X257333333Y-97404761D01*
X257428571Y-97452380D01*
X257619047Y-97452380D01*
X257714285Y-97404761D01*
X257761904Y-97357142D01*
X257809523Y-97261904D01*
X257809523Y-97023809D01*
X257761904Y-96928571D01*
X257714285Y-96880952D01*
X257619047Y-96833333D01*
X257428571Y-96833333D01*
X257333333Y-96880952D01*
X257285714Y-96928571D01*
X257238095Y-97023809D01*
X272190476Y-101404761D02*
X272333333Y-101452380D01*
X272571428Y-101452380D01*
X272666666Y-101404761D01*
X272714285Y-101357142D01*
X272761904Y-101261904D01*
X272761904Y-101166666D01*
X272714285Y-101071428D01*
X272666666Y-101023809D01*
X272571428Y-100976190D01*
X272380952Y-100928571D01*
X272285714Y-100880952D01*
X272238095Y-100833333D01*
X272190476Y-100738095D01*
X272190476Y-100642857D01*
X272238095Y-100547619D01*
X272285714Y-100500000D01*
X272380952Y-100452380D01*
X272619047Y-100452380D01*
X272761904Y-100500000D01*
X273095238Y-100452380D02*
X273333333Y-101452380D01*
X273523809Y-100738095D01*
X273714285Y-101452380D01*
X273952380Y-100452380D01*
X274238095Y-100452380D02*
X274857142Y-100452380D01*
X274523809Y-100833333D01*
X274666666Y-100833333D01*
X274761904Y-100880952D01*
X274809523Y-100928571D01*
X274857142Y-101023809D01*
X274857142Y-101261904D01*
X274809523Y-101357142D01*
X274761904Y-101404761D01*
X274666666Y-101452380D01*
X274380952Y-101452380D01*
X274285714Y-101404761D01*
X274238095Y-101357142D01*
X275190476Y-100452380D02*
X275857142Y-100452380D01*
X275428571Y-101452380D01*
X291190476Y-105404761D02*
X291333333Y-105452380D01*
X291571428Y-105452380D01*
X291666666Y-105404761D01*
X291714285Y-105357142D01*
X291761904Y-105261904D01*
X291761904Y-105166666D01*
X291714285Y-105071428D01*
X291666666Y-105023809D01*
X291571428Y-104976190D01*
X291380952Y-104928571D01*
X291285714Y-104880952D01*
X291238095Y-104833333D01*
X291190476Y-104738095D01*
X291190476Y-104642857D01*
X291238095Y-104547619D01*
X291285714Y-104500000D01*
X291380952Y-104452380D01*
X291619047Y-104452380D01*
X291761904Y-104500000D01*
X292095238Y-104452380D02*
X292333333Y-105452380D01*
X292523809Y-104738095D01*
X292714285Y-105452380D01*
X292952380Y-104452380D01*
X293238095Y-104452380D02*
X293857142Y-104452380D01*
X293523809Y-104833333D01*
X293666666Y-104833333D01*
X293761904Y-104880952D01*
X293809523Y-104928571D01*
X293857142Y-105023809D01*
X293857142Y-105261904D01*
X293809523Y-105357142D01*
X293761904Y-105404761D01*
X293666666Y-105452380D01*
X293380952Y-105452380D01*
X293285714Y-105404761D01*
X293238095Y-105357142D01*
X294428571Y-104880952D02*
X294333333Y-104833333D01*
X294285714Y-104785714D01*
X294238095Y-104690476D01*
X294238095Y-104642857D01*
X294285714Y-104547619D01*
X294333333Y-104500000D01*
X294428571Y-104452380D01*
X294619047Y-104452380D01*
X294714285Y-104500000D01*
X294761904Y-104547619D01*
X294809523Y-104642857D01*
X294809523Y-104690476D01*
X294761904Y-104785714D01*
X294714285Y-104833333D01*
X294619047Y-104880952D01*
X294428571Y-104880952D01*
X294333333Y-104928571D01*
X294285714Y-104976190D01*
X294238095Y-105071428D01*
X294238095Y-105261904D01*
X294285714Y-105357142D01*
X294333333Y-105404761D01*
X294428571Y-105452380D01*
X294619047Y-105452380D01*
X294714285Y-105404761D01*
X294761904Y-105357142D01*
X294809523Y-105261904D01*
X294809523Y-105071428D01*
X294761904Y-104976190D01*
X294714285Y-104928571D01*
X294619047Y-104880952D01*
X309190476Y-105404761D02*
X309333333Y-105452380D01*
X309571428Y-105452380D01*
X309666666Y-105404761D01*
X309714285Y-105357142D01*
X309761904Y-105261904D01*
X309761904Y-105166666D01*
X309714285Y-105071428D01*
X309666666Y-105023809D01*
X309571428Y-104976190D01*
X309380952Y-104928571D01*
X309285714Y-104880952D01*
X309238095Y-104833333D01*
X309190476Y-104738095D01*
X309190476Y-104642857D01*
X309238095Y-104547619D01*
X309285714Y-104500000D01*
X309380952Y-104452380D01*
X309619047Y-104452380D01*
X309761904Y-104500000D01*
X310095238Y-104452380D02*
X310333333Y-105452380D01*
X310523809Y-104738095D01*
X310714285Y-105452380D01*
X310952380Y-104452380D01*
X311238095Y-104452380D02*
X311857142Y-104452380D01*
X311523809Y-104833333D01*
X311666666Y-104833333D01*
X311761904Y-104880952D01*
X311809523Y-104928571D01*
X311857142Y-105023809D01*
X311857142Y-105261904D01*
X311809523Y-105357142D01*
X311761904Y-105404761D01*
X311666666Y-105452380D01*
X311380952Y-105452380D01*
X311285714Y-105404761D01*
X311238095Y-105357142D01*
X312333333Y-105452380D02*
X312523809Y-105452380D01*
X312619047Y-105404761D01*
X312666666Y-105357142D01*
X312761904Y-105214285D01*
X312809523Y-105023809D01*
X312809523Y-104642857D01*
X312761904Y-104547619D01*
X312714285Y-104500000D01*
X312619047Y-104452380D01*
X312428571Y-104452380D01*
X312333333Y-104500000D01*
X312285714Y-104547619D01*
X312238095Y-104642857D01*
X312238095Y-104880952D01*
X312285714Y-104976190D01*
X312333333Y-105023809D01*
X312428571Y-105071428D01*
X312619047Y-105071428D01*
X312714285Y-105023809D01*
X312761904Y-104976190D01*
X312809523Y-104880952D01*
X201282152Y-130428539D02*
X201259725Y-130279634D01*
X201151632Y-130067489D01*
X201065966Y-130004250D01*
X201001918Y-129983440D01*
X200895442Y-129984248D01*
X200810584Y-130027485D01*
X200747345Y-130113151D01*
X200726535Y-130177199D01*
X200727343Y-130283675D01*
X200771388Y-130475009D01*
X200772197Y-130581486D01*
X200751386Y-130645533D01*
X200688147Y-130731199D01*
X200603290Y-130774436D01*
X200496813Y-130775245D01*
X200432766Y-130754435D01*
X200347100Y-130691195D01*
X200239007Y-130479051D01*
X200216580Y-130330146D01*
X200022821Y-130054762D02*
X200805734Y-129388627D01*
X200082827Y-129543191D01*
X200632785Y-129049196D01*
X199633686Y-129291042D01*
X199563172Y-128418421D02*
X200157176Y-128115761D01*
X199331834Y-128803514D02*
X200076360Y-128691380D01*
X199795318Y-128139804D01*
X198941891Y-127933318D02*
X198898654Y-127848460D01*
X198897845Y-127741984D01*
X198918656Y-127677936D01*
X198981895Y-127592270D01*
X199129992Y-127463367D01*
X199342136Y-127355274D01*
X199533470Y-127311229D01*
X199639947Y-127310420D01*
X199703994Y-127331231D01*
X199789660Y-127394470D01*
X199832897Y-127479328D01*
X199833706Y-127585804D01*
X199812895Y-127649851D01*
X199749656Y-127735517D01*
X199601559Y-127864421D01*
X199389415Y-127972514D01*
X199198081Y-128016559D01*
X199091604Y-128017367D01*
X199027557Y-127996557D01*
X198941891Y-127933318D01*
X227851087Y-127576103D02*
X228000042Y-127598191D01*
X228234520Y-127556847D01*
X228320043Y-127493413D01*
X228358669Y-127438248D01*
X228389027Y-127336188D01*
X228372489Y-127242397D01*
X228309056Y-127156875D01*
X228253891Y-127118248D01*
X228151831Y-127087891D01*
X227955979Y-127074071D01*
X227853919Y-127043713D01*
X227798755Y-127005086D01*
X227735321Y-126919564D01*
X227718783Y-126825773D01*
X227749141Y-126723713D01*
X227787768Y-126668548D01*
X227873290Y-126605115D01*
X228107768Y-126563770D01*
X228256724Y-126585859D01*
X228576724Y-126481080D02*
X228984850Y-127424543D01*
X229048398Y-126688033D01*
X229360015Y-127358392D01*
X229420845Y-126332239D01*
X230275953Y-126519936D02*
X230391718Y-127176474D01*
X229975323Y-126186116D02*
X229864880Y-126930895D01*
X230474522Y-126823398D01*
X231423422Y-126994557D02*
X230860674Y-127093785D01*
X231142048Y-127044171D02*
X230968400Y-126059363D01*
X230899416Y-126216588D01*
X230822162Y-126326917D01*
X230736640Y-126390351D01*
X246190476Y-125404761D02*
X246333333Y-125452380D01*
X246571428Y-125452380D01*
X246666666Y-125404761D01*
X246714285Y-125357142D01*
X246761904Y-125261904D01*
X246761904Y-125166666D01*
X246714285Y-125071428D01*
X246666666Y-125023809D01*
X246571428Y-124976190D01*
X246380952Y-124928571D01*
X246285714Y-124880952D01*
X246238095Y-124833333D01*
X246190476Y-124738095D01*
X246190476Y-124642857D01*
X246238095Y-124547619D01*
X246285714Y-124500000D01*
X246380952Y-124452380D01*
X246619047Y-124452380D01*
X246761904Y-124500000D01*
X247095238Y-124452380D02*
X247333333Y-125452380D01*
X247523809Y-124738095D01*
X247714285Y-125452380D01*
X247952380Y-124452380D01*
X248761904Y-124785714D02*
X248761904Y-125452380D01*
X248523809Y-124404761D02*
X248285714Y-125119047D01*
X248904761Y-125119047D01*
X249238095Y-124547619D02*
X249285714Y-124500000D01*
X249380952Y-124452380D01*
X249619047Y-124452380D01*
X249714285Y-124500000D01*
X249761904Y-124547619D01*
X249809523Y-124642857D01*
X249809523Y-124738095D01*
X249761904Y-124880952D01*
X249190476Y-125452380D01*
X249809523Y-125452380D01*
D11*
X169602380Y-61404761D02*
X169626190Y-61333333D01*
X169626190Y-61214285D01*
X169602380Y-61166666D01*
X169578571Y-61142857D01*
X169530952Y-61119047D01*
X169483333Y-61119047D01*
X169435714Y-61142857D01*
X169411904Y-61166666D01*
X169388095Y-61214285D01*
X169364285Y-61309523D01*
X169340476Y-61357142D01*
X169316666Y-61380952D01*
X169269047Y-61404761D01*
X169221428Y-61404761D01*
X169173809Y-61380952D01*
X169150000Y-61357142D01*
X169126190Y-61309523D01*
X169126190Y-61190476D01*
X169150000Y-61119047D01*
X169126190Y-60952380D02*
X169626190Y-60833333D01*
X169269047Y-60738095D01*
X169626190Y-60642857D01*
X169126190Y-60523809D01*
X169292857Y-60119047D02*
X169626190Y-60119047D01*
X169102380Y-60238095D02*
X169459523Y-60357142D01*
X169459523Y-60047619D01*
X169126190Y-59904761D02*
X169126190Y-59595238D01*
X169316666Y-59761904D01*
X169316666Y-59690476D01*
X169340476Y-59642857D01*
X169364285Y-59619047D01*
X169411904Y-59595238D01*
X169530952Y-59595238D01*
X169578571Y-59619047D01*
X169602380Y-59642857D01*
X169626190Y-59690476D01*
X169626190Y-59833333D01*
X169602380Y-59880952D01*
X169578571Y-59904761D01*
D10*
X190390476Y-62704761D02*
X190533333Y-62752380D01*
X190771428Y-62752380D01*
X190866666Y-62704761D01*
X190914285Y-62657142D01*
X190961904Y-62561904D01*
X190961904Y-62466666D01*
X190914285Y-62371428D01*
X190866666Y-62323809D01*
X190771428Y-62276190D01*
X190580952Y-62228571D01*
X190485714Y-62180952D01*
X190438095Y-62133333D01*
X190390476Y-62038095D01*
X190390476Y-61942857D01*
X190438095Y-61847619D01*
X190485714Y-61800000D01*
X190580952Y-61752380D01*
X190819047Y-61752380D01*
X190961904Y-61800000D01*
X191295238Y-61752380D02*
X191533333Y-62752380D01*
X191723809Y-62038095D01*
X191914285Y-62752380D01*
X192152380Y-61752380D01*
X192961904Y-62085714D02*
X192961904Y-62752380D01*
X192723809Y-61704761D02*
X192485714Y-62419047D01*
X193104761Y-62419047D01*
X193914285Y-62085714D02*
X193914285Y-62752380D01*
X193676190Y-61704761D02*
X193438095Y-62419047D01*
X194057142Y-62419047D01*
X158238095Y-67952380D02*
X158238095Y-68761904D01*
X158285714Y-68857142D01*
X158333333Y-68904761D01*
X158428571Y-68952380D01*
X158619047Y-68952380D01*
X158714285Y-68904761D01*
X158761904Y-68857142D01*
X158809523Y-68761904D01*
X158809523Y-67952380D01*
X159809523Y-68952380D02*
X159238095Y-68952380D01*
X159523809Y-68952380D02*
X159523809Y-67952380D01*
X159428571Y-68095238D01*
X159333333Y-68190476D01*
X159238095Y-68238095D01*
X202138095Y-76352380D02*
X202138095Y-77161904D01*
X202185714Y-77257142D01*
X202233333Y-77304761D01*
X202328571Y-77352380D01*
X202519047Y-77352380D01*
X202614285Y-77304761D01*
X202661904Y-77257142D01*
X202709523Y-77161904D01*
X202709523Y-76352380D01*
X203138095Y-76447619D02*
X203185714Y-76400000D01*
X203280952Y-76352380D01*
X203519047Y-76352380D01*
X203614285Y-76400000D01*
X203661904Y-76447619D01*
X203709523Y-76542857D01*
X203709523Y-76638095D01*
X203661904Y-76780952D01*
X203090476Y-77352380D01*
X203709523Y-77352380D01*
X168190476Y-64902380D02*
X168857142Y-65902380D01*
X168857142Y-64902380D02*
X168190476Y-65902380D01*
X169761904Y-65902380D02*
X169190476Y-65902380D01*
X169476190Y-65902380D02*
X169476190Y-64902380D01*
X169380952Y-65045238D01*
X169285714Y-65140476D01*
X169190476Y-65188095D01*
X154190476Y-71952380D02*
X154857142Y-72952380D01*
X154857142Y-71952380D02*
X154190476Y-72952380D01*
X155190476Y-72047619D02*
X155238095Y-72000000D01*
X155333333Y-71952380D01*
X155571428Y-71952380D01*
X155666666Y-72000000D01*
X155714285Y-72047619D01*
X155761904Y-72142857D01*
X155761904Y-72238095D01*
X155714285Y-72380952D01*
X155142857Y-72952380D01*
X155761904Y-72952380D01*
X204253380Y-74809523D02*
X205253380Y-74142857D01*
X204253380Y-74142857D02*
X205253380Y-74809523D01*
X204253380Y-73857142D02*
X204253380Y-73238095D01*
X204634333Y-73571428D01*
X204634333Y-73428571D01*
X204681952Y-73333333D01*
X204729571Y-73285714D01*
X204824809Y-73238095D01*
X205062904Y-73238095D01*
X205158142Y-73285714D01*
X205205761Y-73333333D01*
X205253380Y-73428571D01*
X205253380Y-73714285D01*
X205205761Y-73809523D01*
X205158142Y-73857142D01*
X193190476Y-76452380D02*
X193857142Y-77452380D01*
X193857142Y-76452380D02*
X193190476Y-77452380D01*
X194666666Y-76785714D02*
X194666666Y-77452380D01*
X194428571Y-76404761D02*
X194190476Y-77119047D01*
X194809523Y-77119047D01*
D12*
X161705890Y-89043103D02*
X159997500Y-88246467D01*
X167143737Y-91578812D02*
X168852127Y-92375448D01*
X160002500Y-111353533D02*
X160681686Y-109897015D01*
X158294110Y-110556897D02*
X160002500Y-111353533D01*
X152856263Y-108021188D02*
X151147873Y-107224552D01*
X159997500Y-88246467D02*
X159318314Y-89702985D01*
X168852127Y-92375448D02*
X168172941Y-93831966D01*
X151147873Y-107224552D02*
X151827059Y-105768034D01*
X159318314Y-89702985D02*
G75*
G03*
X151827059Y-105768034I681686J-10097015D01*
G01*
X160681686Y-109897014D02*
G75*
G03*
X168170360Y-93828433I-681685J10097014D01*
G01*
X199002500Y-91446467D02*
X199681686Y-92902985D01*
X197294110Y-92243103D02*
X199002500Y-91446467D01*
X198997500Y-114553533D02*
X198318314Y-113097015D01*
X190147873Y-95575448D02*
X190827059Y-97031966D01*
X206143737Y-111221188D02*
X207852127Y-110424552D01*
X191856263Y-94778812D02*
X190147873Y-95575448D01*
X200705890Y-113756897D02*
X198997500Y-114553533D01*
X207852127Y-110424552D02*
X207172941Y-108968034D01*
X190827058Y-97031965D02*
G75*
G03*
X198322679Y-113097308I8172941J-5968035D01*
G01*
X207172941Y-108968034D02*
G75*
G03*
X199681686Y-92902985I-8172941J5968034D01*
G01*
X158990000Y-63640580D02*
X158990000Y-63359420D01*
X160010000Y-63640580D02*
X160010000Y-63359420D01*
X154965580Y-75410000D02*
X154684420Y-75410000D01*
X154965580Y-74390000D02*
X154684420Y-74390000D01*
X153627836Y-68140000D02*
X153412164Y-68140000D01*
X153627836Y-68860000D02*
X153412164Y-68860000D01*
X162140580Y-85510000D02*
X161859420Y-85510000D01*
X162140580Y-84490000D02*
X161859420Y-84490000D01*
X160490000Y-63640580D02*
X160490000Y-63359420D01*
X161510000Y-63640580D02*
X161510000Y-63359420D01*
X157392164Y-60860000D02*
X157607836Y-60860000D01*
X157392164Y-60140000D02*
X157607836Y-60140000D01*
X205459420Y-77290000D02*
X205740580Y-77290000D01*
X205459420Y-78310000D02*
X205740580Y-78310000D01*
X196890000Y-65540580D02*
X196890000Y-65259420D01*
X197910000Y-65540580D02*
X197910000Y-65259420D01*
X209492164Y-66840000D02*
X209707836Y-66840000D01*
X209492164Y-67560000D02*
X209707836Y-67560000D01*
X200340580Y-65090000D02*
X200059420Y-65090000D01*
X200340580Y-66110000D02*
X200059420Y-66110000D01*
X193259420Y-80710000D02*
X193540580Y-80710000D01*
X193259420Y-79690000D02*
X193540580Y-79690000D01*
X200492164Y-62240000D02*
X200707836Y-62240000D01*
X200492164Y-62960000D02*
X200707836Y-62960000D01*
X205550000Y-58310000D02*
X203550000Y-58310000D01*
X204250000Y-61430000D02*
X205550000Y-61430000D01*
X153350000Y-62560000D02*
X155350000Y-62560000D01*
X154650000Y-59440000D02*
X153350000Y-59440000D01*
X171560000Y-58710000D02*
X171560000Y-58394493D01*
X171560000Y-56605507D02*
X171560000Y-56290000D01*
X166440000Y-56290000D02*
X171560000Y-56290000D01*
X167685000Y-58710000D02*
X167685000Y-58608276D01*
X167000000Y-58710000D02*
X166315000Y-58710000D01*
X166440000Y-56605507D02*
X166440000Y-56290000D01*
X171560000Y-57605507D02*
X171560000Y-57394493D01*
X166315000Y-58710000D02*
X166315000Y-58000000D01*
X167685000Y-58710000D02*
X171560000Y-58710000D01*
D10*
X153150000Y-57820000D02*
X161450000Y-57820000D01*
X161450000Y-54620000D02*
X161450000Y-55095000D01*
X153150000Y-55095000D02*
X153150000Y-54620000D01*
X153150000Y-54620000D02*
X161450000Y-54620000D01*
X161450000Y-57820000D02*
X161450000Y-57345000D01*
X153150000Y-57345000D02*
X153150000Y-57820000D01*
X155000000Y-54320000D02*
X157000000Y-54320000D01*
D12*
X191115000Y-55490000D02*
X187240000Y-55490000D01*
X192360000Y-57594493D02*
X192360000Y-57910000D01*
X192360000Y-57910000D02*
X187240000Y-57910000D01*
X187240000Y-56594493D02*
X187240000Y-56805507D01*
X187240000Y-57594493D02*
X187240000Y-57910000D01*
X192485000Y-55490000D02*
X192485000Y-56200000D01*
X191115000Y-55490000D02*
X191115000Y-55591724D01*
X187240000Y-55490000D02*
X187240000Y-55805507D01*
X191800000Y-55490000D02*
X192485000Y-55490000D01*
D10*
X206950000Y-54500000D02*
X206950000Y-54975000D01*
X198650000Y-54500000D02*
X206950000Y-54500000D01*
X198650000Y-54975000D02*
X198650000Y-54500000D01*
X198650000Y-57700000D02*
X206950000Y-57700000D01*
X200500000Y-54200000D02*
X202500000Y-54200000D01*
X206950000Y-57700000D02*
X206950000Y-57225000D01*
X198650000Y-57225000D02*
X198650000Y-57700000D01*
D12*
X155100000Y-68500000D02*
X155100000Y-66500000D01*
X157900000Y-68500000D02*
X155100000Y-68500000D01*
X157900000Y-66500000D02*
X157900000Y-68500000D01*
X155100000Y-66500000D02*
X157900000Y-66500000D01*
X170200000Y-93225298D02*
X173000000Y-93225298D01*
X173000000Y-93225298D02*
X173000000Y-95225298D01*
X170200000Y-95225298D02*
X170200000Y-93225298D01*
X173000000Y-95225298D02*
X170200000Y-95225298D01*
X152600000Y-66000000D02*
X152600000Y-64000000D01*
X155400000Y-64000000D02*
X155400000Y-66000000D01*
X155400000Y-66000000D02*
X152600000Y-66000000D01*
X152600000Y-64000000D02*
X155400000Y-64000000D01*
X206800000Y-69600000D02*
X208800000Y-69600000D01*
X208800000Y-72400000D02*
X206800000Y-72400000D01*
X208800000Y-69600000D02*
X208800000Y-72400000D01*
X206800000Y-72400000D02*
X206800000Y-69600000D01*
X189650000Y-95300000D02*
X189650000Y-97300000D01*
X189650000Y-97300000D02*
X186850000Y-97300000D01*
X186850000Y-97300000D02*
X186850000Y-95300000D01*
X186850000Y-95300000D02*
X189650000Y-95300000D01*
X201100000Y-58300000D02*
X201100000Y-60300000D01*
X201100000Y-60300000D02*
X198300000Y-60300000D01*
X198300000Y-60300000D02*
X198300000Y-58300000D01*
X198300000Y-58300000D02*
X201100000Y-58300000D01*
X161262779Y-82090000D02*
X160937221Y-82090000D01*
X161262779Y-83110000D02*
X160937221Y-83110000D01*
X160662779Y-65490000D02*
X160337221Y-65490000D01*
X160662779Y-66510000D02*
X160337221Y-66510000D01*
X207637221Y-68090000D02*
X207962779Y-68090000D01*
X207637221Y-69110000D02*
X207962779Y-69110000D01*
X198437221Y-79790000D02*
X198762779Y-79790000D01*
X198437221Y-80810000D02*
X198762779Y-80810000D01*
X153550000Y-82100044D02*
X153550000Y-77650000D01*
X154350000Y-82100000D02*
X153550000Y-82100000D01*
X156550000Y-81550000D02*
X156550000Y-77650000D01*
X206300000Y-64300000D02*
X206300000Y-63500000D01*
X206850000Y-66500000D02*
X210750000Y-66500000D01*
X206299956Y-63500000D02*
X210750000Y-63500000D01*
X58600000Y-51400000D02*
X43400000Y-51400000D01*
X43400000Y-51400000D02*
X43400000Y-66600000D01*
X43400000Y-66600000D02*
X58600000Y-66600000D01*
X58600000Y-66600000D02*
X58600000Y-51400000D01*
X61400000Y-51400000D02*
X61400000Y-66600000D01*
X76600000Y-51400000D02*
X61400000Y-51400000D01*
X76600000Y-66600000D02*
X76600000Y-51400000D01*
X61400000Y-66600000D02*
X76600000Y-66600000D01*
X79400000Y-62600000D02*
X94600000Y-62600000D01*
X94600000Y-62600000D02*
X94600000Y-47400000D01*
X94600000Y-47400000D02*
X79400000Y-47400000D01*
X79400000Y-47400000D02*
X79400000Y-62600000D01*
X97400000Y-43400000D02*
X97400000Y-58600000D01*
X112600000Y-43400000D02*
X97400000Y-43400000D01*
X112600000Y-58600000D02*
X112600000Y-43400000D01*
X97400000Y-58600000D02*
X112600000Y-58600000D01*
X130600000Y-62600000D02*
X130600000Y-47400000D01*
X115400000Y-62600000D02*
X130600000Y-62600000D01*
X130600000Y-47400000D02*
X115400000Y-47400000D01*
X115400000Y-47400000D02*
X115400000Y-62600000D01*
X148600000Y-51400000D02*
X133400000Y-51400000D01*
X148600000Y-66600000D02*
X148600000Y-51400000D01*
X133400000Y-66600000D02*
X148600000Y-66600000D01*
X133400000Y-51400000D02*
X133400000Y-66600000D01*
X58600000Y-85600000D02*
X58600000Y-70400000D01*
X43400000Y-70400000D02*
X43400000Y-85600000D01*
X43400000Y-85600000D02*
X58600000Y-85600000D01*
X58600000Y-70400000D02*
X43400000Y-70400000D01*
X76600000Y-85600000D02*
X76600000Y-70400000D01*
X61400000Y-70400000D02*
X61400000Y-85600000D01*
X76600000Y-70400000D02*
X61400000Y-70400000D01*
X61400000Y-85600000D02*
X76600000Y-85600000D01*
X94600000Y-66400000D02*
X79400000Y-66400000D01*
X79400000Y-66400000D02*
X79400000Y-81600000D01*
X79400000Y-81600000D02*
X94600000Y-81600000D01*
X94600000Y-81600000D02*
X94600000Y-66400000D01*
X97400000Y-77600000D02*
X112600000Y-77600000D01*
X112600000Y-77600000D02*
X112600000Y-62400000D01*
X97400000Y-62400000D02*
X97400000Y-77600000D01*
X112600000Y-62400000D02*
X97400000Y-62400000D01*
X130600000Y-66400000D02*
X115400000Y-66400000D01*
X130600000Y-81600000D02*
X130600000Y-66400000D01*
X115400000Y-81600000D02*
X130600000Y-81600000D01*
X115400000Y-66400000D02*
X115400000Y-81600000D01*
X148600000Y-70400000D02*
X133400000Y-70400000D01*
X148600000Y-85600000D02*
X148600000Y-70400000D01*
X133400000Y-70400000D02*
X133400000Y-85600000D01*
X133400000Y-85600000D02*
X148600000Y-85600000D01*
X43400000Y-104600000D02*
X58600000Y-104600000D01*
X43400000Y-89400000D02*
X43400000Y-104600000D01*
X58600000Y-104600000D02*
X58600000Y-89400000D01*
X58600000Y-89400000D02*
X43400000Y-89400000D01*
X61400000Y-104600000D02*
X76600000Y-104600000D01*
X76600000Y-89400000D02*
X61400000Y-89400000D01*
X61400000Y-89400000D02*
X61400000Y-104600000D01*
X76600000Y-104600000D02*
X76600000Y-89400000D01*
X94600000Y-85400000D02*
X79400000Y-85400000D01*
X94600000Y-100600000D02*
X94600000Y-85400000D01*
X79400000Y-85400000D02*
X79400000Y-100600000D01*
X79400000Y-100600000D02*
X94600000Y-100600000D01*
X112600000Y-81400000D02*
X97400000Y-81400000D01*
X97400000Y-96600000D02*
X112600000Y-96600000D01*
X112600000Y-96600000D02*
X112600000Y-81400000D01*
X97400000Y-81400000D02*
X97400000Y-96600000D01*
X130600000Y-85400000D02*
X115400000Y-85400000D01*
X130600000Y-100600000D02*
X130600000Y-85400000D01*
X115400000Y-85400000D02*
X115400000Y-100600000D01*
X115400000Y-100600000D02*
X130600000Y-100600000D01*
X148600000Y-88400000D02*
X133400000Y-88400000D01*
X133400000Y-103600000D02*
X148600000Y-103600000D01*
X148600000Y-103600000D02*
X148600000Y-88400000D01*
X133400000Y-88400000D02*
X133400000Y-103600000D01*
X104400000Y-108190000D02*
X104400000Y-123390000D01*
X104400000Y-123390000D02*
X119600000Y-123390000D01*
X119600000Y-108190000D02*
X104400000Y-108190000D01*
X119600000Y-123390000D02*
X119600000Y-108190000D01*
X138164813Y-126804265D02*
X140804265Y-111835187D01*
X125835187Y-109195735D02*
X123195735Y-124164813D01*
X140804265Y-111835187D02*
X125835187Y-109195735D01*
X123195735Y-124164813D02*
X138164813Y-126804265D01*
X142900162Y-126676040D02*
X156676040Y-133099838D01*
X156676040Y-133099838D02*
X163099838Y-119323960D01*
X163099838Y-119323960D02*
X149323960Y-112900162D01*
X149323960Y-112900162D02*
X142900162Y-126676040D01*
X227600000Y-65600000D02*
X227600000Y-50400000D01*
X212400000Y-65600000D02*
X227600000Y-65600000D01*
X212400000Y-50400000D02*
X212400000Y-65600000D01*
X227600000Y-50400000D02*
X212400000Y-50400000D01*
X245600000Y-46400000D02*
X230400000Y-46400000D01*
X230400000Y-46400000D02*
X230400000Y-61600000D01*
X245600000Y-61600000D02*
X245600000Y-46400000D01*
X230400000Y-61600000D02*
X245600000Y-61600000D01*
X263600000Y-42400000D02*
X248400000Y-42400000D01*
X248400000Y-57600000D02*
X263600000Y-57600000D01*
X263600000Y-57600000D02*
X263600000Y-42400000D01*
X248400000Y-42400000D02*
X248400000Y-57600000D01*
X281600000Y-46400000D02*
X266400000Y-46400000D01*
X266400000Y-61600000D02*
X281600000Y-61600000D01*
X266400000Y-46400000D02*
X266400000Y-61600000D01*
X281600000Y-61600000D02*
X281600000Y-46400000D01*
X300600000Y-50400000D02*
X285400000Y-50400000D01*
X300600000Y-65600000D02*
X300600000Y-50400000D01*
X285400000Y-65600000D02*
X300600000Y-65600000D01*
X285400000Y-50400000D02*
X285400000Y-65600000D01*
X318600000Y-65600000D02*
X318600000Y-50400000D01*
X303400000Y-65600000D02*
X318600000Y-65600000D01*
X303400000Y-50400000D02*
X303400000Y-65600000D01*
X318600000Y-50400000D02*
X303400000Y-50400000D01*
X212400000Y-69400000D02*
X212400000Y-84600000D01*
X227600000Y-69400000D02*
X212400000Y-69400000D01*
X227600000Y-84600000D02*
X227600000Y-69400000D01*
X212400000Y-84600000D02*
X227600000Y-84600000D01*
X245600000Y-80600000D02*
X245600000Y-65400000D01*
X230400000Y-80600000D02*
X245600000Y-80600000D01*
X230400000Y-65400000D02*
X230400000Y-80600000D01*
X245600000Y-65400000D02*
X230400000Y-65400000D01*
X263600000Y-61400000D02*
X248400000Y-61400000D01*
X263600000Y-76600000D02*
X263600000Y-61400000D01*
X248400000Y-76600000D02*
X263600000Y-76600000D01*
X248400000Y-61400000D02*
X248400000Y-76600000D01*
X266400000Y-65400000D02*
X266400000Y-80600000D01*
X281600000Y-80600000D02*
X281600000Y-65400000D01*
X266400000Y-80600000D02*
X281600000Y-80600000D01*
X281600000Y-65400000D02*
X266400000Y-65400000D01*
X285400000Y-69400000D02*
X285400000Y-84600000D01*
X300600000Y-69400000D02*
X285400000Y-69400000D01*
X300600000Y-84600000D02*
X300600000Y-69400000D01*
X285400000Y-84600000D02*
X300600000Y-84600000D01*
X303400000Y-84600000D02*
X318600000Y-84600000D01*
X318600000Y-69400000D02*
X303400000Y-69400000D01*
X303400000Y-69400000D02*
X303400000Y-84600000D01*
X318600000Y-84600000D02*
X318600000Y-69400000D01*
X212400000Y-88400000D02*
X212400000Y-103600000D01*
X227600000Y-103600000D02*
X227600000Y-88400000D01*
X227600000Y-88400000D02*
X212400000Y-88400000D01*
X212400000Y-103600000D02*
X227600000Y-103600000D01*
X230400000Y-84400000D02*
X230400000Y-99600000D01*
X230400000Y-99600000D02*
X245600000Y-99600000D01*
X245600000Y-84400000D02*
X230400000Y-84400000D01*
X245600000Y-99600000D02*
X245600000Y-84400000D01*
X263600000Y-95600000D02*
X263600000Y-80400000D01*
X248400000Y-80400000D02*
X248400000Y-95600000D01*
X263600000Y-80400000D02*
X248400000Y-80400000D01*
X248400000Y-95600000D02*
X263600000Y-95600000D01*
X266400000Y-84400000D02*
X266400000Y-99600000D01*
X281600000Y-99600000D02*
X281600000Y-84400000D01*
X266400000Y-99600000D02*
X281600000Y-99600000D01*
X281600000Y-84400000D02*
X266400000Y-84400000D01*
X285400000Y-88400000D02*
X285400000Y-103600000D01*
X300600000Y-88400000D02*
X285400000Y-88400000D01*
X285400000Y-103600000D02*
X300600000Y-103600000D01*
X300600000Y-103600000D02*
X300600000Y-88400000D01*
X303400000Y-103600000D02*
X318600000Y-103600000D01*
X318600000Y-88400000D02*
X303400000Y-88400000D01*
X318600000Y-103600000D02*
X318600000Y-88400000D01*
X303400000Y-88400000D02*
X303400000Y-103600000D01*
X218221977Y-128321322D02*
X211321322Y-114778023D01*
X197778023Y-121678678D02*
X204678678Y-135221977D01*
X211321322Y-114778023D02*
X197778023Y-121678678D01*
X204678678Y-135221977D02*
X218221977Y-128321322D01*
X234164813Y-109195735D02*
X219195735Y-111835187D01*
X236804265Y-124164813D02*
X234164813Y-109195735D01*
X219195735Y-111835187D02*
X221835187Y-126804265D01*
X221835187Y-126804265D02*
X236804265Y-124164813D01*
X240400000Y-108400000D02*
X240400000Y-123600000D01*
X255600000Y-123600000D02*
X255600000Y-108400000D01*
X255600000Y-108400000D02*
X240400000Y-108400000D01*
X240400000Y-123600000D02*
X255600000Y-123600000D01*
X171725000Y-65550000D02*
X172275000Y-65550000D01*
X173850000Y-61675000D02*
X173850000Y-60750000D01*
X170150000Y-65450000D02*
X170150000Y-60750000D01*
X171725000Y-60650000D02*
X172275000Y-60650000D01*
X173850000Y-65450000D02*
X173850000Y-64525000D01*
X186350000Y-65425000D02*
X186350000Y-66350000D01*
X188475000Y-61550000D02*
X187925000Y-61550000D01*
X190050000Y-61650000D02*
X190050000Y-66350000D01*
X186350000Y-61650000D02*
X186350000Y-62575000D01*
X188475000Y-66450000D02*
X187925000Y-66450000D01*
X158390000Y-69390000D02*
X158950000Y-69390000D01*
X165610000Y-69390000D02*
X165610000Y-69950000D01*
X165610000Y-76610000D02*
X165050000Y-76610000D01*
X165610000Y-69390000D02*
X165050000Y-69390000D01*
X158390000Y-76610000D02*
X158390000Y-76050000D01*
X158390000Y-76610000D02*
X158950000Y-76610000D01*
X165610000Y-76610000D02*
X165610000Y-76050000D01*
X203810000Y-68790000D02*
X203810000Y-69350000D01*
X196590000Y-68790000D02*
X197150000Y-68790000D01*
X203810000Y-76010000D02*
X203250000Y-76010000D01*
X196590000Y-68790000D02*
X196590000Y-69350000D01*
X196590000Y-76010000D02*
X196590000Y-75450000D01*
X196590000Y-76010000D02*
X197150000Y-76010000D01*
X203810000Y-68790000D02*
X203250000Y-68790000D01*
X165650000Y-66800000D02*
X167950000Y-66800000D01*
X167950000Y-66800000D02*
X167950000Y-64100000D01*
X155800000Y-69300000D02*
X154200000Y-69300000D01*
X154200000Y-69300000D02*
X154200000Y-71700000D01*
X155800000Y-71700000D02*
X155800000Y-69300000D01*
X207401000Y-75200000D02*
X207401000Y-72800000D01*
X205801000Y-75200000D02*
X207401000Y-75200000D01*
X205801000Y-72800000D02*
X205801000Y-75200000D01*
X195050000Y-76450000D02*
X195050000Y-78750000D01*
X195050000Y-78750000D02*
X197750000Y-78750000D01*
%LPC*%
D13*
X154968730Y-110589594D03*
X165031270Y-89010406D03*
D14*
X160000000Y-99800000D03*
D15*
X204031270Y-113789594D03*
X193968730Y-92210406D03*
D14*
X199000000Y-103000000D03*
D16*
X159500000Y-64275000D03*
X159500000Y-62725000D03*
D17*
X164180000Y-67500000D03*
X164820000Y-67500000D03*
D18*
X164320000Y-81000000D03*
X163680000Y-81000000D03*
D17*
X161860000Y-80000000D03*
X162500000Y-80000000D03*
D19*
X155600000Y-74900000D03*
X154050000Y-74900000D03*
D20*
X154000000Y-68500000D03*
X153040000Y-68500000D03*
D17*
X156560000Y-69170000D03*
X157200000Y-69170000D03*
D18*
X167320000Y-73500000D03*
X166680000Y-73500000D03*
D17*
X161680000Y-67500000D03*
X162320000Y-67500000D03*
D18*
X167320000Y-70000000D03*
X166680000Y-70000000D03*
D19*
X162775000Y-85000000D03*
X161225000Y-85000000D03*
D16*
X161000000Y-64275000D03*
X161000000Y-62725000D03*
D21*
X162500000Y-64320000D03*
X162500000Y-63680000D03*
D17*
X152680000Y-70000000D03*
X153320000Y-70000000D03*
X152680000Y-71000000D03*
X153320000Y-71000000D03*
D21*
X169500000Y-71820000D03*
X169500000Y-71180000D03*
X166560000Y-71870000D03*
X166560000Y-71230000D03*
D17*
X171680000Y-68000000D03*
X172320000Y-68000000D03*
X167335000Y-67500000D03*
X167975000Y-67500000D03*
X166680000Y-63500000D03*
X167320000Y-63500000D03*
D22*
X157020000Y-60500000D03*
X157980000Y-60500000D03*
D17*
X157180000Y-59000000D03*
X157820000Y-59000000D03*
D23*
X204825000Y-77800000D03*
X206375000Y-77800000D03*
D18*
X194320000Y-70000000D03*
X193680000Y-70000000D03*
X195720000Y-67200000D03*
X195080000Y-67200000D03*
X199920000Y-67400000D03*
X199280000Y-67400000D03*
D16*
X197400000Y-66175000D03*
X197400000Y-64625000D03*
D22*
X209120000Y-67200000D03*
X210080000Y-67200000D03*
D18*
X206520000Y-75900000D03*
X205880000Y-75900000D03*
D17*
X193680000Y-71000000D03*
X194320000Y-71000000D03*
D18*
X200720000Y-79000000D03*
X200080000Y-79000000D03*
D17*
X195080000Y-75000000D03*
X195720000Y-75000000D03*
D19*
X200975000Y-65600000D03*
X199425000Y-65600000D03*
D23*
X192625000Y-80200000D03*
X194175000Y-80200000D03*
D17*
X193080000Y-81600000D03*
X193720000Y-81600000D03*
D18*
X208720000Y-74600000D03*
X208080000Y-74600000D03*
X208720000Y-73400000D03*
X208080000Y-73400000D03*
D21*
X192600000Y-73420000D03*
X192600000Y-72780000D03*
D24*
X195180000Y-73265000D03*
X195180000Y-73905000D03*
D18*
X188520000Y-68400000D03*
X187880000Y-68400000D03*
D17*
X195680000Y-79300000D03*
X196320000Y-79300000D03*
D24*
X198200000Y-77680000D03*
X198200000Y-78320000D03*
D22*
X200120000Y-62600000D03*
X201080000Y-62600000D03*
D17*
X200200000Y-61300000D03*
X200840000Y-61300000D03*
D25*
X203900000Y-59120000D03*
D26*
X203900000Y-60820000D03*
X205900000Y-60820000D03*
X205900000Y-58920000D03*
D25*
X155000000Y-61750000D03*
D26*
X155000000Y-60050000D03*
X153000000Y-60050000D03*
X153000000Y-61950000D03*
D27*
X167000000Y-58000000D03*
D28*
X167000000Y-57000000D03*
X168000000Y-58000000D03*
X168000000Y-57000000D03*
X169000000Y-58000000D03*
X169000000Y-57000000D03*
X170000000Y-58000000D03*
X170000000Y-57000000D03*
X171000000Y-58000000D03*
X171000000Y-57000000D03*
D29*
X156000000Y-56000000D03*
D30*
X156650000Y-57000000D03*
X157300000Y-56000000D03*
X157950000Y-57000000D03*
X158600000Y-56000000D03*
D31*
X160875000Y-56220000D03*
X153725000Y-56220000D03*
D27*
X191800000Y-56200000D03*
D28*
X191800000Y-57200000D03*
X190800000Y-56200000D03*
X190800000Y-57200000D03*
X189800000Y-56200000D03*
X189800000Y-57200000D03*
X188800000Y-56200000D03*
X188800000Y-57200000D03*
X187800000Y-56200000D03*
X187800000Y-57200000D03*
D29*
X201500000Y-55880000D03*
D30*
X202150000Y-56880000D03*
X202800000Y-55880000D03*
X203450000Y-56880000D03*
X204100000Y-55880000D03*
D31*
X206375000Y-56100000D03*
X199225000Y-56100000D03*
D32*
X155850000Y-67500000D03*
X157150000Y-67500000D03*
X170950000Y-94225298D03*
X172250000Y-94225298D03*
X154650000Y-65000000D03*
X153350000Y-65000000D03*
D33*
X207800000Y-70350000D03*
X207800000Y-71650000D03*
D32*
X188900000Y-96300000D03*
X187600000Y-96300000D03*
X199050000Y-59300000D03*
X200350000Y-59300000D03*
D34*
X161887500Y-82600000D03*
X160312500Y-82600000D03*
X161287500Y-66000000D03*
X159712500Y-66000000D03*
D35*
X164000000Y-66000000D03*
X163030000Y-66000000D03*
D18*
X168320000Y-72000000D03*
X167680000Y-72000000D03*
D36*
X207012500Y-68600000D03*
X208587500Y-68600000D03*
X197812500Y-80300000D03*
X199387500Y-80300000D03*
D37*
X195515000Y-80300000D03*
X196485000Y-80300000D03*
D17*
X193580000Y-73445000D03*
X194220000Y-73445000D03*
D38*
X154300000Y-81100000D03*
X154300000Y-78100000D03*
X155800000Y-78100000D03*
X155800000Y-81100000D03*
D39*
X207300000Y-64250000D03*
X210300000Y-64250000D03*
X210300000Y-65750000D03*
X207300000Y-65750000D03*
D18*
X154000000Y-67000000D03*
X153360000Y-67000000D03*
D17*
X168680000Y-69000000D03*
X169320000Y-69000000D03*
D18*
X152370000Y-76600000D03*
X151730000Y-76600000D03*
X152370000Y-78600000D03*
X151730000Y-78600000D03*
X152370000Y-80600000D03*
X151730000Y-80600000D03*
D21*
X200200000Y-64320000D03*
X200200000Y-63680000D03*
D18*
X205520000Y-66000000D03*
X204880000Y-66000000D03*
X205520000Y-64800000D03*
X204880000Y-64800000D03*
X205520000Y-63600000D03*
X204880000Y-63600000D03*
D24*
X189400000Y-59080000D03*
X189400000Y-59720000D03*
D40*
X45500000Y-59000000D03*
D41*
X56000000Y-53850000D03*
D40*
X56500000Y-59000000D03*
D42*
X51000000Y-64900000D03*
X46000000Y-62800000D03*
D43*
X51000000Y-59000000D03*
D42*
X64000000Y-62800000D03*
X69000000Y-64900000D03*
D40*
X63500000Y-59000000D03*
D43*
X69000000Y-59000000D03*
D41*
X74000000Y-53850000D03*
D40*
X74500000Y-59000000D03*
D41*
X92000000Y-49850000D03*
D40*
X92500000Y-55000000D03*
X81500000Y-55000000D03*
D42*
X82000000Y-58800000D03*
X87000000Y-60900000D03*
D43*
X87000000Y-55000000D03*
D41*
X110000000Y-45850000D03*
D40*
X99500000Y-51000000D03*
X110500000Y-51000000D03*
D43*
X105000000Y-51000000D03*
D42*
X100000000Y-54800000D03*
X105000000Y-56900000D03*
X123000000Y-60900000D03*
D41*
X128000000Y-49850000D03*
D43*
X123000000Y-55000000D03*
D40*
X117500000Y-55000000D03*
D42*
X118000000Y-58800000D03*
D40*
X128500000Y-55000000D03*
X135500000Y-59000000D03*
D43*
X141000000Y-59000000D03*
D41*
X146000000Y-53850000D03*
D42*
X141000000Y-64900000D03*
D40*
X146500000Y-59000000D03*
D42*
X136000000Y-62800000D03*
D40*
X56500000Y-78000000D03*
X45500000Y-78000000D03*
D41*
X56000000Y-72850000D03*
D42*
X51000000Y-83900000D03*
D43*
X51000000Y-78000000D03*
D42*
X46000000Y-81800000D03*
D43*
X69000000Y-78000000D03*
D40*
X74500000Y-78000000D03*
D42*
X64000000Y-81800000D03*
X69000000Y-83900000D03*
D41*
X74000000Y-72850000D03*
D40*
X63500000Y-78000000D03*
D43*
X87000000Y-74000000D03*
D42*
X87000000Y-79900000D03*
D40*
X92500000Y-74000000D03*
D41*
X92000000Y-68850000D03*
D40*
X81500000Y-74000000D03*
D42*
X82000000Y-77800000D03*
D40*
X99500000Y-70000000D03*
D42*
X100000000Y-73800000D03*
D43*
X105000000Y-70000000D03*
D41*
X110000000Y-64850000D03*
D42*
X105000000Y-75900000D03*
D40*
X110500000Y-70000000D03*
D41*
X128000000Y-68850000D03*
D43*
X123000000Y-74000000D03*
D42*
X123000000Y-79900000D03*
D40*
X128500000Y-74000000D03*
D42*
X118000000Y-77800000D03*
D40*
X117500000Y-74000000D03*
X146500000Y-78000000D03*
D42*
X136000000Y-81800000D03*
D40*
X135500000Y-78000000D03*
D43*
X141000000Y-78000000D03*
D41*
X146000000Y-72850000D03*
D42*
X141000000Y-83900000D03*
D43*
X51000000Y-97000000D03*
D42*
X46000000Y-100800000D03*
D41*
X56000000Y-91850000D03*
D42*
X51000000Y-102900000D03*
D40*
X56500000Y-97000000D03*
X45500000Y-97000000D03*
D42*
X64000000Y-100800000D03*
D41*
X74000000Y-91850000D03*
D42*
X69000000Y-102900000D03*
D43*
X69000000Y-97000000D03*
D40*
X74500000Y-97000000D03*
X63500000Y-97000000D03*
D41*
X92000000Y-87850000D03*
D42*
X82000000Y-96800000D03*
D40*
X92500000Y-93000000D03*
D42*
X87000000Y-98900000D03*
D43*
X87000000Y-93000000D03*
D40*
X81500000Y-93000000D03*
D42*
X105000000Y-94900000D03*
D40*
X110500000Y-89000000D03*
X99500000Y-89000000D03*
D43*
X105000000Y-89000000D03*
D41*
X110000000Y-83850000D03*
D42*
X100000000Y-92800000D03*
D40*
X128500000Y-93000000D03*
D42*
X118000000Y-96800000D03*
D43*
X123000000Y-93000000D03*
D41*
X128000000Y-87850000D03*
D40*
X117500000Y-93000000D03*
D42*
X123000000Y-98900000D03*
X136000000Y-99800000D03*
D40*
X135500000Y-96000000D03*
X146500000Y-96000000D03*
D42*
X141000000Y-101900000D03*
D43*
X141000000Y-96000000D03*
D41*
X146000000Y-90850000D03*
D40*
X106500000Y-115790000D03*
X117500000Y-115790000D03*
D42*
X107000000Y-119590000D03*
D41*
X117000000Y-110640000D03*
D42*
X112000000Y-121690000D03*
D43*
X112000000Y-115790000D03*
X132000000Y-118000000D03*
D40*
X126583557Y-117044935D03*
X137416443Y-118955065D03*
D41*
X137818327Y-113796481D03*
D42*
X130975476Y-123810366D03*
X126416098Y-120874029D03*
D43*
X153000000Y-123000000D03*
D42*
X158347216Y-125493448D03*
D41*
X150445606Y-116291977D03*
D42*
X154330878Y-129137488D03*
D40*
X155324400Y-118015307D03*
X150675600Y-127984693D03*
D42*
X215000000Y-61800000D03*
D41*
X225000000Y-52850000D03*
D40*
X225500000Y-58000000D03*
D43*
X220000000Y-58000000D03*
D40*
X214500000Y-58000000D03*
D42*
X220000000Y-63900000D03*
X238000000Y-59900000D03*
X233000000Y-57800000D03*
D40*
X243500000Y-54000000D03*
X232500000Y-54000000D03*
D41*
X243000000Y-48850000D03*
D43*
X238000000Y-54000000D03*
D42*
X256000000Y-55900000D03*
D40*
X261500000Y-50000000D03*
X250500000Y-50000000D03*
D43*
X256000000Y-50000000D03*
D41*
X261000000Y-44850000D03*
D42*
X251000000Y-53800000D03*
D40*
X279500000Y-54000000D03*
X268500000Y-54000000D03*
D42*
X269000000Y-57800000D03*
D41*
X279000000Y-48850000D03*
D43*
X274000000Y-54000000D03*
D42*
X274000000Y-59900000D03*
D40*
X298500000Y-58000000D03*
D42*
X293000000Y-63900000D03*
X288000000Y-61800000D03*
D43*
X293000000Y-58000000D03*
D40*
X287500000Y-58000000D03*
D41*
X298000000Y-52850000D03*
D42*
X311000000Y-63900000D03*
D40*
X305500000Y-58000000D03*
D43*
X311000000Y-58000000D03*
D40*
X316500000Y-58000000D03*
D41*
X316000000Y-52850000D03*
D42*
X306000000Y-61800000D03*
X220000000Y-82900000D03*
D40*
X214500000Y-77000000D03*
D43*
X220000000Y-77000000D03*
D42*
X215000000Y-80800000D03*
D41*
X225000000Y-71850000D03*
D40*
X225500000Y-77000000D03*
D42*
X233000000Y-76800000D03*
D40*
X243500000Y-73000000D03*
D43*
X238000000Y-73000000D03*
D41*
X243000000Y-67850000D03*
D40*
X232500000Y-73000000D03*
D42*
X238000000Y-78900000D03*
D41*
X261000000Y-63850000D03*
D42*
X256000000Y-74900000D03*
D40*
X250500000Y-69000000D03*
D42*
X251000000Y-72800000D03*
D43*
X256000000Y-69000000D03*
D40*
X261500000Y-69000000D03*
D42*
X269000000Y-76800000D03*
D40*
X268500000Y-73000000D03*
D41*
X279000000Y-67850000D03*
D40*
X279500000Y-73000000D03*
D42*
X274000000Y-78900000D03*
D43*
X274000000Y-73000000D03*
X293000000Y-77000000D03*
D42*
X288000000Y-80800000D03*
D40*
X298500000Y-77000000D03*
D42*
X293000000Y-82900000D03*
D41*
X298000000Y-71850000D03*
D40*
X287500000Y-77000000D03*
D42*
X306000000Y-80800000D03*
D41*
X316000000Y-71850000D03*
D40*
X316500000Y-77000000D03*
X305500000Y-77000000D03*
D43*
X311000000Y-77000000D03*
D42*
X311000000Y-82900000D03*
D41*
X225000000Y-90850000D03*
D40*
X225500000Y-96000000D03*
D42*
X215000000Y-99800000D03*
X220000000Y-101900000D03*
D43*
X220000000Y-96000000D03*
D40*
X214500000Y-96000000D03*
D43*
X238000000Y-92000000D03*
D40*
X232500000Y-92000000D03*
D42*
X233000000Y-95800000D03*
X238000000Y-97900000D03*
D40*
X243500000Y-92000000D03*
D41*
X243000000Y-86850000D03*
D42*
X256000000Y-93900000D03*
D43*
X256000000Y-88000000D03*
D42*
X251000000Y-91800000D03*
D41*
X261000000Y-82850000D03*
D40*
X250500000Y-88000000D03*
X261500000Y-88000000D03*
D42*
X274000000Y-97900000D03*
D40*
X268500000Y-92000000D03*
D42*
X269000000Y-95800000D03*
D41*
X279000000Y-86850000D03*
D40*
X279500000Y-92000000D03*
D43*
X274000000Y-92000000D03*
D40*
X298500000Y-96000000D03*
D41*
X298000000Y-90850000D03*
D40*
X287500000Y-96000000D03*
D42*
X288000000Y-99800000D03*
X293000000Y-101900000D03*
D43*
X293000000Y-96000000D03*
D40*
X305500000Y-96000000D03*
D43*
X311000000Y-96000000D03*
D42*
X306000000Y-99800000D03*
X311000000Y-101900000D03*
D41*
X316000000Y-90850000D03*
D40*
X316500000Y-96000000D03*
D42*
X202344223Y-122270131D03*
D40*
X210496948Y-129900536D03*
D43*
X208000000Y-125000000D03*
D41*
X214858636Y-127116982D03*
D40*
X205503052Y-120099464D03*
D42*
X202743062Y-127678544D03*
X223735824Y-122610510D03*
D43*
X228000000Y-118000000D03*
D42*
X229024524Y-123810366D03*
D40*
X233416443Y-117044935D03*
X222583557Y-118955065D03*
D41*
X232029751Y-112059999D03*
D43*
X248000000Y-116000000D03*
D40*
X253500000Y-116000000D03*
D42*
X243000000Y-119800000D03*
X248000000Y-121900000D03*
D41*
X253000000Y-110850000D03*
D40*
X242500000Y-116000000D03*
D44*
X172850000Y-60475000D03*
X172850000Y-65725000D03*
X171150000Y-65725000D03*
X171150000Y-60475000D03*
X187350000Y-61375000D03*
X187350000Y-66625000D03*
X189050000Y-66625000D03*
X189050000Y-61375000D03*
D45*
X160750000Y-69750000D03*
X161250000Y-69750000D03*
X161750000Y-69750000D03*
X162250000Y-69750000D03*
X162750000Y-69750000D03*
X163250000Y-69750000D03*
X163750000Y-69750000D03*
X164250000Y-69750000D03*
X164750000Y-69750000D03*
X165250000Y-75250000D03*
X159250000Y-75500000D03*
X160000000Y-75750000D03*
X161000000Y-75750000D03*
X161500000Y-75750000D03*
X162000000Y-75750000D03*
X162500000Y-75750000D03*
X163000000Y-75750000D03*
X163500000Y-75750000D03*
X164000000Y-75750000D03*
X165250000Y-75750000D03*
X159250000Y-76250000D03*
X159750000Y-76250000D03*
X160250000Y-76250000D03*
X160750000Y-76250000D03*
X161250000Y-76250000D03*
X161750000Y-76250000D03*
X162250000Y-76250000D03*
X162750000Y-76250000D03*
X163250000Y-76250000D03*
X163750000Y-76250000D03*
X164250000Y-76250000D03*
X164750000Y-76250000D03*
X158750000Y-70250000D03*
X159500000Y-70250000D03*
X160000000Y-70250000D03*
X160500000Y-70250000D03*
X161000000Y-70250000D03*
X161500000Y-70250000D03*
X162000000Y-70250000D03*
X162500000Y-70250000D03*
X163000000Y-70250000D03*
X163500000Y-70250000D03*
X165250000Y-70250000D03*
X158750000Y-70750000D03*
X159250000Y-71000000D03*
X164750000Y-71000000D03*
X165250000Y-71250000D03*
D46*
X162000000Y-73000000D03*
D45*
X159250000Y-71500000D03*
X164750000Y-71500000D03*
X158750000Y-71750000D03*
X159250000Y-72000000D03*
X164750000Y-72000000D03*
X158750000Y-72250000D03*
X165250000Y-72250000D03*
X159250000Y-72500000D03*
X158750000Y-72750000D03*
X165250000Y-72750000D03*
X159250000Y-73000000D03*
X158750000Y-73250000D03*
X165250000Y-73250000D03*
X159250000Y-73500000D03*
X164750000Y-73500000D03*
X158750000Y-73750000D03*
X165250000Y-73750000D03*
X159250000Y-74000000D03*
X164750000Y-74000000D03*
X158750000Y-74250000D03*
X165250000Y-74250000D03*
X164750000Y-74500000D03*
X158750000Y-74750000D03*
X165250000Y-74750000D03*
X159250000Y-75000000D03*
X164750000Y-75000000D03*
X201450000Y-75650000D03*
X200950000Y-75650000D03*
X200450000Y-75650000D03*
X199950000Y-75650000D03*
X199450000Y-75650000D03*
X198950000Y-75650000D03*
X198450000Y-75650000D03*
X197950000Y-75650000D03*
X197450000Y-75650000D03*
X196950000Y-70150000D03*
X202950000Y-69900000D03*
X202200000Y-69650000D03*
X201200000Y-69650000D03*
X200700000Y-69650000D03*
X200200000Y-69650000D03*
X199700000Y-69650000D03*
X199200000Y-69650000D03*
X198700000Y-69650000D03*
X198200000Y-69650000D03*
X196950000Y-69650000D03*
X202950000Y-69150000D03*
X202450000Y-69150000D03*
X201950000Y-69150000D03*
X201450000Y-69150000D03*
X200950000Y-69150000D03*
X200450000Y-69150000D03*
X199950000Y-69150000D03*
X199450000Y-69150000D03*
X198950000Y-69150000D03*
X198450000Y-69150000D03*
X197950000Y-69150000D03*
X197450000Y-69150000D03*
X203450000Y-75150000D03*
X202700000Y-75150000D03*
X202200000Y-75150000D03*
X201700000Y-75150000D03*
X201200000Y-75150000D03*
X200700000Y-75150000D03*
X200200000Y-75150000D03*
X199700000Y-75150000D03*
X199200000Y-75150000D03*
X198700000Y-75150000D03*
X196950000Y-75150000D03*
X203450000Y-74650000D03*
X202950000Y-74400000D03*
X197450000Y-74400000D03*
X196950000Y-74150000D03*
D46*
X200200000Y-72400000D03*
D45*
X202950000Y-73900000D03*
X197450000Y-73900000D03*
X203450000Y-73650000D03*
X202950000Y-73400000D03*
X197450000Y-73400000D03*
X203450000Y-73150000D03*
X196950000Y-73150000D03*
X202950000Y-72900000D03*
X203450000Y-72650000D03*
X196950000Y-72650000D03*
X202950000Y-72400000D03*
X203450000Y-72150000D03*
X196950000Y-72150000D03*
X202950000Y-71900000D03*
X197450000Y-71900000D03*
X203450000Y-71650000D03*
X196950000Y-71650000D03*
X202950000Y-71400000D03*
X197450000Y-71400000D03*
X203450000Y-71150000D03*
X196950000Y-71150000D03*
X197450000Y-70900000D03*
X203450000Y-70650000D03*
X196950000Y-70650000D03*
X202950000Y-70400000D03*
X197450000Y-70400000D03*
D47*
X167350000Y-66150000D03*
X167350000Y-64750000D03*
X166250000Y-64750000D03*
X166250000Y-66150000D03*
D48*
X155000000Y-69800000D03*
X155000000Y-71200000D03*
X206601000Y-74700000D03*
X206601000Y-73300000D03*
D49*
X195700000Y-78150000D03*
X197100000Y-78150000D03*
X197100000Y-77050000D03*
X195700000Y-77050000D03*
M02*
