%TF.GenerationSoftware,KiCad,Pcbnew,(6.0.9)*%
%TF.CreationDate,2023-05-23T13:43:04-07:00*%
%TF.ProjectId,Keycad_fun,4b657963-6164-45f6-9675-6e2e6b696361,rev?*%
%TF.SameCoordinates,Original*%
%TF.FileFunction,Profile,NP*%
%FSLAX46Y46*%
G04 Gerber Fmt 4.6, Leading zero omitted, Abs format (unit mm)*
G04 Created by KiCad (PCBNEW (6.0.9)) date 2023-05-23 13:43:04*
%MOMM*%
%LPD*%
G01*
G04 APERTURE LIST*
%TA.AperFunction,Profile*%
%ADD10C,0.050000*%
%TD*%
G04 APERTURE END LIST*
D10*
X104000000Y-128000000D02*
X96000000Y-107000000D01*
X174000000Y-100000000D02*
X168000000Y-114000000D01*
X210000000Y-50000000D02*
X210000000Y-54000000D01*
X186000000Y-97000000D02*
X186000000Y-99000000D01*
X192000000Y-114000000D02*
X204000000Y-139000000D01*
X192000000Y-54000000D02*
X189000000Y-54000000D01*
X204000000Y-139000000D02*
X219000000Y-131000000D01*
X186000000Y-99000000D02*
X186000000Y-100000000D01*
X210000000Y-54000000D02*
X192000000Y-54000000D01*
X282000000Y-46000000D02*
X264000000Y-46000000D01*
X264000000Y-42000000D02*
X246000000Y-42000000D01*
X228000000Y-46000000D02*
X228000000Y-50000000D01*
X282000000Y-50000000D02*
X282000000Y-46000000D01*
X186000000Y-100000000D02*
X192000000Y-114000000D01*
X256000000Y-128000000D02*
X264000000Y-107000000D01*
X219000000Y-131000000D02*
X256000000Y-128000000D01*
X264000000Y-46000000D02*
X264000000Y-42000000D01*
X246000000Y-46000000D02*
X228000000Y-46000000D01*
X246000000Y-42000000D02*
X246000000Y-46000000D01*
X188000000Y-54000000D02*
X186000000Y-54000000D01*
X189000000Y-54000000D02*
X188000000Y-54000000D01*
X172000000Y-54000000D02*
X174000000Y-54000000D01*
X168000000Y-54000000D02*
X171000000Y-54000000D01*
X186000000Y-90900000D02*
G75*
G03*
X186000000Y-90900000I-200000J0D01*
G01*
X186000000Y-57900000D02*
G75*
G03*
X186000000Y-57900000I-200000J0D01*
G01*
X186000000Y-92700000D02*
G75*
G03*
X186000000Y-92700000I-200000J0D01*
G01*
X174400000Y-58500000D02*
G75*
G03*
X174400000Y-58500000I-200000J0D01*
G01*
X67000000Y-50000000D02*
X73000000Y-50000000D01*
X96000000Y-42000000D02*
X114000000Y-42000000D01*
X73000000Y-50000000D02*
X78000000Y-50000000D01*
X40000000Y-97000000D02*
X40000000Y-102000000D01*
X132000000Y-46000000D02*
X132000000Y-50000000D01*
X174400000Y-89100000D02*
G75*
G03*
X174400000Y-89100000I-200000J0D01*
G01*
X210000000Y-50000000D02*
X217000000Y-50000000D01*
X223000000Y-50000000D02*
X228000000Y-50000000D01*
X40000000Y-57000000D02*
X40000000Y-50000000D01*
X174000000Y-57000000D02*
X186000000Y-57000000D01*
X174000000Y-99000000D02*
X174000000Y-100000000D01*
X320000000Y-97000000D02*
X320000000Y-63000000D01*
X174000000Y-87000000D02*
X174000000Y-63000000D01*
X132000000Y-50000000D02*
X137000000Y-50000000D01*
X174400000Y-90900000D02*
G75*
G03*
X174400000Y-90900000I-200000J0D01*
G01*
X186000000Y-57300000D02*
G75*
G03*
X186000000Y-57300000I-200000J0D01*
G01*
X186000000Y-87900000D02*
G75*
G03*
X186000000Y-87900000I-200000J0D01*
G01*
X40000000Y-57000000D02*
X40000000Y-63000000D01*
X67000000Y-50000000D02*
X58000000Y-50000000D01*
X186000000Y-60900000D02*
G75*
G03*
X186000000Y-60900000I-200000J0D01*
G01*
X174400000Y-57300000D02*
G75*
G03*
X174400000Y-57300000I-200000J0D01*
G01*
X156000000Y-139000000D02*
X141000000Y-131000000D01*
X174000000Y-97000000D02*
X174000000Y-99000000D01*
X150000000Y-54000000D02*
X168000000Y-54000000D01*
X186000000Y-92100000D02*
G75*
G03*
X186000000Y-92100000I-200000J0D01*
G01*
X186000000Y-87000000D02*
X174000000Y-87000000D01*
X174400000Y-90300000D02*
G75*
G03*
X174400000Y-90300000I-200000J0D01*
G01*
X217000000Y-50000000D02*
X223000000Y-50000000D01*
X174400000Y-89700000D02*
G75*
G03*
X174400000Y-89700000I-200000J0D01*
G01*
X174000000Y-54000000D02*
X174000000Y-57000000D01*
X174400000Y-61500000D02*
G75*
G03*
X174400000Y-61500000I-200000J0D01*
G01*
X40000000Y-97000000D02*
X40000000Y-63000000D01*
X40000000Y-50000000D02*
X58000000Y-50000000D01*
X186000000Y-62700000D02*
G75*
G03*
X186000000Y-62700000I-200000J0D01*
G01*
X174400000Y-92100000D02*
G75*
G03*
X174400000Y-92100000I-200000J0D01*
G01*
X186000000Y-62100000D02*
G75*
G03*
X186000000Y-62100000I-200000J0D01*
G01*
X174000000Y-97000000D02*
X174000000Y-93000000D01*
X293000000Y-50000000D02*
X320000000Y-50000000D01*
X293000000Y-107000000D02*
X320000000Y-107000000D01*
X186000000Y-61500000D02*
G75*
G03*
X186000000Y-61500000I-200000J0D01*
G01*
X141000000Y-131000000D02*
X104000000Y-128000000D01*
X114000000Y-46000000D02*
X132000000Y-46000000D01*
X186000000Y-54000000D02*
X186000000Y-57000000D01*
X186000000Y-58500000D02*
G75*
G03*
X186000000Y-58500000I-200000J0D01*
G01*
X186000000Y-60300000D02*
G75*
G03*
X186000000Y-60300000I-200000J0D01*
G01*
X320000000Y-103000000D02*
X320000000Y-107000000D01*
X287000000Y-50000000D02*
X293000000Y-50000000D01*
X282000000Y-50000000D02*
X287000000Y-50000000D01*
X186000000Y-59100000D02*
G75*
G03*
X186000000Y-59100000I-200000J0D01*
G01*
X174400000Y-59700000D02*
G75*
G03*
X174400000Y-59700000I-200000J0D01*
G01*
X174400000Y-92700000D02*
G75*
G03*
X174400000Y-92700000I-200000J0D01*
G01*
X137000000Y-50000000D02*
X143000000Y-50000000D01*
X96000000Y-46000000D02*
X96000000Y-42000000D01*
X186000000Y-87300000D02*
G75*
G03*
X186000000Y-87300000I-200000J0D01*
G01*
X186000000Y-63000000D02*
X174000000Y-63000000D01*
X174400000Y-60900000D02*
G75*
G03*
X174400000Y-60900000I-200000J0D01*
G01*
X186000000Y-97000000D02*
X186000000Y-93000000D01*
X73000000Y-107000000D02*
X96000000Y-107000000D01*
X78000000Y-50000000D02*
X78000000Y-46000000D01*
X174400000Y-60300000D02*
G75*
G03*
X174400000Y-60300000I-200000J0D01*
G01*
X320000000Y-63000000D02*
X320000000Y-57000000D01*
X171000000Y-54000000D02*
X172000000Y-54000000D01*
X40000000Y-107000000D02*
X67000000Y-107000000D01*
X67000000Y-107000000D02*
X73000000Y-107000000D01*
X186000000Y-91500000D02*
G75*
G03*
X186000000Y-91500000I-200000J0D01*
G01*
X320000000Y-57000000D02*
X320000000Y-50000000D01*
X143000000Y-50000000D02*
X150000000Y-50000000D01*
X264000000Y-107000000D02*
X287000000Y-107000000D01*
X174400000Y-88500000D02*
G75*
G03*
X174400000Y-88500000I-200000J0D01*
G01*
X174400000Y-57900000D02*
G75*
G03*
X174400000Y-57900000I-200000J0D01*
G01*
X78000000Y-46000000D02*
X96000000Y-46000000D01*
X186000000Y-59700000D02*
G75*
G03*
X186000000Y-59700000I-200000J0D01*
G01*
X320000000Y-103000000D02*
X320000000Y-97000000D01*
X174400000Y-87900000D02*
G75*
G03*
X174400000Y-87900000I-200000J0D01*
G01*
X168000000Y-114000000D02*
X156000000Y-139000000D01*
X174400000Y-59100000D02*
G75*
G03*
X174400000Y-59100000I-200000J0D01*
G01*
X174400000Y-87300000D02*
G75*
G03*
X174400000Y-87300000I-200000J0D01*
G01*
X40000000Y-102000000D02*
X40000000Y-107000000D01*
X287000000Y-107000000D02*
X293000000Y-107000000D01*
X186000000Y-89700000D02*
G75*
G03*
X186000000Y-89700000I-200000J0D01*
G01*
X186000000Y-88500000D02*
G75*
G03*
X186000000Y-88500000I-200000J0D01*
G01*
X186000000Y-90300000D02*
G75*
G03*
X186000000Y-90300000I-200000J0D01*
G01*
X174000000Y-93000000D02*
X186000000Y-93000000D01*
X186000000Y-63000000D02*
X186000000Y-87000000D01*
X186000000Y-89100000D02*
G75*
G03*
X186000000Y-89100000I-200000J0D01*
G01*
X114000000Y-42000000D02*
X114000000Y-46000000D01*
X150000000Y-50000000D02*
X150000000Y-54000000D01*
X174400000Y-62700000D02*
G75*
G03*
X174400000Y-62700000I-200000J0D01*
G01*
X174400000Y-62100000D02*
G75*
G03*
X174400000Y-62100000I-200000J0D01*
G01*
X174400000Y-91500000D02*
G75*
G03*
X174400000Y-91500000I-200000J0D01*
G01*
X321666666Y-50000000D02*
G75*
G03*
X321666666Y-50000000I-1666666J0D01*
G01*
X317500000Y-50000000D02*
X322500000Y-50000000D01*
X320000000Y-47500000D02*
X320000000Y-52500000D01*
X41666666Y-50000000D02*
G75*
G03*
X41666666Y-50000000I-1666666J0D01*
G01*
X37500000Y-50000000D02*
X42500000Y-50000000D01*
X40000000Y-47500000D02*
X40000000Y-52500000D01*
M02*
