M48
; DRILL file {KiCad (6.0.9)} date Tue May 23 13:43:04 2023
; FORMAT={-:-/ absolute / inch / decimal}
; #@! TF.CreationDate,2023-05-23T13:43:04-07:00
; #@! TF.GenerationSoftware,Kicad,Pcbnew,(6.0.9)
; #@! TF.FileFunction,Plated,1,2,PTH
FMAT,2
INCH
; #@! TA.AperFunction,Plated,PTH,ViaDrill
T1C0.0079
; #@! TA.AperFunction,Plated,PTH,ViaDrill
T2C0.0157
; #@! TA.AperFunction,Plated,PTH,ComponentDrill
T3C0.0173
; #@! TA.AperFunction,Plated,PTH,ComponentDrill
T4C0.0197
; #@! TA.AperFunction,Plated,PTH,ComponentDrill
T5C0.0531
%
G90
G05
T1
X5.9449Y-2.3856
X6.0315Y-2.4961
X6.1024Y-2.7126
X6.1366Y-2.4126
X6.1496Y-2.378
X6.1575Y-2.4331
X6.1732Y-2.7508
X6.1997Y-2.9607
X6.2008Y-3.063
X6.2126Y-2.7835
X6.2165Y-3.0315
X6.248Y-3.0118
X6.2668Y-2.7783
X6.2705Y-2.9323
X6.3286Y-2.6869
X6.3465Y-3.2047
X6.3543Y-2.7047
X6.378Y-2.7244
X6.424Y-2.6587
X6.4567Y-3.3701
X6.4646Y-3.2795
X6.4843Y-2.5984
X6.487Y-2.8697
X6.498Y-2.6921
X6.5276Y-2.7966
X6.5315Y-2.8622
X6.6063Y-2.7047
X7.622Y-2.8461
X7.6437Y-2.9677
X7.6614Y-2.622
X7.7185Y-2.7618
X7.7244Y-2.8661
X7.7343Y-2.7421
X7.7717Y-2.8689
X7.7756Y-2.9559
X7.7795Y-2.7402
X7.811Y-2.6654
X7.811Y-2.7008
X7.8283Y-2.435
X7.8386Y-3.1126
X7.8504Y-2.6772
X7.874Y-2.622
X7.8898Y-3.0315
X7.8922Y-2.6929
X7.9133Y-3.0215
X7.9134Y-2.6772
X7.9311Y-3.0059
X7.9326Y-2.6614
X7.9409Y-2.7402
X7.9429Y-2.4335
X7.9492Y-3.1059
X7.9811Y-3.1732
X8.0039Y-2.4528
X8.0079Y-3.0787
X8.0394Y-2.5039
X8.0394Y-2.5512
X8.0394Y-2.8031
X8.0551Y-2.8268
X8.0709Y-2.6299
X8.0787Y-2.8504
X8.1201Y-2.8209
X8.121Y-2.7351
X8.1894Y-2.998
X8.252Y-2.9055
T2
X2.126Y-2.6772
X2.126Y-3.4252
X2.126Y-4.1732
X2.5669Y-3.6457
X2.8346Y-2.6772
X2.8346Y-3.2047
X2.8346Y-3.5384
X2.8346Y-4.1732
X3.5394Y-3.0512
X3.5433Y-2.5197
X3.5433Y-3.374
X3.5433Y-4.0157
X4.252Y-2.3622
X4.252Y-3.311
X4.252Y-3.8583
X4.2598Y-2.8071
X4.5669Y-4.7244
X4.8157Y-4.1394
X4.9606Y-2.5197
X4.9606Y-3.4646
X4.9606Y-4.0157
X4.9724Y-3.0276
X5.3543Y-4.8031
X5.3717Y-3.6228
X5.4449Y-2.7126
X5.5559Y-3.5945
X5.6693Y-2.6378
X5.6693Y-3.2047
X5.6693Y-3.5787
X5.6693Y-4.1339
X5.7146Y-4.3744
X5.811Y-2.7283
X5.8657Y-4.1815
X5.878Y-2.9685
X5.9449Y-2.2787
X5.9768Y-2.6382
X6.063Y-3.0
X6.0709Y-3.4695
X6.122Y-3.4409
X6.185Y-2.5866
X6.2992Y-4.685
X6.378Y-3.3071
X6.4173Y-3.0709
X6.437Y-3.1102
X6.4567Y-3.1496
X6.4764Y-2.4213
X6.5394Y-2.9528
X6.5394Y-3.0
X6.5394Y-3.0512
X6.5587Y-3.3047
X6.6181Y-2.7874
X6.689Y-2.6614
X6.763Y-2.7811
X7.4437Y-2.7965
X7.4488Y-3.6063
X7.5837Y-2.9931
X7.698Y-2.4559
X7.7898Y-3.4232
X7.811Y-3.0236
X7.8898Y-3.0787
X7.9291Y-2.5354
X7.9606Y-2.4016
X7.9716Y-2.57
X7.9966Y-2.6378
X8.1335Y-3.5768
X8.189Y-5.1181
X8.2043Y-2.3949
X8.4646Y-3.378
X8.5197Y-3.4173
X8.5748Y-3.4567
X8.6299Y-3.5039
X8.7756Y-3.122
X8.7795Y-2.6142
X8.7795Y-3.5827
X8.7795Y-4.1732
X8.8886Y-2.413
X8.9969Y-3.1516
X9.2126Y-5.0
X9.2327Y-3.4339
X9.4843Y-2.9882
X9.4882Y-2.4803
X9.4882Y-3.3425
X9.4882Y-4.0157
X9.6106Y-4.1354
X9.8819Y-4.9606
X10.1969Y-2.3228
X10.1969Y-3.0551
X10.1969Y-3.2677
X10.1969Y-3.8583
X10.9055Y-2.4803
X10.9055Y-3.4055
X10.9055Y-3.9764
X10.9094Y-2.9882
X11.6535Y-2.6378
X11.6535Y-3.1378
X11.6535Y-3.5709
X11.6535Y-4.1339
X12.3617Y-3.3549
X12.3617Y-4.1338
X12.3622Y-2.6378
T3
X6.1417Y-2.2047
X6.1673Y-2.2441
X6.1929Y-2.2047
X6.2185Y-2.2441
X6.2441Y-2.2047
X7.9331Y-2.2
X7.9587Y-2.2394
X7.9843Y-2.2
X8.0098Y-2.2394
X8.0354Y-2.2
T4
X6.5748Y-2.2441
X6.5748Y-2.2835
X6.6142Y-2.2441
X6.6142Y-2.2835
X6.6535Y-2.2441
X6.6535Y-2.2835
X6.6929Y-2.2441
X6.6929Y-2.2835
X6.7323Y-2.2441
X6.7323Y-2.2835
X7.3937Y-2.2126
X7.3937Y-2.252
X7.4331Y-2.2126
X7.4331Y-2.252
X7.4724Y-2.2126
X7.4724Y-2.252
X7.5118Y-2.2126
X7.5118Y-2.252
X7.5512Y-2.2126
X7.5512Y-2.252
T5
X6.0522Y-2.2134
X6.3337Y-2.2134
X7.8435Y-2.2087
X8.125Y-2.2087
T0
M30
