%TF.GenerationSoftware,KiCad,Pcbnew,(6.0.9)*%
%TF.CreationDate,2023-05-23T13:43:03-07:00*%
%TF.ProjectId,Keycad_fun,4b657963-6164-45f6-9675-6e2e6b696361,rev?*%
%TF.SameCoordinates,Original*%
%TF.FileFunction,Paste,Top*%
%TF.FilePolarity,Positive*%
%FSLAX46Y46*%
G04 Gerber Fmt 4.6, Leading zero omitted, Abs format (unit mm)*
G04 Created by KiCad (PCBNEW (6.0.9)) date 2023-05-23 13:43:03*
%MOMM*%
%LPD*%
G01*
G04 APERTURE LIST*
G04 Aperture macros list*
%AMRoundRect*
0 Rectangle with rounded corners*
0 $1 Rounding radius*
0 $2 $3 $4 $5 $6 $7 $8 $9 X,Y pos of 4 corners*
0 Add a 4 corners polygon primitive as box body*
4,1,4,$2,$3,$4,$5,$6,$7,$8,$9,$2,$3,0*
0 Add four circle primitives for the rounded corners*
1,1,$1+$1,$2,$3*
1,1,$1+$1,$4,$5*
1,1,$1+$1,$6,$7*
1,1,$1+$1,$8,$9*
0 Add four rect primitives between the rounded corners*
20,1,$1+$1,$2,$3,$4,$5,0*
20,1,$1+$1,$4,$5,$6,$7,0*
20,1,$1+$1,$6,$7,$8,$9,0*
20,1,$1+$1,$8,$9,$2,$3,0*%
%AMRotRect*
0 Rectangle, with rotation*
0 The origin of the aperture is its center*
0 $1 length*
0 $2 width*
0 $3 Rotation angle, in degrees counterclockwise*
0 Add horizontal line*
21,1,$1,$2,0,0,$3*%
G04 Aperture macros list end*
%ADD10RotRect,2.600000X5.560000X65.000000*%
%ADD11RotRect,2.600000X5.560000X295.000000*%
%ADD12RoundRect,0.225000X0.250000X-0.225000X0.250000X0.225000X-0.250000X0.225000X-0.250000X-0.225000X0*%
%ADD13RoundRect,0.079500X-0.079500X-0.100500X0.079500X-0.100500X0.079500X0.100500X-0.079500X0.100500X0*%
%ADD14RoundRect,0.079500X0.079500X0.100500X-0.079500X0.100500X-0.079500X-0.100500X0.079500X-0.100500X0*%
%ADD15RoundRect,0.225000X0.225000X0.250000X-0.225000X0.250000X-0.225000X-0.250000X0.225000X-0.250000X0*%
%ADD16RoundRect,0.140000X0.140000X0.170000X-0.140000X0.170000X-0.140000X-0.170000X0.140000X-0.170000X0*%
%ADD17RoundRect,0.079500X0.100500X-0.079500X0.100500X0.079500X-0.100500X0.079500X-0.100500X-0.079500X0*%
%ADD18RoundRect,0.140000X-0.140000X-0.170000X0.140000X-0.170000X0.140000X0.170000X-0.140000X0.170000X0*%
%ADD19RoundRect,0.225000X-0.225000X-0.250000X0.225000X-0.250000X0.225000X0.250000X-0.225000X0.250000X0*%
%ADD20RoundRect,0.079500X-0.100500X0.079500X-0.100500X-0.079500X0.100500X-0.079500X0.100500X0.079500X0*%
%ADD21R,0.700000X1.000000*%
%ADD22R,0.700000X0.600000*%
%ADD23RoundRect,0.218750X0.218750X0.256250X-0.218750X0.256250X-0.218750X-0.256250X0.218750X-0.256250X0*%
%ADD24RoundRect,0.147500X0.147500X0.172500X-0.147500X0.172500X-0.147500X-0.172500X0.147500X-0.172500X0*%
%ADD25RoundRect,0.218750X-0.218750X-0.256250X0.218750X-0.256250X0.218750X0.256250X-0.218750X0.256250X0*%
%ADD26RoundRect,0.147500X-0.147500X-0.172500X0.147500X-0.172500X0.147500X0.172500X-0.147500X0.172500X0*%
%ADD27R,1.100000X1.500000*%
%ADD28R,1.500000X1.100000*%
%ADD29R,1.000000X1.550000*%
%ADD30R,2.000000X2.000000*%
%ADD31C,0.250000*%
%ADD32R,0.800000X0.900000*%
%ADD33R,1.100000X0.600000*%
%ADD34R,0.900000X0.800000*%
G04 APERTURE END LIST*
D10*
%TO.C,BT1*%
X154968730Y-110589594D03*
X165031270Y-89010406D03*
%TD*%
D11*
%TO.C,BT2*%
X204031270Y-113789594D03*
X193968730Y-92210406D03*
%TD*%
D12*
%TO.C,C0*%
X159500000Y-64275000D03*
X159500000Y-62725000D03*
%TD*%
D13*
%TO.C,C1*%
X164155000Y-67500000D03*
X164845000Y-67500000D03*
%TD*%
D14*
%TO.C,C2*%
X164345000Y-81000000D03*
X163655000Y-81000000D03*
%TD*%
D13*
%TO.C,C3*%
X162525000Y-80000000D03*
X161835000Y-80000000D03*
%TD*%
D15*
%TO.C,C4*%
X155600000Y-74900000D03*
X154050000Y-74900000D03*
%TD*%
D16*
%TO.C,C5*%
X154000000Y-68500000D03*
X153040000Y-68500000D03*
%TD*%
D13*
%TO.C,C6*%
X156535000Y-69170000D03*
X157225000Y-69170000D03*
%TD*%
D14*
%TO.C,C7*%
X166655000Y-73500000D03*
X167345000Y-73500000D03*
%TD*%
D13*
%TO.C,C8*%
X162345000Y-67500000D03*
X161655000Y-67500000D03*
%TD*%
D14*
%TO.C,C9*%
X166655000Y-70000000D03*
X167345000Y-70000000D03*
%TD*%
D15*
%TO.C,C10*%
X162775000Y-85000000D03*
X161225000Y-85000000D03*
%TD*%
D12*
%TO.C,C11*%
X161000000Y-64275000D03*
X161000000Y-62725000D03*
%TD*%
D17*
%TO.C,C12*%
X162500000Y-64345000D03*
X162500000Y-63655000D03*
%TD*%
D13*
%TO.C,C13*%
X153345000Y-70000000D03*
X152655000Y-70000000D03*
%TD*%
%TO.C,C14*%
X153345000Y-71000000D03*
X152655000Y-71000000D03*
%TD*%
D17*
%TO.C,C15*%
X169500000Y-71155000D03*
X169500000Y-71845000D03*
%TD*%
%TO.C,C16*%
X166560000Y-71895000D03*
X166560000Y-71205000D03*
%TD*%
D13*
%TO.C,C17*%
X171655000Y-68000000D03*
X172345000Y-68000000D03*
%TD*%
%TO.C,C18*%
X168000000Y-67500000D03*
X167310000Y-67500000D03*
%TD*%
%TO.C,C19*%
X167345000Y-63500000D03*
X166655000Y-63500000D03*
%TD*%
D18*
%TO.C,C20*%
X157020000Y-60500000D03*
X157980000Y-60500000D03*
%TD*%
D13*
%TO.C,C21*%
X157155000Y-59000000D03*
X157845000Y-59000000D03*
%TD*%
D19*
%TO.C,C22*%
X204825000Y-77800000D03*
X206375000Y-77800000D03*
%TD*%
D14*
%TO.C,C23*%
X193655000Y-70000000D03*
X194345000Y-70000000D03*
%TD*%
%TO.C,C24*%
X195055000Y-67200000D03*
X195745000Y-67200000D03*
%TD*%
%TO.C,C25*%
X199945000Y-67400000D03*
X199255000Y-67400000D03*
%TD*%
D12*
%TO.C,C26*%
X197400000Y-66175000D03*
X197400000Y-64625000D03*
%TD*%
D18*
%TO.C,C27*%
X209120000Y-67200000D03*
X210080000Y-67200000D03*
%TD*%
D14*
%TO.C,C28*%
X206545000Y-75900000D03*
X205855000Y-75900000D03*
%TD*%
D13*
%TO.C,C29*%
X193655000Y-71000000D03*
X194345000Y-71000000D03*
%TD*%
D14*
%TO.C,C30*%
X200745000Y-79000000D03*
X200055000Y-79000000D03*
%TD*%
D13*
%TO.C,C31*%
X195745000Y-75000000D03*
X195055000Y-75000000D03*
%TD*%
D15*
%TO.C,C32*%
X200975000Y-65600000D03*
X199425000Y-65600000D03*
%TD*%
D19*
%TO.C,C33*%
X192625000Y-80200000D03*
X194175000Y-80200000D03*
%TD*%
D13*
%TO.C,C34*%
X193745000Y-81600000D03*
X193055000Y-81600000D03*
%TD*%
D14*
%TO.C,C35*%
X208055000Y-74600000D03*
X208745000Y-74600000D03*
%TD*%
%TO.C,C36*%
X208745000Y-73400000D03*
X208055000Y-73400000D03*
%TD*%
D17*
%TO.C,C37*%
X192600000Y-73445000D03*
X192600000Y-72755000D03*
%TD*%
D20*
%TO.C,C38*%
X195180000Y-73240000D03*
X195180000Y-73930000D03*
%TD*%
D14*
%TO.C,C39*%
X187855000Y-68400000D03*
X188545000Y-68400000D03*
%TD*%
D13*
%TO.C,C40*%
X195655000Y-79300000D03*
X196345000Y-79300000D03*
%TD*%
D20*
%TO.C,C41*%
X198200000Y-78345000D03*
X198200000Y-77655000D03*
%TD*%
D18*
%TO.C,C42*%
X200120000Y-62600000D03*
X201080000Y-62600000D03*
%TD*%
D13*
%TO.C,C43*%
X200175000Y-61300000D03*
X200865000Y-61300000D03*
%TD*%
D21*
%TO.C,D43*%
X203900000Y-59120000D03*
D22*
X203900000Y-60820000D03*
X205900000Y-60820000D03*
X205900000Y-58920000D03*
%TD*%
D21*
%TO.C,D46*%
X155000000Y-61750000D03*
D22*
X155000000Y-60050000D03*
X153000000Y-60050000D03*
X153000000Y-61950000D03*
%TD*%
D23*
%TO.C,L1*%
X161887500Y-82600000D03*
X160312500Y-82600000D03*
%TD*%
%TO.C,L2*%
X161287500Y-66000000D03*
X159712500Y-66000000D03*
%TD*%
D24*
%TO.C,L3*%
X164000000Y-66000000D03*
X163030000Y-66000000D03*
%TD*%
D14*
%TO.C,L4*%
X168345000Y-72000000D03*
X167655000Y-72000000D03*
%TD*%
D25*
%TO.C,L5*%
X207012500Y-68600000D03*
X208587500Y-68600000D03*
%TD*%
%TO.C,L6*%
X197812500Y-80300000D03*
X199387500Y-80300000D03*
%TD*%
D26*
%TO.C,L7*%
X195515000Y-80300000D03*
X196485000Y-80300000D03*
%TD*%
D13*
%TO.C,L8*%
X193555000Y-73445000D03*
X194245000Y-73445000D03*
%TD*%
D27*
%TO.C,LED1*%
X154300000Y-81100000D03*
X154300000Y-78100000D03*
X155800000Y-78100000D03*
X155800000Y-81100000D03*
%TD*%
D28*
%TO.C,LED2*%
X207300000Y-64250000D03*
X210300000Y-64250000D03*
X210300000Y-65750000D03*
X207300000Y-65750000D03*
%TD*%
D14*
%TO.C,R1*%
X153335000Y-67000000D03*
X154025000Y-67000000D03*
%TD*%
D13*
%TO.C,R2*%
X169345000Y-69000000D03*
X168655000Y-69000000D03*
%TD*%
D14*
%TO.C,R3*%
X152395000Y-76600000D03*
X151705000Y-76600000D03*
%TD*%
%TO.C,R4*%
X151705000Y-78600000D03*
X152395000Y-78600000D03*
%TD*%
%TO.C,R5*%
X151705000Y-80600000D03*
X152395000Y-80600000D03*
%TD*%
D17*
%TO.C,R6*%
X200200000Y-64345000D03*
X200200000Y-63655000D03*
%TD*%
D14*
%TO.C,R7*%
X204855000Y-66000000D03*
X205545000Y-66000000D03*
%TD*%
%TO.C,R8*%
X204855000Y-64800000D03*
X205545000Y-64800000D03*
%TD*%
%TO.C,R9*%
X204855000Y-63600000D03*
X205545000Y-63600000D03*
%TD*%
D20*
%TO.C,R10*%
X189400000Y-59055000D03*
X189400000Y-59745000D03*
%TD*%
D29*
%TO.C,SW43*%
X172850000Y-60475000D03*
X172850000Y-65725000D03*
X171150000Y-65725000D03*
X171150000Y-60475000D03*
%TD*%
%TO.C,SW44*%
X187350000Y-61375000D03*
X187350000Y-66625000D03*
X189050000Y-66625000D03*
X189050000Y-61375000D03*
%TD*%
D30*
%TO.C,U1*%
X163212500Y-74212500D03*
X163212500Y-71787500D03*
X160787500Y-74212500D03*
X160787500Y-71787500D03*
D31*
X160750000Y-69750000D03*
X161250000Y-69750000D03*
X161750000Y-69750000D03*
X162250000Y-69750000D03*
X162750000Y-69750000D03*
X163250000Y-69750000D03*
X163750000Y-69750000D03*
X164250000Y-69750000D03*
X164750000Y-69750000D03*
X165250000Y-75250000D03*
X159250000Y-75500000D03*
X160000000Y-75750000D03*
X161000000Y-75750000D03*
X161500000Y-75750000D03*
X162000000Y-75750000D03*
X162500000Y-75750000D03*
X163000000Y-75750000D03*
X163500000Y-75750000D03*
X164000000Y-75750000D03*
X165250000Y-75750000D03*
X159250000Y-76250000D03*
X159750000Y-76250000D03*
X160250000Y-76250000D03*
X160750000Y-76250000D03*
X161250000Y-76250000D03*
X161750000Y-76250000D03*
X162250000Y-76250000D03*
X162750000Y-76250000D03*
X163250000Y-76250000D03*
X163750000Y-76250000D03*
X164250000Y-76250000D03*
X164750000Y-76250000D03*
X158750000Y-70250000D03*
X159500000Y-70250000D03*
X160000000Y-70250000D03*
X160500000Y-70250000D03*
X161000000Y-70250000D03*
X161500000Y-70250000D03*
X162000000Y-70250000D03*
X162500000Y-70250000D03*
X163000000Y-70250000D03*
X163500000Y-70250000D03*
X165250000Y-70250000D03*
X158750000Y-70750000D03*
X159250000Y-71000000D03*
X164750000Y-71000000D03*
X165250000Y-71250000D03*
X159250000Y-71500000D03*
X164750000Y-71500000D03*
X158750000Y-71750000D03*
X159250000Y-72000000D03*
X164750000Y-72000000D03*
X158750000Y-72250000D03*
X165250000Y-72250000D03*
X159250000Y-72500000D03*
X158750000Y-72750000D03*
X165250000Y-72750000D03*
X159250000Y-73000000D03*
X158750000Y-73250000D03*
X165250000Y-73250000D03*
X159250000Y-73500000D03*
X164750000Y-73500000D03*
X158750000Y-73750000D03*
X165250000Y-73750000D03*
X159250000Y-74000000D03*
X164750000Y-74000000D03*
X158750000Y-74250000D03*
X165250000Y-74250000D03*
X164750000Y-74500000D03*
X158750000Y-74750000D03*
X165250000Y-74750000D03*
X159250000Y-75000000D03*
X164750000Y-75000000D03*
%TD*%
D30*
%TO.C,U2*%
X201412500Y-73612500D03*
X198987500Y-73612500D03*
X201412500Y-71187500D03*
X198987500Y-71187500D03*
D31*
X201450000Y-75650000D03*
X200950000Y-75650000D03*
X200450000Y-75650000D03*
X199950000Y-75650000D03*
X199450000Y-75650000D03*
X198950000Y-75650000D03*
X198450000Y-75650000D03*
X197950000Y-75650000D03*
X197450000Y-75650000D03*
X196950000Y-70150000D03*
X202950000Y-69900000D03*
X202200000Y-69650000D03*
X201200000Y-69650000D03*
X200700000Y-69650000D03*
X200200000Y-69650000D03*
X199700000Y-69650000D03*
X199200000Y-69650000D03*
X198700000Y-69650000D03*
X198200000Y-69650000D03*
X196950000Y-69650000D03*
X202950000Y-69150000D03*
X202450000Y-69150000D03*
X201950000Y-69150000D03*
X201450000Y-69150000D03*
X200950000Y-69150000D03*
X200450000Y-69150000D03*
X199950000Y-69150000D03*
X199450000Y-69150000D03*
X198950000Y-69150000D03*
X198450000Y-69150000D03*
X197950000Y-69150000D03*
X197450000Y-69150000D03*
X203450000Y-75150000D03*
X202700000Y-75150000D03*
X202200000Y-75150000D03*
X201700000Y-75150000D03*
X201200000Y-75150000D03*
X200700000Y-75150000D03*
X200200000Y-75150000D03*
X199700000Y-75150000D03*
X199200000Y-75150000D03*
X198700000Y-75150000D03*
X196950000Y-75150000D03*
X203450000Y-74650000D03*
X202950000Y-74400000D03*
X197450000Y-74400000D03*
X196950000Y-74150000D03*
X202950000Y-73900000D03*
X197450000Y-73900000D03*
X203450000Y-73650000D03*
X202950000Y-73400000D03*
X197450000Y-73400000D03*
X203450000Y-73150000D03*
X196950000Y-73150000D03*
X202950000Y-72900000D03*
X203450000Y-72650000D03*
X196950000Y-72650000D03*
X202950000Y-72400000D03*
X203450000Y-72150000D03*
X196950000Y-72150000D03*
X202950000Y-71900000D03*
X197450000Y-71900000D03*
X203450000Y-71650000D03*
X196950000Y-71650000D03*
X202950000Y-71400000D03*
X197450000Y-71400000D03*
X203450000Y-71150000D03*
X196950000Y-71150000D03*
X197450000Y-70900000D03*
X203450000Y-70650000D03*
X196950000Y-70650000D03*
X202950000Y-70400000D03*
X197450000Y-70400000D03*
%TD*%
D32*
%TO.C,X1*%
X167350000Y-66150000D03*
X167350000Y-64750000D03*
X166250000Y-64750000D03*
X166250000Y-66150000D03*
%TD*%
D33*
%TO.C,X2*%
X155000000Y-69800000D03*
X155000000Y-71200000D03*
%TD*%
%TO.C,X3*%
X206601000Y-74700000D03*
X206601000Y-73300000D03*
%TD*%
D34*
%TO.C,X4*%
X195700000Y-78150000D03*
X197100000Y-78150000D03*
X197100000Y-77050000D03*
X195700000Y-77050000D03*
%TD*%
M02*
