M48
; DRILL file {KiCad (6.0.9)} date Tue May 23 13:43:04 2023
; FORMAT={-:-/ absolute / inch / decimal}
; #@! TF.CreationDate,2023-05-23T13:43:04-07:00
; #@! TF.GenerationSoftware,Kicad,Pcbnew,(6.0.9)
; #@! TF.FileFunction,NonPlated,1,2,NPTH
FMAT,2
INCH
; #@! TA.AperFunction,NonPlated,NPTH,ComponentDrill
T1C0.0630
; #@! TA.AperFunction,NonPlated,NPTH,ComponentDrill
T2C0.0748
; #@! TA.AperFunction,NonPlated,NPTH,ComponentDrill
T3C0.1201
; #@! TA.AperFunction,NonPlated,NPTH,ComponentDrill
T4C0.1988
%
G90
G05
T1
X2.2047Y-2.1201
X2.2047Y-2.8681
X2.2047Y-3.6161
X2.9134Y-2.1201
X2.9134Y-2.8681
X2.9134Y-3.6161
X3.622Y-1.9626
X3.622Y-2.7106
X3.622Y-3.4587
X4.3307Y-1.8051
X4.3307Y-2.5531
X4.3307Y-3.3012
X4.6063Y-4.3559
X5.0394Y-1.9626
X5.0394Y-2.7106
X5.0394Y-3.4587
X5.4259Y-4.4802
X5.748Y-2.1201
X5.748Y-2.8681
X5.748Y-3.5768
X5.9231Y-4.5784
X8.459Y-5.0046
X8.8583Y-2.0807
X8.8583Y-2.8287
X8.8583Y-3.5768
X9.135Y-4.4118
X9.5669Y-1.9232
X9.5669Y-2.6713
X9.5669Y-3.4193
X9.9606Y-4.3642
X10.2756Y-1.7657
X10.2756Y-2.5138
X10.2756Y-3.2618
X10.9843Y-1.9232
X10.9843Y-2.6713
X10.9843Y-3.4193
X11.7323Y-2.0807
X11.7323Y-2.8287
X11.7323Y-3.5768
X12.4409Y-2.0807
X12.4409Y-2.8287
X12.4409Y-3.5768
T2
X1.7913Y-2.3228
X1.7913Y-3.0709
X1.7913Y-3.8189
X2.2244Y-2.3228
X2.2244Y-3.0709
X2.2244Y-3.8189
X2.5Y-2.3228
X2.5Y-3.0709
X2.5Y-3.8189
X2.9331Y-2.3228
X2.9331Y-3.0709
X2.9331Y-3.8189
X3.2087Y-2.1654
X3.2087Y-2.9134
X3.2087Y-3.6614
X3.6417Y-2.1654
X3.6417Y-2.9134
X3.6417Y-3.6614
X3.9173Y-2.0079
X3.9173Y-2.7559
X3.9173Y-3.5039
X4.1929Y-4.5587
X4.3504Y-2.0079
X4.3504Y-2.7559
X4.3504Y-3.5039
X4.626Y-2.1654
X4.626Y-2.9134
X4.626Y-3.6614
X4.626Y-4.5587
X4.9836Y-4.6081
X5.0591Y-2.1654
X5.0591Y-2.9134
X5.0591Y-3.6614
X5.3346Y-2.3228
X5.3346Y-3.0709
X5.3346Y-3.7795
X5.4101Y-4.6833
X5.7677Y-2.3228
X5.7677Y-3.0709
X5.7677Y-3.7795
X5.9321Y-5.0388
X6.1151Y-4.6463
X8.0907Y-4.7283
X8.2873Y-5.1142
X8.4449Y-2.2835
X8.4449Y-3.0315
X8.4449Y-3.7795
X8.7631Y-4.6833
X8.878Y-2.2835
X8.878Y-3.0315
X8.878Y-3.7795
X9.1535Y-2.126
X9.1535Y-2.874
X9.1535Y-3.622
X9.1896Y-4.6081
X9.5472Y-4.5669
X9.5866Y-2.126
X9.5866Y-2.874
X9.5866Y-3.622
X9.8622Y-1.9685
X9.8622Y-2.7165
X9.8622Y-3.4646
X9.9803Y-4.5669
X10.2953Y-1.9685
X10.2953Y-2.7165
X10.2953Y-3.4646
X10.5709Y-2.126
X10.5709Y-2.874
X10.5709Y-3.622
X11.0039Y-2.126
X11.0039Y-2.874
X11.0039Y-3.622
X11.3189Y-2.2835
X11.3189Y-3.0315
X11.3189Y-3.7795
X11.752Y-2.2835
X11.752Y-3.0315
X11.752Y-3.7795
X12.0276Y-2.2835
X12.0276Y-3.0315
X12.0276Y-3.7795
X12.4606Y-2.2835
X12.4606Y-3.0315
X12.4606Y-3.7795
T3
X1.811Y-2.4724
X1.811Y-3.2205
X1.811Y-3.9685
X2.0079Y-2.5551
X2.0079Y-3.3031
X2.0079Y-4.0512
X2.5197Y-2.4724
X2.5197Y-3.2205
X2.5197Y-3.9685
X2.7165Y-2.5551
X2.7165Y-3.3031
X2.7165Y-4.0512
X3.2283Y-2.315
X3.2283Y-3.063
X3.2283Y-3.811
X3.4252Y-2.3976
X3.4252Y-3.1457
X3.4252Y-3.8937
X3.937Y-2.1575
X3.937Y-2.9055
X3.937Y-3.6535
X4.1339Y-2.2402
X4.1339Y-2.9882
X4.1339Y-3.7362
X4.2126Y-4.7083
X4.4094Y-4.7909
X4.6457Y-2.315
X4.6457Y-3.063
X4.6457Y-3.811
X4.8425Y-2.3976
X4.8425Y-3.1457
X4.8425Y-3.8937
X4.977Y-4.7588
X5.1565Y-4.8744
X5.3543Y-2.4724
X5.3543Y-3.2205
X5.3543Y-3.9291
X5.5512Y-2.5551
X5.5512Y-3.3031
X5.5512Y-4.0118
X6.076Y-5.0842
X6.2341Y-4.9407
X7.9663Y-4.8138
X7.982Y-5.0267
X8.4646Y-2.4331
X8.4646Y-3.1811
X8.4646Y-3.9291
X8.6614Y-2.5157
X8.6614Y-3.2638
X8.6614Y-4.0118
X8.8085Y-4.8272
X9.0167Y-4.8744
X9.1732Y-2.2756
X9.1732Y-3.0236
X9.1732Y-3.7717
X9.3701Y-2.3583
X9.3701Y-3.1063
X9.3701Y-3.8543
X9.5669Y-4.7165
X9.7638Y-4.7992
X9.8819Y-2.1181
X9.8819Y-2.8661
X9.8819Y-3.6142
X10.0787Y-2.2008
X10.0787Y-2.9488
X10.0787Y-3.6969
X10.5906Y-2.2756
X10.5906Y-3.0236
X10.5906Y-3.7717
X10.7874Y-2.3583
X10.7874Y-3.1063
X10.7874Y-3.8543
X11.3386Y-2.4331
X11.3386Y-3.1811
X11.3386Y-3.9291
X11.5354Y-2.5157
X11.5354Y-3.2638
X11.5354Y-4.0118
X12.0472Y-2.4331
X12.0472Y-3.1811
X12.0472Y-3.9291
X12.2441Y-2.5157
X12.2441Y-3.2638
X12.2441Y-4.0118
T4
X2.0079Y-2.3228
X2.0079Y-3.0709
X2.0079Y-3.8189
X2.7165Y-2.3228
X2.7165Y-3.0709
X2.7165Y-3.8189
X3.4252Y-2.1654
X3.4252Y-2.9134
X3.4252Y-3.6614
X4.1339Y-2.0079
X4.1339Y-2.7559
X4.1339Y-3.5039
X4.4094Y-4.5587
X4.8425Y-2.1654
X4.8425Y-2.9134
X4.8425Y-3.6614
X5.1969Y-4.6457
X5.5512Y-2.3228
X5.5512Y-3.0709
X5.5512Y-3.7795
X6.0236Y-4.8425
X8.189Y-4.9213
X8.6614Y-2.2835
X8.6614Y-3.0315
X8.6614Y-3.7795
X8.9764Y-4.6457
X9.3701Y-2.126
X9.3701Y-2.874
X9.3701Y-3.622
X9.7638Y-4.5669
X10.0787Y-1.9685
X10.0787Y-2.7165
X10.0787Y-3.4646
X10.7874Y-2.126
X10.7874Y-2.874
X10.7874Y-3.622
X11.5354Y-2.2835
X11.5354Y-3.0315
X11.5354Y-3.7795
X12.2441Y-2.2835
X12.2441Y-3.0315
X12.2441Y-3.7795
T0
M30
